G75*
G70*
%OFA0B0*%
%FSLAX24Y24*%
%IPPOS*%
%LPD*%
%AMOC8*
5,1,8,0,0,1.08239X$1,22.5*
%
%ADD10C,0.0700*%
%ADD11OC8,0.1300*%
%ADD12C,0.1300*%
%ADD13C,0.1060*%
%ADD14OC8,0.1060*%
%ADD15OC8,0.0630*%
%ADD16C,0.0630*%
%ADD17C,0.0820*%
%ADD18C,0.1310*%
%ADD19C,0.0660*%
%ADD20C,0.0733*%
%ADD21C,0.0590*%
%ADD22C,0.0630*%
%ADD23OC8,0.0700*%
%ADD24OC8,0.0760*%
%ADD25R,0.0760X0.0760*%
%ADD26C,0.0800*%
%ADD27R,0.0800X0.0800*%
%ADD28C,0.1470*%
%ADD29R,0.0860X0.0860*%
%ADD30C,0.0860*%
%ADD31C,0.0510*%
D10*
X021180Y003110D02*
X021180Y003750D01*
X021930Y004610D02*
X021930Y005250D01*
X023430Y005250D02*
X023430Y004610D01*
X022680Y003750D02*
X022680Y003110D01*
X024180Y003110D02*
X024180Y003750D01*
D11*
X007180Y004680D03*
X006680Y021180D03*
D12*
X003680Y021180D03*
X010180Y004680D03*
D13*
X006680Y010180D03*
X004680Y026930D03*
X009180Y030180D03*
D14*
X009180Y032180D03*
X002680Y026930D03*
X004680Y010180D03*
D15*
X009680Y010180D03*
X009680Y009180D03*
X015680Y013180D03*
X015680Y018180D03*
X015680Y022180D03*
X015680Y027180D03*
X022180Y023680D03*
X022180Y020680D03*
X023180Y017180D03*
X023180Y014180D03*
X032180Y009430D03*
X032180Y008180D03*
X032180Y006930D03*
X032180Y005680D03*
X032180Y004180D03*
X033080Y002430D03*
X035180Y004180D03*
X035180Y005680D03*
X036180Y006430D03*
X035180Y006930D03*
X035180Y008180D03*
X035180Y009430D03*
X035180Y010930D03*
X034180Y010930D03*
X037180Y013680D03*
X038680Y013680D03*
X038680Y012680D03*
X037180Y016680D03*
X037180Y020680D03*
X037180Y023680D03*
X037180Y030180D03*
X037180Y033180D03*
X005680Y016180D03*
X005680Y014180D03*
X002680Y014180D03*
X037330Y008180D03*
X039180Y006430D03*
X037330Y004180D03*
D16*
X036530Y004180D03*
X032280Y002430D03*
X036530Y008180D03*
X002680Y016180D03*
D17*
X013180Y011680D03*
X017180Y013180D03*
X017180Y017180D03*
X017180Y022180D03*
X017180Y026180D03*
X013180Y007680D03*
X013180Y006680D03*
X013180Y002680D03*
D18*
X017680Y007180D03*
X027680Y007180D03*
D19*
X006673Y025341D02*
X006073Y025341D01*
X006073Y026680D02*
X006673Y026680D01*
X007608Y026011D02*
X008208Y026011D01*
X008208Y027349D02*
X007608Y027349D01*
X006673Y028019D02*
X006073Y028019D01*
D20*
X005180Y029180D03*
X008180Y029180D03*
D21*
X005664Y031915D02*
X005664Y032445D01*
X003696Y032445D02*
X003696Y031915D01*
D22*
X018610Y026680D02*
X019180Y026680D01*
X019180Y025680D02*
X018610Y025680D01*
X018610Y024680D02*
X019180Y024680D01*
X022180Y024680D02*
X022750Y024680D01*
X022750Y025680D02*
X022180Y025680D01*
X022180Y026680D02*
X022750Y026680D01*
X022250Y017180D02*
X021680Y017180D01*
X021680Y016180D02*
X022250Y016180D01*
X022250Y015180D02*
X021680Y015180D01*
X018680Y015180D02*
X018110Y015180D01*
X018110Y016180D02*
X018680Y016180D01*
X018680Y017180D02*
X018110Y017180D01*
D23*
X020180Y020180D03*
X011180Y020180D03*
X011180Y029180D03*
X020180Y029180D03*
D24*
X038681Y028690D03*
X038681Y027690D03*
X038681Y026690D03*
X038683Y025671D03*
X038683Y024671D03*
X038683Y023671D03*
X038683Y022671D03*
X038683Y021671D03*
X038683Y020671D03*
X038683Y019671D03*
X038683Y018671D03*
X038683Y017671D03*
X038683Y016671D03*
X041171Y013176D03*
X041171Y012176D03*
X041171Y011176D03*
X041171Y010176D03*
X041171Y009176D03*
X041171Y008176D03*
X041171Y007176D03*
X041171Y006176D03*
X041171Y005176D03*
X041171Y004176D03*
X052175Y004176D03*
X052175Y005176D03*
X052175Y006176D03*
X052175Y007176D03*
X052175Y008176D03*
X052175Y009176D03*
X052175Y010176D03*
X052175Y011176D03*
X052175Y012176D03*
X052175Y013176D03*
X044683Y016671D03*
X044683Y017671D03*
X044683Y018671D03*
X044683Y019671D03*
X044683Y020671D03*
X044683Y021671D03*
X044683Y022671D03*
X044683Y023671D03*
X044683Y024671D03*
X044683Y025671D03*
X044681Y026690D03*
X044681Y027690D03*
X044681Y028690D03*
X044681Y029690D03*
X044681Y030690D03*
X044681Y031690D03*
X044681Y032690D03*
X044681Y033690D03*
X044681Y034690D03*
X044681Y035690D03*
X046680Y033680D03*
X046680Y032680D03*
X046680Y031680D03*
X046680Y030680D03*
X046680Y029680D03*
X046680Y028680D03*
X046680Y027680D03*
X038681Y029690D03*
X038681Y030690D03*
X038681Y031690D03*
X038681Y032690D03*
X038681Y033690D03*
X038681Y034690D03*
D25*
X038681Y035690D03*
D26*
X035664Y031684D03*
X035664Y030684D03*
X035664Y029684D03*
X035664Y028684D03*
X035664Y027684D03*
X035664Y026684D03*
X035664Y025684D03*
X035664Y024684D03*
X035664Y023684D03*
X035664Y022684D03*
X035664Y021684D03*
X035664Y020684D03*
X035664Y019684D03*
X035664Y018684D03*
X035664Y017684D03*
X035664Y016684D03*
X024672Y016681D03*
X024672Y017681D03*
X024672Y018681D03*
X024672Y019681D03*
X024672Y020681D03*
X024672Y021681D03*
X024672Y022681D03*
X024672Y023681D03*
X024672Y024681D03*
X024672Y025681D03*
X024672Y026681D03*
X024672Y027681D03*
X024672Y028681D03*
X024672Y029681D03*
X024672Y030681D03*
X024672Y031681D03*
X021960Y031790D03*
X019400Y031790D03*
X019400Y033570D03*
X021960Y033570D03*
D27*
X024672Y032681D03*
X035664Y032684D03*
D28*
X022680Y036180D03*
X002680Y036180D03*
X022680Y011680D03*
X002680Y008180D03*
X054180Y002680D03*
X054180Y019180D03*
X054180Y036180D03*
D29*
X012680Y023680D03*
X008180Y016180D03*
X012680Y014180D03*
X003180Y004680D03*
D30*
X003180Y002711D03*
X008180Y014211D03*
X012680Y016149D03*
X012680Y025649D03*
D31*
X034180Y017180D03*
X034180Y014180D03*
X050180Y016680D03*
X050680Y017680D03*
X051180Y018680D03*
M02*
