G75*
G70*
%OFA0B0*%
%FSLAX24Y24*%
%IPPOS*%
%LPD*%
%AMOC8*
5,1,8,0,0,1.08239X$1,22.5*
%
%ADD10C,0.0000*%
%ADD11C,0.0640*%
%ADD12OC8,0.1240*%
%ADD13C,0.1240*%
%ADD14C,0.1000*%
%ADD15OC8,0.1000*%
%ADD16OC8,0.0570*%
%ADD17C,0.0570*%
%ADD18C,0.0760*%
%ADD19C,0.0600*%
%ADD20C,0.0673*%
%ADD21C,0.0530*%
%ADD22C,0.0570*%
%ADD23OC8,0.0640*%
%ADD24OC8,0.0700*%
%ADD25R,0.0700X0.0700*%
%ADD26C,0.0740*%
%ADD27R,0.0740X0.0740*%
%ADD28R,0.0800X0.0800*%
%ADD29C,0.0800*%
%ADD30C,0.0160*%
%ADD31C,0.0500*%
%ADD32C,0.0660*%
%ADD33C,0.0240*%
%ADD34C,0.0200*%
%ADD35C,0.0100*%
%ADD36C,0.0080*%
%ADD37C,0.0450*%
%ADD38C,0.0120*%
D10*
X000680Y000680D02*
X000680Y038180D01*
X056180Y038180D01*
X056180Y000680D01*
X056172Y000680D01*
X056172Y038050D01*
X053475Y036180D02*
X053477Y036233D01*
X053483Y036285D01*
X053493Y036337D01*
X053506Y036388D01*
X053524Y036438D01*
X053545Y036486D01*
X053569Y036533D01*
X053598Y036577D01*
X053629Y036620D01*
X053663Y036660D01*
X053700Y036697D01*
X053740Y036731D01*
X053783Y036762D01*
X053828Y036791D01*
X053874Y036815D01*
X053922Y036836D01*
X053972Y036854D01*
X054023Y036867D01*
X054075Y036877D01*
X054127Y036883D01*
X054180Y036885D01*
X054233Y036883D01*
X054285Y036877D01*
X054337Y036867D01*
X054388Y036854D01*
X054438Y036836D01*
X054486Y036815D01*
X054533Y036791D01*
X054577Y036762D01*
X054620Y036731D01*
X054660Y036697D01*
X054697Y036660D01*
X054731Y036620D01*
X054762Y036577D01*
X054791Y036532D01*
X054815Y036486D01*
X054836Y036438D01*
X054854Y036388D01*
X054867Y036337D01*
X054877Y036285D01*
X054883Y036233D01*
X054885Y036180D01*
X054883Y036127D01*
X054877Y036075D01*
X054867Y036023D01*
X054854Y035972D01*
X054836Y035922D01*
X054815Y035874D01*
X054791Y035827D01*
X054762Y035783D01*
X054731Y035740D01*
X054697Y035700D01*
X054660Y035663D01*
X054620Y035629D01*
X054577Y035598D01*
X054532Y035569D01*
X054486Y035545D01*
X054438Y035524D01*
X054388Y035506D01*
X054337Y035493D01*
X054285Y035483D01*
X054233Y035477D01*
X054180Y035475D01*
X054127Y035477D01*
X054075Y035483D01*
X054023Y035493D01*
X053972Y035506D01*
X053922Y035524D01*
X053874Y035545D01*
X053827Y035569D01*
X053783Y035598D01*
X053740Y035629D01*
X053700Y035663D01*
X053663Y035700D01*
X053629Y035740D01*
X053598Y035783D01*
X053569Y035828D01*
X053545Y035874D01*
X053524Y035922D01*
X053506Y035972D01*
X053493Y036023D01*
X053483Y036075D01*
X053477Y036127D01*
X053475Y036180D01*
X053475Y019180D02*
X053477Y019233D01*
X053483Y019285D01*
X053493Y019337D01*
X053506Y019388D01*
X053524Y019438D01*
X053545Y019486D01*
X053569Y019533D01*
X053598Y019577D01*
X053629Y019620D01*
X053663Y019660D01*
X053700Y019697D01*
X053740Y019731D01*
X053783Y019762D01*
X053828Y019791D01*
X053874Y019815D01*
X053922Y019836D01*
X053972Y019854D01*
X054023Y019867D01*
X054075Y019877D01*
X054127Y019883D01*
X054180Y019885D01*
X054233Y019883D01*
X054285Y019877D01*
X054337Y019867D01*
X054388Y019854D01*
X054438Y019836D01*
X054486Y019815D01*
X054533Y019791D01*
X054577Y019762D01*
X054620Y019731D01*
X054660Y019697D01*
X054697Y019660D01*
X054731Y019620D01*
X054762Y019577D01*
X054791Y019532D01*
X054815Y019486D01*
X054836Y019438D01*
X054854Y019388D01*
X054867Y019337D01*
X054877Y019285D01*
X054883Y019233D01*
X054885Y019180D01*
X054883Y019127D01*
X054877Y019075D01*
X054867Y019023D01*
X054854Y018972D01*
X054836Y018922D01*
X054815Y018874D01*
X054791Y018827D01*
X054762Y018783D01*
X054731Y018740D01*
X054697Y018700D01*
X054660Y018663D01*
X054620Y018629D01*
X054577Y018598D01*
X054532Y018569D01*
X054486Y018545D01*
X054438Y018524D01*
X054388Y018506D01*
X054337Y018493D01*
X054285Y018483D01*
X054233Y018477D01*
X054180Y018475D01*
X054127Y018477D01*
X054075Y018483D01*
X054023Y018493D01*
X053972Y018506D01*
X053922Y018524D01*
X053874Y018545D01*
X053827Y018569D01*
X053783Y018598D01*
X053740Y018629D01*
X053700Y018663D01*
X053663Y018700D01*
X053629Y018740D01*
X053598Y018783D01*
X053569Y018828D01*
X053545Y018874D01*
X053524Y018922D01*
X053506Y018972D01*
X053493Y019023D01*
X053483Y019075D01*
X053477Y019127D01*
X053475Y019180D01*
X053475Y002680D02*
X053477Y002733D01*
X053483Y002785D01*
X053493Y002837D01*
X053506Y002888D01*
X053524Y002938D01*
X053545Y002986D01*
X053569Y003033D01*
X053598Y003077D01*
X053629Y003120D01*
X053663Y003160D01*
X053700Y003197D01*
X053740Y003231D01*
X053783Y003262D01*
X053828Y003291D01*
X053874Y003315D01*
X053922Y003336D01*
X053972Y003354D01*
X054023Y003367D01*
X054075Y003377D01*
X054127Y003383D01*
X054180Y003385D01*
X054233Y003383D01*
X054285Y003377D01*
X054337Y003367D01*
X054388Y003354D01*
X054438Y003336D01*
X054486Y003315D01*
X054533Y003291D01*
X054577Y003262D01*
X054620Y003231D01*
X054660Y003197D01*
X054697Y003160D01*
X054731Y003120D01*
X054762Y003077D01*
X054791Y003032D01*
X054815Y002986D01*
X054836Y002938D01*
X054854Y002888D01*
X054867Y002837D01*
X054877Y002785D01*
X054883Y002733D01*
X054885Y002680D01*
X054883Y002627D01*
X054877Y002575D01*
X054867Y002523D01*
X054854Y002472D01*
X054836Y002422D01*
X054815Y002374D01*
X054791Y002327D01*
X054762Y002283D01*
X054731Y002240D01*
X054697Y002200D01*
X054660Y002163D01*
X054620Y002129D01*
X054577Y002098D01*
X054532Y002069D01*
X054486Y002045D01*
X054438Y002024D01*
X054388Y002006D01*
X054337Y001993D01*
X054285Y001983D01*
X054233Y001977D01*
X054180Y001975D01*
X054127Y001977D01*
X054075Y001983D01*
X054023Y001993D01*
X053972Y002006D01*
X053922Y002024D01*
X053874Y002045D01*
X053827Y002069D01*
X053783Y002098D01*
X053740Y002129D01*
X053700Y002163D01*
X053663Y002200D01*
X053629Y002240D01*
X053598Y002283D01*
X053569Y002328D01*
X053545Y002374D01*
X053524Y002422D01*
X053506Y002472D01*
X053493Y002523D01*
X053483Y002575D01*
X053477Y002627D01*
X053475Y002680D01*
X056172Y000680D02*
X000680Y000680D01*
X001975Y008180D02*
X001977Y008233D01*
X001983Y008285D01*
X001993Y008337D01*
X002006Y008388D01*
X002024Y008438D01*
X002045Y008486D01*
X002069Y008533D01*
X002098Y008577D01*
X002129Y008620D01*
X002163Y008660D01*
X002200Y008697D01*
X002240Y008731D01*
X002283Y008762D01*
X002328Y008791D01*
X002374Y008815D01*
X002422Y008836D01*
X002472Y008854D01*
X002523Y008867D01*
X002575Y008877D01*
X002627Y008883D01*
X002680Y008885D01*
X002733Y008883D01*
X002785Y008877D01*
X002837Y008867D01*
X002888Y008854D01*
X002938Y008836D01*
X002986Y008815D01*
X003033Y008791D01*
X003077Y008762D01*
X003120Y008731D01*
X003160Y008697D01*
X003197Y008660D01*
X003231Y008620D01*
X003262Y008577D01*
X003291Y008532D01*
X003315Y008486D01*
X003336Y008438D01*
X003354Y008388D01*
X003367Y008337D01*
X003377Y008285D01*
X003383Y008233D01*
X003385Y008180D01*
X003383Y008127D01*
X003377Y008075D01*
X003367Y008023D01*
X003354Y007972D01*
X003336Y007922D01*
X003315Y007874D01*
X003291Y007827D01*
X003262Y007783D01*
X003231Y007740D01*
X003197Y007700D01*
X003160Y007663D01*
X003120Y007629D01*
X003077Y007598D01*
X003032Y007569D01*
X002986Y007545D01*
X002938Y007524D01*
X002888Y007506D01*
X002837Y007493D01*
X002785Y007483D01*
X002733Y007477D01*
X002680Y007475D01*
X002627Y007477D01*
X002575Y007483D01*
X002523Y007493D01*
X002472Y007506D01*
X002422Y007524D01*
X002374Y007545D01*
X002327Y007569D01*
X002283Y007598D01*
X002240Y007629D01*
X002200Y007663D01*
X002163Y007700D01*
X002129Y007740D01*
X002098Y007783D01*
X002069Y007828D01*
X002045Y007874D01*
X002024Y007922D01*
X002006Y007972D01*
X001993Y008023D01*
X001983Y008075D01*
X001977Y008127D01*
X001975Y008180D01*
X017055Y007180D02*
X017057Y007230D01*
X017063Y007279D01*
X017073Y007328D01*
X017086Y007375D01*
X017104Y007422D01*
X017125Y007467D01*
X017149Y007510D01*
X017177Y007551D01*
X017208Y007590D01*
X017242Y007626D01*
X017279Y007660D01*
X017319Y007690D01*
X017360Y007717D01*
X017404Y007741D01*
X017449Y007761D01*
X017496Y007777D01*
X017544Y007790D01*
X017593Y007799D01*
X017643Y007804D01*
X017692Y007805D01*
X017742Y007802D01*
X017791Y007795D01*
X017840Y007784D01*
X017887Y007770D01*
X017933Y007751D01*
X017978Y007729D01*
X018021Y007704D01*
X018061Y007675D01*
X018099Y007643D01*
X018135Y007609D01*
X018168Y007571D01*
X018197Y007531D01*
X018223Y007489D01*
X018246Y007445D01*
X018265Y007399D01*
X018281Y007352D01*
X018293Y007303D01*
X018301Y007254D01*
X018305Y007205D01*
X018305Y007155D01*
X018301Y007106D01*
X018293Y007057D01*
X018281Y007008D01*
X018265Y006961D01*
X018246Y006915D01*
X018223Y006871D01*
X018197Y006829D01*
X018168Y006789D01*
X018135Y006751D01*
X018099Y006717D01*
X018061Y006685D01*
X018021Y006656D01*
X017978Y006631D01*
X017933Y006609D01*
X017887Y006590D01*
X017840Y006576D01*
X017791Y006565D01*
X017742Y006558D01*
X017692Y006555D01*
X017643Y006556D01*
X017593Y006561D01*
X017544Y006570D01*
X017496Y006583D01*
X017449Y006599D01*
X017404Y006619D01*
X017360Y006643D01*
X017319Y006670D01*
X017279Y006700D01*
X017242Y006734D01*
X017208Y006770D01*
X017177Y006809D01*
X017149Y006850D01*
X017125Y006893D01*
X017104Y006938D01*
X017086Y006985D01*
X017073Y007032D01*
X017063Y007081D01*
X017057Y007130D01*
X017055Y007180D01*
X021975Y011680D02*
X021977Y011733D01*
X021983Y011785D01*
X021993Y011837D01*
X022006Y011888D01*
X022024Y011938D01*
X022045Y011986D01*
X022069Y012033D01*
X022098Y012077D01*
X022129Y012120D01*
X022163Y012160D01*
X022200Y012197D01*
X022240Y012231D01*
X022283Y012262D01*
X022328Y012291D01*
X022374Y012315D01*
X022422Y012336D01*
X022472Y012354D01*
X022523Y012367D01*
X022575Y012377D01*
X022627Y012383D01*
X022680Y012385D01*
X022733Y012383D01*
X022785Y012377D01*
X022837Y012367D01*
X022888Y012354D01*
X022938Y012336D01*
X022986Y012315D01*
X023033Y012291D01*
X023077Y012262D01*
X023120Y012231D01*
X023160Y012197D01*
X023197Y012160D01*
X023231Y012120D01*
X023262Y012077D01*
X023291Y012032D01*
X023315Y011986D01*
X023336Y011938D01*
X023354Y011888D01*
X023367Y011837D01*
X023377Y011785D01*
X023383Y011733D01*
X023385Y011680D01*
X023383Y011627D01*
X023377Y011575D01*
X023367Y011523D01*
X023354Y011472D01*
X023336Y011422D01*
X023315Y011374D01*
X023291Y011327D01*
X023262Y011283D01*
X023231Y011240D01*
X023197Y011200D01*
X023160Y011163D01*
X023120Y011129D01*
X023077Y011098D01*
X023032Y011069D01*
X022986Y011045D01*
X022938Y011024D01*
X022888Y011006D01*
X022837Y010993D01*
X022785Y010983D01*
X022733Y010977D01*
X022680Y010975D01*
X022627Y010977D01*
X022575Y010983D01*
X022523Y010993D01*
X022472Y011006D01*
X022422Y011024D01*
X022374Y011045D01*
X022327Y011069D01*
X022283Y011098D01*
X022240Y011129D01*
X022200Y011163D01*
X022163Y011200D01*
X022129Y011240D01*
X022098Y011283D01*
X022069Y011328D01*
X022045Y011374D01*
X022024Y011422D01*
X022006Y011472D01*
X021993Y011523D01*
X021983Y011575D01*
X021977Y011627D01*
X021975Y011680D01*
X027055Y007180D02*
X027057Y007230D01*
X027063Y007279D01*
X027073Y007328D01*
X027086Y007375D01*
X027104Y007422D01*
X027125Y007467D01*
X027149Y007510D01*
X027177Y007551D01*
X027208Y007590D01*
X027242Y007626D01*
X027279Y007660D01*
X027319Y007690D01*
X027360Y007717D01*
X027404Y007741D01*
X027449Y007761D01*
X027496Y007777D01*
X027544Y007790D01*
X027593Y007799D01*
X027643Y007804D01*
X027692Y007805D01*
X027742Y007802D01*
X027791Y007795D01*
X027840Y007784D01*
X027887Y007770D01*
X027933Y007751D01*
X027978Y007729D01*
X028021Y007704D01*
X028061Y007675D01*
X028099Y007643D01*
X028135Y007609D01*
X028168Y007571D01*
X028197Y007531D01*
X028223Y007489D01*
X028246Y007445D01*
X028265Y007399D01*
X028281Y007352D01*
X028293Y007303D01*
X028301Y007254D01*
X028305Y007205D01*
X028305Y007155D01*
X028301Y007106D01*
X028293Y007057D01*
X028281Y007008D01*
X028265Y006961D01*
X028246Y006915D01*
X028223Y006871D01*
X028197Y006829D01*
X028168Y006789D01*
X028135Y006751D01*
X028099Y006717D01*
X028061Y006685D01*
X028021Y006656D01*
X027978Y006631D01*
X027933Y006609D01*
X027887Y006590D01*
X027840Y006576D01*
X027791Y006565D01*
X027742Y006558D01*
X027692Y006555D01*
X027643Y006556D01*
X027593Y006561D01*
X027544Y006570D01*
X027496Y006583D01*
X027449Y006599D01*
X027404Y006619D01*
X027360Y006643D01*
X027319Y006670D01*
X027279Y006700D01*
X027242Y006734D01*
X027208Y006770D01*
X027177Y006809D01*
X027149Y006850D01*
X027125Y006893D01*
X027104Y006938D01*
X027086Y006985D01*
X027073Y007032D01*
X027063Y007081D01*
X027057Y007130D01*
X027055Y007180D01*
X021975Y036180D02*
X021977Y036233D01*
X021983Y036285D01*
X021993Y036337D01*
X022006Y036388D01*
X022024Y036438D01*
X022045Y036486D01*
X022069Y036533D01*
X022098Y036577D01*
X022129Y036620D01*
X022163Y036660D01*
X022200Y036697D01*
X022240Y036731D01*
X022283Y036762D01*
X022328Y036791D01*
X022374Y036815D01*
X022422Y036836D01*
X022472Y036854D01*
X022523Y036867D01*
X022575Y036877D01*
X022627Y036883D01*
X022680Y036885D01*
X022733Y036883D01*
X022785Y036877D01*
X022837Y036867D01*
X022888Y036854D01*
X022938Y036836D01*
X022986Y036815D01*
X023033Y036791D01*
X023077Y036762D01*
X023120Y036731D01*
X023160Y036697D01*
X023197Y036660D01*
X023231Y036620D01*
X023262Y036577D01*
X023291Y036532D01*
X023315Y036486D01*
X023336Y036438D01*
X023354Y036388D01*
X023367Y036337D01*
X023377Y036285D01*
X023383Y036233D01*
X023385Y036180D01*
X023383Y036127D01*
X023377Y036075D01*
X023367Y036023D01*
X023354Y035972D01*
X023336Y035922D01*
X023315Y035874D01*
X023291Y035827D01*
X023262Y035783D01*
X023231Y035740D01*
X023197Y035700D01*
X023160Y035663D01*
X023120Y035629D01*
X023077Y035598D01*
X023032Y035569D01*
X022986Y035545D01*
X022938Y035524D01*
X022888Y035506D01*
X022837Y035493D01*
X022785Y035483D01*
X022733Y035477D01*
X022680Y035475D01*
X022627Y035477D01*
X022575Y035483D01*
X022523Y035493D01*
X022472Y035506D01*
X022422Y035524D01*
X022374Y035545D01*
X022327Y035569D01*
X022283Y035598D01*
X022240Y035629D01*
X022200Y035663D01*
X022163Y035700D01*
X022129Y035740D01*
X022098Y035783D01*
X022069Y035828D01*
X022045Y035874D01*
X022024Y035922D01*
X022006Y035972D01*
X021993Y036023D01*
X021983Y036075D01*
X021977Y036127D01*
X021975Y036180D01*
X001975Y036180D02*
X001977Y036233D01*
X001983Y036285D01*
X001993Y036337D01*
X002006Y036388D01*
X002024Y036438D01*
X002045Y036486D01*
X002069Y036533D01*
X002098Y036577D01*
X002129Y036620D01*
X002163Y036660D01*
X002200Y036697D01*
X002240Y036731D01*
X002283Y036762D01*
X002328Y036791D01*
X002374Y036815D01*
X002422Y036836D01*
X002472Y036854D01*
X002523Y036867D01*
X002575Y036877D01*
X002627Y036883D01*
X002680Y036885D01*
X002733Y036883D01*
X002785Y036877D01*
X002837Y036867D01*
X002888Y036854D01*
X002938Y036836D01*
X002986Y036815D01*
X003033Y036791D01*
X003077Y036762D01*
X003120Y036731D01*
X003160Y036697D01*
X003197Y036660D01*
X003231Y036620D01*
X003262Y036577D01*
X003291Y036532D01*
X003315Y036486D01*
X003336Y036438D01*
X003354Y036388D01*
X003367Y036337D01*
X003377Y036285D01*
X003383Y036233D01*
X003385Y036180D01*
X003383Y036127D01*
X003377Y036075D01*
X003367Y036023D01*
X003354Y035972D01*
X003336Y035922D01*
X003315Y035874D01*
X003291Y035827D01*
X003262Y035783D01*
X003231Y035740D01*
X003197Y035700D01*
X003160Y035663D01*
X003120Y035629D01*
X003077Y035598D01*
X003032Y035569D01*
X002986Y035545D01*
X002938Y035524D01*
X002888Y035506D01*
X002837Y035493D01*
X002785Y035483D01*
X002733Y035477D01*
X002680Y035475D01*
X002627Y035477D01*
X002575Y035483D01*
X002523Y035493D01*
X002472Y035506D01*
X002422Y035524D01*
X002374Y035545D01*
X002327Y035569D01*
X002283Y035598D01*
X002240Y035629D01*
X002200Y035663D01*
X002163Y035700D01*
X002129Y035740D01*
X002098Y035783D01*
X002069Y035828D01*
X002045Y035874D01*
X002024Y035922D01*
X002006Y035972D01*
X001993Y036023D01*
X001983Y036075D01*
X001977Y036127D01*
X001975Y036180D01*
D11*
X021930Y005250D02*
X021930Y004610D01*
X021180Y003750D02*
X021180Y003110D01*
X022680Y003110D02*
X022680Y003750D01*
X023430Y004610D02*
X023430Y005250D01*
X024180Y003750D02*
X024180Y003110D01*
D12*
X007180Y004680D03*
X006680Y021180D03*
D13*
X003680Y021180D03*
X010180Y004680D03*
D14*
X006680Y010180D03*
X004680Y026930D03*
X009180Y030180D03*
D15*
X009180Y032180D03*
X002680Y026930D03*
X004680Y010180D03*
D16*
X009680Y010180D03*
X009680Y009180D03*
X015680Y013180D03*
X015680Y018180D03*
X015680Y022180D03*
X015680Y027180D03*
X022180Y023680D03*
X022180Y020680D03*
X023180Y017180D03*
X023180Y014180D03*
X032180Y009430D03*
X032180Y008180D03*
X032180Y006930D03*
X032180Y005680D03*
X032180Y004180D03*
X033080Y002430D03*
X035180Y004180D03*
X035180Y005680D03*
X036180Y006430D03*
X035180Y006930D03*
X035180Y008180D03*
X035180Y009430D03*
X035180Y010930D03*
X034180Y010930D03*
X037180Y013680D03*
X038680Y013680D03*
X038680Y012680D03*
X037180Y016680D03*
X037180Y020680D03*
X037180Y023680D03*
X037180Y030180D03*
X037180Y033180D03*
X005680Y016180D03*
X005680Y014180D03*
X002680Y014180D03*
X037330Y008180D03*
X039180Y006430D03*
X037330Y004180D03*
D17*
X036530Y004180D03*
X032280Y002430D03*
X036530Y008180D03*
X002680Y016180D03*
D18*
X013180Y011680D03*
X017180Y013180D03*
X017180Y017180D03*
X017180Y022180D03*
X017180Y026180D03*
X013180Y007680D03*
X013180Y006680D03*
X013180Y002680D03*
D19*
X006673Y025341D02*
X006073Y025341D01*
X006073Y026680D02*
X006673Y026680D01*
X007608Y026011D02*
X008208Y026011D01*
X008208Y027349D02*
X007608Y027349D01*
X006673Y028019D02*
X006073Y028019D01*
D20*
X005180Y029180D03*
X008180Y029180D03*
D21*
X005664Y031915D02*
X005664Y032445D01*
X003696Y032445D02*
X003696Y031915D01*
D22*
X018610Y026680D02*
X019180Y026680D01*
X019180Y025680D02*
X018610Y025680D01*
X018610Y024680D02*
X019180Y024680D01*
X022180Y024680D02*
X022750Y024680D01*
X022750Y025680D02*
X022180Y025680D01*
X022180Y026680D02*
X022750Y026680D01*
X022250Y017180D02*
X021680Y017180D01*
X021680Y016180D02*
X022250Y016180D01*
X022250Y015180D02*
X021680Y015180D01*
X018680Y015180D02*
X018110Y015180D01*
X018110Y016180D02*
X018680Y016180D01*
X018680Y017180D02*
X018110Y017180D01*
D23*
X020180Y020180D03*
X011180Y020180D03*
X011180Y029180D03*
X020180Y029180D03*
D24*
X038681Y028690D03*
X038681Y027690D03*
X038681Y026690D03*
X038683Y025671D03*
X038683Y024671D03*
X038683Y023671D03*
X038683Y022671D03*
X038683Y021671D03*
X038683Y020671D03*
X038683Y019671D03*
X038683Y018671D03*
X038683Y017671D03*
X038683Y016671D03*
X041171Y013176D03*
X041171Y012176D03*
X041171Y011176D03*
X041171Y010176D03*
X041171Y009176D03*
X041171Y008176D03*
X041171Y007176D03*
X041171Y006176D03*
X041171Y005176D03*
X041171Y004176D03*
X052175Y004176D03*
X052175Y005176D03*
X052175Y006176D03*
X052175Y007176D03*
X052175Y008176D03*
X052175Y009176D03*
X052175Y010176D03*
X052175Y011176D03*
X052175Y012176D03*
X052175Y013176D03*
X044683Y016671D03*
X044683Y017671D03*
X044683Y018671D03*
X044683Y019671D03*
X044683Y020671D03*
X044683Y021671D03*
X044683Y022671D03*
X044683Y023671D03*
X044683Y024671D03*
X044683Y025671D03*
X044681Y026690D03*
X044681Y027690D03*
X044681Y028690D03*
X044681Y029690D03*
X044681Y030690D03*
X044681Y031690D03*
X044681Y032690D03*
X044681Y033690D03*
X044681Y034690D03*
X044681Y035690D03*
X046680Y033680D03*
X046680Y032680D03*
X046680Y031680D03*
X046680Y030680D03*
X046680Y029680D03*
X046680Y028680D03*
X046680Y027680D03*
X038681Y029690D03*
X038681Y030690D03*
X038681Y031690D03*
X038681Y032690D03*
X038681Y033690D03*
X038681Y034690D03*
D25*
X038681Y035690D03*
D26*
X035664Y031684D03*
X035664Y030684D03*
X035664Y029684D03*
X035664Y028684D03*
X035664Y027684D03*
X035664Y026684D03*
X035664Y025684D03*
X035664Y024684D03*
X035664Y023684D03*
X035664Y022684D03*
X035664Y021684D03*
X035664Y020684D03*
X035664Y019684D03*
X035664Y018684D03*
X035664Y017684D03*
X035664Y016684D03*
X024672Y016681D03*
X024672Y017681D03*
X024672Y018681D03*
X024672Y019681D03*
X024672Y020681D03*
X024672Y021681D03*
X024672Y022681D03*
X024672Y023681D03*
X024672Y024681D03*
X024672Y025681D03*
X024672Y026681D03*
X024672Y027681D03*
X024672Y028681D03*
X024672Y029681D03*
X024672Y030681D03*
X024672Y031681D03*
X021960Y031790D03*
X019400Y031790D03*
X019400Y033570D03*
X021960Y033570D03*
D27*
X024672Y032681D03*
X035664Y032684D03*
D28*
X012680Y023680D03*
X008180Y016180D03*
X012680Y014180D03*
X003180Y004680D03*
D29*
X003180Y002711D03*
X008180Y014211D03*
X012680Y016149D03*
X012680Y025649D03*
D30*
X012149Y025882D02*
X011610Y025882D01*
X011610Y026040D02*
X012250Y026040D01*
X012250Y026039D02*
X012188Y025977D01*
X012100Y025764D01*
X012100Y025533D01*
X012188Y025320D01*
X012351Y025157D01*
X012565Y025069D01*
X012795Y025069D01*
X013009Y025157D01*
X013070Y025219D01*
X013533Y025219D01*
X015250Y023502D01*
X015250Y022408D01*
X015215Y022373D01*
X015215Y021987D01*
X015487Y021715D01*
X015873Y021715D01*
X016145Y021987D01*
X016145Y022373D01*
X016110Y022408D01*
X016110Y023766D01*
X016045Y023924D01*
X015924Y024045D01*
X013955Y026013D01*
X013797Y026079D01*
X013110Y026079D01*
X013110Y026502D01*
X015358Y028750D01*
X019903Y028750D01*
X019973Y028680D01*
X020387Y028680D01*
X020680Y028973D01*
X020680Y029387D01*
X020397Y029670D01*
X021469Y029670D01*
X021670Y029469D01*
X021670Y027190D01*
X021079Y027190D01*
X020891Y027112D01*
X020391Y026612D01*
X020248Y026469D01*
X020170Y026281D01*
X020170Y022298D01*
X020045Y022424D01*
X019924Y022545D01*
X019766Y022610D01*
X017610Y022610D01*
X017610Y024502D01*
X018358Y025250D01*
X018433Y025250D01*
X018518Y025215D01*
X019272Y025215D01*
X019443Y025286D01*
X019574Y025417D01*
X019645Y025588D01*
X019645Y025772D01*
X019574Y025943D01*
X019443Y026074D01*
X019272Y026145D01*
X018518Y026145D01*
X018433Y026110D01*
X018094Y026110D01*
X017936Y026045D01*
X016936Y025045D01*
X016815Y024924D01*
X016750Y024766D01*
X016750Y022542D01*
X016705Y022497D01*
X016620Y022291D01*
X016620Y022228D01*
X016002Y021610D01*
X013858Y021610D01*
X013110Y022358D01*
X013110Y023100D01*
X013155Y023100D01*
X013260Y023205D01*
X013260Y024155D01*
X013155Y024260D01*
X012205Y024260D01*
X012100Y024155D01*
X012100Y023205D01*
X012205Y023100D01*
X012250Y023100D01*
X012250Y022094D01*
X012315Y021936D01*
X013315Y020936D01*
X013436Y020815D01*
X013594Y020750D01*
X016266Y020750D01*
X016424Y020815D01*
X017228Y021620D01*
X017291Y021620D01*
X017497Y021705D01*
X017542Y021750D01*
X019502Y021750D01*
X020750Y020502D01*
X020750Y019858D01*
X019315Y018424D01*
X019250Y018266D01*
X019250Y016610D01*
X018857Y016610D01*
X018772Y016645D01*
X018018Y016645D01*
X017847Y016574D01*
X017716Y016443D01*
X017645Y016272D01*
X017645Y016088D01*
X017716Y015917D01*
X017847Y015786D01*
X018018Y015715D01*
X018772Y015715D01*
X018857Y015750D01*
X019250Y015750D01*
X019250Y014858D01*
X018002Y013610D01*
X017542Y013610D01*
X017497Y013655D01*
X017291Y013740D01*
X017069Y013740D01*
X016863Y013655D01*
X016705Y013497D01*
X016620Y013291D01*
X016620Y013228D01*
X016002Y012610D01*
X015358Y012610D01*
X013424Y014545D01*
X013266Y014610D01*
X013260Y014610D01*
X013260Y014655D01*
X013155Y014760D01*
X012205Y014760D01*
X012100Y014655D01*
X012100Y014641D01*
X008570Y014641D01*
X008509Y014703D01*
X008295Y014791D01*
X008065Y014791D01*
X007851Y014703D01*
X007758Y014610D01*
X005908Y014610D01*
X005873Y014645D01*
X005487Y014645D01*
X005215Y014373D01*
X005215Y013987D01*
X005487Y013715D01*
X005873Y013715D01*
X005908Y013750D01*
X007821Y013750D01*
X007851Y013720D01*
X008065Y013631D01*
X008295Y013631D01*
X008509Y013720D01*
X008570Y013781D01*
X012100Y013781D01*
X012100Y013705D01*
X012205Y013600D01*
X013152Y013600D01*
X014642Y012110D01*
X013542Y012110D01*
X013497Y012155D01*
X013291Y012240D01*
X013069Y012240D01*
X012863Y012155D01*
X012705Y011997D01*
X012620Y011791D01*
X012620Y011728D01*
X011502Y010610D01*
X009908Y010610D01*
X009873Y010645D01*
X009487Y010645D01*
X009452Y010610D01*
X007212Y010610D01*
X007065Y010756D01*
X006815Y010860D01*
X006608Y010860D01*
X004610Y012858D01*
X004610Y014766D01*
X004545Y014924D01*
X004424Y015045D01*
X003110Y016358D01*
X003110Y020002D01*
X003498Y020390D01*
X003521Y020380D01*
X003839Y020380D01*
X004133Y020502D01*
X004358Y020727D01*
X004480Y021021D01*
X004480Y021339D01*
X004470Y021362D01*
X005045Y021936D01*
X005110Y022094D01*
X005110Y026398D01*
X005256Y026545D01*
X005360Y026795D01*
X005360Y027002D01*
X005920Y027562D01*
X005977Y027539D01*
X006768Y027539D01*
X006945Y027612D01*
X007080Y027747D01*
X007153Y027923D01*
X007153Y028114D01*
X007080Y028290D01*
X006945Y028426D01*
X006768Y028499D01*
X005977Y028499D01*
X005857Y028449D01*
X005683Y028449D01*
X005525Y028383D01*
X004752Y027610D01*
X004545Y027610D01*
X004295Y027506D01*
X004104Y027315D01*
X004000Y027065D01*
X004000Y026795D01*
X004104Y026545D01*
X004250Y026398D01*
X004250Y022358D01*
X003862Y021970D01*
X003839Y021980D01*
X003521Y021980D01*
X003227Y021858D01*
X003002Y021633D01*
X002880Y021339D01*
X002880Y021021D01*
X002890Y020998D01*
X002315Y020424D01*
X002250Y020266D01*
X002250Y016357D01*
X002215Y016272D01*
X002215Y016088D01*
X002286Y015917D01*
X002417Y015786D01*
X002501Y015751D01*
X003750Y014502D01*
X003750Y012594D01*
X003815Y012436D01*
X006000Y010252D01*
X006000Y010045D01*
X006104Y009795D01*
X006295Y009604D01*
X006545Y009500D01*
X006815Y009500D01*
X007065Y009604D01*
X007212Y009750D01*
X009452Y009750D01*
X009487Y009715D01*
X009873Y009715D01*
X009908Y009750D01*
X011766Y009750D01*
X011924Y009815D01*
X013228Y011120D01*
X013291Y011120D01*
X013497Y011205D01*
X013542Y011250D01*
X014502Y011250D01*
X015815Y009936D01*
X015936Y009815D01*
X016094Y009750D01*
X021502Y009750D01*
X021642Y009610D01*
X014594Y009610D01*
X014436Y009545D01*
X013132Y008240D01*
X013069Y008240D01*
X012863Y008155D01*
X012705Y007997D01*
X012620Y007791D01*
X012620Y007569D01*
X012705Y007363D01*
X012750Y007318D01*
X012750Y007110D01*
X011594Y007110D01*
X011436Y007045D01*
X011315Y006924D01*
X009815Y005424D01*
X009801Y005389D01*
X009727Y005358D01*
X009502Y005133D01*
X009380Y004839D01*
X009380Y004521D01*
X009502Y004227D01*
X009727Y004002D01*
X010021Y003880D01*
X010339Y003880D01*
X010633Y004002D01*
X010858Y004227D01*
X010980Y004521D01*
X010980Y004839D01*
X010858Y005133D01*
X010800Y005192D01*
X011858Y006250D01*
X012818Y006250D01*
X012863Y006205D01*
X013069Y006120D01*
X013291Y006120D01*
X013497Y006205D01*
X013655Y006363D01*
X013740Y006569D01*
X013740Y006791D01*
X013655Y006997D01*
X013610Y007042D01*
X013610Y007318D01*
X013655Y007363D01*
X013740Y007569D01*
X013740Y007632D01*
X014858Y008750D01*
X021502Y008750D01*
X023000Y007252D01*
X023000Y005518D01*
X022930Y005349D01*
X022930Y004511D01*
X023006Y004327D01*
X023147Y004186D01*
X023170Y004176D01*
X023170Y003852D01*
X023168Y003867D01*
X023143Y003942D01*
X023108Y004012D01*
X023061Y004076D01*
X023006Y004131D01*
X022942Y004178D01*
X022872Y004213D01*
X022797Y004238D01*
X022719Y004250D01*
X022700Y004250D01*
X022700Y003450D01*
X022660Y003450D01*
X022660Y004250D01*
X022641Y004250D01*
X022563Y004238D01*
X022488Y004213D01*
X022418Y004178D01*
X022354Y004131D01*
X022299Y004076D01*
X022252Y004012D01*
X022217Y003942D01*
X022192Y003867D01*
X022190Y003852D01*
X022190Y004176D01*
X022213Y004186D01*
X022354Y004327D01*
X022430Y004511D01*
X022430Y005349D01*
X022354Y005533D01*
X022213Y005674D01*
X022029Y005750D01*
X021831Y005750D01*
X021647Y005674D01*
X021506Y005533D01*
X021430Y005349D01*
X021430Y004511D01*
X021506Y004327D01*
X021647Y004186D01*
X021670Y004176D01*
X021670Y003874D01*
X021604Y004033D01*
X021463Y004174D01*
X021279Y004250D01*
X021081Y004250D01*
X020897Y004174D01*
X020756Y004033D01*
X020680Y003849D01*
X020680Y003011D01*
X020756Y002827D01*
X020897Y002686D01*
X020920Y002676D01*
X020920Y002628D01*
X020960Y002533D01*
X021033Y002460D01*
X022532Y000960D01*
X000960Y000960D01*
X000960Y037900D01*
X025180Y037900D01*
X025180Y034180D01*
X035180Y034180D01*
X035180Y037900D01*
X055892Y037900D01*
X055892Y000960D01*
X031328Y000960D01*
X031400Y001033D01*
X032333Y001965D01*
X032372Y001965D01*
X032543Y002036D01*
X032674Y002167D01*
X032678Y002175D01*
X032887Y001965D01*
X033273Y001965D01*
X033478Y002170D01*
X038982Y002170D01*
X039077Y002210D01*
X039150Y002283D01*
X040400Y003533D01*
X040440Y003628D01*
X040440Y006572D01*
X040733Y006865D01*
X040921Y006676D01*
X040641Y006396D01*
X040641Y005957D01*
X040921Y005676D01*
X040641Y005396D01*
X040641Y004957D01*
X040921Y004676D01*
X040641Y004396D01*
X040641Y003957D01*
X040951Y003646D01*
X041390Y003646D01*
X041414Y003670D01*
X047781Y003670D01*
X047969Y003748D01*
X048112Y003891D01*
X049112Y004891D01*
X049190Y005079D01*
X049190Y034781D01*
X049112Y034969D01*
X048969Y035112D01*
X047959Y036123D01*
X047771Y036200D01*
X044921Y036200D01*
X044901Y036220D01*
X044462Y036220D01*
X044432Y036190D01*
X043079Y036190D01*
X042891Y036112D01*
X042748Y035969D01*
X039498Y032719D01*
X039420Y032531D01*
X039420Y016141D01*
X038969Y015690D01*
X033190Y015690D01*
X033190Y017469D01*
X033896Y018174D01*
X035415Y018174D01*
X035376Y018155D01*
X035306Y018104D01*
X035245Y018043D01*
X035194Y017973D01*
X035155Y017896D01*
X035128Y017813D01*
X035114Y017728D01*
X035114Y017704D01*
X035644Y017704D01*
X035644Y017664D01*
X035114Y017664D01*
X035114Y017641D01*
X035128Y017556D01*
X035155Y017473D01*
X035192Y017400D01*
X034527Y017400D01*
X034523Y017409D01*
X034409Y017523D01*
X034261Y017585D01*
X034099Y017585D01*
X033951Y017523D01*
X033837Y017409D01*
X033775Y017261D01*
X033775Y017099D01*
X033837Y016951D01*
X033951Y016837D01*
X034099Y016775D01*
X034261Y016775D01*
X034409Y016837D01*
X034523Y016951D01*
X034527Y016960D01*
X035183Y016960D01*
X035114Y016794D01*
X035114Y016575D01*
X035198Y016373D01*
X035353Y016218D01*
X035555Y016134D01*
X035774Y016134D01*
X035976Y016218D01*
X036131Y016373D01*
X036214Y016575D01*
X036214Y016794D01*
X036150Y016950D01*
X036275Y016950D01*
X036766Y017441D01*
X038163Y017441D01*
X038433Y017171D01*
X038165Y016902D01*
X037611Y016906D01*
X037373Y017145D01*
X036987Y017145D01*
X036715Y016873D01*
X036715Y016487D01*
X036987Y016215D01*
X037373Y016215D01*
X037604Y016447D01*
X038162Y016442D01*
X038463Y016141D01*
X038902Y016141D01*
X039213Y016451D01*
X039213Y016890D01*
X038932Y017171D01*
X039213Y017451D01*
X039213Y017890D01*
X038932Y018171D01*
X039213Y018451D01*
X039213Y018890D01*
X038932Y019171D01*
X039213Y019451D01*
X039213Y019890D01*
X038932Y020171D01*
X039213Y020451D01*
X039213Y020890D01*
X038932Y021171D01*
X039213Y021451D01*
X039213Y021890D01*
X038932Y022171D01*
X039213Y022451D01*
X039213Y022890D01*
X038932Y023171D01*
X039213Y023451D01*
X039213Y023890D01*
X038932Y024171D01*
X039213Y024451D01*
X039213Y024890D01*
X038932Y025171D01*
X039213Y025451D01*
X039213Y025890D01*
X038922Y026181D01*
X039211Y026471D01*
X039211Y026910D01*
X038931Y027190D01*
X039211Y027471D01*
X039211Y027910D01*
X038931Y028190D01*
X039211Y028471D01*
X039211Y028910D01*
X038931Y029190D01*
X039211Y029471D01*
X039211Y029910D01*
X038931Y030190D01*
X039211Y030471D01*
X039211Y030910D01*
X038931Y031190D01*
X039211Y031471D01*
X039211Y031910D01*
X038931Y032190D01*
X039211Y032471D01*
X039211Y032910D01*
X038931Y033190D01*
X039211Y033471D01*
X039211Y033910D01*
X038931Y034190D01*
X039211Y034471D01*
X039211Y034910D01*
X038961Y035160D01*
X039055Y035160D01*
X039101Y035172D01*
X039142Y035196D01*
X039175Y035230D01*
X039199Y035271D01*
X039211Y035316D01*
X039211Y035670D01*
X038701Y035670D01*
X038701Y035710D01*
X038661Y035710D01*
X038661Y035670D01*
X038151Y035670D01*
X038151Y035316D01*
X038164Y035271D01*
X038187Y035230D01*
X038221Y035196D01*
X038262Y035172D01*
X038308Y035160D01*
X038402Y035160D01*
X038152Y034910D01*
X037585Y034910D01*
X037450Y034775D01*
X036950Y034275D01*
X036950Y033735D01*
X036885Y033800D01*
X022460Y033800D01*
X022426Y033882D01*
X022272Y034036D01*
X022069Y034120D01*
X021851Y034120D01*
X021648Y034036D01*
X021494Y033882D01*
X021410Y033679D01*
X021410Y033461D01*
X021494Y033258D01*
X021648Y033104D01*
X021851Y033020D01*
X022069Y033020D01*
X022272Y033104D01*
X022426Y033258D01*
X022460Y033340D01*
X036695Y033340D01*
X036715Y033320D01*
X036715Y032987D01*
X036987Y032715D01*
X037373Y032715D01*
X037645Y032987D01*
X037645Y033373D01*
X037410Y033608D01*
X037410Y034085D01*
X037775Y034450D01*
X038172Y034450D01*
X038432Y034190D01*
X038151Y033910D01*
X038151Y033471D01*
X038432Y033190D01*
X038151Y032910D01*
X038151Y032471D01*
X038432Y032190D01*
X038213Y031972D01*
X037775Y032410D01*
X037585Y032410D01*
X037575Y032400D01*
X036214Y032400D01*
X036214Y033129D01*
X036109Y033234D01*
X035220Y033234D01*
X035114Y033129D01*
X035114Y032400D01*
X025222Y032400D01*
X025222Y033125D01*
X025117Y033231D01*
X024228Y033231D01*
X024122Y033125D01*
X024122Y032400D01*
X023785Y032400D01*
X023775Y032410D01*
X023585Y032410D01*
X022950Y031775D01*
X022950Y031585D01*
X022960Y031575D01*
X022960Y027096D01*
X022842Y027145D01*
X022690Y027145D01*
X022690Y029781D01*
X022612Y029969D01*
X021969Y030612D01*
X021781Y030690D01*
X019660Y030690D01*
X019660Y031302D01*
X019712Y031324D01*
X019866Y031478D01*
X019950Y031681D01*
X019950Y031899D01*
X019866Y032102D01*
X019712Y032256D01*
X019509Y032340D01*
X019291Y032340D01*
X019088Y032256D01*
X018934Y032102D01*
X018850Y031899D01*
X018850Y031681D01*
X018934Y031478D01*
X019088Y031324D01*
X019140Y031302D01*
X019140Y030690D01*
X009632Y030690D01*
X009565Y030756D01*
X009315Y030860D01*
X009221Y030860D01*
X007469Y032612D01*
X007281Y032690D01*
X006044Y032690D01*
X006042Y032697D01*
X008735Y032697D01*
X008577Y032539D02*
X007543Y032539D01*
X007701Y032380D02*
X008500Y032380D01*
X008500Y032462D02*
X008500Y032200D01*
X009160Y032200D01*
X009160Y032860D01*
X008898Y032860D01*
X008500Y032462D01*
X008500Y032222D02*
X007860Y032222D01*
X008018Y032063D02*
X008500Y032063D01*
X008500Y032160D02*
X008500Y031898D01*
X008898Y031500D01*
X009160Y031500D01*
X009160Y032160D01*
X008500Y032160D01*
X008500Y031905D02*
X008177Y031905D01*
X008335Y031746D02*
X008652Y031746D01*
X008494Y031588D02*
X008811Y031588D01*
X008652Y031429D02*
X018983Y031429D01*
X018889Y031588D02*
X009549Y031588D01*
X009462Y031500D02*
X009860Y031898D01*
X009860Y032160D01*
X009200Y032160D01*
X009200Y032200D01*
X009160Y032200D01*
X009160Y032160D01*
X009200Y032160D01*
X009200Y031500D01*
X009462Y031500D01*
X009200Y031588D02*
X009160Y031588D01*
X009160Y031746D02*
X009200Y031746D01*
X009200Y031905D02*
X009160Y031905D01*
X009160Y032063D02*
X009200Y032063D01*
X009200Y032200D02*
X009860Y032200D01*
X009860Y032462D01*
X009462Y032860D01*
X009200Y032860D01*
X009200Y032200D01*
X009200Y032222D02*
X009160Y032222D01*
X009160Y032380D02*
X009200Y032380D01*
X009200Y032539D02*
X009160Y032539D01*
X009160Y032697D02*
X009200Y032697D01*
X009200Y032856D02*
X009160Y032856D01*
X008894Y032856D02*
X005836Y032856D01*
X005916Y032822D02*
X005753Y032890D01*
X005576Y032890D01*
X005412Y032822D01*
X005287Y032697D01*
X004073Y032697D01*
X003948Y032822D01*
X003784Y032890D01*
X003607Y032890D01*
X003444Y032822D01*
X003318Y032697D01*
X000960Y032697D01*
X000960Y032539D02*
X003253Y032539D01*
X003251Y032534D02*
X003251Y032456D01*
X003248Y032453D01*
X003170Y032266D01*
X003170Y031579D01*
X003248Y031391D01*
X003391Y031248D01*
X004891Y029748D01*
X005051Y029681D01*
X004982Y029659D01*
X004909Y029622D01*
X004843Y029574D01*
X004786Y029516D01*
X004738Y029451D01*
X004701Y029378D01*
X004676Y029301D01*
X004663Y029221D01*
X004663Y029208D01*
X005152Y029208D01*
X005152Y029152D01*
X005208Y029152D01*
X005208Y029208D01*
X005697Y029208D01*
X005697Y029221D01*
X005684Y029301D01*
X005659Y029378D01*
X005622Y029451D01*
X005574Y029516D01*
X005516Y029574D01*
X005451Y029622D01*
X005378Y029659D01*
X005343Y029670D01*
X005969Y029670D01*
X006891Y028748D01*
X007079Y028670D01*
X007670Y028670D01*
X007670Y027891D01*
X007608Y027829D01*
X007513Y027829D01*
X007336Y027756D01*
X007201Y027621D01*
X007128Y027445D01*
X007128Y027254D01*
X007201Y027077D01*
X007336Y026942D01*
X007513Y026869D01*
X007734Y026869D01*
X007807Y026839D01*
X008010Y026839D01*
X008082Y026869D01*
X008304Y026869D01*
X008370Y026897D01*
X007964Y026491D01*
X007513Y026491D01*
X007336Y026418D01*
X007201Y026283D01*
X007128Y026106D01*
X007128Y025915D01*
X007201Y025739D01*
X007336Y025604D01*
X007513Y025531D01*
X008304Y025531D01*
X008480Y025604D01*
X008615Y025739D01*
X008688Y025915D01*
X008688Y026106D01*
X008615Y026283D01*
X008610Y026288D01*
X009434Y027112D01*
X009480Y027223D01*
X009480Y029568D01*
X009565Y029604D01*
X009632Y029670D01*
X010963Y029670D01*
X010680Y029387D01*
X010680Y028973D01*
X010750Y028903D01*
X010750Y020457D01*
X010680Y020387D01*
X010680Y019973D01*
X010750Y019903D01*
X010750Y018858D01*
X008652Y016760D01*
X007705Y016760D01*
X007600Y016655D01*
X007600Y016610D01*
X005908Y016610D01*
X005873Y016645D01*
X005487Y016645D01*
X005215Y016373D01*
X005215Y015987D01*
X005487Y015715D01*
X005873Y015715D01*
X005908Y015750D01*
X007600Y015750D01*
X007600Y015705D01*
X007705Y015600D01*
X008655Y015600D01*
X008760Y015705D01*
X008760Y015750D01*
X008766Y015750D01*
X008924Y015815D01*
X011424Y018315D01*
X011545Y018436D01*
X011610Y018594D01*
X011610Y019903D01*
X011680Y019973D01*
X011680Y020387D01*
X011610Y020457D01*
X011610Y028903D01*
X011680Y028973D01*
X011680Y029387D01*
X011397Y029670D01*
X019963Y029670D01*
X019903Y029610D01*
X015094Y029610D01*
X014936Y029545D01*
X012436Y027045D01*
X012315Y026924D01*
X012250Y026766D01*
X012250Y026039D01*
X012250Y026199D02*
X011610Y026199D01*
X011610Y026357D02*
X012250Y026357D01*
X012250Y026516D02*
X011610Y026516D01*
X011610Y026674D02*
X012250Y026674D01*
X012278Y026833D02*
X011610Y026833D01*
X011610Y026991D02*
X012383Y026991D01*
X012541Y027150D02*
X011610Y027150D01*
X011610Y027308D02*
X012700Y027308D01*
X012858Y027467D02*
X011610Y027467D01*
X011610Y027625D02*
X013017Y027625D01*
X013175Y027784D02*
X011610Y027784D01*
X011610Y027942D02*
X013334Y027942D01*
X013492Y028101D02*
X011610Y028101D01*
X011610Y028259D02*
X013651Y028259D01*
X013809Y028418D02*
X011610Y028418D01*
X011610Y028576D02*
X013968Y028576D01*
X014126Y028735D02*
X011610Y028735D01*
X011610Y028893D02*
X014285Y028893D01*
X014443Y029052D02*
X011680Y029052D01*
X011680Y029210D02*
X014602Y029210D01*
X014760Y029369D02*
X011680Y029369D01*
X011540Y029527D02*
X014919Y029527D01*
X015343Y028735D02*
X019918Y028735D01*
X020442Y028735D02*
X021670Y028735D01*
X021670Y028893D02*
X020600Y028893D01*
X020680Y029052D02*
X021670Y029052D01*
X021670Y029210D02*
X020680Y029210D01*
X020680Y029369D02*
X021670Y029369D01*
X021612Y029527D02*
X020540Y029527D01*
X019680Y030180D02*
X019400Y030460D01*
X019400Y031790D01*
X019911Y031588D02*
X021449Y031588D01*
X021410Y031681D02*
X021494Y031478D01*
X021648Y031324D01*
X021851Y031240D01*
X022069Y031240D01*
X022272Y031324D01*
X022426Y031478D01*
X022510Y031681D01*
X022510Y031899D01*
X022426Y032102D01*
X022272Y032256D01*
X022069Y032340D01*
X021851Y032340D01*
X021648Y032256D01*
X021494Y032102D01*
X021410Y031899D01*
X021410Y031681D01*
X021410Y031746D02*
X019950Y031746D01*
X019948Y031905D02*
X021412Y031905D01*
X021478Y032063D02*
X019882Y032063D01*
X019746Y032222D02*
X021614Y032222D01*
X022306Y032222D02*
X023396Y032222D01*
X023555Y032380D02*
X009860Y032380D01*
X009860Y032222D02*
X019054Y032222D01*
X018918Y032063D02*
X009860Y032063D01*
X009860Y031905D02*
X018852Y031905D01*
X018850Y031746D02*
X009708Y031746D01*
X009783Y032539D02*
X024122Y032539D01*
X024122Y032697D02*
X009625Y032697D01*
X009466Y032856D02*
X024122Y032856D01*
X024122Y033014D02*
X000960Y033014D01*
X000960Y032856D02*
X003524Y032856D01*
X003318Y032697D02*
X003251Y032534D01*
X003217Y032380D02*
X000960Y032380D01*
X000960Y032222D02*
X003170Y032222D01*
X003170Y032063D02*
X000960Y032063D01*
X000960Y031905D02*
X003170Y031905D01*
X003170Y031746D02*
X000960Y031746D01*
X000960Y031588D02*
X003170Y031588D01*
X003232Y031429D02*
X000960Y031429D01*
X000960Y031271D02*
X003368Y031271D01*
X003527Y031112D02*
X000960Y031112D01*
X000960Y030954D02*
X003685Y030954D01*
X003844Y030795D02*
X000960Y030795D01*
X000960Y030637D02*
X004002Y030637D01*
X004161Y030478D02*
X000960Y030478D01*
X000960Y030320D02*
X004319Y030320D01*
X004478Y030161D02*
X000960Y030161D01*
X000960Y030003D02*
X004636Y030003D01*
X004795Y029844D02*
X000960Y029844D01*
X000960Y029686D02*
X005041Y029686D01*
X004797Y029527D02*
X000960Y029527D01*
X000960Y029369D02*
X004698Y029369D01*
X004663Y029210D02*
X000960Y029210D01*
X000960Y029052D02*
X004679Y029052D01*
X004676Y029059D02*
X004701Y028982D01*
X004738Y028909D01*
X004786Y028843D01*
X004843Y028786D01*
X004909Y028738D01*
X004982Y028701D01*
X005059Y028676D01*
X005139Y028663D01*
X005152Y028663D01*
X005152Y029152D01*
X004663Y029152D01*
X004663Y029139D01*
X004676Y029059D01*
X004750Y028893D02*
X000960Y028893D01*
X000960Y028735D02*
X004916Y028735D01*
X005152Y028735D02*
X005208Y028735D01*
X005208Y028663D02*
X005221Y028663D01*
X005301Y028676D01*
X005378Y028701D01*
X005451Y028738D01*
X005516Y028786D01*
X005574Y028843D01*
X005622Y028909D01*
X005659Y028982D01*
X005684Y029059D01*
X005697Y029139D01*
X005697Y029152D01*
X005208Y029152D01*
X005208Y028663D01*
X005208Y028893D02*
X005152Y028893D01*
X005152Y029052D02*
X005208Y029052D01*
X005444Y028735D02*
X006923Y028735D01*
X006746Y028893D02*
X005610Y028893D01*
X005681Y029052D02*
X006587Y029052D01*
X006429Y029210D02*
X005697Y029210D01*
X005662Y029369D02*
X006270Y029369D01*
X006112Y029527D02*
X005563Y029527D01*
X005608Y028418D02*
X000960Y028418D01*
X000960Y028576D02*
X007670Y028576D01*
X007670Y028418D02*
X006953Y028418D01*
X007093Y028259D02*
X007670Y028259D01*
X007670Y028101D02*
X007153Y028101D01*
X007153Y027942D02*
X007670Y027942D01*
X007402Y027784D02*
X007095Y027784D01*
X007205Y027625D02*
X006958Y027625D01*
X007137Y027467D02*
X005825Y027467D01*
X005666Y027308D02*
X007128Y027308D01*
X007172Y027150D02*
X006777Y027150D01*
X006785Y027148D02*
X006711Y027160D01*
X006383Y027160D01*
X006383Y026690D01*
X007153Y026690D01*
X007153Y026718D01*
X007141Y026792D01*
X007118Y026864D01*
X007083Y026932D01*
X007039Y026993D01*
X006986Y027046D01*
X006924Y027091D01*
X006857Y027125D01*
X006785Y027148D01*
X007040Y026991D02*
X007288Y026991D01*
X007128Y026833D02*
X008306Y026833D01*
X008147Y026674D02*
X006383Y026674D01*
X006383Y026670D02*
X006383Y026690D01*
X006363Y026690D01*
X006363Y027160D01*
X006035Y027160D01*
X005961Y027148D01*
X005889Y027125D01*
X005821Y027091D01*
X005760Y027046D01*
X005707Y026993D01*
X005662Y026932D01*
X005628Y026864D01*
X005605Y026792D01*
X005593Y026718D01*
X005593Y026690D01*
X006363Y026690D01*
X006363Y026670D01*
X006383Y026670D01*
X007153Y026670D01*
X007153Y026642D01*
X007141Y026568D01*
X007118Y026496D01*
X007083Y026428D01*
X007039Y026367D01*
X006986Y026314D01*
X006924Y026269D01*
X006857Y026235D01*
X006785Y026212D01*
X006711Y026200D01*
X006383Y026200D01*
X006383Y026670D01*
X006363Y026670D02*
X006363Y026200D01*
X006035Y026200D01*
X005961Y026212D01*
X005889Y026235D01*
X005821Y026269D01*
X005760Y026314D01*
X005707Y026367D01*
X005662Y026428D01*
X005628Y026496D01*
X005605Y026568D01*
X005593Y026642D01*
X005593Y026670D01*
X006363Y026670D01*
X006363Y026674D02*
X005310Y026674D01*
X005360Y026833D02*
X005618Y026833D01*
X005706Y026991D02*
X005360Y026991D01*
X005508Y027150D02*
X005969Y027150D01*
X006363Y027150D02*
X006383Y027150D01*
X006383Y026991D02*
X006363Y026991D01*
X006363Y026833D02*
X006383Y026833D01*
X006363Y026516D02*
X006383Y026516D01*
X006383Y026357D02*
X006363Y026357D01*
X006363Y025821D02*
X006035Y025821D01*
X005961Y025810D01*
X005889Y025786D01*
X005821Y025752D01*
X005760Y025708D01*
X005707Y025654D01*
X005662Y025593D01*
X005628Y025526D01*
X005605Y025454D01*
X005593Y025379D01*
X005593Y025351D01*
X006363Y025351D01*
X006363Y025331D01*
X006383Y025331D01*
X006383Y024861D01*
X006711Y024861D01*
X006785Y024873D01*
X006857Y024897D01*
X006924Y024931D01*
X010750Y024931D01*
X010750Y025089D02*
X007083Y025089D01*
X007083Y025090D02*
X007118Y025157D01*
X007141Y025229D01*
X007153Y025304D01*
X007153Y025331D01*
X006383Y025331D01*
X006383Y025351D01*
X007153Y025351D01*
X007153Y025379D01*
X007141Y025454D01*
X007118Y025526D01*
X007083Y025593D01*
X007039Y025654D01*
X006986Y025708D01*
X006924Y025752D01*
X006857Y025786D01*
X006785Y025810D01*
X006711Y025821D01*
X006383Y025821D01*
X006383Y025351D01*
X006363Y025351D01*
X006363Y025821D01*
X006363Y025723D02*
X006383Y025723D01*
X006383Y025565D02*
X006363Y025565D01*
X006363Y025406D02*
X006383Y025406D01*
X006363Y025331D02*
X005593Y025331D01*
X005593Y025304D01*
X005605Y025229D01*
X005628Y025157D01*
X005662Y025090D01*
X005707Y025029D01*
X005760Y024975D01*
X005821Y024931D01*
X005889Y024897D01*
X005961Y024873D01*
X006035Y024861D01*
X006363Y024861D01*
X006363Y025331D01*
X006363Y025248D02*
X006383Y025248D01*
X006383Y025089D02*
X006363Y025089D01*
X006363Y024931D02*
X006383Y024931D01*
X006924Y024931D02*
X006986Y024975D01*
X007039Y025029D01*
X007083Y025090D01*
X007144Y025248D02*
X010750Y025248D01*
X010750Y025406D02*
X007149Y025406D01*
X007098Y025565D02*
X007431Y025565D01*
X007217Y025723D02*
X006964Y025723D01*
X007142Y025882D02*
X005110Y025882D01*
X005110Y026040D02*
X007128Y026040D01*
X007167Y026199D02*
X005110Y026199D01*
X005110Y026357D02*
X005717Y026357D01*
X005622Y026516D02*
X005227Y026516D01*
X005110Y025723D02*
X005782Y025723D01*
X005648Y025565D02*
X005110Y025565D01*
X005110Y025406D02*
X005597Y025406D01*
X005602Y025248D02*
X005110Y025248D01*
X005110Y025089D02*
X005663Y025089D01*
X005822Y024931D02*
X005110Y024931D01*
X005110Y024772D02*
X010750Y024772D01*
X010750Y024614D02*
X005110Y024614D01*
X005110Y024455D02*
X010750Y024455D01*
X010750Y024297D02*
X005110Y024297D01*
X005110Y024138D02*
X010750Y024138D01*
X010750Y023980D02*
X005110Y023980D01*
X005110Y023821D02*
X010750Y023821D01*
X010750Y023663D02*
X005110Y023663D01*
X005110Y023504D02*
X010750Y023504D01*
X010750Y023346D02*
X005110Y023346D01*
X005110Y023187D02*
X010750Y023187D01*
X010750Y023029D02*
X005110Y023029D01*
X005110Y022870D02*
X010750Y022870D01*
X010750Y022712D02*
X005110Y022712D01*
X005110Y022553D02*
X010750Y022553D01*
X010750Y022395D02*
X005110Y022395D01*
X005110Y022236D02*
X010750Y022236D01*
X010750Y022078D02*
X005103Y022078D01*
X005027Y021919D02*
X006288Y021919D01*
X006349Y021980D02*
X005880Y021511D01*
X005880Y021200D01*
X006660Y021200D01*
X006660Y021980D01*
X006349Y021980D01*
X006129Y021761D02*
X004869Y021761D01*
X004710Y021602D02*
X005971Y021602D01*
X005880Y021444D02*
X004552Y021444D01*
X004480Y021285D02*
X005880Y021285D01*
X005880Y021160D02*
X005880Y020849D01*
X006349Y020380D01*
X006660Y020380D01*
X006660Y021160D01*
X006700Y021160D01*
X006700Y021200D01*
X007480Y021200D01*
X007480Y021511D01*
X007011Y021980D01*
X006700Y021980D01*
X006700Y021200D01*
X006660Y021200D01*
X006660Y021160D01*
X005880Y021160D01*
X005880Y021127D02*
X004480Y021127D01*
X004458Y020968D02*
X005880Y020968D01*
X005919Y020810D02*
X004392Y020810D01*
X004282Y020651D02*
X006078Y020651D01*
X006236Y020493D02*
X004111Y020493D01*
X003442Y020334D02*
X010680Y020334D01*
X010680Y020176D02*
X003284Y020176D01*
X003125Y020017D02*
X010680Y020017D01*
X010750Y019859D02*
X003110Y019859D01*
X003110Y019700D02*
X010750Y019700D01*
X010750Y019542D02*
X003110Y019542D01*
X003110Y019383D02*
X010750Y019383D01*
X010750Y019225D02*
X003110Y019225D01*
X003110Y019066D02*
X010750Y019066D01*
X010750Y018908D02*
X003110Y018908D01*
X003110Y018749D02*
X010641Y018749D01*
X010482Y018591D02*
X003110Y018591D01*
X003110Y018432D02*
X010324Y018432D01*
X010165Y018274D02*
X003110Y018274D01*
X003110Y018115D02*
X010007Y018115D01*
X009848Y017957D02*
X003110Y017957D01*
X003110Y017798D02*
X009690Y017798D01*
X009531Y017640D02*
X003110Y017640D01*
X003110Y017481D02*
X009373Y017481D01*
X009214Y017323D02*
X003110Y017323D01*
X003110Y017164D02*
X009056Y017164D01*
X008897Y017006D02*
X003110Y017006D01*
X003110Y016847D02*
X008739Y016847D01*
X009480Y016372D02*
X012145Y016372D01*
X012188Y016477D02*
X012100Y016264D01*
X012100Y016033D01*
X012188Y015820D01*
X012351Y015657D01*
X012565Y015569D01*
X012795Y015569D01*
X013009Y015657D01*
X013070Y015719D01*
X013533Y015719D01*
X015250Y014002D01*
X015250Y013408D01*
X015215Y013373D01*
X015215Y012987D01*
X015487Y012715D01*
X015873Y012715D01*
X016145Y012987D01*
X016145Y013373D01*
X016110Y013408D01*
X016110Y014266D01*
X016045Y014424D01*
X015924Y014545D01*
X013955Y016513D01*
X013797Y016579D01*
X013110Y016579D01*
X013110Y017002D01*
X015858Y019750D01*
X019903Y019750D01*
X019973Y019680D01*
X020387Y019680D01*
X020680Y019973D01*
X020680Y020387D01*
X020387Y020680D01*
X019973Y020680D01*
X019903Y020610D01*
X015594Y020610D01*
X015436Y020545D01*
X012436Y017545D01*
X012315Y017424D01*
X012250Y017266D01*
X012250Y016539D01*
X012188Y016477D01*
X012241Y016530D02*
X009638Y016530D01*
X009797Y016689D02*
X012250Y016689D01*
X012250Y016847D02*
X009955Y016847D01*
X010114Y017006D02*
X012250Y017006D01*
X012250Y017164D02*
X010272Y017164D01*
X010431Y017323D02*
X012274Y017323D01*
X012373Y017481D02*
X010589Y017481D01*
X010748Y017640D02*
X012531Y017640D01*
X012690Y017798D02*
X010906Y017798D01*
X011065Y017957D02*
X012848Y017957D01*
X013007Y018115D02*
X011223Y018115D01*
X011382Y018274D02*
X013165Y018274D01*
X013324Y018432D02*
X011540Y018432D01*
X011608Y018591D02*
X013482Y018591D01*
X013641Y018749D02*
X011610Y018749D01*
X011610Y018908D02*
X013799Y018908D01*
X013958Y019066D02*
X011610Y019066D01*
X011610Y019225D02*
X014116Y019225D01*
X014275Y019383D02*
X011610Y019383D01*
X011610Y019542D02*
X014433Y019542D01*
X014592Y019700D02*
X011610Y019700D01*
X011610Y019859D02*
X014750Y019859D01*
X014909Y020017D02*
X011680Y020017D01*
X011680Y020176D02*
X015067Y020176D01*
X015226Y020334D02*
X011680Y020334D01*
X011610Y020493D02*
X015384Y020493D01*
X016409Y020810D02*
X020442Y020810D01*
X020416Y020651D02*
X020601Y020651D01*
X020575Y020493D02*
X020750Y020493D01*
X020750Y020334D02*
X020680Y020334D01*
X020680Y020176D02*
X020750Y020176D01*
X020750Y020017D02*
X020680Y020017D01*
X020750Y019859D02*
X020566Y019859D01*
X020592Y019700D02*
X020407Y019700D01*
X020433Y019542D02*
X015650Y019542D01*
X015808Y019700D02*
X019953Y019700D01*
X020275Y019383D02*
X015491Y019383D01*
X015333Y019225D02*
X020116Y019225D01*
X019958Y019066D02*
X015174Y019066D01*
X015016Y018908D02*
X019799Y018908D01*
X019641Y018749D02*
X014857Y018749D01*
X014699Y018591D02*
X015433Y018591D01*
X015487Y018645D02*
X015215Y018373D01*
X015215Y017987D01*
X015487Y017715D01*
X015873Y017715D01*
X015908Y017750D01*
X016002Y017750D01*
X016620Y017132D01*
X016620Y017069D01*
X016705Y016863D01*
X016863Y016705D01*
X017069Y016620D01*
X017291Y016620D01*
X017497Y016705D01*
X017542Y016750D01*
X017933Y016750D01*
X018018Y016715D01*
X018772Y016715D01*
X018943Y016786D01*
X019074Y016917D01*
X019145Y017088D01*
X019145Y017272D01*
X019074Y017443D01*
X018943Y017574D01*
X018772Y017645D01*
X018018Y017645D01*
X017933Y017610D01*
X017542Y017610D01*
X017497Y017655D01*
X017291Y017740D01*
X017228Y017740D01*
X016424Y018545D01*
X016266Y018610D01*
X015908Y018610D01*
X015873Y018645D01*
X015487Y018645D01*
X015274Y018432D02*
X014540Y018432D01*
X014382Y018274D02*
X015215Y018274D01*
X015215Y018115D02*
X014223Y018115D01*
X014065Y017957D02*
X015246Y017957D01*
X015404Y017798D02*
X013906Y017798D01*
X013748Y017640D02*
X016112Y017640D01*
X016271Y017481D02*
X013589Y017481D01*
X013431Y017323D02*
X016429Y017323D01*
X016588Y017164D02*
X013272Y017164D01*
X013114Y017006D02*
X016646Y017006D01*
X016721Y016847D02*
X013110Y016847D01*
X013110Y016689D02*
X016903Y016689D01*
X017457Y016689D02*
X019250Y016689D01*
X019250Y016847D02*
X019005Y016847D01*
X019111Y017006D02*
X019250Y017006D01*
X019250Y017164D02*
X019145Y017164D01*
X019124Y017323D02*
X019250Y017323D01*
X019250Y017481D02*
X019037Y017481D01*
X019250Y017640D02*
X018786Y017640D01*
X019250Y017798D02*
X017170Y017798D01*
X017012Y017957D02*
X019250Y017957D01*
X019250Y018115D02*
X016853Y018115D01*
X016695Y018274D02*
X019253Y018274D01*
X019324Y018432D02*
X016536Y018432D01*
X016313Y018591D02*
X019482Y018591D01*
X020110Y018002D02*
X021424Y019315D01*
X021545Y019436D01*
X021610Y019594D01*
X021610Y020529D01*
X021670Y020469D01*
X021670Y017891D01*
X021391Y017612D01*
X021248Y017469D01*
X021170Y017281D01*
X021170Y017079D01*
X021248Y016891D01*
X021391Y016748D01*
X021579Y016670D01*
X022670Y016670D01*
X022670Y016380D01*
X022648Y016424D01*
X022605Y016483D01*
X022553Y016535D01*
X022494Y016578D01*
X022428Y016611D01*
X022359Y016634D01*
X022287Y016645D01*
X021683Y016645D01*
X021683Y016183D01*
X021677Y016183D01*
X021677Y016645D01*
X021643Y016645D01*
X021571Y016634D01*
X021502Y016611D01*
X021436Y016578D01*
X021377Y016535D01*
X021325Y016483D01*
X021282Y016424D01*
X021249Y016358D01*
X021226Y016289D01*
X021215Y016217D01*
X021215Y016183D01*
X021677Y016183D01*
X021677Y016177D01*
X021683Y016177D01*
X021683Y015715D01*
X022287Y015715D01*
X022359Y015726D01*
X022428Y015749D01*
X022494Y015782D01*
X022553Y015825D01*
X022605Y015877D01*
X022648Y015936D01*
X022670Y015980D01*
X022670Y015579D01*
X022502Y015579D01*
X022513Y015574D02*
X022342Y015645D01*
X021588Y015645D01*
X021417Y015574D01*
X021286Y015443D01*
X021215Y015272D01*
X021215Y015088D01*
X021286Y014917D01*
X021417Y014786D01*
X021588Y014715D01*
X021749Y014715D01*
X022521Y013943D01*
X022624Y013900D01*
X022802Y013900D01*
X022987Y013715D01*
X023373Y013715D01*
X023608Y013950D01*
X033837Y013950D01*
X033951Y013837D01*
X034099Y013775D01*
X034261Y013775D01*
X034409Y013837D01*
X034523Y013951D01*
X034585Y014099D01*
X034585Y014261D01*
X034523Y014409D01*
X034409Y014523D01*
X034261Y014585D01*
X034099Y014585D01*
X033951Y014523D01*
X033837Y014410D01*
X023608Y014410D01*
X023373Y014645D01*
X022987Y014645D01*
X022802Y014460D01*
X022796Y014460D01*
X022483Y014773D01*
X022513Y014786D01*
X022644Y014917D01*
X022715Y015088D01*
X022715Y015272D01*
X022644Y015443D01*
X022513Y015574D01*
X022670Y015579D02*
X022748Y015391D01*
X023248Y014891D01*
X023391Y014748D01*
X023579Y014670D01*
X039281Y014670D01*
X039469Y014748D01*
X040219Y015498D01*
X040362Y015641D01*
X040440Y015829D01*
X040440Y032219D01*
X043391Y035170D01*
X044412Y035170D01*
X044151Y034910D01*
X044151Y034471D01*
X044432Y034190D01*
X044151Y033910D01*
X044151Y033471D01*
X044222Y033400D01*
X043285Y033400D01*
X043275Y033410D01*
X043085Y033410D01*
X042450Y032775D01*
X042450Y022275D01*
X040450Y020275D01*
X040450Y014775D01*
X039950Y014275D01*
X039950Y011585D01*
X040085Y011450D01*
X040588Y010946D01*
X040651Y010946D01*
X040921Y010676D01*
X040641Y010396D01*
X040641Y009957D01*
X040921Y009676D01*
X040641Y009396D01*
X040641Y008957D01*
X040921Y008676D01*
X040641Y008396D01*
X040641Y007957D01*
X040921Y007676D01*
X040681Y007436D01*
X040625Y007436D01*
X040529Y007397D01*
X040033Y006900D01*
X039960Y006827D01*
X039920Y006732D01*
X039920Y003788D01*
X038822Y002690D01*
X033478Y002690D01*
X033273Y002895D01*
X032887Y002895D01*
X032678Y002685D01*
X032674Y002693D01*
X032543Y002824D01*
X032540Y002826D01*
X032540Y003882D01*
X032645Y003987D01*
X032645Y004373D01*
X032598Y004420D01*
X033732Y004420D01*
X033827Y004460D01*
X034327Y004960D01*
X034400Y005033D01*
X034440Y005128D01*
X034440Y007072D01*
X035083Y007715D01*
X035373Y007715D01*
X035578Y007920D01*
X036134Y007920D01*
X036136Y007917D01*
X036267Y007786D01*
X036438Y007715D01*
X036622Y007715D01*
X036793Y007786D01*
X036924Y007917D01*
X036928Y007925D01*
X037137Y007715D01*
X037523Y007715D01*
X037728Y007920D01*
X038572Y007920D01*
X038920Y007572D01*
X038920Y006828D01*
X038715Y006623D01*
X038715Y006237D01*
X038987Y005965D01*
X039373Y005965D01*
X039645Y006237D01*
X039645Y006623D01*
X039440Y006828D01*
X039440Y007732D01*
X039400Y007827D01*
X039327Y007900D01*
X038827Y008400D01*
X038732Y008440D01*
X037728Y008440D01*
X037523Y008645D01*
X037137Y008645D01*
X036928Y008435D01*
X036924Y008443D01*
X036793Y008574D01*
X036622Y008645D01*
X036438Y008645D01*
X036267Y008574D01*
X036136Y008443D01*
X036134Y008440D01*
X035578Y008440D01*
X035373Y008645D01*
X034987Y008645D01*
X034715Y008373D01*
X034715Y008083D01*
X033960Y007327D01*
X033920Y007232D01*
X033920Y006780D01*
X033900Y006827D01*
X033827Y006900D01*
X032645Y008083D01*
X032645Y008373D01*
X032440Y008578D01*
X032440Y009032D01*
X032645Y009237D01*
X032645Y009623D01*
X032373Y009895D01*
X031987Y009895D01*
X031715Y009623D01*
X031715Y009237D01*
X031920Y009032D01*
X031920Y008578D01*
X031715Y008373D01*
X031715Y007987D01*
X031987Y007715D01*
X032277Y007715D01*
X033420Y006572D01*
X033420Y005788D01*
X033072Y005440D01*
X032598Y005440D01*
X032645Y005487D01*
X032645Y005873D01*
X032373Y006145D01*
X031987Y006145D01*
X031952Y006110D01*
X024610Y006110D01*
X024610Y007766D01*
X024545Y007924D01*
X021924Y010545D01*
X021766Y010610D01*
X016358Y010610D01*
X015218Y011750D01*
X016266Y011750D01*
X016424Y011815D01*
X017228Y012620D01*
X017291Y012620D01*
X017497Y012705D01*
X017542Y012750D01*
X018266Y012750D01*
X018424Y012815D01*
X019924Y014315D01*
X020045Y014436D01*
X020110Y014594D01*
X020110Y018002D01*
X020110Y017957D02*
X021670Y017957D01*
X021670Y018115D02*
X020223Y018115D01*
X020382Y018274D02*
X021670Y018274D01*
X021670Y018432D02*
X020540Y018432D01*
X020699Y018591D02*
X021670Y018591D01*
X021670Y018749D02*
X020857Y018749D01*
X021016Y018908D02*
X021670Y018908D01*
X021670Y019066D02*
X021174Y019066D01*
X021333Y019225D02*
X021670Y019225D01*
X021670Y019383D02*
X021491Y019383D01*
X021588Y019542D02*
X021670Y019542D01*
X021670Y019700D02*
X021610Y019700D01*
X021610Y019859D02*
X021670Y019859D01*
X021670Y020017D02*
X021610Y020017D01*
X021610Y020176D02*
X021670Y020176D01*
X021670Y020334D02*
X021610Y020334D01*
X021610Y020493D02*
X021646Y020493D01*
X022469Y021112D02*
X022612Y020969D01*
X022690Y020781D01*
X022690Y017690D01*
X023281Y017690D01*
X023469Y017612D01*
X023612Y017469D01*
X023690Y017281D01*
X023690Y015891D01*
X023891Y015690D01*
X032170Y015690D01*
X032170Y017781D01*
X032248Y017969D01*
X032391Y018112D01*
X033396Y019117D01*
X033583Y019194D01*
X035154Y019194D01*
X035154Y019478D01*
X035114Y019575D01*
X035114Y019794D01*
X035183Y019960D01*
X025152Y019960D01*
X025222Y019790D01*
X025222Y019571D01*
X025139Y019369D01*
X024984Y019214D01*
X024902Y019181D01*
X024984Y019147D01*
X025139Y018992D01*
X025222Y018790D01*
X025222Y018571D01*
X025139Y018369D01*
X024984Y018214D01*
X024902Y018181D01*
X024984Y018147D01*
X025139Y017992D01*
X025222Y017790D01*
X025222Y017571D01*
X025139Y017369D01*
X024984Y017214D01*
X024902Y017181D01*
X024984Y017147D01*
X025139Y016992D01*
X025222Y016790D01*
X025222Y016571D01*
X025139Y016369D01*
X024984Y016214D01*
X024782Y016131D01*
X024563Y016131D01*
X024361Y016214D01*
X024206Y016369D01*
X024122Y016571D01*
X024122Y016790D01*
X024206Y016992D01*
X024361Y017147D01*
X024442Y017181D01*
X024361Y017214D01*
X024206Y017369D01*
X024122Y017571D01*
X024122Y017790D01*
X024206Y017992D01*
X024361Y018147D01*
X024442Y018181D01*
X024361Y018214D01*
X024206Y018369D01*
X024122Y018571D01*
X024122Y018790D01*
X024206Y018992D01*
X024361Y019147D01*
X024442Y019181D01*
X024361Y019214D01*
X024206Y019369D01*
X024122Y019571D01*
X024122Y019790D01*
X024193Y019960D01*
X023785Y019960D01*
X023775Y019950D01*
X023585Y019950D01*
X022950Y020585D01*
X022950Y021085D01*
X022085Y021950D01*
X022085Y021950D01*
X021950Y022085D01*
X021950Y023252D01*
X021715Y023487D01*
X021715Y023873D01*
X021900Y024058D01*
X021900Y024302D01*
X021786Y024417D01*
X021715Y024588D01*
X021715Y024772D01*
X021190Y024772D01*
X021190Y024614D02*
X021715Y024614D01*
X021715Y024772D02*
X021786Y024943D01*
X021917Y025074D01*
X022088Y025145D01*
X022842Y025145D01*
X022960Y025096D01*
X022960Y025265D01*
X022928Y025249D01*
X022859Y025226D01*
X022787Y025215D01*
X022183Y025215D01*
X022183Y025677D01*
X022177Y025677D01*
X022177Y025215D01*
X022143Y025215D01*
X022071Y025226D01*
X022002Y025249D01*
X021936Y025282D01*
X021877Y025325D01*
X021825Y025377D01*
X021782Y025436D01*
X021749Y025502D01*
X021726Y025571D01*
X021715Y025643D01*
X021715Y025677D01*
X022177Y025677D01*
X022177Y025683D01*
X022177Y026145D01*
X022143Y026145D01*
X022071Y026134D01*
X022002Y026111D01*
X021936Y026078D01*
X021877Y026035D01*
X021825Y025983D01*
X021782Y025924D01*
X021749Y025858D01*
X021726Y025789D01*
X021715Y025717D01*
X021715Y025683D01*
X022177Y025683D01*
X022183Y025683D01*
X022183Y026145D01*
X022787Y026145D01*
X022859Y026134D01*
X022928Y026111D01*
X022960Y026095D01*
X022960Y026264D01*
X022842Y026215D01*
X022390Y026215D01*
X022281Y026170D01*
X021391Y026170D01*
X021190Y025969D01*
X021190Y022391D01*
X022469Y021112D01*
X022455Y021127D02*
X022908Y021127D01*
X022950Y020968D02*
X022613Y020968D01*
X022678Y020810D02*
X022950Y020810D01*
X022950Y020651D02*
X022690Y020651D01*
X022690Y020493D02*
X023042Y020493D01*
X023201Y020334D02*
X022690Y020334D01*
X022690Y020176D02*
X023359Y020176D01*
X023518Y020017D02*
X022690Y020017D01*
X022690Y019859D02*
X024151Y019859D01*
X024122Y019700D02*
X022690Y019700D01*
X022690Y019542D02*
X024135Y019542D01*
X024200Y019383D02*
X022690Y019383D01*
X022690Y019225D02*
X024351Y019225D01*
X024280Y019066D02*
X022690Y019066D01*
X022690Y018908D02*
X024171Y018908D01*
X024122Y018749D02*
X022690Y018749D01*
X022690Y018591D02*
X024122Y018591D01*
X024180Y018432D02*
X022690Y018432D01*
X022690Y018274D02*
X024302Y018274D01*
X024329Y018115D02*
X022690Y018115D01*
X022690Y017957D02*
X024191Y017957D01*
X024126Y017798D02*
X022690Y017798D01*
X023403Y017640D02*
X024122Y017640D01*
X024160Y017481D02*
X023600Y017481D01*
X023673Y017323D02*
X024253Y017323D01*
X024402Y017164D02*
X023690Y017164D01*
X023690Y017006D02*
X024219Y017006D01*
X024146Y016847D02*
X023690Y016847D01*
X023690Y016689D02*
X024122Y016689D01*
X024139Y016530D02*
X023690Y016530D01*
X023690Y016372D02*
X024205Y016372D01*
X024364Y016213D02*
X023690Y016213D01*
X023690Y016055D02*
X032170Y016055D01*
X032170Y016213D02*
X024980Y016213D01*
X025140Y016372D02*
X032170Y016372D01*
X032170Y016530D02*
X025205Y016530D01*
X025222Y016689D02*
X032170Y016689D01*
X032170Y016847D02*
X025199Y016847D01*
X025125Y017006D02*
X032170Y017006D01*
X032170Y017164D02*
X024943Y017164D01*
X025092Y017323D02*
X032170Y017323D01*
X032170Y017481D02*
X025185Y017481D01*
X025222Y017640D02*
X032170Y017640D01*
X032177Y017798D02*
X025219Y017798D01*
X025153Y017957D02*
X032243Y017957D01*
X032394Y018115D02*
X025016Y018115D01*
X025043Y018274D02*
X032552Y018274D01*
X032711Y018432D02*
X025165Y018432D01*
X025222Y018591D02*
X032869Y018591D01*
X033028Y018749D02*
X025222Y018749D01*
X025174Y018908D02*
X033186Y018908D01*
X033345Y019066D02*
X025065Y019066D01*
X024994Y019225D02*
X035154Y019225D01*
X035154Y019383D02*
X025144Y019383D01*
X025210Y019542D02*
X035128Y019542D01*
X035114Y019700D02*
X025222Y019700D01*
X025194Y019859D02*
X035141Y019859D01*
X036145Y019960D02*
X036214Y019794D01*
X036214Y019575D01*
X036174Y019478D01*
X036174Y018890D01*
X036214Y018794D01*
X036214Y018575D01*
X036131Y018373D01*
X035976Y018218D01*
X035894Y018184D01*
X035953Y018155D01*
X036023Y018104D01*
X036084Y018043D01*
X036135Y017973D01*
X036174Y017896D01*
X036201Y017813D01*
X036214Y017728D01*
X036214Y017704D01*
X035684Y017704D01*
X035684Y017664D01*
X036214Y017664D01*
X036214Y017641D01*
X036201Y017556D01*
X036187Y017512D01*
X036585Y017910D01*
X036775Y017910D01*
X036785Y017901D01*
X038163Y017901D01*
X038433Y018171D01*
X038163Y018441D01*
X038094Y018441D01*
X036575Y019960D01*
X036145Y019960D01*
X036188Y019859D02*
X036676Y019859D01*
X036835Y019700D02*
X036214Y019700D01*
X036200Y019542D02*
X036993Y019542D01*
X037152Y019383D02*
X036174Y019383D01*
X036174Y019225D02*
X037310Y019225D01*
X037469Y019066D02*
X036174Y019066D01*
X036174Y018908D02*
X037627Y018908D01*
X037786Y018749D02*
X036214Y018749D01*
X036214Y018591D02*
X037944Y018591D01*
X038172Y018432D02*
X036155Y018432D01*
X036031Y018274D02*
X038330Y018274D01*
X038378Y018115D02*
X036007Y018115D01*
X036143Y017957D02*
X038219Y017957D01*
X038988Y018115D02*
X039420Y018115D01*
X039420Y017957D02*
X039146Y017957D01*
X039213Y017798D02*
X039420Y017798D01*
X039420Y017640D02*
X039213Y017640D01*
X039213Y017481D02*
X039420Y017481D01*
X039420Y017323D02*
X039084Y017323D01*
X038939Y017164D02*
X039420Y017164D01*
X039420Y017006D02*
X039097Y017006D01*
X039213Y016847D02*
X039420Y016847D01*
X039420Y016689D02*
X039213Y016689D01*
X039213Y016530D02*
X039420Y016530D01*
X039420Y016372D02*
X039133Y016372D01*
X038975Y016213D02*
X039420Y016213D01*
X039333Y016055D02*
X033190Y016055D01*
X033190Y016213D02*
X035365Y016213D01*
X035199Y016372D02*
X033190Y016372D01*
X033190Y016530D02*
X035133Y016530D01*
X035114Y016689D02*
X033190Y016689D01*
X033190Y016847D02*
X033940Y016847D01*
X033814Y017006D02*
X033190Y017006D01*
X033190Y017164D02*
X033775Y017164D01*
X033801Y017323D02*
X033190Y017323D01*
X033202Y017481D02*
X033908Y017481D01*
X033519Y017798D02*
X035125Y017798D01*
X035115Y017640D02*
X033361Y017640D01*
X033678Y017957D02*
X035186Y017957D01*
X035321Y018115D02*
X033836Y018115D01*
X034452Y017481D02*
X035152Y017481D01*
X035136Y016847D02*
X034420Y016847D01*
X033190Y015896D02*
X039175Y015896D01*
X039016Y015738D02*
X033190Y015738D01*
X032170Y015738D02*
X023844Y015738D01*
X023690Y015896D02*
X032170Y015896D01*
X033897Y014470D02*
X023548Y014470D01*
X023390Y014628D02*
X040303Y014628D01*
X040450Y014787D02*
X039508Y014787D01*
X039666Y014945D02*
X040450Y014945D01*
X040450Y015104D02*
X039825Y015104D01*
X039983Y015262D02*
X040450Y015262D01*
X040450Y015421D02*
X040142Y015421D01*
X040300Y015579D02*
X040450Y015579D01*
X040450Y015738D02*
X040402Y015738D01*
X040440Y015896D02*
X040450Y015896D01*
X040440Y016055D02*
X040450Y016055D01*
X040440Y016213D02*
X040450Y016213D01*
X040440Y016372D02*
X040450Y016372D01*
X040440Y016530D02*
X040450Y016530D01*
X040440Y016689D02*
X040450Y016689D01*
X040440Y016847D02*
X040450Y016847D01*
X040440Y017006D02*
X040450Y017006D01*
X040440Y017164D02*
X040450Y017164D01*
X040440Y017323D02*
X040450Y017323D01*
X040440Y017481D02*
X040450Y017481D01*
X040440Y017640D02*
X040450Y017640D01*
X040440Y017798D02*
X040450Y017798D01*
X040440Y017957D02*
X040450Y017957D01*
X040440Y018115D02*
X040450Y018115D01*
X040440Y018274D02*
X040450Y018274D01*
X040440Y018432D02*
X040450Y018432D01*
X040440Y018591D02*
X040450Y018591D01*
X040440Y018749D02*
X040450Y018749D01*
X040440Y018908D02*
X040450Y018908D01*
X040440Y019066D02*
X040450Y019066D01*
X040440Y019225D02*
X040450Y019225D01*
X040440Y019383D02*
X040450Y019383D01*
X040440Y019542D02*
X040450Y019542D01*
X040440Y019700D02*
X040450Y019700D01*
X040440Y019859D02*
X040450Y019859D01*
X040440Y020017D02*
X040450Y020017D01*
X040440Y020176D02*
X040450Y020176D01*
X040440Y020334D02*
X040509Y020334D01*
X040440Y020493D02*
X040667Y020493D01*
X040826Y020651D02*
X040440Y020651D01*
X040440Y020810D02*
X040984Y020810D01*
X041143Y020968D02*
X040440Y020968D01*
X040440Y021127D02*
X041301Y021127D01*
X041460Y021285D02*
X040440Y021285D01*
X040440Y021444D02*
X041618Y021444D01*
X041777Y021602D02*
X040440Y021602D01*
X040440Y021761D02*
X041935Y021761D01*
X042094Y021919D02*
X040440Y021919D01*
X040440Y022078D02*
X042252Y022078D01*
X042411Y022236D02*
X040440Y022236D01*
X040440Y022395D02*
X042450Y022395D01*
X042450Y022553D02*
X040440Y022553D01*
X040440Y022712D02*
X042450Y022712D01*
X042450Y022870D02*
X040440Y022870D01*
X040440Y023029D02*
X042450Y023029D01*
X042450Y023187D02*
X040440Y023187D01*
X040440Y023346D02*
X042450Y023346D01*
X042450Y023504D02*
X040440Y023504D01*
X040440Y023663D02*
X042450Y023663D01*
X042450Y023821D02*
X040440Y023821D01*
X040440Y023980D02*
X042450Y023980D01*
X042450Y024138D02*
X040440Y024138D01*
X040440Y024297D02*
X042450Y024297D01*
X042450Y024455D02*
X040440Y024455D01*
X040440Y024614D02*
X042450Y024614D01*
X042450Y024772D02*
X040440Y024772D01*
X040440Y024931D02*
X042450Y024931D01*
X042450Y025089D02*
X040440Y025089D01*
X040440Y025248D02*
X042450Y025248D01*
X042450Y025406D02*
X040440Y025406D01*
X040440Y025565D02*
X042450Y025565D01*
X042450Y025723D02*
X040440Y025723D01*
X040440Y025882D02*
X042450Y025882D01*
X042450Y026040D02*
X040440Y026040D01*
X040440Y026199D02*
X042450Y026199D01*
X042450Y026357D02*
X040440Y026357D01*
X040440Y026516D02*
X042450Y026516D01*
X042450Y026674D02*
X040440Y026674D01*
X040440Y026833D02*
X042450Y026833D01*
X042450Y026991D02*
X040440Y026991D01*
X040440Y027150D02*
X042450Y027150D01*
X042450Y027308D02*
X040440Y027308D01*
X040440Y027467D02*
X042450Y027467D01*
X042450Y027625D02*
X040440Y027625D01*
X040440Y027784D02*
X042450Y027784D01*
X042450Y027942D02*
X040440Y027942D01*
X040440Y028101D02*
X042450Y028101D01*
X042450Y028259D02*
X040440Y028259D01*
X040440Y028418D02*
X042450Y028418D01*
X042450Y028576D02*
X040440Y028576D01*
X040440Y028735D02*
X042450Y028735D01*
X042450Y028893D02*
X040440Y028893D01*
X040440Y029052D02*
X042450Y029052D01*
X042450Y029210D02*
X040440Y029210D01*
X040440Y029369D02*
X042450Y029369D01*
X042450Y029527D02*
X040440Y029527D01*
X040440Y029686D02*
X042450Y029686D01*
X042450Y029844D02*
X040440Y029844D01*
X040440Y030003D02*
X042450Y030003D01*
X042450Y030161D02*
X040440Y030161D01*
X040440Y030320D02*
X042450Y030320D01*
X042450Y030478D02*
X040440Y030478D01*
X040440Y030637D02*
X042450Y030637D01*
X042450Y030795D02*
X040440Y030795D01*
X040440Y030954D02*
X042450Y030954D01*
X042450Y031112D02*
X040440Y031112D01*
X040440Y031271D02*
X042450Y031271D01*
X042450Y031429D02*
X040440Y031429D01*
X040440Y031588D02*
X042450Y031588D01*
X042450Y031746D02*
X040440Y031746D01*
X040440Y031905D02*
X042450Y031905D01*
X042450Y032063D02*
X040440Y032063D01*
X040443Y032222D02*
X042450Y032222D01*
X042450Y032380D02*
X040601Y032380D01*
X040760Y032539D02*
X042450Y032539D01*
X042450Y032697D02*
X040918Y032697D01*
X041077Y032856D02*
X042530Y032856D01*
X042689Y033014D02*
X041235Y033014D01*
X041394Y033173D02*
X042847Y033173D01*
X043006Y033331D02*
X041552Y033331D01*
X041711Y033490D02*
X044151Y033490D01*
X044151Y033648D02*
X041869Y033648D01*
X042028Y033807D02*
X044151Y033807D01*
X044207Y033965D02*
X042186Y033965D01*
X042345Y034124D02*
X044365Y034124D01*
X044340Y034282D02*
X042503Y034282D01*
X042662Y034441D02*
X044181Y034441D01*
X044151Y034599D02*
X042820Y034599D01*
X042979Y034758D02*
X044151Y034758D01*
X044158Y034916D02*
X043137Y034916D01*
X043296Y035075D02*
X044316Y035075D01*
X042804Y036026D02*
X039211Y036026D01*
X039211Y036064D02*
X039199Y036110D01*
X039175Y036151D01*
X039142Y036184D01*
X043064Y036184D01*
X042646Y035867D02*
X039211Y035867D01*
X039211Y035710D02*
X039211Y036064D01*
X039142Y036184D02*
X039101Y036208D01*
X039055Y036220D01*
X038701Y036220D01*
X038701Y035710D01*
X039211Y035710D01*
X039211Y035550D02*
X042329Y035550D01*
X042487Y035709D02*
X038701Y035709D01*
X038661Y035709D02*
X035180Y035709D01*
X035180Y035867D02*
X038151Y035867D01*
X038151Y035710D02*
X038151Y036064D01*
X038164Y036110D01*
X038187Y036151D01*
X038221Y036184D01*
X038262Y036208D01*
X038308Y036220D01*
X038661Y036220D01*
X038661Y035710D01*
X038151Y035710D01*
X038151Y035550D02*
X035180Y035550D01*
X035180Y035392D02*
X038151Y035392D01*
X038185Y035233D02*
X035180Y035233D01*
X035180Y035075D02*
X038316Y035075D01*
X038158Y034916D02*
X035180Y034916D01*
X035180Y034758D02*
X037432Y034758D01*
X037274Y034599D02*
X035180Y034599D01*
X035180Y034441D02*
X037115Y034441D01*
X036957Y034282D02*
X035180Y034282D01*
X035158Y033173D02*
X025175Y033173D01*
X025222Y033014D02*
X035114Y033014D01*
X035114Y032856D02*
X025222Y032856D01*
X025222Y032697D02*
X035114Y032697D01*
X035114Y032539D02*
X025222Y032539D01*
X024170Y033173D02*
X022340Y033173D01*
X022456Y033331D02*
X036704Y033331D01*
X036715Y033173D02*
X036171Y033173D01*
X036214Y033014D02*
X036715Y033014D01*
X036847Y032856D02*
X036214Y032856D01*
X036214Y032697D02*
X038151Y032697D01*
X038151Y032539D02*
X036214Y032539D01*
X037513Y032856D02*
X038151Y032856D01*
X038256Y033014D02*
X037645Y033014D01*
X037645Y033173D02*
X038414Y033173D01*
X038291Y033331D02*
X037645Y033331D01*
X037528Y033490D02*
X038151Y033490D01*
X038151Y033648D02*
X037410Y033648D01*
X037410Y033807D02*
X038151Y033807D01*
X038207Y033965D02*
X037410Y033965D01*
X037449Y034124D02*
X038365Y034124D01*
X038340Y034282D02*
X037607Y034282D01*
X037766Y034441D02*
X038181Y034441D01*
X039023Y034282D02*
X041061Y034282D01*
X041219Y034441D02*
X039181Y034441D01*
X039211Y034599D02*
X041378Y034599D01*
X041536Y034758D02*
X039211Y034758D01*
X039205Y034916D02*
X041695Y034916D01*
X041853Y035075D02*
X039047Y035075D01*
X039177Y035233D02*
X042012Y035233D01*
X042170Y035392D02*
X039211Y035392D01*
X038701Y035867D02*
X038661Y035867D01*
X038661Y036026D02*
X038701Y036026D01*
X038701Y036184D02*
X038661Y036184D01*
X038221Y036184D02*
X035180Y036184D01*
X035180Y036026D02*
X038151Y036026D01*
X038998Y034124D02*
X040902Y034124D01*
X040744Y033965D02*
X039156Y033965D01*
X039211Y033807D02*
X040585Y033807D01*
X040427Y033648D02*
X039211Y033648D01*
X039211Y033490D02*
X040268Y033490D01*
X040110Y033331D02*
X039072Y033331D01*
X038949Y033173D02*
X039951Y033173D01*
X039793Y033014D02*
X039107Y033014D01*
X039211Y032856D02*
X039634Y032856D01*
X039489Y032697D02*
X039211Y032697D01*
X039211Y032539D02*
X039423Y032539D01*
X039420Y032380D02*
X039121Y032380D01*
X038962Y032222D02*
X039420Y032222D01*
X039420Y032063D02*
X039058Y032063D01*
X039211Y031905D02*
X039420Y031905D01*
X039420Y031746D02*
X039211Y031746D01*
X039211Y031588D02*
X039420Y031588D01*
X039420Y031429D02*
X039170Y031429D01*
X039011Y031271D02*
X039420Y031271D01*
X039420Y031112D02*
X039009Y031112D01*
X039168Y030954D02*
X039420Y030954D01*
X039420Y030795D02*
X039211Y030795D01*
X039211Y030637D02*
X039420Y030637D01*
X039420Y030478D02*
X039211Y030478D01*
X039060Y030320D02*
X039420Y030320D01*
X039420Y030161D02*
X038960Y030161D01*
X039119Y030003D02*
X039420Y030003D01*
X039420Y029844D02*
X039211Y029844D01*
X039211Y029686D02*
X039420Y029686D01*
X039420Y029527D02*
X039211Y029527D01*
X039109Y029369D02*
X039420Y029369D01*
X039420Y029210D02*
X038951Y029210D01*
X039070Y029052D02*
X039420Y029052D01*
X039420Y028893D02*
X039211Y028893D01*
X039211Y028735D02*
X039420Y028735D01*
X039420Y028576D02*
X039211Y028576D01*
X039158Y028418D02*
X039420Y028418D01*
X039420Y028259D02*
X039000Y028259D01*
X039021Y028101D02*
X039420Y028101D01*
X039420Y027942D02*
X039179Y027942D01*
X039211Y027784D02*
X039420Y027784D01*
X039420Y027625D02*
X039211Y027625D01*
X039207Y027467D02*
X039420Y027467D01*
X039420Y027308D02*
X039049Y027308D01*
X038972Y027150D02*
X039420Y027150D01*
X039420Y026991D02*
X039130Y026991D01*
X039211Y026833D02*
X039420Y026833D01*
X039420Y026674D02*
X039211Y026674D01*
X039211Y026516D02*
X039420Y026516D01*
X039420Y026357D02*
X039098Y026357D01*
X038939Y026199D02*
X039420Y026199D01*
X039420Y026040D02*
X039063Y026040D01*
X039213Y025882D02*
X039420Y025882D01*
X039420Y025723D02*
X039213Y025723D01*
X039213Y025565D02*
X039420Y025565D01*
X039420Y025406D02*
X039168Y025406D01*
X039009Y025248D02*
X039420Y025248D01*
X039420Y025089D02*
X039014Y025089D01*
X039172Y024931D02*
X039420Y024931D01*
X039420Y024772D02*
X039213Y024772D01*
X039213Y024614D02*
X039420Y024614D01*
X039420Y024455D02*
X039213Y024455D01*
X039058Y024297D02*
X039420Y024297D01*
X039420Y024138D02*
X038965Y024138D01*
X039123Y023980D02*
X039420Y023980D01*
X039420Y023821D02*
X039213Y023821D01*
X039213Y023663D02*
X039420Y023663D01*
X039420Y023504D02*
X039213Y023504D01*
X039107Y023346D02*
X039420Y023346D01*
X039420Y023187D02*
X038949Y023187D01*
X039074Y023029D02*
X039420Y023029D01*
X039420Y022870D02*
X039213Y022870D01*
X039213Y022712D02*
X039420Y022712D01*
X039420Y022553D02*
X039213Y022553D01*
X039156Y022395D02*
X039420Y022395D01*
X039420Y022236D02*
X038998Y022236D01*
X039025Y022078D02*
X039420Y022078D01*
X039420Y021919D02*
X039184Y021919D01*
X039213Y021761D02*
X039420Y021761D01*
X039420Y021602D02*
X039213Y021602D01*
X039205Y021444D02*
X039420Y021444D01*
X039420Y021285D02*
X039047Y021285D01*
X038976Y021127D02*
X039420Y021127D01*
X039420Y020968D02*
X039135Y020968D01*
X039213Y020810D02*
X039420Y020810D01*
X039420Y020651D02*
X039213Y020651D01*
X039213Y020493D02*
X039420Y020493D01*
X039420Y020334D02*
X039096Y020334D01*
X038937Y020176D02*
X039420Y020176D01*
X039420Y020017D02*
X039086Y020017D01*
X039213Y019859D02*
X039420Y019859D01*
X039420Y019700D02*
X039213Y019700D01*
X039213Y019542D02*
X039420Y019542D01*
X039420Y019383D02*
X039145Y019383D01*
X038986Y019225D02*
X039420Y019225D01*
X039420Y019066D02*
X039037Y019066D01*
X039195Y018908D02*
X039420Y018908D01*
X039420Y018749D02*
X039213Y018749D01*
X039213Y018591D02*
X039420Y018591D01*
X039420Y018432D02*
X039194Y018432D01*
X039035Y018274D02*
X039420Y018274D01*
X038433Y019171D02*
X038224Y018961D01*
X036775Y020410D01*
X036585Y020410D01*
X036575Y020400D01*
X036142Y020400D01*
X036214Y020575D01*
X036214Y020794D01*
X036131Y020996D01*
X035976Y021151D01*
X035894Y021184D01*
X035976Y021218D01*
X036131Y021373D01*
X036214Y021575D01*
X036214Y021794D01*
X036131Y021996D01*
X035976Y022151D01*
X035894Y022184D01*
X035976Y022218D01*
X036131Y022373D01*
X036164Y022454D01*
X036280Y022454D01*
X037040Y023215D01*
X037373Y023215D01*
X037608Y023450D01*
X038154Y023450D01*
X038433Y023171D01*
X038153Y022890D01*
X038153Y022451D01*
X038433Y022171D01*
X038153Y021890D01*
X038153Y021451D01*
X038433Y021171D01*
X038153Y020890D01*
X038153Y020451D01*
X038433Y020171D01*
X038153Y019890D01*
X038153Y019451D01*
X038433Y019171D01*
X038379Y019225D02*
X037961Y019225D01*
X037802Y019383D02*
X038221Y019383D01*
X038153Y019542D02*
X037644Y019542D01*
X037485Y019700D02*
X038153Y019700D01*
X038153Y019859D02*
X037327Y019859D01*
X037168Y020017D02*
X038280Y020017D01*
X038428Y020176D02*
X037010Y020176D01*
X036987Y020215D02*
X036715Y020487D01*
X036715Y020677D01*
X037177Y020677D01*
X037177Y020683D01*
X037177Y021145D01*
X036987Y021145D01*
X036715Y020873D01*
X036715Y020683D01*
X037177Y020683D01*
X037183Y020683D01*
X037183Y021145D01*
X037373Y021145D01*
X037645Y020873D01*
X037645Y020683D01*
X037183Y020683D01*
X037183Y020677D01*
X037645Y020677D01*
X037645Y020487D01*
X037373Y020215D01*
X037183Y020215D01*
X037183Y020677D01*
X037177Y020677D01*
X037177Y020215D01*
X036987Y020215D01*
X036868Y020334D02*
X036851Y020334D01*
X036715Y020493D02*
X036180Y020493D01*
X036214Y020651D02*
X036715Y020651D01*
X036715Y020810D02*
X036208Y020810D01*
X036142Y020968D02*
X036810Y020968D01*
X036969Y021127D02*
X036000Y021127D01*
X036043Y021285D02*
X038319Y021285D01*
X038389Y021127D02*
X037391Y021127D01*
X037183Y021127D02*
X037177Y021127D01*
X037177Y020968D02*
X037183Y020968D01*
X037177Y020810D02*
X037183Y020810D01*
X037177Y020651D02*
X037183Y020651D01*
X037177Y020493D02*
X037183Y020493D01*
X037177Y020334D02*
X037183Y020334D01*
X037492Y020334D02*
X038270Y020334D01*
X038153Y020493D02*
X037645Y020493D01*
X037645Y020651D02*
X038153Y020651D01*
X038153Y020810D02*
X037645Y020810D01*
X037550Y020968D02*
X038231Y020968D01*
X038160Y021444D02*
X036160Y021444D01*
X036214Y021602D02*
X038153Y021602D01*
X038153Y021761D02*
X036214Y021761D01*
X036162Y021919D02*
X038182Y021919D01*
X038340Y022078D02*
X036049Y022078D01*
X035994Y022236D02*
X038368Y022236D01*
X038209Y022395D02*
X036140Y022395D01*
X036378Y022553D02*
X038153Y022553D01*
X038153Y022712D02*
X036537Y022712D01*
X036695Y022870D02*
X038153Y022870D01*
X038291Y023029D02*
X036854Y023029D01*
X037012Y023187D02*
X038417Y023187D01*
X038258Y023346D02*
X037503Y023346D01*
X038119Y019066D02*
X038329Y019066D01*
X036473Y017798D02*
X036203Y017798D01*
X036214Y017640D02*
X036314Y017640D01*
X036648Y017323D02*
X038281Y017323D01*
X038427Y017164D02*
X036489Y017164D01*
X036331Y017006D02*
X036848Y017006D01*
X036715Y016847D02*
X036192Y016847D01*
X036214Y016689D02*
X036715Y016689D01*
X036715Y016530D02*
X036196Y016530D01*
X036129Y016372D02*
X036831Y016372D01*
X035964Y016213D02*
X038391Y016213D01*
X038232Y016372D02*
X037529Y016372D01*
X037512Y017006D02*
X038268Y017006D01*
X041401Y017006D02*
X044268Y017006D01*
X044153Y016890D02*
X044153Y016451D01*
X044463Y016141D01*
X044902Y016141D01*
X045213Y016451D01*
X045213Y016890D01*
X044932Y017171D01*
X045213Y017451D01*
X045213Y017890D01*
X044932Y018171D01*
X045213Y018451D01*
X045213Y018890D01*
X044932Y019171D01*
X045213Y019451D01*
X045213Y019890D01*
X044932Y020171D01*
X045213Y020451D01*
X045213Y020890D01*
X044932Y021171D01*
X045213Y021451D01*
X045213Y021890D01*
X044932Y022171D01*
X045213Y022451D01*
X045213Y022890D01*
X044932Y023171D01*
X045213Y023451D01*
X045213Y023890D01*
X044932Y024171D01*
X045213Y024451D01*
X045213Y024890D01*
X044932Y025171D01*
X045213Y025451D01*
X045213Y025890D01*
X044922Y026181D01*
X045211Y026471D01*
X045211Y026910D01*
X045171Y026950D01*
X045275Y026950D01*
X046150Y027825D01*
X046150Y027460D01*
X046460Y027150D01*
X046900Y027150D01*
X047210Y027460D01*
X047210Y027900D01*
X046930Y028180D01*
X047210Y028460D01*
X047210Y028900D01*
X046930Y029180D01*
X047210Y029460D01*
X047210Y029660D01*
X046700Y029660D01*
X046700Y029700D01*
X047210Y029700D01*
X047210Y029900D01*
X046930Y030180D01*
X047142Y030393D01*
X047450Y030085D01*
X047450Y017275D01*
X042581Y012406D01*
X041690Y012406D01*
X041420Y012676D01*
X041701Y012957D01*
X041701Y013396D01*
X041401Y013696D01*
X041401Y017075D01*
X043775Y019450D01*
X044154Y019450D01*
X044433Y019171D01*
X044153Y018890D01*
X044153Y018451D01*
X044433Y018171D01*
X044153Y017890D01*
X044153Y017451D01*
X044433Y017171D01*
X044153Y016890D01*
X044153Y016847D02*
X041401Y016847D01*
X041401Y016689D02*
X044153Y016689D01*
X044153Y016530D02*
X041401Y016530D01*
X041401Y016372D02*
X044232Y016372D01*
X044391Y016213D02*
X041401Y016213D01*
X041401Y016055D02*
X046229Y016055D01*
X046388Y016213D02*
X044975Y016213D01*
X045133Y016372D02*
X046546Y016372D01*
X046705Y016530D02*
X045213Y016530D01*
X045213Y016689D02*
X046863Y016689D01*
X047022Y016847D02*
X045213Y016847D01*
X045097Y017006D02*
X047180Y017006D01*
X047339Y017164D02*
X044939Y017164D01*
X045084Y017323D02*
X047450Y017323D01*
X047450Y017481D02*
X045213Y017481D01*
X045213Y017640D02*
X047450Y017640D01*
X047450Y017798D02*
X045213Y017798D01*
X045146Y017957D02*
X047450Y017957D01*
X047450Y018115D02*
X044988Y018115D01*
X045035Y018274D02*
X047450Y018274D01*
X047450Y018432D02*
X045194Y018432D01*
X045213Y018591D02*
X047450Y018591D01*
X047450Y018749D02*
X045213Y018749D01*
X045195Y018908D02*
X047450Y018908D01*
X047450Y019066D02*
X045037Y019066D01*
X044986Y019225D02*
X047450Y019225D01*
X047450Y019383D02*
X045145Y019383D01*
X045213Y019542D02*
X047450Y019542D01*
X047450Y019700D02*
X045213Y019700D01*
X045213Y019859D02*
X047450Y019859D01*
X047450Y020017D02*
X045086Y020017D01*
X044937Y020176D02*
X047450Y020176D01*
X047450Y020334D02*
X045096Y020334D01*
X045213Y020493D02*
X047450Y020493D01*
X047450Y020651D02*
X045213Y020651D01*
X045213Y020810D02*
X047450Y020810D01*
X047450Y020968D02*
X045135Y020968D01*
X044976Y021127D02*
X047450Y021127D01*
X047450Y021285D02*
X045047Y021285D01*
X045205Y021444D02*
X047450Y021444D01*
X047450Y021602D02*
X045213Y021602D01*
X045213Y021761D02*
X047450Y021761D01*
X047450Y021919D02*
X045184Y021919D01*
X045025Y022078D02*
X047450Y022078D01*
X047450Y022236D02*
X044998Y022236D01*
X045156Y022395D02*
X047450Y022395D01*
X047450Y022553D02*
X045213Y022553D01*
X045213Y022712D02*
X047450Y022712D01*
X047450Y022870D02*
X045213Y022870D01*
X045074Y023029D02*
X047450Y023029D01*
X047450Y023187D02*
X044949Y023187D01*
X045107Y023346D02*
X047450Y023346D01*
X047450Y023504D02*
X045213Y023504D01*
X045213Y023663D02*
X047450Y023663D01*
X047450Y023821D02*
X045213Y023821D01*
X045123Y023980D02*
X047450Y023980D01*
X047450Y024138D02*
X044965Y024138D01*
X045058Y024297D02*
X047450Y024297D01*
X047450Y024455D02*
X045213Y024455D01*
X045213Y024614D02*
X047450Y024614D01*
X047450Y024772D02*
X045213Y024772D01*
X045172Y024931D02*
X047450Y024931D01*
X047450Y025089D02*
X045014Y025089D01*
X045009Y025248D02*
X047450Y025248D01*
X047450Y025406D02*
X045168Y025406D01*
X045213Y025565D02*
X047450Y025565D01*
X047450Y025723D02*
X045213Y025723D01*
X045213Y025882D02*
X047450Y025882D01*
X047450Y026040D02*
X045063Y026040D01*
X044939Y026199D02*
X047450Y026199D01*
X047450Y026357D02*
X045098Y026357D01*
X045211Y026516D02*
X047450Y026516D01*
X047450Y026674D02*
X045211Y026674D01*
X045211Y026833D02*
X047450Y026833D01*
X047450Y026991D02*
X045316Y026991D01*
X045475Y027150D02*
X047450Y027150D01*
X047450Y027308D02*
X047058Y027308D01*
X047210Y027467D02*
X047450Y027467D01*
X047450Y027625D02*
X047210Y027625D01*
X047210Y027784D02*
X047450Y027784D01*
X047450Y027942D02*
X047167Y027942D01*
X047009Y028101D02*
X047450Y028101D01*
X047450Y028259D02*
X047009Y028259D01*
X047167Y028418D02*
X047450Y028418D01*
X047450Y028576D02*
X047210Y028576D01*
X047210Y028735D02*
X047450Y028735D01*
X047450Y028893D02*
X047210Y028893D01*
X047058Y029052D02*
X047450Y029052D01*
X047450Y029210D02*
X046960Y029210D01*
X047118Y029369D02*
X047450Y029369D01*
X047450Y029527D02*
X047210Y029527D01*
X047450Y029686D02*
X046700Y029686D01*
X046660Y029686D02*
X045511Y029686D01*
X045669Y029844D02*
X046150Y029844D01*
X046150Y029900D02*
X046150Y029700D01*
X046660Y029700D01*
X046660Y029660D01*
X046150Y029660D01*
X046150Y029460D01*
X046430Y029180D01*
X046218Y028967D01*
X045775Y029410D01*
X045585Y029410D01*
X045575Y029400D01*
X045141Y029400D01*
X045201Y029460D01*
X045285Y029460D01*
X046218Y030393D01*
X046430Y030180D01*
X046150Y029900D01*
X046253Y030003D02*
X045828Y030003D01*
X045986Y030161D02*
X046412Y030161D01*
X046291Y030320D02*
X046145Y030320D01*
X046948Y030161D02*
X047374Y030161D01*
X047450Y030003D02*
X047107Y030003D01*
X047210Y029844D02*
X047450Y029844D01*
X047215Y030320D02*
X047069Y030320D01*
X046150Y029527D02*
X045352Y029527D01*
X045817Y029369D02*
X046242Y029369D01*
X046400Y029210D02*
X045975Y029210D01*
X046134Y029052D02*
X046302Y029052D01*
X046150Y027784D02*
X046109Y027784D01*
X046150Y027625D02*
X045950Y027625D01*
X045792Y027467D02*
X046150Y027467D01*
X046302Y027308D02*
X045633Y027308D01*
X049190Y027308D02*
X055892Y027308D01*
X055892Y027150D02*
X049190Y027150D01*
X049190Y026991D02*
X055892Y026991D01*
X055892Y026833D02*
X049190Y026833D01*
X049190Y026674D02*
X055892Y026674D01*
X055892Y026516D02*
X049190Y026516D01*
X049190Y026357D02*
X055892Y026357D01*
X055892Y026199D02*
X049190Y026199D01*
X049190Y026040D02*
X055892Y026040D01*
X055892Y025882D02*
X049190Y025882D01*
X049190Y025723D02*
X055892Y025723D01*
X055892Y025565D02*
X049190Y025565D01*
X049190Y025406D02*
X055892Y025406D01*
X055892Y025248D02*
X049190Y025248D01*
X049190Y025089D02*
X055892Y025089D01*
X055892Y024931D02*
X049190Y024931D01*
X049190Y024772D02*
X055892Y024772D01*
X055892Y024614D02*
X049190Y024614D01*
X049190Y024455D02*
X055892Y024455D01*
X055892Y024297D02*
X049190Y024297D01*
X049190Y024138D02*
X055892Y024138D01*
X055892Y023980D02*
X049190Y023980D01*
X049190Y023821D02*
X055892Y023821D01*
X055892Y023663D02*
X049190Y023663D01*
X049190Y023504D02*
X055892Y023504D01*
X055892Y023346D02*
X049190Y023346D01*
X049190Y023187D02*
X055892Y023187D01*
X055892Y023029D02*
X049190Y023029D01*
X049190Y022870D02*
X055892Y022870D01*
X055892Y022712D02*
X049190Y022712D01*
X049190Y022553D02*
X055892Y022553D01*
X055892Y022395D02*
X049190Y022395D01*
X049190Y022236D02*
X055892Y022236D01*
X055892Y022078D02*
X049190Y022078D01*
X049190Y021919D02*
X055892Y021919D01*
X055892Y021761D02*
X049190Y021761D01*
X049190Y021602D02*
X055892Y021602D01*
X055892Y021444D02*
X049190Y021444D01*
X049190Y021285D02*
X055892Y021285D01*
X055892Y021127D02*
X049190Y021127D01*
X049190Y020968D02*
X055892Y020968D01*
X055892Y020810D02*
X049190Y020810D01*
X049190Y020651D02*
X055892Y020651D01*
X055892Y020493D02*
X049190Y020493D01*
X049190Y020334D02*
X055892Y020334D01*
X055892Y020176D02*
X049190Y020176D01*
X049190Y020017D02*
X053627Y020017D01*
X053622Y020015D02*
X053345Y019738D01*
X053195Y019376D01*
X053195Y018984D01*
X053345Y018622D01*
X053622Y018345D01*
X053984Y018195D01*
X054376Y018195D01*
X054738Y018345D01*
X055015Y018622D01*
X055165Y018984D01*
X055165Y019376D01*
X055015Y019738D01*
X054738Y020015D01*
X054376Y020165D01*
X053984Y020165D01*
X053622Y020015D01*
X053466Y019859D02*
X049190Y019859D01*
X049190Y019700D02*
X053329Y019700D01*
X053264Y019542D02*
X049190Y019542D01*
X049190Y019383D02*
X053198Y019383D01*
X053195Y019225D02*
X049190Y019225D01*
X049190Y019066D02*
X051054Y019066D01*
X051099Y019085D02*
X050951Y019023D01*
X050837Y018909D01*
X050775Y018761D01*
X050775Y018599D01*
X050837Y018451D01*
X050950Y018337D01*
X050950Y017983D01*
X050909Y018023D01*
X050761Y018085D01*
X050599Y018085D01*
X050451Y018023D01*
X050337Y017909D01*
X050275Y017761D01*
X050275Y017599D01*
X050337Y017451D01*
X050450Y017337D01*
X050450Y016983D01*
X050409Y017023D01*
X050261Y017085D01*
X050099Y017085D01*
X049951Y017023D01*
X049837Y016909D01*
X049775Y016761D01*
X049775Y016599D01*
X049837Y016451D01*
X049950Y016337D01*
X049950Y007085D01*
X051089Y005946D01*
X051655Y005946D01*
X051925Y005676D01*
X051645Y005396D01*
X051645Y004957D01*
X051925Y004676D01*
X051645Y004396D01*
X051645Y003957D01*
X051955Y003646D01*
X052394Y003646D01*
X052705Y003957D01*
X052705Y004396D01*
X052424Y004676D01*
X052705Y004957D01*
X052705Y005396D01*
X052424Y005676D01*
X052705Y005957D01*
X052705Y006396D01*
X052424Y006676D01*
X052705Y006957D01*
X052705Y007396D01*
X052424Y007676D01*
X052705Y007957D01*
X052705Y008396D01*
X052424Y008676D01*
X052705Y008957D01*
X052705Y009396D01*
X052424Y009676D01*
X052705Y009957D01*
X052705Y010396D01*
X052424Y010676D01*
X052705Y010957D01*
X052705Y011396D01*
X052424Y011676D01*
X052705Y011957D01*
X052705Y012396D01*
X052424Y012676D01*
X052705Y012957D01*
X052705Y013156D01*
X052195Y013156D01*
X052195Y013196D01*
X052705Y013196D01*
X052705Y013396D01*
X052394Y013706D01*
X052195Y013706D01*
X052195Y013196D01*
X052155Y013196D01*
X052155Y013706D01*
X051955Y013706D01*
X051645Y013396D01*
X051645Y013196D01*
X052155Y013196D01*
X052155Y013156D01*
X051645Y013156D01*
X051645Y012957D01*
X051925Y012676D01*
X051645Y012396D01*
X051645Y011957D01*
X051925Y011676D01*
X051645Y011396D01*
X051645Y010957D01*
X051925Y010676D01*
X051717Y010468D01*
X051410Y010775D01*
X051410Y018337D01*
X051523Y018451D01*
X051585Y018599D01*
X051585Y018761D01*
X051523Y018909D01*
X051409Y019023D01*
X051261Y019085D01*
X051099Y019085D01*
X051306Y019066D02*
X053195Y019066D01*
X053227Y018908D02*
X051524Y018908D01*
X051585Y018749D02*
X053292Y018749D01*
X053376Y018591D02*
X051581Y018591D01*
X051505Y018432D02*
X053535Y018432D01*
X053794Y018274D02*
X051410Y018274D01*
X051410Y018115D02*
X055892Y018115D01*
X055892Y017957D02*
X051410Y017957D01*
X051410Y017798D02*
X055892Y017798D01*
X055892Y017640D02*
X051410Y017640D01*
X051410Y017481D02*
X055892Y017481D01*
X055892Y017323D02*
X051410Y017323D01*
X051410Y017164D02*
X055892Y017164D01*
X055892Y017006D02*
X051410Y017006D01*
X051410Y016847D02*
X055892Y016847D01*
X055892Y016689D02*
X051410Y016689D01*
X051410Y016530D02*
X055892Y016530D01*
X055892Y016372D02*
X051410Y016372D01*
X051410Y016213D02*
X055892Y016213D01*
X055892Y016055D02*
X051410Y016055D01*
X051410Y015896D02*
X055892Y015896D01*
X055892Y015738D02*
X051410Y015738D01*
X051410Y015579D02*
X055892Y015579D01*
X055892Y015421D02*
X051410Y015421D01*
X051410Y015262D02*
X055892Y015262D01*
X055892Y015104D02*
X051410Y015104D01*
X051410Y014945D02*
X055892Y014945D01*
X055892Y014787D02*
X051410Y014787D01*
X051410Y014628D02*
X055892Y014628D01*
X055892Y014470D02*
X051410Y014470D01*
X051410Y014311D02*
X055892Y014311D01*
X055892Y014153D02*
X051410Y014153D01*
X051410Y013994D02*
X055892Y013994D01*
X055892Y013836D02*
X051410Y013836D01*
X051410Y013677D02*
X051926Y013677D01*
X051768Y013519D02*
X051410Y013519D01*
X051410Y013360D02*
X051645Y013360D01*
X051645Y013202D02*
X051410Y013202D01*
X051410Y013043D02*
X051645Y013043D01*
X051717Y012885D02*
X051410Y012885D01*
X051410Y012726D02*
X051875Y012726D01*
X051817Y012568D02*
X051410Y012568D01*
X051410Y012409D02*
X051658Y012409D01*
X051645Y012251D02*
X051410Y012251D01*
X051410Y012092D02*
X051645Y012092D01*
X051668Y011934D02*
X051410Y011934D01*
X051410Y011775D02*
X051826Y011775D01*
X051866Y011617D02*
X051410Y011617D01*
X051410Y011458D02*
X051707Y011458D01*
X051645Y011300D02*
X051410Y011300D01*
X051410Y011141D02*
X051645Y011141D01*
X051645Y010983D02*
X051410Y010983D01*
X051410Y010824D02*
X051777Y010824D01*
X051915Y010666D02*
X051520Y010666D01*
X051678Y010507D02*
X051756Y010507D01*
X052435Y010666D02*
X055892Y010666D01*
X055892Y010824D02*
X052572Y010824D01*
X052705Y010983D02*
X055892Y010983D01*
X055892Y011141D02*
X052705Y011141D01*
X052705Y011300D02*
X055892Y011300D01*
X055892Y011458D02*
X052642Y011458D01*
X052484Y011617D02*
X055892Y011617D01*
X055892Y011775D02*
X052523Y011775D01*
X052682Y011934D02*
X055892Y011934D01*
X055892Y012092D02*
X052705Y012092D01*
X052705Y012251D02*
X055892Y012251D01*
X055892Y012409D02*
X052691Y012409D01*
X052533Y012568D02*
X055892Y012568D01*
X055892Y012726D02*
X052474Y012726D01*
X052633Y012885D02*
X055892Y012885D01*
X055892Y013043D02*
X052705Y013043D01*
X052705Y013202D02*
X055892Y013202D01*
X055892Y013360D02*
X052705Y013360D01*
X052582Y013519D02*
X055892Y013519D01*
X055892Y013677D02*
X052423Y013677D01*
X052195Y013677D02*
X052155Y013677D01*
X052155Y013519D02*
X052195Y013519D01*
X052195Y013360D02*
X052155Y013360D01*
X052155Y013202D02*
X052195Y013202D01*
X049950Y013202D02*
X049190Y013202D01*
X049190Y013360D02*
X049950Y013360D01*
X049950Y013519D02*
X049190Y013519D01*
X049190Y013677D02*
X049950Y013677D01*
X049950Y013836D02*
X049190Y013836D01*
X049190Y013994D02*
X049950Y013994D01*
X049950Y014153D02*
X049190Y014153D01*
X049190Y014311D02*
X049950Y014311D01*
X049950Y014470D02*
X049190Y014470D01*
X049190Y014628D02*
X049950Y014628D01*
X049950Y014787D02*
X049190Y014787D01*
X049190Y014945D02*
X049950Y014945D01*
X049950Y015104D02*
X049190Y015104D01*
X049190Y015262D02*
X049950Y015262D01*
X049950Y015421D02*
X049190Y015421D01*
X049190Y015579D02*
X049950Y015579D01*
X049950Y015738D02*
X049190Y015738D01*
X049190Y015896D02*
X049950Y015896D01*
X049950Y016055D02*
X049190Y016055D01*
X049190Y016213D02*
X049950Y016213D01*
X049916Y016372D02*
X049190Y016372D01*
X049190Y016530D02*
X049804Y016530D01*
X049775Y016689D02*
X049190Y016689D01*
X049190Y016847D02*
X049811Y016847D01*
X049933Y017006D02*
X049190Y017006D01*
X049190Y017164D02*
X050450Y017164D01*
X050450Y017006D02*
X050427Y017006D01*
X050450Y017323D02*
X049190Y017323D01*
X049190Y017481D02*
X050324Y017481D01*
X050275Y017640D02*
X049190Y017640D01*
X049190Y017798D02*
X050291Y017798D01*
X050384Y017957D02*
X049190Y017957D01*
X049190Y018115D02*
X050950Y018115D01*
X050950Y018274D02*
X049190Y018274D01*
X049190Y018432D02*
X050855Y018432D01*
X050779Y018591D02*
X049190Y018591D01*
X049190Y018749D02*
X050775Y018749D01*
X050836Y018908D02*
X049190Y018908D01*
X046071Y015896D02*
X041401Y015896D01*
X041401Y015738D02*
X045912Y015738D01*
X045754Y015579D02*
X041401Y015579D01*
X041401Y015421D02*
X045595Y015421D01*
X045437Y015262D02*
X041401Y015262D01*
X041401Y015104D02*
X045278Y015104D01*
X045120Y014945D02*
X041401Y014945D01*
X041401Y014787D02*
X044961Y014787D01*
X044803Y014628D02*
X041401Y014628D01*
X041401Y014470D02*
X044644Y014470D01*
X044486Y014311D02*
X041401Y014311D01*
X041401Y014153D02*
X044327Y014153D01*
X044169Y013994D02*
X041401Y013994D01*
X041401Y013836D02*
X044010Y013836D01*
X043852Y013677D02*
X041420Y013677D01*
X041578Y013519D02*
X043693Y013519D01*
X043535Y013360D02*
X041701Y013360D01*
X041701Y013202D02*
X043376Y013202D01*
X043218Y013043D02*
X041701Y013043D01*
X041628Y012885D02*
X043059Y012885D01*
X042901Y012726D02*
X041470Y012726D01*
X041529Y012568D02*
X042742Y012568D01*
X042584Y012409D02*
X041688Y012409D01*
X039950Y012409D02*
X039067Y012409D01*
X039145Y012487D02*
X038873Y012215D01*
X038683Y012215D01*
X038683Y012677D01*
X038683Y012683D01*
X038677Y012683D01*
X038677Y013145D01*
X038487Y013145D01*
X038215Y012873D01*
X038215Y012683D01*
X038677Y012683D01*
X038677Y012677D01*
X038215Y012677D01*
X038215Y012487D01*
X038487Y012215D01*
X038677Y012215D01*
X038677Y012677D01*
X038683Y012677D01*
X039145Y012677D01*
X039145Y012487D01*
X039145Y012568D02*
X039950Y012568D01*
X039950Y012726D02*
X039145Y012726D01*
X039145Y012683D02*
X039145Y012873D01*
X038873Y013145D01*
X038683Y013145D01*
X038683Y012683D01*
X039145Y012683D01*
X039133Y012885D02*
X039950Y012885D01*
X039950Y013043D02*
X038975Y013043D01*
X038873Y013215D02*
X038487Y013215D01*
X038262Y013440D01*
X037598Y013440D01*
X037373Y013215D01*
X036987Y013215D01*
X036715Y013487D01*
X036715Y013873D01*
X036987Y014145D01*
X037373Y014145D01*
X037598Y013920D01*
X038262Y013920D01*
X038487Y014145D01*
X038873Y014145D01*
X039145Y013873D01*
X039145Y013487D01*
X038873Y013215D01*
X039018Y013360D02*
X039950Y013360D01*
X039950Y013202D02*
X018810Y013202D01*
X018968Y013360D02*
X036842Y013360D01*
X036715Y013519D02*
X019127Y013519D01*
X019285Y013677D02*
X036715Y013677D01*
X036715Y013836D02*
X034407Y013836D01*
X034541Y013994D02*
X036836Y013994D01*
X037524Y013994D02*
X038336Y013994D01*
X039024Y013994D02*
X039950Y013994D01*
X039950Y013836D02*
X039145Y013836D01*
X039145Y013677D02*
X039950Y013677D01*
X039950Y013519D02*
X039145Y013519D01*
X038683Y013043D02*
X038677Y013043D01*
X038677Y012885D02*
X038683Y012885D01*
X038677Y012726D02*
X038683Y012726D01*
X038677Y012568D02*
X038683Y012568D01*
X038677Y012409D02*
X038683Y012409D01*
X038677Y012251D02*
X038683Y012251D01*
X038908Y012251D02*
X039950Y012251D01*
X039950Y012092D02*
X023575Y012092D01*
X023515Y012238D02*
X023238Y012515D01*
X022876Y012665D01*
X022484Y012665D01*
X022122Y012515D01*
X021845Y012238D01*
X021695Y011876D01*
X021695Y011484D01*
X021845Y011122D01*
X022122Y010845D01*
X022484Y010695D01*
X022876Y010695D01*
X023238Y010845D01*
X023515Y011122D01*
X023665Y011484D01*
X023665Y011876D01*
X023515Y012238D01*
X023502Y012251D02*
X038452Y012251D01*
X038293Y012409D02*
X023344Y012409D01*
X023111Y012568D02*
X038215Y012568D01*
X038215Y012726D02*
X017518Y012726D01*
X017176Y012568D02*
X022249Y012568D01*
X022016Y012409D02*
X017017Y012409D01*
X016859Y012251D02*
X021858Y012251D01*
X021785Y012092D02*
X016700Y012092D01*
X016542Y011934D02*
X021719Y011934D01*
X021695Y011775D02*
X016326Y011775D01*
X015669Y011300D02*
X021771Y011300D01*
X021706Y011458D02*
X015510Y011458D01*
X015352Y011617D02*
X021695Y011617D01*
X021837Y011141D02*
X015827Y011141D01*
X015986Y010983D02*
X021984Y010983D01*
X022173Y010824D02*
X016144Y010824D01*
X016303Y010666D02*
X033787Y010666D01*
X033715Y010737D02*
X033987Y010465D01*
X034177Y010465D01*
X034177Y010927D01*
X034183Y010927D01*
X034183Y010933D01*
X034645Y010933D01*
X034645Y011123D01*
X034373Y011395D01*
X034183Y011395D01*
X034183Y010933D01*
X034177Y010933D01*
X034177Y011395D01*
X033987Y011395D01*
X033715Y011123D01*
X033715Y010933D01*
X034177Y010933D01*
X034177Y010927D01*
X033715Y010927D01*
X033715Y010737D01*
X033715Y010824D02*
X023187Y010824D01*
X023376Y010983D02*
X033715Y010983D01*
X033733Y011141D02*
X023523Y011141D01*
X023589Y011300D02*
X033892Y011300D01*
X034177Y011300D02*
X034183Y011300D01*
X034177Y011141D02*
X034183Y011141D01*
X034177Y010983D02*
X034183Y010983D01*
X034183Y010927D02*
X034645Y010927D01*
X034645Y010737D01*
X034373Y010465D01*
X034183Y010465D01*
X034183Y010927D01*
X034177Y010824D02*
X034183Y010824D01*
X034177Y010666D02*
X034183Y010666D01*
X034177Y010507D02*
X034183Y010507D01*
X034415Y010507D02*
X034920Y010507D01*
X034920Y010532D02*
X034920Y009828D01*
X034715Y009623D01*
X034715Y009237D01*
X034987Y008965D01*
X035373Y008965D01*
X035645Y009237D01*
X035645Y009623D01*
X035440Y009828D01*
X035440Y010532D01*
X035645Y010737D01*
X035645Y011123D01*
X035373Y011395D01*
X034987Y011395D01*
X034715Y011123D01*
X034715Y010737D01*
X034920Y010532D01*
X034920Y010349D02*
X022120Y010349D01*
X021961Y010507D02*
X033945Y010507D01*
X034573Y010666D02*
X034787Y010666D01*
X034715Y010824D02*
X034645Y010824D01*
X034645Y010983D02*
X034715Y010983D01*
X034733Y011141D02*
X034627Y011141D01*
X034468Y011300D02*
X034892Y011300D01*
X035180Y010930D02*
X035180Y009430D01*
X035488Y009081D02*
X040641Y009081D01*
X040641Y009239D02*
X035645Y009239D01*
X035645Y009398D02*
X040642Y009398D01*
X040801Y009556D02*
X035645Y009556D01*
X035553Y009715D02*
X040883Y009715D01*
X040724Y009873D02*
X035440Y009873D01*
X035440Y010032D02*
X040641Y010032D01*
X040641Y010190D02*
X035440Y010190D01*
X035440Y010349D02*
X040641Y010349D01*
X040752Y010507D02*
X035440Y010507D01*
X035573Y010666D02*
X040910Y010666D01*
X040773Y010824D02*
X035645Y010824D01*
X035645Y010983D02*
X040552Y010983D01*
X040394Y011141D02*
X035627Y011141D01*
X035468Y011300D02*
X040235Y011300D01*
X040077Y011458D02*
X023654Y011458D01*
X023665Y011617D02*
X039950Y011617D01*
X039950Y011775D02*
X023665Y011775D01*
X023641Y011934D02*
X039950Y011934D01*
X038385Y013043D02*
X018651Y013043D01*
X018493Y012885D02*
X038227Y012885D01*
X038342Y013360D02*
X037518Y013360D01*
X039950Y014153D02*
X034585Y014153D01*
X034564Y014311D02*
X039986Y014311D01*
X040144Y014470D02*
X034463Y014470D01*
X033953Y013836D02*
X023493Y013836D01*
X022867Y013836D02*
X019444Y013836D01*
X019602Y013994D02*
X022470Y013994D01*
X022311Y014153D02*
X019761Y014153D01*
X019919Y014311D02*
X022153Y014311D01*
X021994Y014470D02*
X020058Y014470D01*
X020110Y014628D02*
X021836Y014628D01*
X021416Y014787D02*
X020110Y014787D01*
X020110Y014945D02*
X021274Y014945D01*
X021215Y015104D02*
X020110Y015104D01*
X020110Y015262D02*
X021215Y015262D01*
X021276Y015421D02*
X020110Y015421D01*
X020110Y015579D02*
X021428Y015579D01*
X021502Y015749D02*
X021571Y015726D01*
X021643Y015715D01*
X021677Y015715D01*
X021677Y016177D01*
X021215Y016177D01*
X021215Y016143D01*
X021226Y016071D01*
X021249Y016002D01*
X021282Y015936D01*
X021325Y015877D01*
X021377Y015825D01*
X021436Y015782D01*
X021502Y015749D01*
X021537Y015738D02*
X020110Y015738D01*
X020110Y015896D02*
X021312Y015896D01*
X021232Y016055D02*
X020110Y016055D01*
X020110Y016213D02*
X021215Y016213D01*
X021256Y016372D02*
X020110Y016372D01*
X020110Y016530D02*
X021372Y016530D01*
X021534Y016689D02*
X020110Y016689D01*
X020110Y016847D02*
X021292Y016847D01*
X021200Y017006D02*
X020110Y017006D01*
X020110Y017164D02*
X021170Y017164D01*
X021187Y017323D02*
X020110Y017323D01*
X020110Y017481D02*
X021260Y017481D01*
X021418Y017640D02*
X020110Y017640D01*
X020110Y017798D02*
X021577Y017798D01*
X021677Y016530D02*
X021683Y016530D01*
X021677Y016372D02*
X021683Y016372D01*
X021677Y016213D02*
X021683Y016213D01*
X021677Y016055D02*
X021683Y016055D01*
X021677Y015896D02*
X021683Y015896D01*
X021677Y015738D02*
X021683Y015738D01*
X022393Y015738D02*
X022670Y015738D01*
X022670Y015896D02*
X022618Y015896D01*
X022654Y015421D02*
X022735Y015421D01*
X022715Y015262D02*
X022877Y015262D01*
X023035Y015104D02*
X022715Y015104D01*
X022656Y014945D02*
X023194Y014945D01*
X023352Y014787D02*
X022514Y014787D01*
X022628Y014628D02*
X022970Y014628D01*
X022812Y014470D02*
X022786Y014470D01*
X022670Y016530D02*
X022558Y016530D01*
X019250Y015738D02*
X018827Y015738D01*
X018772Y015645D02*
X018018Y015645D01*
X017847Y015574D01*
X017716Y015443D01*
X017645Y015272D01*
X017645Y015088D01*
X017716Y014917D01*
X017847Y014786D01*
X018018Y014715D01*
X018772Y014715D01*
X018943Y014786D01*
X019074Y014917D01*
X019145Y015088D01*
X019145Y015272D01*
X019074Y015443D01*
X018943Y015574D01*
X018772Y015645D01*
X018932Y015579D02*
X019250Y015579D01*
X019250Y015421D02*
X019084Y015421D01*
X019145Y015262D02*
X019250Y015262D01*
X019250Y015104D02*
X019145Y015104D01*
X019086Y014945D02*
X019250Y014945D01*
X019178Y014787D02*
X018944Y014787D01*
X019020Y014628D02*
X015840Y014628D01*
X015682Y014787D02*
X017846Y014787D01*
X017704Y014945D02*
X015523Y014945D01*
X015365Y015104D02*
X017645Y015104D01*
X017645Y015262D02*
X015206Y015262D01*
X015048Y015421D02*
X017706Y015421D01*
X017858Y015579D02*
X014889Y015579D01*
X014731Y015738D02*
X017963Y015738D01*
X017736Y015896D02*
X014572Y015896D01*
X014414Y016055D02*
X017659Y016055D01*
X017645Y016213D02*
X014255Y016213D01*
X014097Y016372D02*
X017686Y016372D01*
X017802Y016530D02*
X013914Y016530D01*
X013673Y015579D02*
X012821Y015579D01*
X012539Y015579D02*
X003889Y015579D01*
X003731Y015738D02*
X005465Y015738D01*
X005306Y015896D02*
X003572Y015896D01*
X003414Y016055D02*
X005215Y016055D01*
X005215Y016213D02*
X003255Y016213D01*
X003110Y016372D02*
X005215Y016372D01*
X005372Y016530D02*
X003110Y016530D01*
X003110Y016689D02*
X007634Y016689D01*
X007600Y015738D02*
X005895Y015738D01*
X004601Y014787D02*
X008053Y014787D01*
X008307Y014787D02*
X014465Y014787D01*
X014307Y014945D02*
X004523Y014945D01*
X004365Y015104D02*
X014148Y015104D01*
X013990Y015262D02*
X004206Y015262D01*
X004048Y015421D02*
X013831Y015421D01*
X013260Y014628D02*
X014624Y014628D01*
X014782Y014470D02*
X013499Y014470D01*
X013657Y014311D02*
X014941Y014311D01*
X015099Y014153D02*
X013816Y014153D01*
X013974Y013994D02*
X015250Y013994D01*
X015250Y013836D02*
X014133Y013836D01*
X014291Y013677D02*
X015250Y013677D01*
X015250Y013519D02*
X014450Y013519D01*
X014608Y013360D02*
X015215Y013360D01*
X015215Y013202D02*
X014767Y013202D01*
X014925Y013043D02*
X015215Y013043D01*
X015318Y012885D02*
X015084Y012885D01*
X015242Y012726D02*
X015476Y012726D01*
X015884Y012726D02*
X016118Y012726D01*
X016042Y012885D02*
X016276Y012885D01*
X016145Y013043D02*
X016435Y013043D01*
X016593Y013202D02*
X016145Y013202D01*
X016145Y013360D02*
X016648Y013360D01*
X016727Y013519D02*
X016110Y013519D01*
X016110Y013677D02*
X016917Y013677D01*
X017443Y013677D02*
X018069Y013677D01*
X018227Y013836D02*
X016110Y013836D01*
X016110Y013994D02*
X018386Y013994D01*
X018544Y014153D02*
X016110Y014153D01*
X016091Y014311D02*
X018703Y014311D01*
X018861Y014470D02*
X015999Y014470D01*
X013867Y012885D02*
X004610Y012885D01*
X004610Y013043D02*
X013709Y013043D01*
X013550Y013202D02*
X004610Y013202D01*
X004610Y013360D02*
X013392Y013360D01*
X013233Y013519D02*
X004610Y013519D01*
X004610Y013677D02*
X007955Y013677D01*
X008405Y013677D02*
X012128Y013677D01*
X014026Y012726D02*
X004742Y012726D01*
X004901Y012568D02*
X014184Y012568D01*
X014343Y012409D02*
X005059Y012409D01*
X005218Y012251D02*
X014501Y012251D01*
X014611Y011141D02*
X013342Y011141D01*
X013091Y010983D02*
X014769Y010983D01*
X014928Y010824D02*
X012932Y010824D01*
X012774Y010666D02*
X015086Y010666D01*
X015245Y010507D02*
X012615Y010507D01*
X012457Y010349D02*
X015403Y010349D01*
X015562Y010190D02*
X012298Y010190D01*
X012140Y010032D02*
X015720Y010032D01*
X015879Y009873D02*
X011981Y009873D01*
X011557Y010666D02*
X007156Y010666D01*
X006902Y010824D02*
X011716Y010824D01*
X011874Y010983D02*
X006486Y010983D01*
X006327Y011141D02*
X012033Y011141D01*
X012191Y011300D02*
X006169Y011300D01*
X006010Y011458D02*
X012350Y011458D01*
X012508Y011617D02*
X005852Y011617D01*
X005693Y011775D02*
X012620Y011775D01*
X012679Y011934D02*
X005535Y011934D01*
X005376Y012092D02*
X012800Y012092D01*
X014464Y009556D02*
X009962Y009556D01*
X009873Y009645D02*
X009683Y009645D01*
X009683Y009183D01*
X009677Y009183D01*
X009677Y009645D01*
X009487Y009645D01*
X009215Y009373D01*
X009215Y009183D01*
X009677Y009183D01*
X009677Y009177D01*
X009215Y009177D01*
X009215Y008987D01*
X009487Y008715D01*
X009677Y008715D01*
X009677Y009177D01*
X009683Y009177D01*
X009683Y009183D01*
X010145Y009183D01*
X010145Y009373D01*
X009873Y009645D01*
X009683Y009556D02*
X009677Y009556D01*
X009677Y009398D02*
X009683Y009398D01*
X009677Y009239D02*
X009683Y009239D01*
X009683Y009177D02*
X010145Y009177D01*
X010145Y008987D01*
X009873Y008715D01*
X009683Y008715D01*
X009683Y009177D01*
X009677Y009081D02*
X009683Y009081D01*
X009677Y008922D02*
X009683Y008922D01*
X009677Y008764D02*
X009683Y008764D01*
X009921Y008764D02*
X013655Y008764D01*
X013814Y008922D02*
X010080Y008922D01*
X010145Y009081D02*
X013972Y009081D01*
X014131Y009239D02*
X010145Y009239D01*
X010120Y009398D02*
X014289Y009398D01*
X014713Y008605D02*
X021647Y008605D01*
X021805Y008447D02*
X014555Y008447D01*
X014396Y008288D02*
X021964Y008288D01*
X022122Y008130D02*
X014238Y008130D01*
X014079Y007971D02*
X017225Y007971D01*
X017167Y007947D02*
X016913Y007693D01*
X016775Y007360D01*
X016775Y007000D01*
X016913Y006667D01*
X017167Y006413D01*
X017500Y006275D01*
X017860Y006275D01*
X018193Y006413D01*
X018447Y006667D01*
X018585Y007000D01*
X018585Y007360D01*
X018447Y007693D01*
X018193Y007947D01*
X017860Y008085D01*
X017500Y008085D01*
X017167Y007947D01*
X017033Y007813D02*
X013921Y007813D01*
X013762Y007654D02*
X016897Y007654D01*
X016831Y007496D02*
X013710Y007496D01*
X013629Y007337D02*
X016775Y007337D01*
X016775Y007179D02*
X013610Y007179D01*
X013632Y007020D02*
X016775Y007020D01*
X016832Y006862D02*
X013711Y006862D01*
X013740Y006703D02*
X016898Y006703D01*
X017036Y006545D02*
X013730Y006545D01*
X013664Y006386D02*
X017232Y006386D01*
X018128Y006386D02*
X023000Y006386D01*
X023000Y006228D02*
X013519Y006228D01*
X012841Y006228D02*
X011836Y006228D01*
X011677Y006069D02*
X023000Y006069D01*
X023000Y005911D02*
X011519Y005911D01*
X011360Y005752D02*
X023000Y005752D01*
X023000Y005594D02*
X022294Y005594D01*
X022395Y005435D02*
X022965Y005435D01*
X022930Y005277D02*
X022430Y005277D01*
X022430Y005118D02*
X022930Y005118D01*
X022930Y004960D02*
X022430Y004960D01*
X022430Y004801D02*
X022930Y004801D01*
X022930Y004643D02*
X022430Y004643D01*
X022419Y004484D02*
X022941Y004484D01*
X023007Y004326D02*
X022353Y004326D01*
X022403Y004167D02*
X022190Y004167D01*
X022190Y004009D02*
X022251Y004009D01*
X022660Y004009D02*
X022700Y004009D01*
X022700Y004167D02*
X022660Y004167D01*
X022957Y004167D02*
X023170Y004167D01*
X023170Y004009D02*
X023109Y004009D01*
X022700Y003850D02*
X022660Y003850D01*
X022660Y003692D02*
X022700Y003692D01*
X022700Y003533D02*
X022660Y003533D01*
X022660Y003410D02*
X022700Y003410D01*
X022700Y002610D01*
X022719Y002610D01*
X022797Y002622D01*
X022872Y002647D01*
X022942Y002682D01*
X023006Y002729D01*
X023061Y002784D01*
X023108Y002848D01*
X023143Y002918D01*
X023168Y002993D01*
X023170Y003008D01*
X023170Y002628D01*
X023210Y002533D01*
X023283Y002460D01*
X023783Y001960D01*
X023830Y001940D01*
X022788Y001940D01*
X022190Y002538D01*
X022190Y003008D01*
X022192Y002993D01*
X022217Y002918D01*
X022252Y002848D01*
X022299Y002784D01*
X022354Y002729D01*
X022418Y002682D01*
X022488Y002647D01*
X022563Y002622D01*
X022641Y002610D01*
X022660Y002610D01*
X022660Y003410D01*
X022660Y003375D02*
X022700Y003375D01*
X022700Y003216D02*
X022660Y003216D01*
X022660Y003058D02*
X022700Y003058D01*
X022700Y002899D02*
X022660Y002899D01*
X022660Y002741D02*
X022700Y002741D01*
X023018Y002741D02*
X023170Y002741D01*
X023170Y002899D02*
X023134Y002899D01*
X023189Y002582D02*
X022190Y002582D01*
X022190Y002741D02*
X022342Y002741D01*
X022226Y002899D02*
X022190Y002899D01*
X022304Y002424D02*
X023319Y002424D01*
X023477Y002265D02*
X022463Y002265D01*
X022621Y002107D02*
X023636Y002107D01*
X023811Y001948D02*
X022780Y001948D01*
X022680Y001680D02*
X028680Y001680D01*
X031680Y004680D01*
X033680Y004680D01*
X034180Y005180D01*
X034180Y007180D01*
X035180Y008180D01*
X036530Y008180D01*
X036341Y008605D02*
X035413Y008605D01*
X035571Y008447D02*
X036139Y008447D01*
X036719Y008605D02*
X037097Y008605D01*
X036939Y008447D02*
X036921Y008447D01*
X037330Y008180D02*
X038680Y008180D01*
X039180Y007680D01*
X039180Y006430D01*
X039645Y006386D02*
X039920Y006386D01*
X039920Y006228D02*
X039635Y006228D01*
X039477Y006069D02*
X039920Y006069D01*
X039920Y005911D02*
X035607Y005911D01*
X035645Y005873D02*
X035440Y006078D01*
X035440Y006532D01*
X035645Y006737D01*
X035645Y007123D01*
X035373Y007395D01*
X034987Y007395D01*
X034715Y007123D01*
X034715Y006737D01*
X034920Y006532D01*
X034920Y006078D01*
X034715Y005873D01*
X034715Y005487D01*
X034920Y005282D01*
X034920Y004578D01*
X034715Y004373D01*
X034715Y003987D01*
X034987Y003715D01*
X035373Y003715D01*
X035578Y003920D01*
X036134Y003920D01*
X036136Y003917D01*
X036267Y003786D01*
X036438Y003715D01*
X036622Y003715D01*
X036793Y003786D01*
X036924Y003917D01*
X036928Y003925D01*
X037137Y003715D01*
X037327Y003715D01*
X037327Y004177D01*
X037333Y004177D01*
X037333Y004183D01*
X037327Y004183D01*
X037327Y004645D01*
X037137Y004645D01*
X036928Y004435D01*
X036924Y004443D01*
X036793Y004574D01*
X036622Y004645D01*
X036438Y004645D01*
X036267Y004574D01*
X036136Y004443D01*
X036134Y004440D01*
X035578Y004440D01*
X035440Y004578D01*
X035440Y005282D01*
X035645Y005487D01*
X035645Y005873D01*
X035645Y005752D02*
X039920Y005752D01*
X039920Y005594D02*
X035645Y005594D01*
X035593Y005435D02*
X039920Y005435D01*
X039920Y005277D02*
X035440Y005277D01*
X035440Y005118D02*
X039920Y005118D01*
X039920Y004960D02*
X035440Y004960D01*
X035440Y004801D02*
X039920Y004801D01*
X039920Y004643D02*
X037525Y004643D01*
X037523Y004645D02*
X037333Y004645D01*
X037333Y004183D01*
X037795Y004183D01*
X037795Y004373D01*
X037523Y004645D01*
X037333Y004643D02*
X037327Y004643D01*
X037327Y004484D02*
X037333Y004484D01*
X037327Y004326D02*
X037333Y004326D01*
X037333Y004177D02*
X037795Y004177D01*
X037795Y003987D01*
X037523Y003715D01*
X037333Y003715D01*
X037333Y004177D01*
X037333Y004167D02*
X037327Y004167D01*
X037327Y004009D02*
X037333Y004009D01*
X037327Y003850D02*
X037333Y003850D01*
X037658Y003850D02*
X039920Y003850D01*
X039920Y004009D02*
X037795Y004009D01*
X037795Y004167D02*
X039920Y004167D01*
X039920Y004326D02*
X037795Y004326D01*
X037684Y004484D02*
X039920Y004484D01*
X040440Y004484D02*
X040729Y004484D01*
X040641Y004326D02*
X040440Y004326D01*
X040440Y004167D02*
X040641Y004167D01*
X040641Y004009D02*
X040440Y004009D01*
X040440Y003850D02*
X040747Y003850D01*
X040906Y003692D02*
X040440Y003692D01*
X040401Y003533D02*
X053665Y003533D01*
X053622Y003515D02*
X053345Y003238D01*
X053195Y002876D01*
X053195Y002484D01*
X053345Y002122D01*
X053622Y001845D01*
X053984Y001695D01*
X054376Y001695D01*
X054738Y001845D01*
X055015Y002122D01*
X055165Y002484D01*
X055165Y002876D01*
X055015Y003238D01*
X054738Y003515D01*
X054376Y003665D01*
X053984Y003665D01*
X053622Y003515D01*
X053482Y003375D02*
X040242Y003375D01*
X040084Y003216D02*
X053336Y003216D01*
X053270Y003058D02*
X039925Y003058D01*
X039767Y002899D02*
X053205Y002899D01*
X053195Y002741D02*
X039608Y002741D01*
X039450Y002582D02*
X053195Y002582D01*
X053220Y002424D02*
X039291Y002424D01*
X039133Y002265D02*
X053286Y002265D01*
X053360Y002107D02*
X033414Y002107D01*
X033080Y002430D02*
X038930Y002430D01*
X040180Y003680D01*
X040180Y006680D01*
X040676Y007176D01*
X041171Y007176D01*
X040740Y007496D02*
X039440Y007496D01*
X039440Y007654D02*
X040899Y007654D01*
X040785Y007813D02*
X039407Y007813D01*
X039257Y007971D02*
X040641Y007971D01*
X040641Y008130D02*
X039098Y008130D01*
X038940Y008288D02*
X040641Y008288D01*
X040691Y008447D02*
X037721Y008447D01*
X037563Y008605D02*
X040850Y008605D01*
X040834Y008764D02*
X032440Y008764D01*
X032440Y008922D02*
X040675Y008922D01*
X038838Y007654D02*
X035022Y007654D01*
X034863Y007496D02*
X038920Y007496D01*
X038920Y007337D02*
X035431Y007337D01*
X035589Y007179D02*
X038920Y007179D01*
X038920Y007020D02*
X035645Y007020D01*
X035645Y006862D02*
X035954Y006862D01*
X035987Y006895D02*
X035715Y006623D01*
X035715Y006433D01*
X036177Y006433D01*
X036177Y006895D01*
X035987Y006895D01*
X036177Y006862D02*
X036183Y006862D01*
X036183Y006895D02*
X036373Y006895D01*
X036645Y006623D01*
X036645Y006433D01*
X036183Y006433D01*
X036183Y006427D01*
X036645Y006427D01*
X036645Y006237D01*
X036373Y005965D01*
X036183Y005965D01*
X036183Y006427D01*
X036177Y006427D01*
X036177Y005965D01*
X035987Y005965D01*
X035715Y006237D01*
X035715Y006427D01*
X036177Y006427D01*
X036177Y006433D01*
X036183Y006433D01*
X036183Y006895D01*
X036177Y006703D02*
X036183Y006703D01*
X036177Y006545D02*
X036183Y006545D01*
X036177Y006386D02*
X036183Y006386D01*
X036177Y006228D02*
X036183Y006228D01*
X036177Y006069D02*
X036183Y006069D01*
X036477Y006069D02*
X038883Y006069D01*
X038725Y006228D02*
X036635Y006228D01*
X036645Y006386D02*
X038715Y006386D01*
X038715Y006545D02*
X036645Y006545D01*
X036565Y006703D02*
X038795Y006703D01*
X038920Y006862D02*
X036406Y006862D01*
X035795Y006703D02*
X035611Y006703D01*
X035715Y006545D02*
X035452Y006545D01*
X035440Y006386D02*
X035715Y006386D01*
X035725Y006228D02*
X035440Y006228D01*
X035449Y006069D02*
X035883Y006069D01*
X035180Y005680D02*
X035180Y006930D01*
X034715Y006862D02*
X034440Y006862D01*
X034440Y007020D02*
X034715Y007020D01*
X034771Y007179D02*
X034546Y007179D01*
X034705Y007337D02*
X034929Y007337D01*
X034749Y006703D02*
X034440Y006703D01*
X034440Y006545D02*
X034908Y006545D01*
X034920Y006386D02*
X034440Y006386D01*
X034440Y006228D02*
X034920Y006228D01*
X034911Y006069D02*
X034440Y006069D01*
X034440Y005911D02*
X034753Y005911D01*
X034715Y005752D02*
X034440Y005752D01*
X034440Y005594D02*
X034715Y005594D01*
X034767Y005435D02*
X034440Y005435D01*
X034440Y005277D02*
X034920Y005277D01*
X034920Y005118D02*
X034436Y005118D01*
X034327Y004960D02*
X034920Y004960D01*
X034920Y004801D02*
X034169Y004801D01*
X034010Y004643D02*
X034920Y004643D01*
X034826Y004484D02*
X033852Y004484D01*
X034715Y004326D02*
X032645Y004326D01*
X032645Y004167D02*
X034715Y004167D01*
X034715Y004009D02*
X032645Y004009D01*
X032540Y003850D02*
X034852Y003850D01*
X035180Y004180D02*
X035180Y005680D01*
X033680Y005680D02*
X033180Y005180D01*
X030180Y005180D01*
X027180Y002180D01*
X023930Y002180D01*
X023430Y002680D01*
X023430Y004930D01*
X021930Y004930D02*
X021930Y002430D01*
X022680Y001680D01*
X022680Y001180D02*
X021180Y002680D01*
X021180Y003430D01*
X020680Y003375D02*
X000960Y003375D01*
X000960Y003533D02*
X020680Y003533D01*
X020680Y003692D02*
X000960Y003692D01*
X000960Y003850D02*
X020680Y003850D01*
X020746Y004009D02*
X010640Y004009D01*
X010798Y004167D02*
X020890Y004167D01*
X021470Y004167D02*
X021670Y004167D01*
X021670Y004009D02*
X021614Y004009D01*
X021507Y004326D02*
X010899Y004326D01*
X010965Y004484D02*
X021441Y004484D01*
X021430Y004643D02*
X010980Y004643D01*
X010980Y004801D02*
X021430Y004801D01*
X021430Y004960D02*
X010930Y004960D01*
X010864Y005118D02*
X021430Y005118D01*
X021430Y005277D02*
X010885Y005277D01*
X011043Y005435D02*
X021465Y005435D01*
X021566Y005594D02*
X011202Y005594D01*
X010461Y006069D02*
X000960Y006069D01*
X000960Y005911D02*
X010302Y005911D01*
X010144Y005752D02*
X000960Y005752D01*
X000960Y005594D02*
X009985Y005594D01*
X009827Y005435D02*
X007556Y005435D01*
X007511Y005480D02*
X006849Y005480D01*
X006479Y005110D01*
X003760Y005110D01*
X003760Y005155D01*
X003655Y005260D01*
X002705Y005260D01*
X002600Y005155D01*
X002600Y004205D01*
X002705Y004100D01*
X003655Y004100D01*
X003760Y004205D01*
X003760Y004250D01*
X006479Y004250D01*
X006544Y004185D01*
X006550Y004171D01*
X006671Y004050D01*
X006685Y004044D01*
X006849Y003880D01*
X007511Y003880D01*
X007980Y004349D01*
X007980Y005011D01*
X007511Y005480D01*
X007715Y005277D02*
X009645Y005277D01*
X009496Y005118D02*
X007873Y005118D01*
X007980Y004960D02*
X009430Y004960D01*
X009380Y004801D02*
X007980Y004801D01*
X007980Y004643D02*
X009380Y004643D01*
X009395Y004484D02*
X007980Y004484D01*
X007957Y004326D02*
X009461Y004326D01*
X009562Y004167D02*
X007798Y004167D01*
X007640Y004009D02*
X009720Y004009D01*
X012661Y002895D02*
X012634Y002811D01*
X012620Y002724D01*
X012620Y002708D01*
X013152Y002708D01*
X013152Y003240D01*
X013136Y003240D01*
X013049Y003226D01*
X012965Y003199D01*
X012886Y003159D01*
X012815Y003107D01*
X012753Y003045D01*
X012701Y002974D01*
X012661Y002895D01*
X012663Y002899D02*
X003729Y002899D01*
X003718Y002934D02*
X003676Y003015D01*
X003622Y003089D01*
X003558Y003154D01*
X003484Y003208D01*
X003403Y003249D01*
X003316Y003277D01*
X003233Y003290D01*
X003233Y002764D01*
X003759Y002764D01*
X003746Y002847D01*
X003718Y002934D01*
X003646Y003058D02*
X012766Y003058D01*
X013017Y003216D02*
X003467Y003216D01*
X003233Y003216D02*
X003127Y003216D01*
X003127Y003290D02*
X003044Y003277D01*
X002957Y003249D01*
X002876Y003208D01*
X002802Y003154D01*
X002738Y003089D01*
X002684Y003015D01*
X002642Y002934D01*
X002614Y002847D01*
X002601Y002764D01*
X003127Y002764D01*
X003127Y002659D01*
X002601Y002659D01*
X002614Y002576D01*
X002642Y002489D01*
X002684Y002408D01*
X002738Y002334D01*
X002802Y002269D01*
X002876Y002215D01*
X002957Y002174D01*
X003044Y002146D01*
X003127Y002133D01*
X003127Y002659D01*
X003233Y002659D01*
X003233Y002764D01*
X003127Y002764D01*
X003127Y003290D01*
X003127Y003058D02*
X003233Y003058D01*
X003233Y002899D02*
X003127Y002899D01*
X003127Y002741D02*
X000960Y002741D01*
X000960Y002899D02*
X002631Y002899D01*
X002714Y003058D02*
X000960Y003058D01*
X000960Y003216D02*
X002893Y003216D01*
X003233Y002741D02*
X012623Y002741D01*
X012620Y002652D02*
X012620Y002636D01*
X012634Y002549D01*
X012661Y002465D01*
X012701Y002386D01*
X012753Y002315D01*
X012815Y002253D01*
X012886Y002201D01*
X012965Y002161D01*
X013049Y002134D01*
X013136Y002120D01*
X013152Y002120D01*
X013152Y002652D01*
X012620Y002652D01*
X012629Y002582D02*
X003747Y002582D01*
X003746Y002576D02*
X003759Y002659D01*
X003233Y002659D01*
X003233Y002133D01*
X003316Y002146D01*
X003403Y002174D01*
X003484Y002215D01*
X003558Y002269D01*
X003622Y002334D01*
X003676Y002408D01*
X003718Y002489D01*
X003746Y002576D01*
X003684Y002424D02*
X012682Y002424D01*
X012803Y002265D02*
X003552Y002265D01*
X003233Y002265D02*
X003127Y002265D01*
X003127Y002424D02*
X003233Y002424D01*
X003233Y002582D02*
X003127Y002582D01*
X002808Y002265D02*
X000960Y002265D01*
X000960Y002107D02*
X021386Y002107D01*
X021227Y002265D02*
X013557Y002265D01*
X013545Y002253D02*
X013607Y002315D01*
X013659Y002386D01*
X013699Y002465D01*
X013726Y002549D01*
X013740Y002636D01*
X013740Y002652D01*
X013208Y002652D01*
X013208Y002708D01*
X013152Y002708D01*
X013152Y002652D01*
X013208Y002652D01*
X013208Y002120D01*
X013224Y002120D01*
X013311Y002134D01*
X013395Y002161D01*
X013474Y002201D01*
X013545Y002253D01*
X013678Y002424D02*
X021069Y002424D01*
X020939Y002582D02*
X013731Y002582D01*
X013740Y002708D02*
X013740Y002724D01*
X013726Y002811D01*
X013699Y002895D01*
X013659Y002974D01*
X013607Y003045D01*
X013545Y003107D01*
X013474Y003159D01*
X013395Y003199D01*
X013311Y003226D01*
X013224Y003240D01*
X013208Y003240D01*
X013208Y002708D01*
X013740Y002708D01*
X013737Y002741D02*
X020842Y002741D01*
X020726Y002899D02*
X013697Y002899D01*
X013594Y003058D02*
X020680Y003058D01*
X020680Y003216D02*
X013343Y003216D01*
X013208Y003216D02*
X013152Y003216D01*
X013152Y003058D02*
X013208Y003058D01*
X013208Y002899D02*
X013152Y002899D01*
X013152Y002741D02*
X013208Y002741D01*
X013208Y002582D02*
X013152Y002582D01*
X013152Y002424D02*
X013208Y002424D01*
X013208Y002265D02*
X013152Y002265D01*
X010619Y006228D02*
X000960Y006228D01*
X000960Y006386D02*
X010778Y006386D01*
X010936Y006545D02*
X000960Y006545D01*
X000960Y006703D02*
X011095Y006703D01*
X011253Y006862D02*
X000960Y006862D01*
X000960Y007020D02*
X011412Y007020D01*
X012650Y007496D02*
X003389Y007496D01*
X003515Y007622D02*
X003238Y007345D01*
X002876Y007195D01*
X002484Y007195D01*
X002122Y007345D01*
X001845Y007622D01*
X001695Y007984D01*
X001695Y008376D01*
X001845Y008738D01*
X002122Y009015D01*
X002484Y009165D01*
X002876Y009165D01*
X003238Y009015D01*
X003515Y008738D01*
X003665Y008376D01*
X003665Y007984D01*
X003515Y007622D01*
X003528Y007654D02*
X012620Y007654D01*
X012629Y007813D02*
X003594Y007813D01*
X003660Y007971D02*
X012694Y007971D01*
X012838Y008130D02*
X003665Y008130D01*
X003665Y008288D02*
X013180Y008288D01*
X013338Y008447D02*
X003636Y008447D01*
X003570Y008605D02*
X013497Y008605D01*
X012731Y007337D02*
X003219Y007337D01*
X002141Y007337D02*
X000960Y007337D01*
X000960Y007179D02*
X012750Y007179D01*
X009439Y008764D02*
X003489Y008764D01*
X003331Y008922D02*
X009280Y008922D01*
X009215Y009081D02*
X003080Y009081D01*
X002280Y009081D02*
X000960Y009081D01*
X000960Y009239D02*
X009215Y009239D01*
X009240Y009398D02*
X000960Y009398D01*
X000960Y009556D02*
X004342Y009556D01*
X004398Y009500D02*
X004660Y009500D01*
X004660Y010160D01*
X004700Y010160D01*
X004700Y010200D01*
X005360Y010200D01*
X005360Y010462D01*
X004962Y010860D01*
X004700Y010860D01*
X004700Y010200D01*
X004660Y010200D01*
X004660Y010860D01*
X004398Y010860D01*
X004000Y010462D01*
X004000Y010200D01*
X004660Y010200D01*
X004660Y010160D01*
X004000Y010160D01*
X004000Y009898D01*
X004398Y009500D01*
X004660Y009556D02*
X004700Y009556D01*
X004700Y009500D02*
X004962Y009500D01*
X005360Y009898D01*
X005360Y010160D01*
X004700Y010160D01*
X004700Y009500D01*
X004700Y009715D02*
X004660Y009715D01*
X004660Y009873D02*
X004700Y009873D01*
X004700Y010032D02*
X004660Y010032D01*
X004660Y010190D02*
X000960Y010190D01*
X000960Y010032D02*
X004000Y010032D01*
X004025Y009873D02*
X000960Y009873D01*
X000960Y009715D02*
X004184Y009715D01*
X004000Y010349D02*
X000960Y010349D01*
X000960Y010507D02*
X004045Y010507D01*
X004204Y010666D02*
X000960Y010666D01*
X000960Y010824D02*
X004362Y010824D01*
X004660Y010824D02*
X004700Y010824D01*
X004700Y010666D02*
X004660Y010666D01*
X004660Y010507D02*
X004700Y010507D01*
X004700Y010349D02*
X004660Y010349D01*
X004700Y010190D02*
X006000Y010190D01*
X006005Y010032D02*
X005360Y010032D01*
X005335Y009873D02*
X006071Y009873D01*
X006184Y009715D02*
X005176Y009715D01*
X005018Y009556D02*
X006410Y009556D01*
X006950Y009556D02*
X009398Y009556D01*
X007176Y009715D02*
X021537Y009715D01*
X022278Y010190D02*
X034920Y010190D01*
X034920Y010032D02*
X022437Y010032D01*
X022595Y009873D02*
X031965Y009873D01*
X031807Y009715D02*
X022754Y009715D01*
X022912Y009556D02*
X031715Y009556D01*
X031715Y009398D02*
X023071Y009398D01*
X023229Y009239D02*
X031715Y009239D01*
X031872Y009081D02*
X023388Y009081D01*
X023546Y008922D02*
X031920Y008922D01*
X031920Y008764D02*
X023705Y008764D01*
X023863Y008605D02*
X031920Y008605D01*
X031789Y008447D02*
X024022Y008447D01*
X024180Y008288D02*
X031715Y008288D01*
X031715Y008130D02*
X024339Y008130D01*
X024497Y007971D02*
X027225Y007971D01*
X027167Y007947D02*
X026913Y007693D01*
X026775Y007360D01*
X026775Y007000D01*
X026913Y006667D01*
X027167Y006413D01*
X027500Y006275D01*
X027860Y006275D01*
X028193Y006413D01*
X028447Y006667D01*
X028585Y007000D01*
X028585Y007360D01*
X028447Y007693D01*
X028193Y007947D01*
X027860Y008085D01*
X027500Y008085D01*
X027167Y007947D01*
X027033Y007813D02*
X024591Y007813D01*
X024610Y007654D02*
X026897Y007654D01*
X026831Y007496D02*
X024610Y007496D01*
X024610Y007337D02*
X026775Y007337D01*
X026775Y007179D02*
X024610Y007179D01*
X024610Y007020D02*
X026775Y007020D01*
X026832Y006862D02*
X024610Y006862D01*
X024610Y006703D02*
X026898Y006703D01*
X027036Y006545D02*
X024610Y006545D01*
X024610Y006386D02*
X027232Y006386D01*
X028128Y006386D02*
X033420Y006386D01*
X033420Y006228D02*
X024610Y006228D01*
X023000Y006545D02*
X018324Y006545D01*
X018462Y006703D02*
X023000Y006703D01*
X023000Y006862D02*
X018528Y006862D01*
X018585Y007020D02*
X023000Y007020D01*
X023000Y007179D02*
X018585Y007179D01*
X018585Y007337D02*
X022915Y007337D01*
X022756Y007496D02*
X018529Y007496D01*
X018463Y007654D02*
X022598Y007654D01*
X022439Y007813D02*
X018327Y007813D01*
X018135Y007971D02*
X022281Y007971D01*
X028135Y007971D02*
X031731Y007971D01*
X031890Y007813D02*
X028327Y007813D01*
X028463Y007654D02*
X032338Y007654D01*
X032497Y007496D02*
X028529Y007496D01*
X028585Y007337D02*
X031929Y007337D01*
X031987Y007395D02*
X031715Y007123D01*
X031715Y006933D01*
X032177Y006933D01*
X032177Y007395D01*
X031987Y007395D01*
X032183Y007395D02*
X032373Y007395D01*
X032645Y007123D01*
X032645Y006933D01*
X032183Y006933D01*
X032183Y006927D01*
X032645Y006927D01*
X032645Y006737D01*
X032373Y006465D01*
X032183Y006465D01*
X032183Y006927D01*
X032177Y006927D01*
X032177Y006465D01*
X031987Y006465D01*
X031715Y006737D01*
X031715Y006927D01*
X032177Y006927D01*
X032177Y006933D01*
X032183Y006933D01*
X032183Y007395D01*
X032177Y007337D02*
X032183Y007337D01*
X032177Y007179D02*
X032183Y007179D01*
X032177Y007020D02*
X032183Y007020D01*
X032177Y006862D02*
X032183Y006862D01*
X032177Y006703D02*
X032183Y006703D01*
X032177Y006545D02*
X032183Y006545D01*
X032452Y006545D02*
X033420Y006545D01*
X033289Y006703D02*
X032611Y006703D01*
X032645Y006862D02*
X033131Y006862D01*
X032972Y007020D02*
X032645Y007020D01*
X032589Y007179D02*
X032814Y007179D01*
X032655Y007337D02*
X032431Y007337D01*
X033074Y007654D02*
X034286Y007654D01*
X034128Y007496D02*
X033232Y007496D01*
X033391Y007337D02*
X033969Y007337D01*
X033920Y007179D02*
X033549Y007179D01*
X033708Y007020D02*
X033920Y007020D01*
X033920Y006862D02*
X033866Y006862D01*
X033680Y006680D02*
X033680Y005680D01*
X033384Y005752D02*
X032645Y005752D01*
X032645Y005594D02*
X033226Y005594D01*
X033420Y005911D02*
X032607Y005911D01*
X032449Y006069D02*
X033420Y006069D01*
X033680Y006680D02*
X032180Y008180D01*
X032180Y009430D01*
X032488Y009081D02*
X034872Y009081D01*
X034715Y009239D02*
X032645Y009239D01*
X032645Y009398D02*
X034715Y009398D01*
X034715Y009556D02*
X032645Y009556D01*
X032553Y009715D02*
X034807Y009715D01*
X034920Y009873D02*
X032395Y009873D01*
X032440Y008605D02*
X034947Y008605D01*
X034789Y008447D02*
X032571Y008447D01*
X032645Y008288D02*
X034715Y008288D01*
X034715Y008130D02*
X032645Y008130D01*
X032757Y007971D02*
X034603Y007971D01*
X034445Y007813D02*
X032915Y007813D01*
X031771Y007179D02*
X028585Y007179D01*
X028585Y007020D02*
X031715Y007020D01*
X031715Y006862D02*
X028528Y006862D01*
X028462Y006703D02*
X031749Y006703D01*
X031908Y006545D02*
X028324Y006545D01*
X032180Y004180D02*
X032280Y004080D01*
X032280Y002430D01*
X032280Y002280D01*
X031180Y001180D01*
X022680Y001180D01*
X022495Y000997D02*
X000960Y000997D01*
X000960Y001156D02*
X022337Y001156D01*
X022178Y001314D02*
X000960Y001314D01*
X000960Y001473D02*
X022020Y001473D01*
X021861Y001631D02*
X000960Y001631D01*
X000960Y001790D02*
X021703Y001790D01*
X021544Y001948D02*
X000960Y001948D01*
X000960Y002424D02*
X002676Y002424D01*
X002613Y002582D02*
X000960Y002582D01*
X000960Y004009D02*
X006720Y004009D01*
X006553Y004167D02*
X003722Y004167D01*
X002638Y004167D02*
X000960Y004167D01*
X000960Y004326D02*
X002600Y004326D01*
X002600Y004484D02*
X000960Y004484D01*
X000960Y004643D02*
X002600Y004643D01*
X002600Y004801D02*
X000960Y004801D01*
X000960Y004960D02*
X002600Y004960D01*
X002600Y005118D02*
X000960Y005118D01*
X000960Y005277D02*
X006645Y005277D01*
X006804Y005435D02*
X000960Y005435D01*
X003760Y005118D02*
X006487Y005118D01*
X001971Y007496D02*
X000960Y007496D01*
X000960Y007654D02*
X001832Y007654D01*
X001766Y007813D02*
X000960Y007813D01*
X000960Y007971D02*
X001700Y007971D01*
X001695Y008130D02*
X000960Y008130D01*
X000960Y008288D02*
X001695Y008288D01*
X001724Y008447D02*
X000960Y008447D01*
X000960Y008605D02*
X001790Y008605D01*
X001871Y008764D02*
X000960Y008764D01*
X000960Y008922D02*
X002029Y008922D01*
X004998Y010824D02*
X005428Y010824D01*
X005586Y010666D02*
X005156Y010666D01*
X005315Y010507D02*
X005745Y010507D01*
X005903Y010349D02*
X005360Y010349D01*
X005269Y010983D02*
X000960Y010983D01*
X000960Y011141D02*
X005111Y011141D01*
X004952Y011300D02*
X000960Y011300D01*
X000960Y011458D02*
X004794Y011458D01*
X004635Y011617D02*
X000960Y011617D01*
X000960Y011775D02*
X004477Y011775D01*
X004318Y011934D02*
X000960Y011934D01*
X000960Y012092D02*
X004160Y012092D01*
X004001Y012251D02*
X000960Y012251D01*
X000960Y012409D02*
X003843Y012409D01*
X003761Y012568D02*
X000960Y012568D01*
X000960Y012726D02*
X003750Y012726D01*
X003750Y012885D02*
X000960Y012885D01*
X000960Y013043D02*
X003750Y013043D01*
X003750Y013202D02*
X000960Y013202D01*
X000960Y013360D02*
X003750Y013360D01*
X003750Y013519D02*
X000960Y013519D01*
X000960Y013677D02*
X003750Y013677D01*
X003750Y013836D02*
X002993Y013836D01*
X002873Y013715D02*
X003145Y013987D01*
X003145Y014177D01*
X002683Y014177D01*
X002683Y014183D01*
X002677Y014183D01*
X002677Y014645D01*
X002487Y014645D01*
X002215Y014373D01*
X002215Y014183D01*
X002677Y014183D01*
X002677Y014177D01*
X002215Y014177D01*
X002215Y013987D01*
X002487Y013715D01*
X002677Y013715D01*
X002677Y014177D01*
X002683Y014177D01*
X002683Y013715D01*
X002873Y013715D01*
X002683Y013836D02*
X002677Y013836D01*
X002677Y013994D02*
X002683Y013994D01*
X002677Y014153D02*
X002683Y014153D01*
X002683Y014183D02*
X003145Y014183D01*
X003145Y014373D01*
X002873Y014645D01*
X002683Y014645D01*
X002683Y014183D01*
X002677Y014311D02*
X002683Y014311D01*
X002677Y014470D02*
X002683Y014470D01*
X002677Y014628D02*
X002683Y014628D01*
X002890Y014628D02*
X003624Y014628D01*
X003750Y014470D02*
X003048Y014470D01*
X003145Y014311D02*
X003750Y014311D01*
X003750Y014153D02*
X003145Y014153D01*
X003145Y013994D02*
X003750Y013994D01*
X003465Y014787D02*
X000960Y014787D01*
X000960Y014945D02*
X003307Y014945D01*
X003148Y015104D02*
X000960Y015104D01*
X000960Y015262D02*
X002990Y015262D01*
X002831Y015421D02*
X000960Y015421D01*
X000960Y015579D02*
X002673Y015579D01*
X002514Y015738D02*
X000960Y015738D01*
X000960Y015896D02*
X002306Y015896D01*
X002229Y016055D02*
X000960Y016055D01*
X000960Y016213D02*
X002215Y016213D01*
X002250Y016372D02*
X000960Y016372D01*
X000960Y016530D02*
X002250Y016530D01*
X002250Y016689D02*
X000960Y016689D01*
X000960Y016847D02*
X002250Y016847D01*
X002250Y017006D02*
X000960Y017006D01*
X000960Y017164D02*
X002250Y017164D01*
X002250Y017323D02*
X000960Y017323D01*
X000960Y017481D02*
X002250Y017481D01*
X002250Y017640D02*
X000960Y017640D01*
X000960Y017798D02*
X002250Y017798D01*
X002250Y017957D02*
X000960Y017957D01*
X000960Y018115D02*
X002250Y018115D01*
X002250Y018274D02*
X000960Y018274D01*
X000960Y018432D02*
X002250Y018432D01*
X002250Y018591D02*
X000960Y018591D01*
X000960Y018749D02*
X002250Y018749D01*
X002250Y018908D02*
X000960Y018908D01*
X000960Y019066D02*
X002250Y019066D01*
X002250Y019225D02*
X000960Y019225D01*
X000960Y019383D02*
X002250Y019383D01*
X002250Y019542D02*
X000960Y019542D01*
X000960Y019700D02*
X002250Y019700D01*
X002250Y019859D02*
X000960Y019859D01*
X000960Y020017D02*
X002250Y020017D01*
X002250Y020176D02*
X000960Y020176D01*
X000960Y020334D02*
X002278Y020334D01*
X002384Y020493D02*
X000960Y020493D01*
X000960Y020651D02*
X002543Y020651D01*
X002701Y020810D02*
X000960Y020810D01*
X000960Y020968D02*
X002860Y020968D01*
X002880Y021127D02*
X000960Y021127D01*
X000960Y021285D02*
X002880Y021285D01*
X002923Y021444D02*
X000960Y021444D01*
X000960Y021602D02*
X002989Y021602D01*
X003129Y021761D02*
X000960Y021761D01*
X000960Y021919D02*
X003374Y021919D01*
X003969Y022078D02*
X000960Y022078D01*
X000960Y022236D02*
X004128Y022236D01*
X004250Y022395D02*
X000960Y022395D01*
X000960Y022553D02*
X004250Y022553D01*
X004250Y022712D02*
X000960Y022712D01*
X000960Y022870D02*
X004250Y022870D01*
X004250Y023029D02*
X000960Y023029D01*
X000960Y023187D02*
X004250Y023187D01*
X004250Y023346D02*
X000960Y023346D01*
X000960Y023504D02*
X004250Y023504D01*
X004250Y023663D02*
X000960Y023663D01*
X000960Y023821D02*
X004250Y023821D01*
X004250Y023980D02*
X000960Y023980D01*
X000960Y024138D02*
X004250Y024138D01*
X004250Y024297D02*
X000960Y024297D01*
X000960Y024455D02*
X004250Y024455D01*
X004250Y024614D02*
X000960Y024614D01*
X000960Y024772D02*
X004250Y024772D01*
X004250Y024931D02*
X000960Y024931D01*
X000960Y025089D02*
X004250Y025089D01*
X004250Y025248D02*
X000960Y025248D01*
X000960Y025406D02*
X004250Y025406D01*
X004250Y025565D02*
X000960Y025565D01*
X000960Y025723D02*
X004250Y025723D01*
X004250Y025882D02*
X000960Y025882D01*
X000960Y026040D02*
X004250Y026040D01*
X004250Y026199D02*
X000960Y026199D01*
X000960Y026357D02*
X002291Y026357D01*
X002398Y026250D02*
X002660Y026250D01*
X002660Y026910D01*
X002700Y026910D01*
X002700Y026950D01*
X003360Y026950D01*
X003360Y027212D01*
X002962Y027610D01*
X002700Y027610D01*
X002700Y026950D01*
X002660Y026950D01*
X002660Y027610D01*
X002398Y027610D01*
X002000Y027212D01*
X002000Y026950D01*
X002660Y026950D01*
X002660Y026910D01*
X002000Y026910D01*
X002000Y026648D01*
X002398Y026250D01*
X002660Y026357D02*
X002700Y026357D01*
X002700Y026250D02*
X002962Y026250D01*
X003360Y026648D01*
X003360Y026910D01*
X002700Y026910D01*
X002700Y026250D01*
X002700Y026516D02*
X002660Y026516D01*
X002660Y026674D02*
X002700Y026674D01*
X002700Y026833D02*
X002660Y026833D01*
X002660Y026991D02*
X002700Y026991D01*
X002700Y027150D02*
X002660Y027150D01*
X002660Y027308D02*
X002700Y027308D01*
X002700Y027467D02*
X002660Y027467D01*
X002255Y027467D02*
X000960Y027467D01*
X000960Y027625D02*
X004767Y027625D01*
X004925Y027784D02*
X000960Y027784D01*
X000960Y027942D02*
X005084Y027942D01*
X005242Y028101D02*
X000960Y028101D01*
X000960Y028259D02*
X005401Y028259D01*
X004255Y027467D02*
X003105Y027467D01*
X003264Y027308D02*
X004101Y027308D01*
X004035Y027150D02*
X003360Y027150D01*
X003360Y026991D02*
X004000Y026991D01*
X004000Y026833D02*
X003360Y026833D01*
X003360Y026674D02*
X004050Y026674D01*
X004133Y026516D02*
X003227Y026516D01*
X003069Y026357D02*
X004250Y026357D01*
X002133Y026516D02*
X000960Y026516D01*
X000960Y026674D02*
X002000Y026674D01*
X002000Y026833D02*
X000960Y026833D01*
X000960Y026991D02*
X002000Y026991D01*
X002000Y027150D02*
X000960Y027150D01*
X000960Y027308D02*
X002096Y027308D01*
X005391Y030690D02*
X004190Y031891D01*
X004190Y032041D01*
X004206Y032079D01*
X004206Y032281D01*
X004141Y032438D01*
X004141Y032534D01*
X004073Y032697D01*
X004139Y032539D02*
X005221Y032539D01*
X005219Y032534D02*
X005219Y032438D01*
X005154Y032281D01*
X005154Y032079D01*
X005219Y031922D01*
X005219Y031826D01*
X005287Y031663D01*
X005412Y031538D01*
X005576Y031470D01*
X005753Y031470D01*
X005916Y031538D01*
X006042Y031663D01*
X006044Y031670D01*
X006969Y031670D01*
X008500Y030139D01*
X008500Y030045D01*
X008604Y029795D01*
X008795Y029604D01*
X008880Y029568D01*
X008880Y027407D01*
X008661Y027188D01*
X008688Y027254D01*
X008688Y027445D01*
X008661Y027510D01*
X008690Y027579D01*
X008690Y029061D01*
X008697Y029077D01*
X008697Y029283D01*
X008618Y029473D01*
X008473Y029618D01*
X008283Y029697D01*
X008077Y029697D01*
X008061Y029690D01*
X007391Y029690D01*
X006612Y030469D01*
X006469Y030612D01*
X006281Y030690D01*
X005391Y030690D01*
X005286Y030795D02*
X007844Y030795D01*
X008002Y030637D02*
X006410Y030637D01*
X006603Y030478D02*
X008161Y030478D01*
X008319Y030320D02*
X006762Y030320D01*
X006920Y030161D02*
X008478Y030161D01*
X008517Y030003D02*
X007079Y030003D01*
X007237Y029844D02*
X008583Y029844D01*
X008713Y029686D02*
X008309Y029686D01*
X008563Y029527D02*
X008880Y029527D01*
X008880Y029369D02*
X008661Y029369D01*
X008697Y029210D02*
X008880Y029210D01*
X008880Y029052D02*
X008690Y029052D01*
X008690Y028893D02*
X008880Y028893D01*
X008880Y028735D02*
X008690Y028735D01*
X008690Y028576D02*
X008880Y028576D01*
X008880Y028418D02*
X008690Y028418D01*
X008690Y028259D02*
X008880Y028259D01*
X008880Y028101D02*
X008690Y028101D01*
X008690Y027942D02*
X008880Y027942D01*
X008880Y027784D02*
X008690Y027784D01*
X008690Y027625D02*
X008880Y027625D01*
X008880Y027467D02*
X008679Y027467D01*
X008688Y027308D02*
X008781Y027308D01*
X009154Y026833D02*
X010750Y026833D01*
X010750Y026991D02*
X009313Y026991D01*
X009450Y027150D02*
X010750Y027150D01*
X010750Y027308D02*
X009480Y027308D01*
X009480Y027467D02*
X010750Y027467D01*
X010750Y027625D02*
X009480Y027625D01*
X009480Y027784D02*
X010750Y027784D01*
X010750Y027942D02*
X009480Y027942D01*
X009480Y028101D02*
X010750Y028101D01*
X010750Y028259D02*
X009480Y028259D01*
X009480Y028418D02*
X010750Y028418D01*
X010750Y028576D02*
X009480Y028576D01*
X009480Y028735D02*
X010750Y028735D01*
X010750Y028893D02*
X009480Y028893D01*
X009480Y029052D02*
X010680Y029052D01*
X010680Y029210D02*
X009480Y029210D01*
X009480Y029369D02*
X010680Y029369D01*
X010820Y029527D02*
X009480Y029527D01*
X009472Y030795D02*
X019140Y030795D01*
X019140Y030954D02*
X009128Y030954D01*
X008969Y031112D02*
X019140Y031112D01*
X019140Y031271D02*
X008811Y031271D01*
X007685Y030954D02*
X005128Y030954D01*
X004969Y031112D02*
X007527Y031112D01*
X007368Y031271D02*
X004811Y031271D01*
X004652Y031429D02*
X007210Y031429D01*
X007051Y031588D02*
X005966Y031588D01*
X005362Y031588D02*
X004494Y031588D01*
X004335Y031746D02*
X005253Y031746D01*
X005219Y031905D02*
X004190Y031905D01*
X004199Y032063D02*
X005161Y032063D01*
X005154Y032222D02*
X004206Y032222D01*
X004165Y032380D02*
X005195Y032380D01*
X005219Y032534D02*
X005287Y032697D01*
X005493Y032856D02*
X003867Y032856D01*
X005916Y032822D02*
X006042Y032697D01*
X003238Y035345D02*
X003515Y035622D01*
X003665Y035984D01*
X003665Y036376D01*
X003515Y036738D01*
X003238Y037015D01*
X002876Y037165D01*
X002484Y037165D01*
X002122Y037015D01*
X001845Y036738D01*
X001695Y036376D01*
X001695Y035984D01*
X001845Y035622D01*
X002122Y035345D01*
X002484Y035195D01*
X002876Y035195D01*
X003238Y035345D01*
X003285Y035392D02*
X022075Y035392D01*
X022122Y035345D02*
X021845Y035622D01*
X021695Y035984D01*
X021695Y036376D01*
X021845Y036738D01*
X022122Y037015D01*
X022484Y037165D01*
X022876Y037165D01*
X023238Y037015D01*
X023515Y036738D01*
X023665Y036376D01*
X023665Y035984D01*
X023515Y035622D01*
X023238Y035345D01*
X022876Y035195D01*
X022484Y035195D01*
X022122Y035345D01*
X021917Y035550D02*
X003443Y035550D01*
X003551Y035709D02*
X021809Y035709D01*
X021743Y035867D02*
X003617Y035867D01*
X003665Y036026D02*
X021695Y036026D01*
X021695Y036184D02*
X003665Y036184D01*
X003665Y036343D02*
X021695Y036343D01*
X021747Y036501D02*
X003613Y036501D01*
X003548Y036660D02*
X021812Y036660D01*
X021925Y036818D02*
X003435Y036818D01*
X003276Y036977D02*
X022084Y036977D01*
X022412Y037135D02*
X002948Y037135D01*
X002412Y037135D02*
X000960Y037135D01*
X000960Y036977D02*
X002084Y036977D01*
X001925Y036818D02*
X000960Y036818D01*
X000960Y036660D02*
X001812Y036660D01*
X001747Y036501D02*
X000960Y036501D01*
X000960Y036343D02*
X001695Y036343D01*
X001695Y036184D02*
X000960Y036184D01*
X000960Y036026D02*
X001695Y036026D01*
X001743Y035867D02*
X000960Y035867D01*
X000960Y035709D02*
X001809Y035709D01*
X001917Y035550D02*
X000960Y035550D01*
X000960Y035392D02*
X002075Y035392D01*
X002392Y035233D02*
X000960Y035233D01*
X000960Y035075D02*
X025180Y035075D01*
X025180Y035233D02*
X022968Y035233D01*
X023285Y035392D02*
X025180Y035392D01*
X025180Y035550D02*
X023443Y035550D01*
X023551Y035709D02*
X025180Y035709D01*
X025180Y035867D02*
X023617Y035867D01*
X023665Y036026D02*
X025180Y036026D01*
X025180Y036184D02*
X023665Y036184D01*
X023665Y036343D02*
X025180Y036343D01*
X025180Y036501D02*
X023613Y036501D01*
X023548Y036660D02*
X025180Y036660D01*
X025180Y036818D02*
X023435Y036818D01*
X023276Y036977D02*
X025180Y036977D01*
X025180Y037135D02*
X022948Y037135D01*
X025180Y037294D02*
X000960Y037294D01*
X000960Y037452D02*
X025180Y037452D01*
X025180Y037611D02*
X000960Y037611D01*
X000960Y037769D02*
X025180Y037769D01*
X022392Y035233D02*
X002968Y035233D01*
X000960Y034916D02*
X025180Y034916D01*
X025180Y034758D02*
X000960Y034758D01*
X000960Y034599D02*
X025180Y034599D01*
X025180Y034441D02*
X000960Y034441D01*
X000960Y034282D02*
X025180Y034282D01*
X022457Y033807D02*
X036950Y033807D01*
X036950Y033965D02*
X022343Y033965D01*
X021577Y033965D02*
X019783Y033965D01*
X019712Y034036D02*
X019509Y034120D01*
X019291Y034120D01*
X019088Y034036D01*
X018934Y033882D01*
X018850Y033679D01*
X018850Y033461D01*
X018934Y033258D01*
X019088Y033104D01*
X019291Y033020D01*
X019509Y033020D01*
X019712Y033104D01*
X019866Y033258D01*
X019950Y033461D01*
X019950Y033679D01*
X019866Y033882D01*
X019712Y034036D01*
X019897Y033807D02*
X021463Y033807D01*
X021410Y033648D02*
X019950Y033648D01*
X019950Y033490D02*
X021410Y033490D01*
X021464Y033331D02*
X019896Y033331D01*
X019780Y033173D02*
X021580Y033173D01*
X022442Y032063D02*
X023238Y032063D01*
X023079Y031905D02*
X022508Y031905D01*
X022510Y031746D02*
X022950Y031746D01*
X022950Y031588D02*
X022471Y031588D01*
X022377Y031429D02*
X022960Y031429D01*
X022960Y031271D02*
X022143Y031271D01*
X021777Y031271D02*
X019660Y031271D01*
X019660Y031112D02*
X022960Y031112D01*
X022960Y030954D02*
X019660Y030954D01*
X019660Y030795D02*
X022960Y030795D01*
X022960Y030637D02*
X021910Y030637D01*
X022103Y030478D02*
X022960Y030478D01*
X022960Y030320D02*
X022262Y030320D01*
X022420Y030161D02*
X022960Y030161D01*
X022960Y030003D02*
X022579Y030003D01*
X022664Y029844D02*
X022960Y029844D01*
X022960Y029686D02*
X022690Y029686D01*
X022690Y029527D02*
X022960Y029527D01*
X022960Y029369D02*
X022690Y029369D01*
X022690Y029210D02*
X022960Y029210D01*
X022960Y029052D02*
X022690Y029052D01*
X022690Y028893D02*
X022960Y028893D01*
X022960Y028735D02*
X022690Y028735D01*
X022690Y028576D02*
X022960Y028576D01*
X022960Y028418D02*
X022690Y028418D01*
X022690Y028259D02*
X022960Y028259D01*
X022960Y028101D02*
X022690Y028101D01*
X022690Y027942D02*
X022960Y027942D01*
X022960Y027784D02*
X022690Y027784D01*
X022690Y027625D02*
X022960Y027625D01*
X022960Y027467D02*
X022690Y027467D01*
X022690Y027308D02*
X022960Y027308D01*
X022960Y027150D02*
X022690Y027150D01*
X021670Y027308D02*
X016660Y027308D01*
X016502Y027467D02*
X021670Y027467D01*
X021670Y027625D02*
X015893Y027625D01*
X015908Y027610D02*
X015873Y027645D01*
X015487Y027645D01*
X015215Y027373D01*
X015215Y026987D01*
X015487Y026715D01*
X015873Y026715D01*
X015908Y026750D01*
X016002Y026750D01*
X016620Y026132D01*
X016620Y026069D01*
X016705Y025863D01*
X016863Y025705D01*
X017069Y025620D01*
X017291Y025620D01*
X017497Y025705D01*
X017655Y025863D01*
X017740Y026069D01*
X017740Y026132D01*
X017858Y026250D01*
X018433Y026250D01*
X018518Y026215D01*
X019272Y026215D01*
X019443Y026286D01*
X019574Y026417D01*
X019645Y026588D01*
X019645Y026772D01*
X019574Y026943D01*
X019443Y027074D01*
X019272Y027145D01*
X018518Y027145D01*
X018433Y027110D01*
X017594Y027110D01*
X017436Y027045D01*
X017180Y026788D01*
X016424Y027545D01*
X016266Y027610D01*
X015908Y027610D01*
X015467Y027625D02*
X014233Y027625D01*
X014075Y027467D02*
X015309Y027467D01*
X015215Y027308D02*
X013916Y027308D01*
X013758Y027150D02*
X015215Y027150D01*
X015215Y026991D02*
X013599Y026991D01*
X013441Y026833D02*
X015370Y026833D01*
X016078Y026674D02*
X013282Y026674D01*
X013124Y026516D02*
X016236Y026516D01*
X016395Y026357D02*
X013110Y026357D01*
X013110Y026199D02*
X016553Y026199D01*
X016632Y026040D02*
X013890Y026040D01*
X014087Y025882D02*
X016697Y025882D01*
X016845Y025723D02*
X014245Y025723D01*
X014404Y025565D02*
X017456Y025565D01*
X017515Y025723D02*
X017615Y025723D01*
X017663Y025882D02*
X017773Y025882D01*
X017728Y026040D02*
X017932Y026040D01*
X017807Y026199D02*
X020170Y026199D01*
X020170Y026040D02*
X019478Y026040D01*
X019600Y025882D02*
X020170Y025882D01*
X020170Y025723D02*
X019645Y025723D01*
X019635Y025565D02*
X020170Y025565D01*
X020170Y025406D02*
X019564Y025406D01*
X019351Y025248D02*
X020170Y025248D01*
X020170Y025089D02*
X019408Y025089D01*
X019443Y025074D02*
X019272Y025145D01*
X018518Y025145D01*
X018347Y025074D01*
X018216Y024943D01*
X018145Y024772D01*
X017880Y024772D01*
X017722Y024614D02*
X018145Y024614D01*
X018145Y024588D02*
X018216Y024417D01*
X018347Y024286D01*
X018518Y024215D01*
X019272Y024215D01*
X019443Y024286D01*
X019574Y024417D01*
X019645Y024588D01*
X019645Y024772D01*
X020170Y024772D01*
X020170Y024614D02*
X019645Y024614D01*
X019645Y024772D02*
X019574Y024943D01*
X019443Y025074D01*
X019580Y024931D02*
X020170Y024931D01*
X020170Y024455D02*
X019590Y024455D01*
X019454Y024297D02*
X020170Y024297D01*
X020170Y024138D02*
X017610Y024138D01*
X017610Y023980D02*
X020170Y023980D01*
X020170Y023821D02*
X017610Y023821D01*
X017610Y023663D02*
X020170Y023663D01*
X020170Y023504D02*
X017610Y023504D01*
X017610Y023346D02*
X020170Y023346D01*
X020170Y023187D02*
X017610Y023187D01*
X017610Y023029D02*
X020170Y023029D01*
X020170Y022870D02*
X017610Y022870D01*
X017610Y022712D02*
X020170Y022712D01*
X020170Y022553D02*
X019903Y022553D01*
X020074Y022395D02*
X020170Y022395D01*
X019650Y021602D02*
X017210Y021602D01*
X017052Y021444D02*
X019808Y021444D01*
X019967Y021285D02*
X016893Y021285D01*
X016735Y021127D02*
X020125Y021127D01*
X020284Y020968D02*
X016576Y020968D01*
X016152Y021761D02*
X015918Y021761D01*
X016077Y021919D02*
X016311Y021919D01*
X016469Y022078D02*
X016145Y022078D01*
X016145Y022236D02*
X016620Y022236D01*
X016663Y022395D02*
X016123Y022395D01*
X016110Y022553D02*
X016750Y022553D01*
X016750Y022712D02*
X016110Y022712D01*
X016110Y022870D02*
X016750Y022870D01*
X016750Y023029D02*
X016110Y023029D01*
X016110Y023187D02*
X016750Y023187D01*
X016750Y023346D02*
X016110Y023346D01*
X016110Y023504D02*
X016750Y023504D01*
X016750Y023663D02*
X016110Y023663D01*
X016087Y023821D02*
X016750Y023821D01*
X016750Y023980D02*
X015989Y023980D01*
X015830Y024138D02*
X016750Y024138D01*
X016750Y024297D02*
X015672Y024297D01*
X015513Y024455D02*
X016750Y024455D01*
X016750Y024614D02*
X015355Y024614D01*
X015196Y024772D02*
X016753Y024772D01*
X016822Y024931D02*
X015038Y024931D01*
X014879Y025089D02*
X016981Y025089D01*
X017139Y025248D02*
X014721Y025248D01*
X014562Y025406D02*
X017298Y025406D01*
X018039Y024931D02*
X018210Y024931D01*
X018197Y025089D02*
X018382Y025089D01*
X018356Y025248D02*
X018439Y025248D01*
X018145Y024772D02*
X018145Y024588D01*
X018200Y024455D02*
X017610Y024455D01*
X017610Y024297D02*
X018336Y024297D01*
X019515Y026357D02*
X020201Y026357D01*
X020294Y026516D02*
X019615Y026516D01*
X019645Y026674D02*
X020453Y026674D01*
X020611Y026833D02*
X019620Y026833D01*
X019527Y026991D02*
X020770Y026991D01*
X020981Y027150D02*
X016819Y027150D01*
X016977Y026991D02*
X017383Y026991D01*
X017224Y026833D02*
X017136Y026833D01*
X015184Y028576D02*
X021670Y028576D01*
X021670Y028418D02*
X015026Y028418D01*
X014867Y028259D02*
X021670Y028259D01*
X021670Y028101D02*
X014709Y028101D01*
X014550Y027942D02*
X021670Y027942D01*
X021670Y027784D02*
X014392Y027784D01*
X012100Y025723D02*
X011610Y025723D01*
X011610Y025565D02*
X012100Y025565D01*
X012153Y025406D02*
X011610Y025406D01*
X011610Y025248D02*
X012261Y025248D01*
X012515Y025089D02*
X011610Y025089D01*
X011610Y024931D02*
X013821Y024931D01*
X013663Y025089D02*
X012845Y025089D01*
X013260Y024138D02*
X014614Y024138D01*
X014772Y023980D02*
X013260Y023980D01*
X013260Y023821D02*
X014931Y023821D01*
X015089Y023663D02*
X013260Y023663D01*
X013260Y023504D02*
X015248Y023504D01*
X015250Y023346D02*
X013260Y023346D01*
X013242Y023187D02*
X015250Y023187D01*
X015250Y023029D02*
X013110Y023029D01*
X013110Y022870D02*
X015250Y022870D01*
X015250Y022712D02*
X013110Y022712D01*
X013110Y022553D02*
X015250Y022553D01*
X015237Y022395D02*
X013110Y022395D01*
X013232Y022236D02*
X015215Y022236D01*
X015215Y022078D02*
X013391Y022078D01*
X013549Y021919D02*
X015283Y021919D01*
X015442Y021761D02*
X013708Y021761D01*
X013125Y021127D02*
X011610Y021127D01*
X011610Y021285D02*
X012967Y021285D01*
X012808Y021444D02*
X011610Y021444D01*
X011610Y021602D02*
X012650Y021602D01*
X012491Y021761D02*
X011610Y021761D01*
X011610Y021919D02*
X012333Y021919D01*
X012257Y022078D02*
X011610Y022078D01*
X011610Y022236D02*
X012250Y022236D01*
X012250Y022395D02*
X011610Y022395D01*
X011610Y022553D02*
X012250Y022553D01*
X012250Y022712D02*
X011610Y022712D01*
X011610Y022870D02*
X012250Y022870D01*
X012250Y023029D02*
X011610Y023029D01*
X011610Y023187D02*
X012118Y023187D01*
X012100Y023346D02*
X011610Y023346D01*
X011610Y023504D02*
X012100Y023504D01*
X012100Y023663D02*
X011610Y023663D01*
X011610Y023821D02*
X012100Y023821D01*
X012100Y023980D02*
X011610Y023980D01*
X011610Y024138D02*
X012100Y024138D01*
X011610Y024297D02*
X014455Y024297D01*
X014297Y024455D02*
X011610Y024455D01*
X011610Y024614D02*
X014138Y024614D01*
X013980Y024772D02*
X011610Y024772D01*
X010750Y025565D02*
X008385Y025565D01*
X008599Y025723D02*
X010750Y025723D01*
X010750Y025882D02*
X008674Y025882D01*
X008688Y026040D02*
X010750Y026040D01*
X010750Y026199D02*
X008650Y026199D01*
X008679Y026357D02*
X010750Y026357D01*
X010750Y026516D02*
X008837Y026516D01*
X008996Y026674D02*
X010750Y026674D01*
X007989Y026516D02*
X007124Y026516D01*
X007029Y026357D02*
X007276Y026357D01*
X007072Y021919D02*
X010750Y021919D01*
X010750Y021761D02*
X007231Y021761D01*
X007389Y021602D02*
X010750Y021602D01*
X010750Y021444D02*
X007480Y021444D01*
X007480Y021285D02*
X010750Y021285D01*
X010750Y021127D02*
X007480Y021127D01*
X007480Y021160D02*
X006700Y021160D01*
X006700Y020380D01*
X007011Y020380D01*
X007480Y020849D01*
X007480Y021160D01*
X007480Y020968D02*
X010750Y020968D01*
X010750Y020810D02*
X007441Y020810D01*
X007282Y020651D02*
X010750Y020651D01*
X010750Y020493D02*
X007124Y020493D01*
X006700Y020493D02*
X006660Y020493D01*
X006660Y020651D02*
X006700Y020651D01*
X006700Y020810D02*
X006660Y020810D01*
X006660Y020968D02*
X006700Y020968D01*
X006700Y021127D02*
X006660Y021127D01*
X006660Y021285D02*
X006700Y021285D01*
X006700Y021444D02*
X006660Y021444D01*
X006660Y021602D02*
X006700Y021602D01*
X006700Y021761D02*
X006660Y021761D01*
X006660Y021919D02*
X006700Y021919D01*
X011610Y020968D02*
X013284Y020968D01*
X013451Y020810D02*
X011610Y020810D01*
X011610Y020651D02*
X019944Y020651D01*
X021504Y022078D02*
X021957Y022078D01*
X021950Y022236D02*
X021345Y022236D01*
X021190Y022395D02*
X021950Y022395D01*
X021950Y022553D02*
X021190Y022553D01*
X021190Y022712D02*
X021950Y022712D01*
X021950Y022870D02*
X021190Y022870D01*
X021190Y023029D02*
X021950Y023029D01*
X021950Y023187D02*
X021190Y023187D01*
X021190Y023346D02*
X021857Y023346D01*
X021715Y023504D02*
X021190Y023504D01*
X021190Y023663D02*
X021715Y023663D01*
X021715Y023821D02*
X021190Y023821D01*
X021190Y023980D02*
X021822Y023980D01*
X021900Y024138D02*
X021190Y024138D01*
X021190Y024297D02*
X021900Y024297D01*
X021770Y024455D02*
X021190Y024455D01*
X021190Y024931D02*
X021780Y024931D01*
X021952Y025089D02*
X021190Y025089D01*
X021190Y025248D02*
X022006Y025248D01*
X022177Y025248D02*
X022183Y025248D01*
X022177Y025406D02*
X022183Y025406D01*
X022177Y025565D02*
X022183Y025565D01*
X022177Y025723D02*
X022183Y025723D01*
X022177Y025882D02*
X022183Y025882D01*
X022177Y026040D02*
X022183Y026040D01*
X022350Y026199D02*
X022960Y026199D01*
X021884Y026040D02*
X021261Y026040D01*
X021190Y025882D02*
X021761Y025882D01*
X021716Y025723D02*
X021190Y025723D01*
X021190Y025565D02*
X021729Y025565D01*
X021804Y025406D02*
X021190Y025406D01*
X022924Y025248D02*
X022960Y025248D01*
X022116Y021919D02*
X021662Y021919D01*
X021821Y021761D02*
X022274Y021761D01*
X022433Y021602D02*
X021979Y021602D01*
X022138Y021444D02*
X022591Y021444D01*
X022750Y021285D02*
X022296Y021285D01*
X018004Y017640D02*
X017512Y017640D01*
X012271Y015738D02*
X008760Y015738D01*
X009004Y015896D02*
X012157Y015896D01*
X012100Y016055D02*
X009163Y016055D01*
X009321Y016213D02*
X012100Y016213D01*
X007776Y014628D02*
X005890Y014628D01*
X005470Y014628D02*
X004610Y014628D01*
X004610Y014470D02*
X005312Y014470D01*
X005215Y014311D02*
X004610Y014311D01*
X004610Y014153D02*
X005215Y014153D01*
X005215Y013994D02*
X004610Y013994D01*
X004610Y013836D02*
X005367Y013836D01*
X002367Y013836D02*
X000960Y013836D01*
X000960Y013994D02*
X002215Y013994D01*
X002215Y014153D02*
X000960Y014153D01*
X000960Y014311D02*
X002215Y014311D01*
X002312Y014470D02*
X000960Y014470D01*
X000960Y014628D02*
X002470Y014628D01*
X019817Y031429D02*
X021543Y031429D01*
X019020Y033173D02*
X000960Y033173D01*
X000960Y033331D02*
X018904Y033331D01*
X018850Y033490D02*
X000960Y033490D01*
X000960Y033648D02*
X018850Y033648D01*
X018903Y033807D02*
X000960Y033807D01*
X000960Y033965D02*
X019017Y033965D01*
X035180Y036343D02*
X053195Y036343D01*
X053195Y036376D02*
X053195Y035984D01*
X053345Y035622D01*
X053622Y035345D01*
X053984Y035195D01*
X054376Y035195D01*
X054738Y035345D01*
X055015Y035622D01*
X055165Y035984D01*
X055165Y036376D01*
X055015Y036738D01*
X054738Y037015D01*
X054376Y037165D01*
X053984Y037165D01*
X053622Y037015D01*
X053345Y036738D01*
X053195Y036376D01*
X053247Y036501D02*
X035180Y036501D01*
X035180Y036660D02*
X053312Y036660D01*
X053425Y036818D02*
X035180Y036818D01*
X035180Y036977D02*
X053584Y036977D01*
X053912Y037135D02*
X035180Y037135D01*
X035180Y037294D02*
X055892Y037294D01*
X055892Y037452D02*
X035180Y037452D01*
X035180Y037611D02*
X055892Y037611D01*
X055892Y037769D02*
X035180Y037769D01*
X036950Y034124D02*
X000960Y034124D01*
X036145Y030960D02*
X037575Y030960D01*
X037950Y030585D01*
X038085Y030450D01*
X038172Y030450D01*
X038432Y030190D01*
X038151Y029910D01*
X038151Y029485D01*
X038076Y029410D01*
X037275Y029410D01*
X036275Y030410D01*
X036146Y030410D01*
X036214Y030575D01*
X036214Y030794D01*
X036145Y030960D01*
X036148Y030954D02*
X037581Y030954D01*
X037740Y030795D02*
X036214Y030795D01*
X036214Y030637D02*
X036979Y030637D01*
X036987Y030645D02*
X036715Y030373D01*
X036715Y030183D01*
X037177Y030183D01*
X037177Y030645D01*
X036987Y030645D01*
X037177Y030637D02*
X037183Y030637D01*
X037183Y030645D02*
X037183Y030183D01*
X037177Y030183D01*
X037177Y030177D01*
X036715Y030177D01*
X036715Y029987D01*
X036987Y029715D01*
X037177Y029715D01*
X037177Y030177D01*
X037183Y030177D01*
X037183Y030183D01*
X037645Y030183D01*
X037645Y030373D01*
X037373Y030645D01*
X037183Y030645D01*
X037177Y030478D02*
X037183Y030478D01*
X037177Y030320D02*
X037183Y030320D01*
X037183Y030177D02*
X037645Y030177D01*
X037645Y029987D01*
X037373Y029715D01*
X037183Y029715D01*
X037183Y030177D01*
X037183Y030161D02*
X037177Y030161D01*
X037177Y030003D02*
X037183Y030003D01*
X037177Y029844D02*
X037183Y029844D01*
X037000Y029686D02*
X038151Y029686D01*
X038151Y029844D02*
X037502Y029844D01*
X037645Y030003D02*
X038244Y030003D01*
X038403Y030161D02*
X037645Y030161D01*
X037645Y030320D02*
X038302Y030320D01*
X038057Y030478D02*
X037540Y030478D01*
X037381Y030637D02*
X037898Y030637D01*
X036820Y030478D02*
X036174Y030478D01*
X036366Y030320D02*
X036715Y030320D01*
X036715Y030161D02*
X036524Y030161D01*
X036683Y030003D02*
X036715Y030003D01*
X036841Y029844D02*
X036858Y029844D01*
X037158Y029527D02*
X038151Y029527D01*
X038122Y032063D02*
X038305Y032063D01*
X038400Y032222D02*
X037964Y032222D01*
X037805Y032380D02*
X038242Y032380D01*
X047810Y036184D02*
X053195Y036184D01*
X053195Y036026D02*
X048056Y036026D01*
X048214Y035867D02*
X053243Y035867D01*
X053309Y035709D02*
X048373Y035709D01*
X048531Y035550D02*
X053417Y035550D01*
X053575Y035392D02*
X048690Y035392D01*
X048848Y035233D02*
X053892Y035233D01*
X054468Y035233D02*
X055892Y035233D01*
X055892Y035075D02*
X049007Y035075D01*
X049134Y034916D02*
X055892Y034916D01*
X055892Y034758D02*
X049190Y034758D01*
X049190Y034599D02*
X055892Y034599D01*
X055892Y034441D02*
X049190Y034441D01*
X049190Y034282D02*
X055892Y034282D01*
X055892Y034124D02*
X049190Y034124D01*
X049190Y033965D02*
X055892Y033965D01*
X055892Y033807D02*
X049190Y033807D01*
X049190Y033648D02*
X055892Y033648D01*
X055892Y033490D02*
X049190Y033490D01*
X049190Y033331D02*
X055892Y033331D01*
X055892Y033173D02*
X049190Y033173D01*
X049190Y033014D02*
X055892Y033014D01*
X055892Y032856D02*
X049190Y032856D01*
X049190Y032697D02*
X055892Y032697D01*
X055892Y032539D02*
X049190Y032539D01*
X049190Y032380D02*
X055892Y032380D01*
X055892Y032222D02*
X049190Y032222D01*
X049190Y032063D02*
X055892Y032063D01*
X055892Y031905D02*
X049190Y031905D01*
X049190Y031746D02*
X055892Y031746D01*
X055892Y031588D02*
X049190Y031588D01*
X049190Y031429D02*
X055892Y031429D01*
X055892Y031271D02*
X049190Y031271D01*
X049190Y031112D02*
X055892Y031112D01*
X055892Y030954D02*
X049190Y030954D01*
X049190Y030795D02*
X055892Y030795D01*
X055892Y030637D02*
X049190Y030637D01*
X049190Y030478D02*
X055892Y030478D01*
X055892Y030320D02*
X049190Y030320D01*
X049190Y030161D02*
X055892Y030161D01*
X055892Y030003D02*
X049190Y030003D01*
X049190Y029844D02*
X055892Y029844D01*
X055892Y029686D02*
X049190Y029686D01*
X049190Y029527D02*
X055892Y029527D01*
X055892Y029369D02*
X049190Y029369D01*
X049190Y029210D02*
X055892Y029210D01*
X055892Y029052D02*
X049190Y029052D01*
X049190Y028893D02*
X055892Y028893D01*
X055892Y028735D02*
X049190Y028735D01*
X049190Y028576D02*
X055892Y028576D01*
X055892Y028418D02*
X049190Y028418D01*
X049190Y028259D02*
X055892Y028259D01*
X055892Y028101D02*
X049190Y028101D01*
X049190Y027942D02*
X055892Y027942D01*
X055892Y027784D02*
X049190Y027784D01*
X049190Y027625D02*
X055892Y027625D01*
X055892Y027467D02*
X049190Y027467D01*
X054733Y020017D02*
X055892Y020017D01*
X055892Y019859D02*
X054894Y019859D01*
X055031Y019700D02*
X055892Y019700D01*
X055892Y019542D02*
X055096Y019542D01*
X055162Y019383D02*
X055892Y019383D01*
X055892Y019225D02*
X055165Y019225D01*
X055165Y019066D02*
X055892Y019066D01*
X055892Y018908D02*
X055133Y018908D01*
X055068Y018749D02*
X055892Y018749D01*
X055892Y018591D02*
X054984Y018591D01*
X054825Y018432D02*
X055892Y018432D01*
X055892Y018274D02*
X054566Y018274D01*
X049950Y013043D02*
X049190Y013043D01*
X049190Y012885D02*
X049950Y012885D01*
X049950Y012726D02*
X049190Y012726D01*
X049190Y012568D02*
X049950Y012568D01*
X049950Y012409D02*
X049190Y012409D01*
X049190Y012251D02*
X049950Y012251D01*
X049950Y012092D02*
X049190Y012092D01*
X049190Y011934D02*
X049950Y011934D01*
X049950Y011775D02*
X049190Y011775D01*
X049190Y011617D02*
X049950Y011617D01*
X049950Y011458D02*
X049190Y011458D01*
X049190Y011300D02*
X049950Y011300D01*
X049950Y011141D02*
X049190Y011141D01*
X049190Y010983D02*
X049950Y010983D01*
X049950Y010824D02*
X049190Y010824D01*
X049190Y010666D02*
X049950Y010666D01*
X049950Y010507D02*
X049190Y010507D01*
X049190Y010349D02*
X049950Y010349D01*
X049950Y010190D02*
X049190Y010190D01*
X049190Y010032D02*
X049950Y010032D01*
X049950Y009873D02*
X049190Y009873D01*
X049190Y009715D02*
X049950Y009715D01*
X049950Y009556D02*
X049190Y009556D01*
X049190Y009398D02*
X049950Y009398D01*
X049950Y009239D02*
X049190Y009239D01*
X049190Y009081D02*
X049950Y009081D01*
X049950Y008922D02*
X049190Y008922D01*
X049190Y008764D02*
X049950Y008764D01*
X049950Y008605D02*
X049190Y008605D01*
X049190Y008447D02*
X049950Y008447D01*
X049950Y008288D02*
X049190Y008288D01*
X049190Y008130D02*
X049950Y008130D01*
X049950Y007971D02*
X049190Y007971D01*
X049190Y007813D02*
X049950Y007813D01*
X049950Y007654D02*
X049190Y007654D01*
X049190Y007496D02*
X049950Y007496D01*
X049950Y007337D02*
X049190Y007337D01*
X049190Y007179D02*
X049950Y007179D01*
X050015Y007020D02*
X049190Y007020D01*
X049190Y006862D02*
X050173Y006862D01*
X050332Y006703D02*
X049190Y006703D01*
X049190Y006545D02*
X050490Y006545D01*
X050649Y006386D02*
X049190Y006386D01*
X049190Y006228D02*
X050807Y006228D01*
X050966Y006069D02*
X049190Y006069D01*
X049190Y005911D02*
X051691Y005911D01*
X051849Y005752D02*
X049190Y005752D01*
X049190Y005594D02*
X051843Y005594D01*
X051684Y005435D02*
X049190Y005435D01*
X049190Y005277D02*
X051645Y005277D01*
X051645Y005118D02*
X049190Y005118D01*
X049141Y004960D02*
X051645Y004960D01*
X051800Y004801D02*
X049022Y004801D01*
X048864Y004643D02*
X051892Y004643D01*
X051733Y004484D02*
X048705Y004484D01*
X048547Y004326D02*
X051645Y004326D01*
X051645Y004167D02*
X048388Y004167D01*
X048230Y004009D02*
X051645Y004009D01*
X051751Y003850D02*
X048071Y003850D01*
X047833Y003692D02*
X051910Y003692D01*
X052440Y003692D02*
X055892Y003692D01*
X055892Y003850D02*
X052598Y003850D01*
X052705Y004009D02*
X055892Y004009D01*
X055892Y004167D02*
X052705Y004167D01*
X052705Y004326D02*
X055892Y004326D01*
X055892Y004484D02*
X052616Y004484D01*
X052458Y004643D02*
X055892Y004643D01*
X055892Y004801D02*
X052549Y004801D01*
X052705Y004960D02*
X055892Y004960D01*
X055892Y005118D02*
X052705Y005118D01*
X052705Y005277D02*
X055892Y005277D01*
X055892Y005435D02*
X052665Y005435D01*
X052507Y005594D02*
X055892Y005594D01*
X055892Y005752D02*
X052500Y005752D01*
X052659Y005911D02*
X055892Y005911D01*
X055892Y006069D02*
X052705Y006069D01*
X052705Y006228D02*
X055892Y006228D01*
X055892Y006386D02*
X052705Y006386D01*
X052556Y006545D02*
X055892Y006545D01*
X055892Y006703D02*
X052451Y006703D01*
X052610Y006862D02*
X055892Y006862D01*
X055892Y007020D02*
X052705Y007020D01*
X052705Y007179D02*
X055892Y007179D01*
X055892Y007337D02*
X052705Y007337D01*
X052605Y007496D02*
X055892Y007496D01*
X055892Y007654D02*
X052446Y007654D01*
X052561Y007813D02*
X055892Y007813D01*
X055892Y007971D02*
X052705Y007971D01*
X052705Y008130D02*
X055892Y008130D01*
X055892Y008288D02*
X052705Y008288D01*
X052654Y008447D02*
X055892Y008447D01*
X055892Y008605D02*
X052495Y008605D01*
X052512Y008764D02*
X055892Y008764D01*
X055892Y008922D02*
X052670Y008922D01*
X052705Y009081D02*
X055892Y009081D01*
X055892Y009239D02*
X052705Y009239D01*
X052703Y009398D02*
X055892Y009398D01*
X055892Y009556D02*
X052544Y009556D01*
X052463Y009715D02*
X055892Y009715D01*
X055892Y009873D02*
X052621Y009873D01*
X052705Y010032D02*
X055892Y010032D01*
X055892Y010190D02*
X052705Y010190D01*
X052705Y010349D02*
X055892Y010349D01*
X055892Y010507D02*
X052593Y010507D01*
X044427Y017164D02*
X041489Y017164D01*
X041648Y017323D02*
X044281Y017323D01*
X044153Y017481D02*
X041806Y017481D01*
X041965Y017640D02*
X044153Y017640D01*
X044153Y017798D02*
X042123Y017798D01*
X042282Y017957D02*
X044219Y017957D01*
X044378Y018115D02*
X042440Y018115D01*
X042599Y018274D02*
X044330Y018274D01*
X044172Y018432D02*
X042757Y018432D01*
X042916Y018591D02*
X044153Y018591D01*
X044153Y018749D02*
X043074Y018749D01*
X043233Y018908D02*
X044170Y018908D01*
X044329Y019066D02*
X043391Y019066D01*
X043550Y019225D02*
X044379Y019225D01*
X044221Y019383D02*
X043708Y019383D01*
X038680Y007813D02*
X037620Y007813D01*
X037040Y007813D02*
X036820Y007813D01*
X036240Y007813D02*
X035470Y007813D01*
X039440Y007337D02*
X040469Y007337D01*
X040311Y007179D02*
X039440Y007179D01*
X039440Y007020D02*
X040152Y007020D01*
X039994Y006862D02*
X039440Y006862D01*
X039565Y006703D02*
X039920Y006703D01*
X039920Y006545D02*
X039645Y006545D01*
X040440Y006545D02*
X040789Y006545D01*
X040894Y006703D02*
X040571Y006703D01*
X040729Y006862D02*
X040736Y006862D01*
X040641Y006386D02*
X040440Y006386D01*
X040440Y006228D02*
X040641Y006228D01*
X040641Y006069D02*
X040440Y006069D01*
X040440Y005911D02*
X040687Y005911D01*
X040845Y005752D02*
X040440Y005752D01*
X040440Y005594D02*
X040838Y005594D01*
X040680Y005435D02*
X040440Y005435D01*
X040440Y005277D02*
X040641Y005277D01*
X040641Y005118D02*
X040440Y005118D01*
X040440Y004960D02*
X040641Y004960D01*
X040796Y004801D02*
X040440Y004801D01*
X040440Y004643D02*
X040887Y004643D01*
X039824Y003692D02*
X032540Y003692D01*
X032540Y003533D02*
X039665Y003533D01*
X039507Y003375D02*
X032540Y003375D01*
X032540Y003216D02*
X039348Y003216D01*
X039190Y003058D02*
X032540Y003058D01*
X032540Y002899D02*
X039031Y002899D01*
X038873Y002741D02*
X033427Y002741D01*
X032733Y002741D02*
X032627Y002741D01*
X032614Y002107D02*
X032746Y002107D01*
X032316Y001948D02*
X053519Y001948D01*
X053756Y001790D02*
X032157Y001790D01*
X031999Y001631D02*
X055892Y001631D01*
X055892Y001473D02*
X031840Y001473D01*
X031682Y001314D02*
X055892Y001314D01*
X055892Y001156D02*
X031523Y001156D01*
X031400Y001033D02*
X031400Y001033D01*
X031365Y000997D02*
X055892Y000997D01*
X055892Y001790D02*
X054604Y001790D01*
X054841Y001948D02*
X055892Y001948D01*
X055892Y002107D02*
X055000Y002107D01*
X055074Y002265D02*
X055892Y002265D01*
X055892Y002424D02*
X055140Y002424D01*
X055165Y002582D02*
X055892Y002582D01*
X055892Y002741D02*
X055165Y002741D01*
X055155Y002899D02*
X055892Y002899D01*
X055892Y003058D02*
X055090Y003058D01*
X055024Y003216D02*
X055892Y003216D01*
X055892Y003375D02*
X054878Y003375D01*
X054695Y003533D02*
X055892Y003533D01*
X037135Y004643D02*
X036629Y004643D01*
X036431Y004643D02*
X035440Y004643D01*
X035534Y004484D02*
X036176Y004484D01*
X036530Y004180D02*
X035180Y004180D01*
X035508Y003850D02*
X036202Y003850D01*
X036858Y003850D02*
X037002Y003850D01*
X036976Y004484D02*
X036884Y004484D01*
X054785Y035392D02*
X055892Y035392D01*
X055892Y035550D02*
X054943Y035550D01*
X055051Y035709D02*
X055892Y035709D01*
X055892Y035867D02*
X055117Y035867D01*
X055165Y036026D02*
X055892Y036026D01*
X055892Y036184D02*
X055165Y036184D01*
X055165Y036343D02*
X055892Y036343D01*
X055892Y036501D02*
X055113Y036501D01*
X055048Y036660D02*
X055892Y036660D01*
X055892Y036818D02*
X054935Y036818D01*
X054776Y036977D02*
X055892Y036977D01*
X055892Y037135D02*
X054448Y037135D01*
D31*
X021180Y020680D02*
X021180Y019680D01*
X019680Y018180D01*
X019680Y016180D01*
X018680Y016180D01*
X019680Y016180D02*
X019680Y014680D01*
X018180Y013180D01*
X017180Y013180D01*
X016180Y012180D01*
X015180Y012180D01*
X013180Y014180D01*
X012680Y014180D01*
X012649Y014211D01*
X008180Y014211D01*
X008149Y014180D01*
X005680Y014180D01*
X004180Y014680D02*
X004180Y012680D01*
X006680Y010180D01*
X009680Y010180D01*
X011680Y010180D01*
X013180Y011680D01*
X014680Y011680D01*
X016180Y010180D01*
X021680Y010180D01*
X024180Y007680D01*
X024180Y003430D01*
X024180Y005680D01*
X032180Y005680D01*
X023430Y004930D02*
X023430Y007430D01*
X021680Y009180D01*
X014680Y009180D01*
X013180Y007680D01*
X013180Y006680D01*
X011680Y006680D01*
X010180Y005180D01*
X010180Y004680D01*
X007180Y004680D02*
X006914Y004414D01*
X007180Y004680D02*
X003180Y004680D01*
X015680Y013180D02*
X015680Y014180D01*
X013711Y016149D01*
X012680Y016149D01*
X012680Y017180D01*
X015680Y020180D01*
X020180Y020180D01*
X021180Y020680D02*
X019680Y022180D01*
X017180Y022180D01*
X017180Y024680D01*
X018180Y025680D01*
X019180Y025680D01*
X019180Y026680D02*
X017680Y026680D01*
X017180Y026180D01*
X016180Y027180D01*
X015680Y027180D01*
X013711Y025649D02*
X015680Y023680D01*
X015680Y022180D01*
X016180Y021180D02*
X013680Y021180D01*
X012680Y022180D01*
X012680Y023680D01*
X012680Y025649D02*
X013711Y025649D01*
X012680Y025649D02*
X012680Y026680D01*
X015180Y029180D01*
X020180Y029180D01*
X011180Y029180D02*
X011180Y020180D01*
X011180Y018680D01*
X008680Y016180D01*
X008180Y016180D01*
X005680Y016180D01*
X004180Y014680D02*
X002680Y016180D01*
X002680Y020180D01*
X003680Y021180D01*
X004680Y022180D01*
X004680Y026930D01*
X005769Y028019D01*
X006373Y028019D01*
X003696Y032180D02*
X003680Y032180D01*
X016180Y021180D02*
X017180Y022180D01*
X016180Y018180D02*
X015680Y018180D01*
X016180Y018180D02*
X017180Y017180D01*
X018680Y017180D01*
D32*
X021680Y017180D02*
X023180Y017180D01*
X023180Y015680D01*
X023680Y015180D01*
X032680Y015180D01*
X032680Y017680D01*
X033684Y018684D01*
X035664Y018684D01*
X035664Y019684D01*
X035664Y018684D02*
X035660Y018680D01*
X039180Y015180D02*
X039930Y015930D01*
X039930Y032430D01*
X043180Y035680D01*
X044671Y035680D01*
X044681Y035690D01*
X047670Y035690D01*
X048680Y034680D01*
X048680Y031680D01*
X046680Y031680D01*
X048680Y031680D02*
X048680Y005180D01*
X047680Y004180D01*
X041174Y004180D01*
X041171Y004176D01*
X039180Y015180D02*
X032680Y015180D01*
X022180Y017680D02*
X021680Y017180D01*
X022180Y017680D02*
X022180Y020680D01*
X020680Y022180D01*
X020680Y026180D01*
X021180Y026680D01*
X022180Y026680D01*
X022180Y029680D01*
X021680Y030180D01*
X019680Y030180D01*
X009180Y030180D01*
X007180Y032180D01*
X005664Y032180D01*
X003696Y032180D02*
X003680Y032164D01*
X003680Y031680D01*
X005180Y030180D01*
X006180Y030180D01*
X007180Y029180D01*
X008180Y029180D01*
X008180Y027680D01*
X007908Y027408D01*
X007908Y027349D01*
D33*
X009180Y027282D02*
X007908Y026011D01*
X009180Y027282D02*
X009180Y030180D01*
D34*
X022180Y024680D02*
X022180Y023680D01*
X021680Y015180D02*
X022680Y014180D01*
X023180Y014180D01*
D35*
X034180Y014180D01*
X037180Y016680D02*
X038680Y016668D01*
X038683Y016671D01*
X038683Y017671D02*
X036689Y017671D01*
X036680Y017680D01*
X036180Y017180D01*
X038189Y018671D02*
X036680Y020180D01*
X038189Y018671D02*
X038683Y018671D01*
X040930Y018430D02*
X043680Y021180D01*
X043680Y026680D01*
X044180Y027180D01*
X045180Y027180D02*
X046680Y028680D01*
X046180Y028680D01*
X045680Y029180D01*
X045190Y029690D02*
X046180Y030680D01*
X046680Y030680D01*
X047180Y030680D01*
X047680Y030180D01*
X047680Y017180D01*
X042676Y012176D01*
X041171Y012176D01*
X040680Y011680D02*
X040430Y011930D01*
X040430Y013680D01*
X040930Y014180D01*
X040930Y018430D01*
X041171Y017171D02*
X043680Y019680D01*
X044673Y019680D01*
X044683Y019671D01*
X041171Y017171D02*
X041171Y013176D01*
X040180Y014180D02*
X040180Y011680D01*
X040684Y011176D01*
X041171Y011176D01*
X041680Y011680D02*
X042180Y011180D01*
X042180Y010680D01*
X041676Y010176D01*
X041171Y010176D01*
X040180Y014180D02*
X040680Y014680D01*
X040680Y020180D01*
X042680Y022180D01*
X042680Y032680D01*
X043180Y033180D01*
X043680Y031680D02*
X044671Y031680D01*
X044681Y031690D01*
X045680Y031680D02*
X045680Y032680D01*
X046680Y032680D01*
X046680Y033680D02*
X045680Y034680D01*
X044692Y034680D01*
X044681Y034690D01*
X045680Y033180D02*
X045680Y032680D01*
X045680Y031680D02*
X044690Y030690D01*
X044681Y030690D01*
X044681Y029690D02*
X045190Y029690D01*
X043680Y029180D02*
X043180Y029680D01*
X043180Y031180D01*
X043680Y031680D01*
X038681Y031690D02*
X038671Y031680D01*
X038180Y031680D01*
X037680Y032180D01*
X037680Y031180D02*
X038180Y030680D01*
X038671Y030680D01*
X038681Y030690D01*
X038681Y029690D02*
X038171Y029180D01*
X037180Y029180D01*
X036180Y030180D01*
X037680Y028680D02*
X038671Y028680D01*
X038681Y028690D01*
X037680Y028680D02*
X037180Y028180D01*
X031680Y028180D02*
X027181Y023681D01*
X024672Y023681D01*
X024672Y022681D02*
X024179Y022681D01*
X023680Y023180D01*
X023680Y029680D01*
X024180Y030180D01*
X023430Y030430D02*
X024180Y031180D01*
X023430Y030430D02*
X023430Y022430D01*
X024179Y021681D01*
X024672Y021681D01*
X024672Y020681D02*
X024179Y020681D01*
X023180Y021680D01*
X023180Y021180D02*
X023180Y020680D01*
X023680Y020180D01*
X023180Y021180D02*
X022180Y022180D01*
X022180Y023680D01*
X023180Y031680D02*
X023680Y032180D01*
X021960Y033570D02*
X036790Y033570D01*
X037180Y033180D01*
X037180Y034180D01*
X037680Y034680D01*
X038671Y034680D01*
X038681Y034690D01*
X038673Y023680D02*
X037180Y023680D01*
X036184Y022684D01*
X035664Y022684D01*
X038673Y023680D02*
X038683Y023671D01*
X050180Y016680D02*
X050180Y007180D01*
X051184Y006176D01*
X052175Y006176D01*
X052175Y007176D02*
X051184Y007176D01*
X050680Y007680D01*
X050680Y017680D01*
X051180Y018680D02*
X051180Y010680D01*
X051684Y010176D01*
X052175Y010176D01*
D36*
X041680Y011680D02*
X040680Y011680D01*
X036180Y017180D02*
X034180Y017180D01*
X036680Y020180D02*
X023680Y020180D01*
X023180Y021680D02*
X023180Y031680D01*
X023680Y032180D02*
X037680Y032180D01*
X037680Y031180D02*
X024180Y031180D01*
X024180Y030180D02*
X036180Y030180D01*
X037180Y028180D02*
X031680Y028180D01*
X043180Y033180D02*
X045680Y033180D01*
X045680Y029180D02*
X043680Y029180D01*
X044180Y027180D02*
X045180Y027180D01*
D37*
X051180Y018680D03*
X050680Y017680D03*
X050180Y016680D03*
X034180Y017180D03*
X034180Y014180D03*
D38*
X037180Y013680D02*
X038680Y013680D01*
M02*
