%
M48
M72
T01C0.0250
T02C0.0290
T03C0.0330
T04C0.0360
T05C0.0400
T06C0.0430
T07C0.0433
T08C0.0530
T09C0.1250
T10C0.1410
%
T01
X34180Y14180
X34180Y17180
X50180Y16680
X50680Y17680
X51180Y18680
T02
X5664Y32180
X3696Y32180
T03
X15680Y27180
X19180Y26680
X19180Y25680
X19180Y24680
X22180Y24680
X22180Y23680
X22180Y25680
X22180Y26680
X15680Y22180
X15680Y18180
X18680Y17180
X18680Y16180
X18680Y15180
X21680Y15180
X21680Y16180
X21680Y17180
X23180Y17180
X23180Y14180
X15680Y13180
X9680Y10180
X9680Y9180
X5680Y14180
X5680Y16180
X2680Y16180
X2680Y14180
X22180Y20680
X34180Y10930
X35180Y10930
X35180Y9430
X35180Y8180
X36530Y8180
X37330Y8180
X35180Y6930
X36180Y6430
X35180Y5680
X35180Y4180
X36530Y4180
X37330Y4180
X39180Y6430
X33080Y2430
X32280Y2430
X32180Y4180
X32180Y5680
X32180Y6930
X32180Y8180
X32180Y9430
X37180Y13680
X38680Y13680
X38680Y12680
X37180Y16680
X37180Y20680
X37180Y23680
X37180Y30180
X37180Y33180
T04
X7908Y27349
X6373Y26680
X7908Y26011
X6373Y25341
X6373Y28019
T05
X4680Y26930
X2680Y26930
X9180Y30180
X11180Y29180
X9180Y32180
X19400Y31790
X21960Y31790
X21960Y33570
X19400Y33570
X24672Y32681
X24672Y31681
X24672Y30681
X24672Y29681
X24672Y28681
X24672Y27681
X24672Y26681
X24672Y25681
X24672Y24681
X24672Y23681
X24672Y22681
X24672Y21681
X24672Y20681
X24672Y19681
X24672Y18681
X24672Y17681
X24672Y16681
X20180Y20180
X11180Y20180
X6680Y21180
X3680Y21180
X4680Y10180
X6680Y10180
X7180Y4680
X10180Y4680
X21180Y3430
X22680Y3430
X24180Y3430
X23430Y4930
X21930Y4930
X35664Y16684
X35664Y17684
X35664Y18684
X35664Y19684
X35664Y20684
X35664Y21684
X35664Y22684
X35664Y23684
X35664Y24684
X35664Y25684
X35664Y26684
X35664Y27684
X35664Y28684
X35664Y29684
X35664Y30684
X35664Y31684
X35664Y32684
X38681Y32690
X38681Y33690
X38681Y34690
X38681Y35690
X38681Y31690
X38681Y30690
X38681Y29690
X38681Y28690
X38681Y27690
X38681Y26690
X38683Y25671
X38683Y24671
X38683Y23671
X38683Y22671
X38683Y21671
X38683Y20671
X38683Y19671
X38683Y18671
X38683Y17671
X38683Y16671
X41171Y13176
X41171Y12176
X41171Y11176
X41171Y10176
X41171Y9176
X41171Y8176
X41171Y7176
X41171Y6176
X41171Y5176
X41171Y4176
X52175Y4176
X52175Y5176
X52175Y6176
X52175Y7176
X52175Y8176
X52175Y9176
X52175Y10176
X52175Y11176
X52175Y12176
X52175Y13176
X44683Y16671
X44683Y17671
X44683Y18671
X44683Y19671
X44683Y20671
X44683Y21671
X44683Y22671
X44683Y23671
X44683Y24671
X44683Y25671
X44681Y26690
X44681Y27690
X44681Y28690
X44681Y29690
X44681Y30690
X44681Y31690
X44681Y32690
X44681Y33690
X44681Y34690
X44681Y35690
X46680Y33680
X46680Y32680
X46680Y31680
X46680Y30680
X46680Y29680
X46680Y28680
X46680Y27680
X20180Y29180
T06
X17180Y26180
X17180Y22180
X17180Y17180
X17180Y13180
X13180Y11680
X13180Y7680
X13180Y6680
X13180Y2680
T07
X8180Y29180
X5180Y29180
T08
X3180Y2711
X3180Y4680
X8180Y14211
X8180Y16180
X12680Y16149
X12680Y14180
X12680Y23680
X12680Y25649
T09
X17680Y7180
X27680Y7180
T10
X22680Y11680
X2680Y8180
X2680Y36180
X22680Y36180
X54180Y36180
X54180Y19180
X54180Y2680
M30
