G75*
G70*
%OFA0B0*%
%FSLAX24Y24*%
%IPPOS*%
%LPD*%
%AMOC8*
5,1,8,0,0,1.08239X$1,22.5*
%
%ADD10C,0.0640*%
%ADD11OC8,0.1240*%
%ADD12C,0.1240*%
%ADD13C,0.1000*%
%ADD14OC8,0.1000*%
%ADD15OC8,0.0570*%
%ADD16C,0.0570*%
%ADD17C,0.0760*%
%ADD18C,0.0600*%
%ADD19C,0.0673*%
%ADD20C,0.0530*%
%ADD21C,0.0570*%
%ADD22OC8,0.0640*%
%ADD23OC8,0.0700*%
%ADD24R,0.0700X0.0700*%
%ADD25C,0.0740*%
%ADD26R,0.0740X0.0740*%
%ADD27R,0.0800X0.0800*%
%ADD28C,0.0800*%
%ADD29C,0.0100*%
%ADD30C,0.0450*%
D10*
X021180Y003110D02*
X021180Y003750D01*
X021930Y004610D02*
X021930Y005250D01*
X023430Y005250D02*
X023430Y004610D01*
X022680Y003750D02*
X022680Y003110D01*
X024180Y003110D02*
X024180Y003750D01*
D11*
X007180Y004680D03*
X006680Y021180D03*
D12*
X003680Y021180D03*
X010180Y004680D03*
D13*
X006680Y010180D03*
X004680Y026930D03*
X009180Y030180D03*
D14*
X009180Y032180D03*
X002680Y026930D03*
X004680Y010180D03*
D15*
X009680Y010180D03*
X009680Y009180D03*
X015680Y013180D03*
X015680Y018180D03*
X015680Y022180D03*
X015680Y027180D03*
X022180Y023680D03*
X022180Y020680D03*
X023180Y017180D03*
X023180Y014180D03*
X032180Y009430D03*
X032180Y008180D03*
X032180Y006930D03*
X032180Y005680D03*
X032180Y004180D03*
X033080Y002430D03*
X035180Y004180D03*
X035180Y005680D03*
X036180Y006430D03*
X035180Y006930D03*
X035180Y008180D03*
X035180Y009430D03*
X035180Y010930D03*
X034180Y010930D03*
X037180Y013680D03*
X038680Y013680D03*
X038680Y012680D03*
X037180Y016680D03*
X037180Y020680D03*
X037180Y023680D03*
X037180Y030180D03*
X037180Y033180D03*
X005680Y016180D03*
X005680Y014180D03*
X002680Y014180D03*
X037330Y008180D03*
X039180Y006430D03*
X037330Y004180D03*
D16*
X036530Y004180D03*
X032280Y002430D03*
X036530Y008180D03*
X002680Y016180D03*
D17*
X013180Y011680D03*
X017180Y013180D03*
X017180Y017180D03*
X017180Y022180D03*
X017180Y026180D03*
X013180Y007680D03*
X013180Y006680D03*
X013180Y002680D03*
D18*
X006673Y025341D02*
X006073Y025341D01*
X006073Y026680D02*
X006673Y026680D01*
X007608Y026011D02*
X008208Y026011D01*
X008208Y027349D02*
X007608Y027349D01*
X006673Y028019D02*
X006073Y028019D01*
D19*
X005180Y029180D03*
X008180Y029180D03*
D20*
X005664Y031915D02*
X005664Y032445D01*
X003696Y032445D02*
X003696Y031915D01*
D21*
X018610Y026680D02*
X019180Y026680D01*
X019180Y025680D02*
X018610Y025680D01*
X018610Y024680D02*
X019180Y024680D01*
X022180Y024680D02*
X022750Y024680D01*
X022750Y025680D02*
X022180Y025680D01*
X022180Y026680D02*
X022750Y026680D01*
X022250Y017180D02*
X021680Y017180D01*
X021680Y016180D02*
X022250Y016180D01*
X022250Y015180D02*
X021680Y015180D01*
X018680Y015180D02*
X018110Y015180D01*
X018110Y016180D02*
X018680Y016180D01*
X018680Y017180D02*
X018110Y017180D01*
D22*
X020180Y020180D03*
X011180Y020180D03*
X011180Y029180D03*
X020180Y029180D03*
D23*
X038681Y028690D03*
X038681Y027690D03*
X038681Y026690D03*
X038683Y025671D03*
X038683Y024671D03*
X038683Y023671D03*
X038683Y022671D03*
X038683Y021671D03*
X038683Y020671D03*
X038683Y019671D03*
X038683Y018671D03*
X038683Y017671D03*
X038683Y016671D03*
X041171Y013176D03*
X041171Y012176D03*
X041171Y011176D03*
X041171Y010176D03*
X041171Y009176D03*
X041171Y008176D03*
X041171Y007176D03*
X041171Y006176D03*
X041171Y005176D03*
X041171Y004176D03*
X052175Y004176D03*
X052175Y005176D03*
X052175Y006176D03*
X052175Y007176D03*
X052175Y008176D03*
X052175Y009176D03*
X052175Y010176D03*
X052175Y011176D03*
X052175Y012176D03*
X052175Y013176D03*
X044683Y016671D03*
X044683Y017671D03*
X044683Y018671D03*
X044683Y019671D03*
X044683Y020671D03*
X044683Y021671D03*
X044683Y022671D03*
X044683Y023671D03*
X044683Y024671D03*
X044683Y025671D03*
X044681Y026690D03*
X044681Y027690D03*
X044681Y028690D03*
X044681Y029690D03*
X044681Y030690D03*
X044681Y031690D03*
X044681Y032690D03*
X044681Y033690D03*
X044681Y034690D03*
X044681Y035690D03*
X046680Y033680D03*
X046680Y032680D03*
X046680Y031680D03*
X046680Y030680D03*
X046680Y029680D03*
X046680Y028680D03*
X046680Y027680D03*
X038681Y029690D03*
X038681Y030690D03*
X038681Y031690D03*
X038681Y032690D03*
X038681Y033690D03*
X038681Y034690D03*
D24*
X038681Y035690D03*
D25*
X035664Y031684D03*
X035664Y030684D03*
X035664Y029684D03*
X035664Y028684D03*
X035664Y027684D03*
X035664Y026684D03*
X035664Y025684D03*
X035664Y024684D03*
X035664Y023684D03*
X035664Y022684D03*
X035664Y021684D03*
X035664Y020684D03*
X035664Y019684D03*
X035664Y018684D03*
X035664Y017684D03*
X035664Y016684D03*
X024672Y016681D03*
X024672Y017681D03*
X024672Y018681D03*
X024672Y019681D03*
X024672Y020681D03*
X024672Y021681D03*
X024672Y022681D03*
X024672Y023681D03*
X024672Y024681D03*
X024672Y025681D03*
X024672Y026681D03*
X024672Y027681D03*
X024672Y028681D03*
X024672Y029681D03*
X024672Y030681D03*
X024672Y031681D03*
X021960Y031790D03*
X019400Y031790D03*
X019400Y033570D03*
X021960Y033570D03*
D26*
X024672Y032681D03*
X035664Y032684D03*
D27*
X012680Y023680D03*
X008180Y016180D03*
X012680Y014180D03*
X003180Y004680D03*
D28*
X003180Y002711D03*
X008180Y014211D03*
X012680Y016149D03*
X012680Y025649D03*
D29*
X000930Y037930D02*
X000930Y000930D01*
X055922Y000930D01*
X055922Y037930D01*
X035180Y037930D01*
X035180Y034180D01*
X025180Y034180D01*
X025180Y037930D01*
X000930Y037930D01*
X000930Y037913D02*
X025180Y037913D01*
X025180Y037815D02*
X000930Y037815D01*
X000930Y037716D02*
X025180Y037716D01*
X025180Y037618D02*
X000930Y037618D01*
X000930Y037519D02*
X025180Y037519D01*
X025180Y037421D02*
X000930Y037421D01*
X000930Y037322D02*
X025180Y037322D01*
X025180Y037224D02*
X000930Y037224D01*
X000930Y037125D02*
X002466Y037125D01*
X002490Y037135D02*
X002139Y036990D01*
X001870Y036721D01*
X001725Y036370D01*
X001725Y035990D01*
X001870Y035639D01*
X002139Y035370D01*
X002490Y035225D01*
X002870Y035225D01*
X003221Y035370D01*
X003490Y035639D01*
X003635Y035990D01*
X003635Y036370D01*
X003490Y036721D01*
X003221Y036990D01*
X002870Y037135D01*
X002490Y037135D01*
X002228Y037027D02*
X000930Y037027D01*
X000930Y036928D02*
X002078Y036928D01*
X001979Y036830D02*
X000930Y036830D01*
X000930Y036731D02*
X001881Y036731D01*
X001834Y036633D02*
X000930Y036633D01*
X000930Y036534D02*
X001793Y036534D01*
X001752Y036436D02*
X000930Y036436D01*
X000930Y036337D02*
X001725Y036337D01*
X001725Y036239D02*
X000930Y036239D01*
X000930Y036140D02*
X001725Y036140D01*
X001725Y036042D02*
X000930Y036042D01*
X000930Y035943D02*
X001744Y035943D01*
X001785Y035845D02*
X000930Y035845D01*
X000930Y035746D02*
X001826Y035746D01*
X001867Y035648D02*
X000930Y035648D01*
X000930Y035549D02*
X001960Y035549D01*
X002059Y035451D02*
X000930Y035451D01*
X000930Y035352D02*
X002183Y035352D01*
X002421Y035254D02*
X000930Y035254D01*
X000930Y035155D02*
X025180Y035155D01*
X025180Y035057D02*
X000930Y035057D01*
X000930Y034958D02*
X025180Y034958D01*
X025180Y034860D02*
X000930Y034860D01*
X000930Y034761D02*
X025180Y034761D01*
X025180Y034663D02*
X000930Y034663D01*
X000930Y034564D02*
X025180Y034564D01*
X025180Y034466D02*
X000930Y034466D01*
X000930Y034367D02*
X025180Y034367D01*
X025180Y034269D02*
X000930Y034269D01*
X000930Y034170D02*
X038454Y034170D01*
X038474Y034190D02*
X038181Y033897D01*
X038181Y033483D01*
X038474Y033190D01*
X038889Y033190D01*
X039181Y033483D01*
X039181Y033897D01*
X038889Y034190D01*
X039181Y034483D01*
X039181Y034897D01*
X038889Y035190D01*
X038474Y035190D01*
X038181Y034897D01*
X038181Y034483D01*
X038474Y034190D01*
X038889Y034190D01*
X038474Y034190D01*
X038396Y034269D02*
X035180Y034269D01*
X035180Y034367D02*
X038297Y034367D01*
X038199Y034466D02*
X035180Y034466D01*
X035180Y034564D02*
X038181Y034564D01*
X038181Y034663D02*
X035180Y034663D01*
X035180Y034761D02*
X038181Y034761D01*
X038181Y034860D02*
X035180Y034860D01*
X035180Y034958D02*
X038242Y034958D01*
X038341Y035057D02*
X035180Y035057D01*
X035180Y035155D02*
X038439Y035155D01*
X038312Y035190D02*
X038631Y035190D01*
X038631Y035640D01*
X038181Y035640D01*
X038181Y035320D01*
X038192Y035282D01*
X038211Y035248D01*
X038239Y035220D01*
X038274Y035200D01*
X038312Y035190D01*
X038208Y035254D02*
X035180Y035254D01*
X035180Y035352D02*
X038181Y035352D01*
X038181Y035451D02*
X035180Y035451D01*
X035180Y035549D02*
X038181Y035549D01*
X038181Y035740D02*
X038631Y035740D01*
X038631Y035640D01*
X038731Y035640D01*
X038731Y035190D01*
X039051Y035190D01*
X039089Y035200D01*
X039124Y035220D01*
X039151Y035248D01*
X039171Y035282D01*
X039181Y035320D01*
X039181Y035640D01*
X038731Y035640D01*
X038731Y035740D01*
X038631Y035740D01*
X038631Y036190D01*
X038312Y036190D01*
X038274Y036180D01*
X038239Y036160D01*
X038211Y036132D01*
X038192Y036098D01*
X038181Y036060D01*
X038181Y035740D01*
X038181Y035746D02*
X035180Y035746D01*
X035180Y035648D02*
X038631Y035648D01*
X038631Y035746D02*
X038731Y035746D01*
X038731Y035740D02*
X038731Y036190D01*
X039051Y036190D01*
X039089Y036180D01*
X039124Y036160D01*
X039151Y036132D01*
X039171Y036098D01*
X039181Y036060D01*
X039181Y035740D01*
X038731Y035740D01*
X038731Y035648D02*
X044181Y035648D01*
X044181Y035746D02*
X039181Y035746D01*
X039181Y035845D02*
X044181Y035845D01*
X044181Y035897D02*
X044181Y035483D01*
X044474Y035190D01*
X044889Y035190D01*
X045181Y035483D01*
X045181Y035897D01*
X044889Y036190D01*
X044474Y036190D01*
X044181Y035897D01*
X044227Y035943D02*
X039181Y035943D01*
X039181Y036042D02*
X044326Y036042D01*
X044424Y036140D02*
X039144Y036140D01*
X038731Y036140D02*
X038631Y036140D01*
X038631Y036042D02*
X038731Y036042D01*
X038731Y035943D02*
X038631Y035943D01*
X038631Y035845D02*
X038731Y035845D01*
X038731Y035549D02*
X038631Y035549D01*
X038631Y035451D02*
X038731Y035451D01*
X038731Y035352D02*
X038631Y035352D01*
X038631Y035254D02*
X038731Y035254D01*
X038924Y035155D02*
X044439Y035155D01*
X044474Y035190D02*
X044181Y034897D01*
X044181Y034483D01*
X044474Y034190D01*
X044889Y034190D01*
X045181Y034483D01*
X045181Y034897D01*
X044889Y035190D01*
X044474Y035190D01*
X044411Y035254D02*
X039155Y035254D01*
X039181Y035352D02*
X044312Y035352D01*
X044214Y035451D02*
X039181Y035451D01*
X039181Y035549D02*
X044181Y035549D01*
X044341Y035057D02*
X039022Y035057D01*
X039121Y034958D02*
X044242Y034958D01*
X044181Y034860D02*
X039181Y034860D01*
X039181Y034761D02*
X044181Y034761D01*
X044181Y034663D02*
X039181Y034663D01*
X039181Y034564D02*
X044181Y034564D01*
X044199Y034466D02*
X039164Y034466D01*
X039065Y034367D02*
X044297Y034367D01*
X044396Y034269D02*
X038967Y034269D01*
X038909Y034170D02*
X044454Y034170D01*
X044474Y034190D02*
X044181Y033897D01*
X044181Y033483D01*
X044474Y033190D01*
X044889Y033190D01*
X045181Y033483D01*
X045181Y033897D01*
X044889Y034190D01*
X044474Y034190D01*
X044356Y034072D02*
X039007Y034072D01*
X039106Y033973D02*
X044257Y033973D01*
X044181Y033875D02*
X039181Y033875D01*
X039181Y033776D02*
X044181Y033776D01*
X044181Y033678D02*
X039181Y033678D01*
X039181Y033579D02*
X044181Y033579D01*
X044184Y033481D02*
X039179Y033481D01*
X039080Y033382D02*
X044282Y033382D01*
X044381Y033284D02*
X038982Y033284D01*
X038889Y033190D02*
X038474Y033190D01*
X038181Y032897D01*
X038181Y032483D01*
X038474Y032190D01*
X038889Y032190D01*
X039181Y032483D01*
X039181Y032897D01*
X038889Y033190D01*
X038894Y033185D02*
X044469Y033185D01*
X044474Y033190D02*
X044181Y032897D01*
X044181Y032483D01*
X044474Y032190D01*
X044889Y032190D01*
X045181Y032483D01*
X045181Y032897D01*
X044889Y033190D01*
X044474Y033190D01*
X044371Y033087D02*
X038992Y033087D01*
X039091Y032988D02*
X044272Y032988D01*
X044181Y032890D02*
X039181Y032890D01*
X039181Y032791D02*
X044181Y032791D01*
X044181Y032693D02*
X039181Y032693D01*
X039181Y032594D02*
X044181Y032594D01*
X044181Y032496D02*
X039181Y032496D01*
X039095Y032397D02*
X044267Y032397D01*
X044366Y032299D02*
X038997Y032299D01*
X038898Y032200D02*
X044464Y032200D01*
X044474Y032190D02*
X044181Y031897D01*
X044181Y031483D01*
X044474Y031190D01*
X044889Y031190D01*
X045181Y031483D01*
X045181Y031897D01*
X044889Y032190D01*
X044474Y032190D01*
X044386Y032102D02*
X038977Y032102D01*
X038889Y032190D02*
X038474Y032190D01*
X038181Y031897D01*
X038181Y031483D01*
X038474Y031190D01*
X038889Y031190D01*
X039181Y031483D01*
X039181Y031897D01*
X038889Y032190D01*
X039076Y032003D02*
X044287Y032003D01*
X044189Y031905D02*
X039174Y031905D01*
X039181Y031806D02*
X044181Y031806D01*
X044181Y031708D02*
X039181Y031708D01*
X039181Y031609D02*
X044181Y031609D01*
X044181Y031511D02*
X039181Y031511D01*
X039110Y031412D02*
X044252Y031412D01*
X044351Y031314D02*
X039012Y031314D01*
X038913Y031215D02*
X044449Y031215D01*
X044474Y031190D02*
X044181Y030897D01*
X044181Y030483D01*
X044474Y030190D01*
X044889Y030190D01*
X045181Y030483D01*
X045181Y030897D01*
X044889Y031190D01*
X044474Y031190D01*
X044401Y031117D02*
X038962Y031117D01*
X038889Y031190D02*
X038474Y031190D01*
X038181Y030897D01*
X038181Y030483D01*
X038474Y030190D01*
X038889Y030190D01*
X039181Y030483D01*
X039181Y030897D01*
X038889Y031190D01*
X039061Y031018D02*
X044302Y031018D01*
X044204Y030920D02*
X039159Y030920D01*
X039181Y030821D02*
X044181Y030821D01*
X044181Y030723D02*
X039181Y030723D01*
X039181Y030624D02*
X044181Y030624D01*
X044181Y030526D02*
X039181Y030526D01*
X039125Y030427D02*
X044237Y030427D01*
X044336Y030329D02*
X039027Y030329D01*
X038928Y030230D02*
X044434Y030230D01*
X044474Y030190D02*
X044181Y029897D01*
X044181Y029483D01*
X044474Y029190D01*
X044889Y029190D01*
X045181Y029483D01*
X045181Y029897D01*
X044889Y030190D01*
X044474Y030190D01*
X044416Y030132D02*
X038947Y030132D01*
X038889Y030190D02*
X038474Y030190D01*
X038181Y029897D01*
X038181Y029483D01*
X038474Y029190D01*
X038889Y029190D01*
X039181Y029483D01*
X039181Y029897D01*
X038889Y030190D01*
X039046Y030033D02*
X044317Y030033D01*
X044219Y029935D02*
X039144Y029935D01*
X039181Y029836D02*
X044181Y029836D01*
X044181Y029738D02*
X039181Y029738D01*
X039181Y029639D02*
X044181Y029639D01*
X044181Y029541D02*
X039181Y029541D01*
X039140Y029442D02*
X044222Y029442D01*
X044321Y029344D02*
X039042Y029344D01*
X038943Y029245D02*
X044419Y029245D01*
X044474Y029190D02*
X044181Y028897D01*
X044181Y028483D01*
X044474Y028190D01*
X044889Y028190D01*
X045181Y028483D01*
X045181Y028897D01*
X044889Y029190D01*
X044474Y029190D01*
X044431Y029147D02*
X038932Y029147D01*
X038889Y029190D02*
X038474Y029190D01*
X038181Y028897D01*
X038181Y028483D01*
X038474Y028190D01*
X038889Y028190D01*
X039181Y028483D01*
X039181Y028897D01*
X038889Y029190D01*
X039031Y029048D02*
X044332Y029048D01*
X044234Y028950D02*
X039129Y028950D01*
X039181Y028851D02*
X044181Y028851D01*
X044181Y028753D02*
X039181Y028753D01*
X039181Y028654D02*
X044181Y028654D01*
X044181Y028556D02*
X039181Y028556D01*
X039155Y028457D02*
X044207Y028457D01*
X044306Y028359D02*
X039057Y028359D01*
X038958Y028260D02*
X044404Y028260D01*
X044474Y028190D02*
X044181Y027897D01*
X044181Y027483D01*
X044474Y027190D01*
X044889Y027190D01*
X045181Y027483D01*
X045181Y027897D01*
X044889Y028190D01*
X044474Y028190D01*
X044446Y028162D02*
X038917Y028162D01*
X038889Y028190D02*
X038474Y028190D01*
X038181Y027897D01*
X038181Y027483D01*
X038474Y027190D01*
X038889Y027190D01*
X039181Y027483D01*
X039181Y027897D01*
X038889Y028190D01*
X039016Y028063D02*
X044347Y028063D01*
X044249Y027965D02*
X039114Y027965D01*
X039181Y027866D02*
X044181Y027866D01*
X044181Y027768D02*
X039181Y027768D01*
X039181Y027669D02*
X044181Y027669D01*
X044181Y027571D02*
X039181Y027571D01*
X039170Y027472D02*
X044192Y027472D01*
X044291Y027374D02*
X039072Y027374D01*
X038973Y027275D02*
X044389Y027275D01*
X044474Y027190D02*
X044181Y026897D01*
X044181Y026483D01*
X044474Y026190D01*
X044889Y026190D01*
X045181Y026483D01*
X045181Y026897D01*
X044889Y027190D01*
X044474Y027190D01*
X044461Y027177D02*
X038902Y027177D01*
X038889Y027190D02*
X038474Y027190D01*
X038181Y026897D01*
X038181Y026483D01*
X038474Y026190D01*
X038889Y026190D01*
X039181Y026483D01*
X039181Y026897D01*
X038889Y027190D01*
X039001Y027078D02*
X044362Y027078D01*
X044264Y026980D02*
X039099Y026980D01*
X039181Y026881D02*
X044181Y026881D01*
X044181Y026783D02*
X039181Y026783D01*
X039181Y026684D02*
X044181Y026684D01*
X044181Y026586D02*
X039181Y026586D01*
X039181Y026487D02*
X044181Y026487D01*
X044276Y026389D02*
X039087Y026389D01*
X038988Y026290D02*
X044374Y026290D01*
X044473Y026192D02*
X038890Y026192D01*
X038890Y026171D02*
X038476Y026171D01*
X038183Y025878D01*
X038183Y025463D01*
X038476Y025171D01*
X038890Y025171D01*
X039183Y025463D01*
X039183Y025878D01*
X038890Y026171D01*
X038967Y026093D02*
X044398Y026093D01*
X044476Y026171D02*
X044183Y025878D01*
X044183Y025463D01*
X044476Y025171D01*
X044183Y024878D01*
X044183Y024463D01*
X044476Y024171D01*
X044183Y023878D01*
X044183Y023463D01*
X044476Y023171D01*
X044183Y022878D01*
X044183Y022463D01*
X044476Y022171D01*
X044183Y021878D01*
X044183Y021463D01*
X044476Y021171D01*
X044183Y020878D01*
X044183Y020463D01*
X044476Y020171D01*
X044183Y019878D01*
X044183Y019463D01*
X044476Y019171D01*
X044183Y018878D01*
X044183Y018463D01*
X044476Y018171D01*
X044183Y017878D01*
X044183Y017463D01*
X044476Y017171D01*
X044890Y017171D01*
X045183Y017463D01*
X045183Y017471D01*
X050361Y017471D01*
X050362Y017468D01*
X050468Y017362D01*
X050605Y017305D01*
X050755Y017305D01*
X050892Y017362D01*
X050998Y017468D01*
X051055Y017605D01*
X051055Y017755D01*
X050998Y017892D01*
X050892Y017998D01*
X050755Y018055D01*
X050605Y018055D01*
X050468Y017998D01*
X050362Y017892D01*
X050353Y017871D01*
X045183Y017871D01*
X045183Y017878D01*
X044890Y018171D01*
X045183Y018463D01*
X045183Y018471D01*
X048588Y018471D01*
X048588Y018470D01*
X048671Y018471D01*
X048753Y018471D01*
X048754Y018471D01*
X050857Y018479D01*
X050862Y018468D01*
X050968Y018362D01*
X051105Y018305D01*
X051255Y018305D01*
X051392Y018362D01*
X051498Y018468D01*
X051555Y018605D01*
X051555Y018755D01*
X051498Y018892D01*
X051392Y018998D01*
X051255Y019055D01*
X051105Y019055D01*
X050968Y018998D01*
X050862Y018892D01*
X050856Y018879D01*
X048670Y018871D01*
X045183Y018871D01*
X045183Y018878D01*
X044890Y019171D01*
X045183Y019463D01*
X045183Y019878D01*
X044890Y020171D01*
X045183Y020463D01*
X045183Y020878D01*
X044890Y021171D01*
X045183Y021463D01*
X045183Y021878D01*
X044890Y022171D01*
X045183Y022463D01*
X045183Y022878D01*
X044890Y023171D01*
X045183Y023463D01*
X045183Y023878D01*
X044890Y024171D01*
X045183Y024463D01*
X045183Y024878D01*
X044890Y025171D01*
X045183Y025463D01*
X045183Y025878D01*
X044890Y026171D01*
X044476Y026171D01*
X044300Y025995D02*
X039066Y025995D01*
X039164Y025896D02*
X044201Y025896D01*
X044183Y025798D02*
X039183Y025798D01*
X039183Y025699D02*
X044183Y025699D01*
X044183Y025601D02*
X039183Y025601D01*
X039183Y025502D02*
X044183Y025502D01*
X044243Y025404D02*
X039123Y025404D01*
X039024Y025305D02*
X044341Y025305D01*
X044440Y025207D02*
X038926Y025207D01*
X038890Y025171D02*
X038476Y025171D01*
X038183Y024878D01*
X038183Y024463D01*
X038476Y024171D01*
X038890Y024171D01*
X039183Y024463D01*
X039183Y024878D01*
X038890Y025171D01*
X038952Y025108D02*
X044413Y025108D01*
X044476Y025171D02*
X044890Y025171D01*
X044476Y025171D01*
X044315Y025010D02*
X039051Y025010D01*
X039149Y024911D02*
X044216Y024911D01*
X044183Y024813D02*
X039183Y024813D01*
X039183Y024714D02*
X044183Y024714D01*
X044183Y024616D02*
X039183Y024616D01*
X039183Y024517D02*
X044183Y024517D01*
X044228Y024419D02*
X039138Y024419D01*
X039039Y024320D02*
X044326Y024320D01*
X044425Y024222D02*
X038941Y024222D01*
X038890Y024171D02*
X038476Y024171D01*
X038183Y023878D01*
X038183Y023463D01*
X038476Y023171D01*
X038890Y023171D01*
X039183Y023463D01*
X039183Y023878D01*
X038890Y024171D01*
X038937Y024123D02*
X044428Y024123D01*
X044476Y024171D02*
X044890Y024171D01*
X044476Y024171D01*
X044330Y024025D02*
X039036Y024025D01*
X039134Y023926D02*
X044231Y023926D01*
X044183Y023828D02*
X039183Y023828D01*
X039183Y023729D02*
X044183Y023729D01*
X044183Y023631D02*
X039183Y023631D01*
X039183Y023532D02*
X044183Y023532D01*
X044213Y023434D02*
X039153Y023434D01*
X039054Y023335D02*
X044311Y023335D01*
X044410Y023237D02*
X038956Y023237D01*
X038890Y023171D02*
X038476Y023171D01*
X038183Y022878D01*
X038183Y022463D01*
X038476Y022171D01*
X038890Y022171D01*
X039183Y022463D01*
X039183Y022878D01*
X038890Y023171D01*
X038922Y023138D02*
X044443Y023138D01*
X044476Y023171D02*
X044890Y023171D01*
X044476Y023171D01*
X044345Y023040D02*
X039021Y023040D01*
X039119Y022941D02*
X044246Y022941D01*
X044183Y022843D02*
X039183Y022843D01*
X039183Y022744D02*
X044183Y022744D01*
X044183Y022646D02*
X039183Y022646D01*
X039183Y022547D02*
X044183Y022547D01*
X044198Y022449D02*
X039168Y022449D01*
X039069Y022350D02*
X044296Y022350D01*
X044395Y022252D02*
X038971Y022252D01*
X038890Y022171D02*
X038476Y022171D01*
X038183Y021878D01*
X038183Y021463D01*
X038476Y021171D01*
X038890Y021171D01*
X039183Y021463D01*
X039183Y021878D01*
X038890Y022171D01*
X038907Y022153D02*
X044458Y022153D01*
X044476Y022171D02*
X044890Y022171D01*
X044476Y022171D01*
X044360Y022055D02*
X039006Y022055D01*
X039104Y021956D02*
X044261Y021956D01*
X044183Y021858D02*
X039183Y021858D01*
X039183Y021759D02*
X044183Y021759D01*
X044183Y021661D02*
X039183Y021661D01*
X039183Y021562D02*
X044183Y021562D01*
X044183Y021464D02*
X039183Y021464D01*
X039084Y021365D02*
X044281Y021365D01*
X044380Y021267D02*
X038986Y021267D01*
X038890Y021171D02*
X038476Y021171D01*
X038183Y020878D01*
X038183Y020463D01*
X038476Y020171D01*
X038890Y020171D01*
X039183Y020463D01*
X039183Y020878D01*
X038890Y021171D01*
X038892Y021168D02*
X044473Y021168D01*
X044476Y021171D02*
X044890Y021171D01*
X044476Y021171D01*
X044375Y021070D02*
X038991Y021070D01*
X039089Y020971D02*
X044276Y020971D01*
X044183Y020873D02*
X039183Y020873D01*
X039183Y020774D02*
X044183Y020774D01*
X044183Y020676D02*
X039183Y020676D01*
X039183Y020577D02*
X044183Y020577D01*
X044183Y020479D02*
X039183Y020479D01*
X039099Y020380D02*
X044266Y020380D01*
X044365Y020282D02*
X039001Y020282D01*
X038902Y020183D02*
X044463Y020183D01*
X044476Y020171D02*
X044890Y020171D01*
X044476Y020171D01*
X044390Y020085D02*
X038976Y020085D01*
X038890Y020171D02*
X038476Y020171D01*
X038183Y019878D01*
X038183Y019463D01*
X038476Y019171D01*
X038890Y019171D01*
X039183Y019463D01*
X039183Y019878D01*
X038890Y020171D01*
X039074Y019986D02*
X044291Y019986D01*
X044193Y019888D02*
X039173Y019888D01*
X039183Y019789D02*
X044183Y019789D01*
X044183Y019691D02*
X039183Y019691D01*
X039183Y019592D02*
X044183Y019592D01*
X044183Y019494D02*
X039183Y019494D01*
X039114Y019395D02*
X044251Y019395D01*
X044350Y019297D02*
X039016Y019297D01*
X038917Y019198D02*
X044448Y019198D01*
X044476Y019171D02*
X044890Y019171D01*
X044476Y019171D01*
X044405Y019100D02*
X038961Y019100D01*
X038890Y019171D02*
X038476Y019171D01*
X038183Y018878D01*
X038183Y018463D01*
X038476Y018171D01*
X038890Y018171D01*
X039183Y018463D01*
X039183Y018878D01*
X038890Y019171D01*
X039059Y019001D02*
X044306Y019001D01*
X044208Y018903D02*
X039158Y018903D01*
X039183Y018804D02*
X044183Y018804D01*
X044183Y018706D02*
X039183Y018706D01*
X039183Y018607D02*
X044183Y018607D01*
X044183Y018509D02*
X039183Y018509D01*
X039129Y018410D02*
X044236Y018410D01*
X044335Y018312D02*
X039031Y018312D01*
X038932Y018213D02*
X044433Y018213D01*
X044476Y018171D02*
X044890Y018171D01*
X044476Y018171D01*
X044420Y018115D02*
X038946Y018115D01*
X038890Y018171D02*
X038476Y018171D01*
X038183Y017878D01*
X038183Y017463D01*
X038476Y017171D01*
X038890Y017171D01*
X039183Y017463D01*
X039183Y017878D01*
X038890Y018171D01*
X039044Y018016D02*
X044321Y018016D01*
X044223Y017918D02*
X039143Y017918D01*
X039183Y017819D02*
X044183Y017819D01*
X044183Y017721D02*
X039183Y017721D01*
X039183Y017622D02*
X044183Y017622D01*
X044183Y017524D02*
X039183Y017524D01*
X039144Y017425D02*
X044221Y017425D01*
X044320Y017327D02*
X039046Y017327D01*
X038947Y017228D02*
X044418Y017228D01*
X044476Y017171D02*
X044183Y016878D01*
X044183Y016463D01*
X044476Y016171D01*
X044890Y016171D01*
X045183Y016463D01*
X045183Y016471D01*
X048588Y016471D01*
X048589Y016470D01*
X048671Y016471D01*
X048753Y016471D01*
X048754Y016471D01*
X049858Y016478D01*
X049862Y016468D01*
X049968Y016362D01*
X050105Y016305D01*
X050255Y016305D01*
X050392Y016362D01*
X050498Y016468D01*
X050555Y016605D01*
X050555Y016755D01*
X050498Y016892D01*
X050392Y016998D01*
X050255Y017055D01*
X050105Y017055D01*
X049968Y016998D01*
X049862Y016892D01*
X049856Y016878D01*
X048670Y016871D01*
X045183Y016871D01*
X045183Y016878D01*
X044890Y017171D01*
X044476Y017171D01*
X044435Y017130D02*
X038931Y017130D01*
X038890Y017171D02*
X038476Y017171D01*
X038183Y016878D01*
X038183Y016463D01*
X038476Y016171D01*
X038890Y016171D01*
X039183Y016463D01*
X039183Y016878D01*
X038890Y017171D01*
X039029Y017031D02*
X044336Y017031D01*
X044238Y016933D02*
X039128Y016933D01*
X039183Y016834D02*
X044183Y016834D01*
X044183Y016736D02*
X039183Y016736D01*
X039183Y016637D02*
X044183Y016637D01*
X044183Y016539D02*
X039183Y016539D01*
X039159Y016440D02*
X044206Y016440D01*
X044305Y016342D02*
X039061Y016342D01*
X038962Y016243D02*
X044403Y016243D01*
X044683Y016671D02*
X048671Y016671D01*
X050180Y016680D01*
X050527Y016539D02*
X055922Y016539D01*
X055922Y016637D02*
X050555Y016637D01*
X050555Y016736D02*
X055922Y016736D01*
X055922Y016834D02*
X050522Y016834D01*
X050458Y016933D02*
X055922Y016933D01*
X055922Y017031D02*
X050312Y017031D01*
X050048Y017031D02*
X045029Y017031D01*
X044931Y017130D02*
X055922Y017130D01*
X055922Y017228D02*
X044947Y017228D01*
X045046Y017327D02*
X050553Y017327D01*
X050405Y017425D02*
X045144Y017425D01*
X045128Y016933D02*
X049902Y016933D01*
X049890Y016440D02*
X045159Y016440D01*
X045061Y016342D02*
X050017Y016342D01*
X050343Y016342D02*
X055922Y016342D01*
X055922Y016440D02*
X050470Y016440D01*
X050807Y017327D02*
X055922Y017327D01*
X055922Y017425D02*
X050955Y017425D01*
X051021Y017524D02*
X055922Y017524D01*
X055922Y017622D02*
X051055Y017622D01*
X051055Y017721D02*
X055922Y017721D01*
X055922Y017819D02*
X051028Y017819D01*
X050973Y017918D02*
X055922Y017918D01*
X055922Y018016D02*
X050849Y018016D01*
X050511Y018016D02*
X045044Y018016D01*
X044946Y018115D02*
X055922Y018115D01*
X055922Y018213D02*
X044932Y018213D01*
X045031Y018312D02*
X051090Y018312D01*
X051270Y018312D02*
X053781Y018312D01*
X053639Y018370D02*
X053990Y018225D01*
X054370Y018225D01*
X054721Y018370D01*
X054990Y018639D01*
X055135Y018990D01*
X055135Y019370D01*
X054990Y019721D01*
X054721Y019990D01*
X054370Y020135D01*
X053990Y020135D01*
X053639Y019990D01*
X053370Y019721D01*
X053225Y019370D01*
X053225Y018990D01*
X053370Y018639D01*
X053639Y018370D01*
X053599Y018410D02*
X051440Y018410D01*
X051515Y018509D02*
X053501Y018509D01*
X053402Y018607D02*
X051555Y018607D01*
X051555Y018706D02*
X053343Y018706D01*
X053302Y018804D02*
X051535Y018804D01*
X051488Y018903D02*
X053261Y018903D01*
X053225Y019001D02*
X051385Y019001D01*
X051180Y018680D02*
X048671Y018671D01*
X044683Y018671D01*
X045059Y019001D02*
X050975Y019001D01*
X050872Y018903D02*
X045158Y018903D01*
X044961Y019100D02*
X053225Y019100D01*
X053225Y019198D02*
X044917Y019198D01*
X045016Y019297D02*
X053225Y019297D01*
X053235Y019395D02*
X045114Y019395D01*
X045183Y019494D02*
X053276Y019494D01*
X053317Y019592D02*
X045183Y019592D01*
X045183Y019691D02*
X053358Y019691D01*
X053438Y019789D02*
X045183Y019789D01*
X045173Y019888D02*
X053537Y019888D01*
X053635Y019986D02*
X045074Y019986D01*
X044976Y020085D02*
X053868Y020085D01*
X054492Y020085D02*
X055922Y020085D01*
X055922Y020183D02*
X044902Y020183D01*
X045001Y020282D02*
X055922Y020282D01*
X055922Y020380D02*
X045099Y020380D01*
X045183Y020479D02*
X055922Y020479D01*
X055922Y020577D02*
X045183Y020577D01*
X045183Y020676D02*
X055922Y020676D01*
X055922Y020774D02*
X045183Y020774D01*
X045183Y020873D02*
X055922Y020873D01*
X055922Y020971D02*
X045089Y020971D01*
X044991Y021070D02*
X055922Y021070D01*
X055922Y021168D02*
X044892Y021168D01*
X044986Y021267D02*
X055922Y021267D01*
X055922Y021365D02*
X045084Y021365D01*
X045183Y021464D02*
X055922Y021464D01*
X055922Y021562D02*
X045183Y021562D01*
X045183Y021661D02*
X055922Y021661D01*
X055922Y021759D02*
X045183Y021759D01*
X045183Y021858D02*
X055922Y021858D01*
X055922Y021956D02*
X045104Y021956D01*
X045006Y022055D02*
X055922Y022055D01*
X055922Y022153D02*
X044907Y022153D01*
X044971Y022252D02*
X055922Y022252D01*
X055922Y022350D02*
X045069Y022350D01*
X045168Y022449D02*
X055922Y022449D01*
X055922Y022547D02*
X045183Y022547D01*
X045183Y022646D02*
X055922Y022646D01*
X055922Y022744D02*
X045183Y022744D01*
X045183Y022843D02*
X055922Y022843D01*
X055922Y022941D02*
X045119Y022941D01*
X045021Y023040D02*
X055922Y023040D01*
X055922Y023138D02*
X044922Y023138D01*
X044956Y023237D02*
X055922Y023237D01*
X055922Y023335D02*
X045054Y023335D01*
X045153Y023434D02*
X055922Y023434D01*
X055922Y023532D02*
X045183Y023532D01*
X045183Y023631D02*
X055922Y023631D01*
X055922Y023729D02*
X045183Y023729D01*
X045183Y023828D02*
X055922Y023828D01*
X055922Y023926D02*
X045134Y023926D01*
X045036Y024025D02*
X055922Y024025D01*
X055922Y024123D02*
X044937Y024123D01*
X044941Y024222D02*
X055922Y024222D01*
X055922Y024320D02*
X045039Y024320D01*
X045138Y024419D02*
X055922Y024419D01*
X055922Y024517D02*
X045183Y024517D01*
X045183Y024616D02*
X055922Y024616D01*
X055922Y024714D02*
X045183Y024714D01*
X045183Y024813D02*
X055922Y024813D01*
X055922Y024911D02*
X045149Y024911D01*
X045051Y025010D02*
X055922Y025010D01*
X055922Y025108D02*
X044952Y025108D01*
X044926Y025207D02*
X055922Y025207D01*
X055922Y025305D02*
X045024Y025305D01*
X045123Y025404D02*
X055922Y025404D01*
X055922Y025502D02*
X045183Y025502D01*
X045183Y025601D02*
X055922Y025601D01*
X055922Y025699D02*
X045183Y025699D01*
X045183Y025798D02*
X055922Y025798D01*
X055922Y025896D02*
X045164Y025896D01*
X045066Y025995D02*
X055922Y025995D01*
X055922Y026093D02*
X044967Y026093D01*
X044890Y026192D02*
X055922Y026192D01*
X055922Y026290D02*
X044988Y026290D01*
X045087Y026389D02*
X055922Y026389D01*
X055922Y026487D02*
X045181Y026487D01*
X045181Y026586D02*
X055922Y026586D01*
X055922Y026684D02*
X045181Y026684D01*
X045181Y026783D02*
X055922Y026783D01*
X055922Y026881D02*
X045181Y026881D01*
X045099Y026980D02*
X055922Y026980D01*
X055922Y027078D02*
X045001Y027078D01*
X044902Y027177D02*
X055922Y027177D01*
X055922Y027275D02*
X046982Y027275D01*
X046887Y027180D02*
X047180Y027473D01*
X047180Y027887D01*
X046887Y028180D01*
X047180Y028473D01*
X047180Y028887D01*
X046887Y029180D01*
X047180Y029473D01*
X047180Y029630D01*
X046730Y029630D01*
X046730Y029730D01*
X047180Y029730D01*
X047180Y029887D01*
X046887Y030180D01*
X046730Y030180D01*
X046730Y029730D01*
X046630Y029730D01*
X046630Y030180D01*
X046473Y030180D01*
X046180Y029887D01*
X046180Y029730D01*
X046630Y029730D01*
X046630Y029630D01*
X046730Y029630D01*
X046730Y029180D01*
X046887Y029180D01*
X046473Y029180D01*
X046630Y029180D01*
X046630Y029630D01*
X046180Y029630D01*
X046180Y029473D01*
X046473Y029180D01*
X046180Y028887D01*
X046180Y028473D01*
X046473Y028180D01*
X046887Y028180D01*
X046473Y028180D01*
X046180Y027887D01*
X046180Y027473D01*
X046473Y027180D01*
X046887Y027180D01*
X047081Y027374D02*
X055922Y027374D01*
X055922Y027472D02*
X047179Y027472D01*
X047180Y027571D02*
X055922Y027571D01*
X055922Y027669D02*
X047180Y027669D01*
X047180Y027768D02*
X055922Y027768D01*
X055922Y027866D02*
X047180Y027866D01*
X047103Y027965D02*
X055922Y027965D01*
X055922Y028063D02*
X047004Y028063D01*
X046906Y028162D02*
X055922Y028162D01*
X055922Y028260D02*
X046967Y028260D01*
X047066Y028359D02*
X055922Y028359D01*
X055922Y028457D02*
X047164Y028457D01*
X047180Y028556D02*
X055922Y028556D01*
X055922Y028654D02*
X047180Y028654D01*
X047180Y028753D02*
X055922Y028753D01*
X055922Y028851D02*
X047180Y028851D01*
X047118Y028950D02*
X055922Y028950D01*
X055922Y029048D02*
X047019Y029048D01*
X046921Y029147D02*
X055922Y029147D01*
X055922Y029245D02*
X046952Y029245D01*
X047051Y029344D02*
X055922Y029344D01*
X055922Y029442D02*
X047149Y029442D01*
X047180Y029541D02*
X055922Y029541D01*
X055922Y029639D02*
X046730Y029639D01*
X046730Y029541D02*
X046630Y029541D01*
X046630Y029639D02*
X045181Y029639D01*
X045181Y029541D02*
X046180Y029541D01*
X046211Y029442D02*
X045140Y029442D01*
X045042Y029344D02*
X046309Y029344D01*
X046408Y029245D02*
X044943Y029245D01*
X044932Y029147D02*
X046439Y029147D01*
X046341Y029048D02*
X045031Y029048D01*
X045129Y028950D02*
X046242Y028950D01*
X046180Y028851D02*
X045181Y028851D01*
X045181Y028753D02*
X046180Y028753D01*
X046180Y028654D02*
X045181Y028654D01*
X045181Y028556D02*
X046180Y028556D01*
X046196Y028457D02*
X045155Y028457D01*
X045057Y028359D02*
X046294Y028359D01*
X046393Y028260D02*
X044958Y028260D01*
X044917Y028162D02*
X046454Y028162D01*
X046356Y028063D02*
X045016Y028063D01*
X045114Y027965D02*
X046257Y027965D01*
X046180Y027866D02*
X045181Y027866D01*
X045181Y027768D02*
X046180Y027768D01*
X046180Y027669D02*
X045181Y027669D01*
X045181Y027571D02*
X046180Y027571D01*
X046181Y027472D02*
X045170Y027472D01*
X045072Y027374D02*
X046279Y027374D01*
X046378Y027275D02*
X044973Y027275D01*
X046630Y029245D02*
X046730Y029245D01*
X046730Y029344D02*
X046630Y029344D01*
X046630Y029442D02*
X046730Y029442D01*
X046730Y029738D02*
X046630Y029738D01*
X046630Y029836D02*
X046730Y029836D01*
X046730Y029935D02*
X046630Y029935D01*
X046630Y030033D02*
X046730Y030033D01*
X046730Y030132D02*
X046630Y030132D01*
X046473Y030180D02*
X046887Y030180D01*
X047180Y030473D01*
X047180Y030887D01*
X046887Y031180D01*
X046473Y031180D01*
X046180Y030887D01*
X046180Y030473D01*
X046473Y030180D01*
X046424Y030132D02*
X044947Y030132D01*
X044928Y030230D02*
X046423Y030230D01*
X046324Y030329D02*
X045027Y030329D01*
X045125Y030427D02*
X046226Y030427D01*
X046180Y030526D02*
X045181Y030526D01*
X045181Y030624D02*
X046180Y030624D01*
X046180Y030723D02*
X045181Y030723D01*
X045181Y030821D02*
X046180Y030821D01*
X046212Y030920D02*
X045159Y030920D01*
X045061Y031018D02*
X046311Y031018D01*
X046409Y031117D02*
X044962Y031117D01*
X044913Y031215D02*
X046438Y031215D01*
X046473Y031180D02*
X046887Y031180D01*
X047180Y031473D01*
X047180Y031887D01*
X046887Y032180D01*
X046473Y032180D01*
X046180Y031887D01*
X046180Y031473D01*
X046473Y031180D01*
X046339Y031314D02*
X045012Y031314D01*
X045110Y031412D02*
X046241Y031412D01*
X046180Y031511D02*
X045181Y031511D01*
X045181Y031609D02*
X046180Y031609D01*
X046180Y031708D02*
X045181Y031708D01*
X045181Y031806D02*
X046180Y031806D01*
X046197Y031905D02*
X045174Y031905D01*
X045076Y032003D02*
X046296Y032003D01*
X046394Y032102D02*
X044977Y032102D01*
X044898Y032200D02*
X046453Y032200D01*
X046473Y032180D02*
X046887Y032180D01*
X047180Y032473D01*
X047180Y032887D01*
X046887Y033180D01*
X046473Y033180D01*
X046180Y032887D01*
X046180Y032473D01*
X046473Y032180D01*
X046354Y032299D02*
X044997Y032299D01*
X045095Y032397D02*
X046256Y032397D01*
X046180Y032496D02*
X045181Y032496D01*
X045181Y032594D02*
X046180Y032594D01*
X046180Y032693D02*
X045181Y032693D01*
X045181Y032791D02*
X046180Y032791D01*
X046182Y032890D02*
X045181Y032890D01*
X045091Y032988D02*
X046281Y032988D01*
X046379Y033087D02*
X044992Y033087D01*
X044894Y033185D02*
X046468Y033185D01*
X046473Y033180D02*
X046887Y033180D01*
X047180Y033473D01*
X047180Y033887D01*
X046887Y034180D01*
X046473Y034180D01*
X046180Y033887D01*
X046180Y033473D01*
X046473Y033180D01*
X046369Y033284D02*
X044982Y033284D01*
X045080Y033382D02*
X046271Y033382D01*
X046180Y033481D02*
X045179Y033481D01*
X045181Y033579D02*
X046180Y033579D01*
X046180Y033678D02*
X045181Y033678D01*
X045181Y033776D02*
X046180Y033776D01*
X046180Y033875D02*
X045181Y033875D01*
X045106Y033973D02*
X046266Y033973D01*
X046364Y034072D02*
X045007Y034072D01*
X044909Y034170D02*
X046463Y034170D01*
X046897Y034170D02*
X055922Y034170D01*
X055922Y034072D02*
X046996Y034072D01*
X047094Y033973D02*
X055922Y033973D01*
X055922Y033875D02*
X047180Y033875D01*
X047180Y033776D02*
X055922Y033776D01*
X055922Y033678D02*
X047180Y033678D01*
X047180Y033579D02*
X055922Y033579D01*
X055922Y033481D02*
X047180Y033481D01*
X047089Y033382D02*
X055922Y033382D01*
X055922Y033284D02*
X046991Y033284D01*
X046892Y033185D02*
X055922Y033185D01*
X055922Y033087D02*
X046981Y033087D01*
X047079Y032988D02*
X055922Y032988D01*
X055922Y032890D02*
X047178Y032890D01*
X047180Y032791D02*
X055922Y032791D01*
X055922Y032693D02*
X047180Y032693D01*
X047180Y032594D02*
X055922Y032594D01*
X055922Y032496D02*
X047180Y032496D01*
X047104Y032397D02*
X055922Y032397D01*
X055922Y032299D02*
X047006Y032299D01*
X046907Y032200D02*
X055922Y032200D01*
X055922Y032102D02*
X046966Y032102D01*
X047064Y032003D02*
X055922Y032003D01*
X055922Y031905D02*
X047163Y031905D01*
X047180Y031806D02*
X055922Y031806D01*
X055922Y031708D02*
X047180Y031708D01*
X047180Y031609D02*
X055922Y031609D01*
X055922Y031511D02*
X047180Y031511D01*
X047119Y031412D02*
X055922Y031412D01*
X055922Y031314D02*
X047021Y031314D01*
X046922Y031215D02*
X055922Y031215D01*
X055922Y031117D02*
X046951Y031117D01*
X047049Y031018D02*
X055922Y031018D01*
X055922Y030920D02*
X047148Y030920D01*
X047180Y030821D02*
X055922Y030821D01*
X055922Y030723D02*
X047180Y030723D01*
X047180Y030624D02*
X055922Y030624D01*
X055922Y030526D02*
X047180Y030526D01*
X047134Y030427D02*
X055922Y030427D01*
X055922Y030329D02*
X047036Y030329D01*
X046937Y030230D02*
X055922Y030230D01*
X055922Y030132D02*
X046936Y030132D01*
X047034Y030033D02*
X055922Y030033D01*
X055922Y029935D02*
X047133Y029935D01*
X047180Y029836D02*
X055922Y029836D01*
X055922Y029738D02*
X047180Y029738D01*
X046326Y030033D02*
X045046Y030033D01*
X045144Y029935D02*
X046227Y029935D01*
X046180Y029836D02*
X045181Y029836D01*
X045181Y029738D02*
X046180Y029738D01*
X044967Y034269D02*
X055922Y034269D01*
X055922Y034367D02*
X045065Y034367D01*
X045164Y034466D02*
X055922Y034466D01*
X055922Y034564D02*
X045181Y034564D01*
X045181Y034663D02*
X055922Y034663D01*
X055922Y034761D02*
X045181Y034761D01*
X045181Y034860D02*
X055922Y034860D01*
X055922Y034958D02*
X045121Y034958D01*
X045022Y035057D02*
X055922Y035057D01*
X055922Y035155D02*
X044924Y035155D01*
X044952Y035254D02*
X053921Y035254D01*
X053990Y035225D02*
X054370Y035225D01*
X054721Y035370D01*
X054990Y035639D01*
X055135Y035990D01*
X055135Y036370D01*
X054990Y036721D01*
X054721Y036990D01*
X054370Y037135D01*
X053990Y037135D01*
X053639Y036990D01*
X053370Y036721D01*
X053225Y036370D01*
X053225Y035990D01*
X053370Y035639D01*
X053639Y035370D01*
X053990Y035225D01*
X053683Y035352D02*
X045050Y035352D01*
X045149Y035451D02*
X053559Y035451D01*
X053460Y035549D02*
X045181Y035549D01*
X045181Y035648D02*
X053367Y035648D01*
X053326Y035746D02*
X045181Y035746D01*
X045181Y035845D02*
X053285Y035845D01*
X053244Y035943D02*
X045136Y035943D01*
X045037Y036042D02*
X053225Y036042D01*
X053225Y036140D02*
X044939Y036140D01*
X038219Y036140D02*
X035180Y036140D01*
X035180Y036042D02*
X038181Y036042D01*
X038181Y035943D02*
X035180Y035943D01*
X035180Y035845D02*
X038181Y035845D01*
X038356Y034072D02*
X022108Y034072D01*
X022063Y034090D02*
X021857Y034090D01*
X021665Y034011D01*
X021519Y033865D01*
X021440Y033673D01*
X021440Y033467D01*
X021519Y033275D01*
X021665Y033129D01*
X021857Y033050D01*
X022063Y033050D01*
X022255Y033129D01*
X022401Y033275D01*
X022480Y033467D01*
X022480Y033673D01*
X022401Y033865D01*
X022255Y034011D01*
X022063Y034090D01*
X021812Y034072D02*
X019548Y034072D01*
X019503Y034090D02*
X019297Y034090D01*
X019105Y034011D01*
X018959Y033865D01*
X018880Y033673D01*
X018880Y033467D01*
X018959Y033275D01*
X019105Y033129D01*
X019297Y033050D01*
X019503Y033050D01*
X019695Y033129D01*
X019841Y033275D01*
X019920Y033467D01*
X019920Y033673D01*
X019841Y033865D01*
X019695Y034011D01*
X019503Y034090D01*
X019252Y034072D02*
X000930Y034072D01*
X000930Y033973D02*
X019068Y033973D01*
X018969Y033875D02*
X000930Y033875D01*
X000930Y033776D02*
X018923Y033776D01*
X018882Y033678D02*
X000930Y033678D01*
X000930Y033579D02*
X018880Y033579D01*
X018880Y033481D02*
X000930Y033481D01*
X000930Y033382D02*
X018915Y033382D01*
X018956Y033284D02*
X000930Y033284D01*
X000930Y033185D02*
X019050Y033185D01*
X019208Y033087D02*
X000930Y033087D01*
X000930Y032988D02*
X024152Y032988D01*
X024152Y032890D02*
X000930Y032890D01*
X000930Y032791D02*
X003455Y032791D01*
X003461Y032797D02*
X003344Y032680D01*
X003281Y032528D01*
X003281Y031832D01*
X003344Y031680D01*
X003461Y031563D01*
X003613Y031500D01*
X003778Y031500D01*
X003931Y031563D01*
X004048Y031680D01*
X004111Y031832D01*
X004111Y032528D01*
X004048Y032680D01*
X003931Y032797D01*
X003778Y032860D01*
X003613Y032860D01*
X003461Y032797D01*
X003356Y032693D02*
X000930Y032693D01*
X000930Y032594D02*
X003308Y032594D01*
X003281Y032496D02*
X000930Y032496D01*
X000930Y032397D02*
X003281Y032397D01*
X003281Y032299D02*
X000930Y032299D01*
X000930Y032200D02*
X003281Y032200D01*
X003281Y032102D02*
X000930Y032102D01*
X000930Y032003D02*
X003281Y032003D01*
X003281Y031905D02*
X000930Y031905D01*
X000930Y031806D02*
X003292Y031806D01*
X003332Y031708D02*
X000930Y031708D01*
X000930Y031609D02*
X003415Y031609D01*
X003588Y031511D02*
X000930Y031511D01*
X000930Y031412D02*
X019043Y031412D01*
X019105Y031349D02*
X019297Y031270D01*
X019503Y031270D01*
X019695Y031349D01*
X019841Y031495D01*
X019920Y031687D01*
X019920Y031893D01*
X019841Y032085D01*
X019695Y032231D01*
X019503Y032310D01*
X019297Y032310D01*
X019105Y032231D01*
X018959Y032085D01*
X018880Y031893D01*
X018880Y031687D01*
X018959Y031495D01*
X019105Y031349D01*
X019191Y031314D02*
X000930Y031314D01*
X000930Y031215D02*
X024438Y031215D01*
X024378Y031240D02*
X024521Y031181D01*
X024378Y031122D01*
X024231Y030975D01*
X024152Y030784D01*
X024152Y030577D01*
X024231Y030386D01*
X024378Y030240D01*
X024521Y030181D01*
X024378Y030122D01*
X024231Y029975D01*
X024152Y029784D01*
X024152Y029577D01*
X024231Y029386D01*
X024378Y029240D01*
X024521Y029181D01*
X024378Y029122D01*
X024231Y028975D01*
X024152Y028784D01*
X024152Y028577D01*
X024231Y028386D01*
X024378Y028240D01*
X024521Y028181D01*
X024378Y028122D01*
X024231Y027975D01*
X024152Y027784D01*
X024152Y027577D01*
X024231Y027386D01*
X024378Y027240D01*
X024521Y027181D01*
X024378Y027122D01*
X024231Y026975D01*
X024152Y026784D01*
X024152Y026577D01*
X024231Y026386D01*
X024378Y026240D01*
X024521Y026181D01*
X024378Y026122D01*
X024231Y025975D01*
X024152Y025784D01*
X024152Y025577D01*
X024231Y025386D01*
X024378Y025240D01*
X024521Y025181D01*
X024378Y025122D01*
X024231Y024975D01*
X024152Y024784D01*
X024152Y024577D01*
X024231Y024386D01*
X024378Y024240D01*
X024521Y024181D01*
X024378Y024122D01*
X024231Y023975D01*
X024152Y023784D01*
X024152Y023577D01*
X024231Y023386D01*
X024378Y023240D01*
X024521Y023181D01*
X024378Y023122D01*
X024231Y022975D01*
X024152Y022784D01*
X024152Y022577D01*
X024231Y022386D01*
X024378Y022240D01*
X024521Y022181D01*
X024378Y022122D01*
X024231Y021975D01*
X024152Y021784D01*
X024152Y021577D01*
X024231Y021386D01*
X024378Y021240D01*
X024521Y021181D01*
X024378Y021122D01*
X024231Y020975D01*
X024152Y020784D01*
X024152Y020577D01*
X022615Y020577D01*
X022615Y020500D02*
X022360Y020245D01*
X022000Y020245D01*
X021745Y020500D01*
X021745Y020860D01*
X022000Y021115D01*
X022360Y021115D01*
X022615Y020860D01*
X022615Y020500D01*
X022594Y020479D02*
X024193Y020479D01*
X024231Y020386D02*
X024378Y020240D01*
X024521Y020181D01*
X024378Y020122D01*
X024231Y019975D01*
X024152Y019784D01*
X024152Y019577D01*
X024231Y019386D01*
X024378Y019240D01*
X024521Y019181D01*
X024378Y019122D01*
X024231Y018975D01*
X024152Y018784D01*
X024152Y018577D01*
X024231Y018386D01*
X024378Y018240D01*
X024521Y018181D01*
X024378Y018122D01*
X024231Y017975D01*
X024152Y017784D01*
X024152Y017577D01*
X024231Y017386D01*
X024378Y017240D01*
X024521Y017181D01*
X024378Y017122D01*
X024231Y016975D01*
X024152Y016784D01*
X024152Y016577D01*
X024231Y016386D01*
X024378Y016240D01*
X024569Y016161D01*
X024776Y016161D01*
X024967Y016240D01*
X025113Y016386D01*
X025192Y016577D01*
X025192Y016784D01*
X025113Y016975D01*
X024967Y017122D01*
X024824Y017181D01*
X024967Y017240D01*
X025113Y017386D01*
X025192Y017577D01*
X025192Y017784D01*
X025113Y017975D01*
X024967Y018122D01*
X024824Y018181D01*
X024967Y018240D01*
X025113Y018386D01*
X025192Y018577D01*
X025192Y018784D01*
X025113Y018975D01*
X024967Y019122D01*
X024824Y019181D01*
X024967Y019240D01*
X025113Y019386D01*
X025192Y019577D01*
X025192Y019784D01*
X025113Y019975D01*
X024967Y020122D01*
X024824Y020181D01*
X024967Y020240D01*
X025113Y020386D01*
X025192Y020577D01*
X035146Y020577D01*
X035144Y020581D02*
X035223Y020390D01*
X035370Y020244D01*
X035513Y020184D01*
X035370Y020125D01*
X035223Y019979D01*
X035144Y019788D01*
X035144Y019581D01*
X035223Y019390D01*
X035370Y019244D01*
X035513Y019184D01*
X035370Y019125D01*
X035223Y018979D01*
X035144Y018788D01*
X035144Y018581D01*
X035223Y018390D01*
X035370Y018244D01*
X035516Y018183D01*
X035465Y018166D01*
X035392Y018129D01*
X035326Y018081D01*
X035268Y018023D01*
X035220Y017957D01*
X035182Y017884D01*
X035157Y017806D01*
X035146Y017734D01*
X035614Y017734D01*
X035614Y017634D01*
X035146Y017634D01*
X035157Y017563D01*
X035182Y017485D01*
X035220Y017412D01*
X035268Y017346D01*
X035326Y017288D01*
X035392Y017240D01*
X035465Y017203D01*
X035516Y017186D01*
X035370Y017125D01*
X035223Y016979D01*
X035144Y016788D01*
X035144Y016581D01*
X035223Y016390D01*
X035370Y016244D01*
X035561Y016164D01*
X035768Y016164D01*
X035959Y016244D01*
X036105Y016390D01*
X036184Y016581D01*
X036184Y016788D01*
X036105Y016979D01*
X035959Y017125D01*
X035813Y017186D01*
X035864Y017203D01*
X035937Y017240D01*
X036003Y017288D01*
X036061Y017346D01*
X036109Y017412D01*
X036146Y017485D01*
X036172Y017563D01*
X036183Y017634D01*
X035714Y017634D01*
X035714Y017734D01*
X036183Y017734D01*
X036172Y017806D01*
X036146Y017884D01*
X036109Y017957D01*
X036061Y018023D01*
X036003Y018081D01*
X035937Y018129D01*
X035864Y018166D01*
X035813Y018183D01*
X035959Y018244D01*
X036105Y018390D01*
X036184Y018581D01*
X036184Y018788D01*
X036105Y018979D01*
X035959Y019125D01*
X035816Y019184D01*
X035959Y019244D01*
X036105Y019390D01*
X036184Y019581D01*
X036184Y019788D01*
X036105Y019979D01*
X035959Y020125D01*
X035816Y020184D01*
X035959Y020244D01*
X036105Y020390D01*
X036184Y020581D01*
X036184Y020788D01*
X036105Y020979D01*
X035959Y021125D01*
X035816Y021184D01*
X035959Y021244D01*
X036105Y021390D01*
X036184Y021581D01*
X036184Y021788D01*
X036105Y021979D01*
X035959Y022125D01*
X035816Y022184D01*
X035959Y022244D01*
X036105Y022390D01*
X036184Y022581D01*
X036184Y022788D01*
X036105Y022979D01*
X035959Y023125D01*
X035816Y023184D01*
X035959Y023244D01*
X036105Y023390D01*
X036184Y023581D01*
X036184Y023788D01*
X036105Y023979D01*
X035959Y024125D01*
X035816Y024184D01*
X035959Y024244D01*
X036105Y024390D01*
X036184Y024581D01*
X036184Y024788D01*
X036105Y024979D01*
X035959Y025125D01*
X035816Y025184D01*
X035959Y025244D01*
X036105Y025390D01*
X036184Y025581D01*
X036184Y025788D01*
X036105Y025979D01*
X035959Y026125D01*
X035816Y026184D01*
X035959Y026244D01*
X036105Y026390D01*
X036184Y026581D01*
X036184Y026788D01*
X036105Y026979D01*
X035959Y027125D01*
X035816Y027184D01*
X035959Y027244D01*
X036105Y027390D01*
X036184Y027581D01*
X036184Y027788D01*
X036105Y027979D01*
X035959Y028125D01*
X035816Y028184D01*
X035959Y028244D01*
X036105Y028390D01*
X036184Y028581D01*
X036184Y028788D01*
X036105Y028979D01*
X035959Y029125D01*
X035816Y029184D01*
X035959Y029244D01*
X036105Y029390D01*
X036184Y029581D01*
X036184Y029788D01*
X036105Y029979D01*
X035959Y030125D01*
X035816Y030184D01*
X035959Y030244D01*
X036105Y030390D01*
X036184Y030581D01*
X036184Y030788D01*
X036105Y030979D01*
X035959Y031125D01*
X035816Y031184D01*
X035959Y031244D01*
X036105Y031390D01*
X036184Y031581D01*
X036184Y031788D01*
X036105Y031979D01*
X035959Y032125D01*
X035864Y032164D01*
X036096Y032164D01*
X036184Y032252D01*
X036184Y033117D01*
X036096Y033204D01*
X035232Y033204D01*
X035144Y033117D01*
X035144Y032252D01*
X035232Y032164D01*
X035464Y032164D01*
X035370Y032125D01*
X035223Y031979D01*
X035144Y031788D01*
X035144Y031581D01*
X035223Y031390D01*
X035370Y031244D01*
X035513Y031184D01*
X035370Y031125D01*
X035223Y030979D01*
X035144Y030788D01*
X035144Y030581D01*
X035223Y030390D01*
X035370Y030244D01*
X035513Y030184D01*
X035370Y030125D01*
X035223Y029979D01*
X035144Y029788D01*
X035144Y029581D01*
X035223Y029390D01*
X035370Y029244D01*
X035513Y029184D01*
X035370Y029125D01*
X035223Y028979D01*
X035144Y028788D01*
X035144Y028581D01*
X035223Y028390D01*
X035370Y028244D01*
X035513Y028184D01*
X035370Y028125D01*
X035223Y027979D01*
X035144Y027788D01*
X035144Y027581D01*
X035223Y027390D01*
X035370Y027244D01*
X035513Y027184D01*
X035370Y027125D01*
X035223Y026979D01*
X035144Y026788D01*
X035144Y026581D01*
X035223Y026390D01*
X035370Y026244D01*
X035513Y026184D01*
X035370Y026125D01*
X035223Y025979D01*
X035144Y025788D01*
X035144Y025581D01*
X035223Y025390D01*
X035370Y025244D01*
X035513Y025184D01*
X035370Y025125D01*
X035223Y024979D01*
X035144Y024788D01*
X035144Y024581D01*
X035223Y024390D01*
X035370Y024244D01*
X035513Y024184D01*
X035370Y024125D01*
X035223Y023979D01*
X035144Y023788D01*
X035144Y023581D01*
X035223Y023390D01*
X035370Y023244D01*
X035513Y023184D01*
X035370Y023125D01*
X035223Y022979D01*
X035144Y022788D01*
X035144Y022581D01*
X035223Y022390D01*
X035370Y022244D01*
X035513Y022184D01*
X035370Y022125D01*
X035223Y021979D01*
X035144Y021788D01*
X035144Y021581D01*
X035223Y021390D01*
X035370Y021244D01*
X035513Y021184D01*
X035370Y021125D01*
X035223Y020979D01*
X035144Y020788D01*
X035144Y020581D01*
X035144Y020676D02*
X025192Y020676D01*
X025192Y020774D02*
X035144Y020774D01*
X035179Y020873D02*
X025156Y020873D01*
X025192Y020784D02*
X025113Y020975D01*
X024967Y021122D01*
X024824Y021181D01*
X024967Y021240D01*
X025113Y021386D01*
X025192Y021577D01*
X025192Y021784D01*
X025113Y021975D01*
X024967Y022122D01*
X024824Y022181D01*
X024967Y022240D01*
X025113Y022386D01*
X025192Y022577D01*
X025192Y022784D01*
X025113Y022975D01*
X024967Y023122D01*
X024824Y023181D01*
X024967Y023240D01*
X025113Y023386D01*
X025192Y023577D01*
X025192Y023784D01*
X025113Y023975D01*
X024967Y024122D01*
X024824Y024181D01*
X024967Y024240D01*
X025113Y024386D01*
X025192Y024577D01*
X025192Y024784D01*
X025113Y024975D01*
X024967Y025122D01*
X024824Y025181D01*
X024967Y025240D01*
X025113Y025386D01*
X025192Y025577D01*
X025192Y025784D01*
X025113Y025975D01*
X024967Y026122D01*
X024824Y026181D01*
X024967Y026240D01*
X025113Y026386D01*
X025192Y026577D01*
X025192Y026784D01*
X025113Y026975D01*
X024967Y027122D01*
X024824Y027181D01*
X024967Y027240D01*
X025113Y027386D01*
X025192Y027577D01*
X025192Y027784D01*
X025113Y027975D01*
X024967Y028122D01*
X024824Y028181D01*
X024967Y028240D01*
X025113Y028386D01*
X025192Y028577D01*
X025192Y028784D01*
X025113Y028975D01*
X024967Y029122D01*
X024824Y029181D01*
X024967Y029240D01*
X025113Y029386D01*
X025192Y029577D01*
X025192Y029784D01*
X025113Y029975D01*
X024967Y030122D01*
X024824Y030181D01*
X024967Y030240D01*
X025113Y030386D01*
X025192Y030577D01*
X025192Y030784D01*
X025113Y030975D01*
X024967Y031122D01*
X024824Y031181D01*
X024967Y031240D01*
X025113Y031386D01*
X025192Y031577D01*
X025192Y031784D01*
X025113Y031975D01*
X024967Y032122D01*
X024872Y032161D01*
X025104Y032161D01*
X025192Y032249D01*
X025192Y033113D01*
X025104Y033201D01*
X024240Y033201D01*
X024152Y033113D01*
X024152Y032249D01*
X024240Y032161D01*
X024472Y032161D01*
X024378Y032122D01*
X024231Y031975D01*
X024152Y031784D01*
X024152Y031577D01*
X024231Y031386D01*
X024378Y031240D01*
X024304Y031314D02*
X022169Y031314D01*
X022255Y031349D02*
X022063Y031270D01*
X021857Y031270D01*
X021665Y031349D01*
X021519Y031495D01*
X021440Y031687D01*
X021440Y031893D01*
X021519Y032085D01*
X021665Y032231D01*
X021857Y032310D01*
X022063Y032310D01*
X022255Y032231D01*
X022401Y032085D01*
X022480Y031893D01*
X022480Y031687D01*
X022401Y031495D01*
X022255Y031349D01*
X022317Y031412D02*
X024221Y031412D01*
X024180Y031511D02*
X022407Y031511D01*
X022448Y031609D02*
X024152Y031609D01*
X024152Y031708D02*
X022480Y031708D01*
X022480Y031806D02*
X024161Y031806D01*
X024202Y031905D02*
X022475Y031905D01*
X022435Y032003D02*
X024259Y032003D01*
X024358Y032102D02*
X022384Y032102D01*
X022285Y032200D02*
X024201Y032200D01*
X024152Y032299D02*
X022091Y032299D01*
X021829Y032299D02*
X019531Y032299D01*
X019725Y032200D02*
X021635Y032200D01*
X021536Y032102D02*
X019824Y032102D01*
X019875Y032003D02*
X021485Y032003D01*
X021445Y031905D02*
X019915Y031905D01*
X019920Y031806D02*
X021440Y031806D01*
X021440Y031708D02*
X019920Y031708D01*
X019888Y031609D02*
X021472Y031609D01*
X021513Y031511D02*
X019847Y031511D01*
X019757Y031412D02*
X021603Y031412D01*
X021751Y031314D02*
X019609Y031314D01*
X018953Y031511D02*
X005772Y031511D01*
X005747Y031500D02*
X005899Y031563D01*
X006016Y031680D01*
X006079Y031832D01*
X006079Y032528D01*
X006016Y032680D01*
X005899Y032797D01*
X005747Y032860D01*
X005582Y032860D01*
X005429Y032797D01*
X005312Y032680D01*
X005249Y032528D01*
X005249Y031832D01*
X005312Y031680D01*
X005429Y031563D01*
X005582Y031500D01*
X005747Y031500D01*
X005556Y031511D02*
X003804Y031511D01*
X003977Y031609D02*
X005383Y031609D01*
X005301Y031708D02*
X004059Y031708D01*
X004100Y031806D02*
X005260Y031806D01*
X005249Y031905D02*
X004111Y031905D01*
X004111Y032003D02*
X005249Y032003D01*
X005249Y032102D02*
X004111Y032102D01*
X004111Y032200D02*
X005249Y032200D01*
X005249Y032299D02*
X004111Y032299D01*
X004111Y032397D02*
X005249Y032397D01*
X005249Y032496D02*
X004111Y032496D01*
X004083Y032594D02*
X005277Y032594D01*
X005325Y032693D02*
X004035Y032693D01*
X003937Y032791D02*
X005423Y032791D01*
X005905Y032791D02*
X008872Y032791D01*
X008911Y032830D02*
X008530Y032449D01*
X008530Y032230D01*
X009130Y032230D01*
X009130Y032830D01*
X008911Y032830D01*
X008773Y032693D02*
X006004Y032693D01*
X006052Y032594D02*
X008675Y032594D01*
X008576Y032496D02*
X006079Y032496D01*
X006079Y032397D02*
X008530Y032397D01*
X008530Y032299D02*
X006079Y032299D01*
X006079Y032200D02*
X009130Y032200D01*
X009130Y032230D02*
X009130Y032130D01*
X008530Y032130D01*
X008530Y031911D01*
X008911Y031530D01*
X009130Y031530D01*
X009130Y032130D01*
X009230Y032130D01*
X009230Y032230D01*
X009130Y032230D01*
X009130Y032299D02*
X009230Y032299D01*
X009230Y032230D02*
X009230Y032830D01*
X009449Y032830D01*
X009830Y032449D01*
X009830Y032230D01*
X009230Y032230D01*
X009230Y032200D02*
X019075Y032200D01*
X018976Y032102D02*
X009830Y032102D01*
X009830Y032130D02*
X009230Y032130D01*
X009230Y031530D01*
X009449Y031530D01*
X009830Y031911D01*
X009830Y032130D01*
X009830Y032003D02*
X018925Y032003D01*
X018885Y031905D02*
X009824Y031905D01*
X009725Y031806D02*
X018880Y031806D01*
X018880Y031708D02*
X009627Y031708D01*
X009528Y031609D02*
X018912Y031609D01*
X019269Y032299D02*
X009830Y032299D01*
X009830Y032397D02*
X024152Y032397D01*
X024152Y032496D02*
X009784Y032496D01*
X009685Y032594D02*
X024152Y032594D01*
X024152Y032693D02*
X009587Y032693D01*
X009488Y032791D02*
X024152Y032791D01*
X024152Y033087D02*
X022152Y033087D01*
X022310Y033185D02*
X024225Y033185D01*
X025120Y033185D02*
X035213Y033185D01*
X035144Y033087D02*
X025192Y033087D01*
X025192Y032988D02*
X035144Y032988D01*
X035144Y032890D02*
X025192Y032890D01*
X025192Y032791D02*
X035144Y032791D01*
X035144Y032693D02*
X025192Y032693D01*
X025192Y032594D02*
X035144Y032594D01*
X035144Y032496D02*
X025192Y032496D01*
X025192Y032397D02*
X035144Y032397D01*
X035144Y032299D02*
X025192Y032299D01*
X025144Y032200D02*
X035197Y032200D01*
X035346Y032102D02*
X024987Y032102D01*
X025085Y032003D02*
X035248Y032003D01*
X035193Y031905D02*
X025142Y031905D01*
X025183Y031806D02*
X035152Y031806D01*
X035144Y031708D02*
X025192Y031708D01*
X025192Y031609D02*
X035144Y031609D01*
X035173Y031511D02*
X025165Y031511D01*
X025124Y031412D02*
X035214Y031412D01*
X035300Y031314D02*
X025041Y031314D01*
X024907Y031215D02*
X035439Y031215D01*
X035361Y031117D02*
X024972Y031117D01*
X025070Y031018D02*
X035263Y031018D01*
X035199Y030920D02*
X025136Y030920D01*
X025177Y030821D02*
X035158Y030821D01*
X035144Y030723D02*
X025192Y030723D01*
X025192Y030624D02*
X035144Y030624D01*
X035167Y030526D02*
X025171Y030526D01*
X025130Y030427D02*
X035208Y030427D01*
X035285Y030329D02*
X025056Y030329D01*
X024943Y030230D02*
X035402Y030230D01*
X035385Y030132D02*
X024943Y030132D01*
X025055Y030033D02*
X035278Y030033D01*
X035205Y029935D02*
X025130Y029935D01*
X025171Y029836D02*
X035164Y029836D01*
X035144Y029738D02*
X025192Y029738D01*
X025192Y029639D02*
X035144Y029639D01*
X035161Y029541D02*
X025177Y029541D01*
X025136Y029442D02*
X035202Y029442D01*
X035270Y029344D02*
X025071Y029344D01*
X024972Y029245D02*
X035368Y029245D01*
X035421Y029147D02*
X024906Y029147D01*
X025040Y029048D02*
X035293Y029048D01*
X035211Y028950D02*
X025124Y028950D01*
X025165Y028851D02*
X035171Y028851D01*
X035144Y028753D02*
X025192Y028753D01*
X025192Y028654D02*
X035144Y028654D01*
X035155Y028556D02*
X025183Y028556D01*
X025142Y028457D02*
X035196Y028457D01*
X035255Y028359D02*
X025086Y028359D01*
X024987Y028260D02*
X035353Y028260D01*
X035457Y028162D02*
X024870Y028162D01*
X025025Y028063D02*
X035308Y028063D01*
X035218Y027965D02*
X025118Y027965D01*
X025158Y027866D02*
X035177Y027866D01*
X035144Y027768D02*
X025192Y027768D01*
X025192Y027669D02*
X035144Y027669D01*
X035149Y027571D02*
X025190Y027571D01*
X025149Y027472D02*
X035189Y027472D01*
X035240Y027374D02*
X025101Y027374D01*
X025002Y027275D02*
X035338Y027275D01*
X035494Y027177D02*
X024834Y027177D01*
X025010Y027078D02*
X035323Y027078D01*
X035224Y026980D02*
X025109Y026980D01*
X025152Y026881D02*
X035183Y026881D01*
X035144Y026783D02*
X025192Y026783D01*
X025192Y026684D02*
X035144Y026684D01*
X035144Y026586D02*
X025192Y026586D01*
X025155Y026487D02*
X035183Y026487D01*
X035225Y026389D02*
X025114Y026389D01*
X025017Y026290D02*
X035323Y026290D01*
X035338Y026093D02*
X024995Y026093D01*
X025094Y025995D02*
X035239Y025995D01*
X035189Y025896D02*
X025146Y025896D01*
X025187Y025798D02*
X035148Y025798D01*
X035144Y025699D02*
X025192Y025699D01*
X025192Y025601D02*
X035144Y025601D01*
X035177Y025502D02*
X025161Y025502D01*
X025120Y025404D02*
X035218Y025404D01*
X035308Y025305D02*
X025032Y025305D01*
X024886Y025207D02*
X035459Y025207D01*
X035353Y025108D02*
X024980Y025108D01*
X025079Y025010D02*
X035254Y025010D01*
X035195Y024911D02*
X025140Y024911D01*
X025181Y024813D02*
X035155Y024813D01*
X035144Y024714D02*
X025192Y024714D01*
X025192Y024616D02*
X035144Y024616D01*
X035171Y024517D02*
X025167Y024517D01*
X025127Y024419D02*
X035212Y024419D01*
X035293Y024320D02*
X025047Y024320D01*
X024923Y024222D02*
X035423Y024222D01*
X035368Y024123D02*
X024963Y024123D01*
X025064Y024025D02*
X035269Y024025D01*
X035202Y023926D02*
X025134Y023926D01*
X025174Y023828D02*
X035161Y023828D01*
X035144Y023729D02*
X025192Y023729D01*
X025192Y023631D02*
X035144Y023631D01*
X035165Y023532D02*
X025174Y023532D01*
X025133Y023434D02*
X035205Y023434D01*
X035278Y023335D02*
X025062Y023335D01*
X024959Y023237D02*
X035387Y023237D01*
X035401Y023138D02*
X024927Y023138D01*
X025049Y023040D02*
X035284Y023040D01*
X035208Y022941D02*
X025127Y022941D01*
X025168Y022843D02*
X035167Y022843D01*
X035144Y022744D02*
X025192Y022744D01*
X025192Y022646D02*
X035144Y022646D01*
X035158Y022547D02*
X025180Y022547D01*
X025139Y022449D02*
X035199Y022449D01*
X035263Y022350D02*
X025077Y022350D01*
X024979Y022252D02*
X035362Y022252D01*
X035437Y022153D02*
X024891Y022153D01*
X025034Y022055D02*
X035299Y022055D01*
X035214Y021956D02*
X025121Y021956D01*
X025162Y021858D02*
X035173Y021858D01*
X035144Y021759D02*
X025192Y021759D01*
X025192Y021661D02*
X035144Y021661D01*
X035152Y021562D02*
X025186Y021562D01*
X025145Y021464D02*
X035193Y021464D01*
X035248Y021365D02*
X025092Y021365D01*
X024994Y021267D02*
X035347Y021267D01*
X035473Y021168D02*
X024855Y021168D01*
X025019Y021070D02*
X035314Y021070D01*
X035220Y020971D02*
X025115Y020971D01*
X025192Y020784D02*
X025192Y020577D01*
X025151Y020479D02*
X035187Y020479D01*
X035233Y020380D02*
X025107Y020380D01*
X025009Y020282D02*
X035332Y020282D01*
X035329Y020085D02*
X025004Y020085D01*
X025102Y019986D02*
X035231Y019986D01*
X035186Y019888D02*
X025149Y019888D01*
X025190Y019789D02*
X035145Y019789D01*
X035144Y019691D02*
X025192Y019691D01*
X025192Y019592D02*
X035144Y019592D01*
X035181Y019494D02*
X025158Y019494D01*
X025117Y019395D02*
X035221Y019395D01*
X035317Y019297D02*
X025024Y019297D01*
X024866Y019198D02*
X035480Y019198D01*
X035344Y019100D02*
X024989Y019100D01*
X025087Y019001D02*
X035246Y019001D01*
X035192Y018903D02*
X025143Y018903D01*
X025184Y018804D02*
X035151Y018804D01*
X035144Y018706D02*
X025192Y018706D01*
X025192Y018607D02*
X035144Y018607D01*
X035174Y018509D02*
X025164Y018509D01*
X025123Y018410D02*
X035215Y018410D01*
X035302Y018312D02*
X025039Y018312D01*
X024902Y018213D02*
X035443Y018213D01*
X035372Y018115D02*
X024974Y018115D01*
X025072Y018016D02*
X035263Y018016D01*
X035200Y017918D02*
X025137Y017918D01*
X025178Y017819D02*
X035161Y017819D01*
X035148Y017622D02*
X025192Y017622D01*
X025192Y017721D02*
X035614Y017721D01*
X035714Y017721D02*
X038183Y017721D01*
X038183Y017819D02*
X036167Y017819D01*
X036129Y017918D02*
X038223Y017918D01*
X038321Y018016D02*
X036066Y018016D01*
X035957Y018115D02*
X038420Y018115D01*
X038433Y018213D02*
X035885Y018213D01*
X036027Y018312D02*
X038335Y018312D01*
X038236Y018410D02*
X036114Y018410D01*
X036154Y018509D02*
X038183Y018509D01*
X038183Y018607D02*
X036184Y018607D01*
X036184Y018706D02*
X038183Y018706D01*
X038183Y018804D02*
X036178Y018804D01*
X036137Y018903D02*
X038208Y018903D01*
X038306Y019001D02*
X036083Y019001D01*
X035985Y019100D02*
X038405Y019100D01*
X038448Y019198D02*
X035849Y019198D01*
X036012Y019297D02*
X038350Y019297D01*
X038251Y019395D02*
X036107Y019395D01*
X036148Y019494D02*
X038183Y019494D01*
X038183Y019592D02*
X036184Y019592D01*
X036184Y019691D02*
X038183Y019691D01*
X038183Y019789D02*
X036184Y019789D01*
X036143Y019888D02*
X038193Y019888D01*
X038291Y019986D02*
X036098Y019986D01*
X036000Y020085D02*
X038390Y020085D01*
X038463Y020183D02*
X035819Y020183D01*
X035997Y020282D02*
X036963Y020282D01*
X037000Y020245D02*
X036745Y020500D01*
X036745Y020647D01*
X037147Y020647D01*
X037147Y020713D01*
X037147Y021115D01*
X037000Y021115D01*
X036745Y020860D01*
X036745Y020713D01*
X037147Y020713D01*
X037213Y020713D01*
X037213Y021115D01*
X037360Y021115D01*
X037615Y020860D01*
X037615Y020713D01*
X037213Y020713D01*
X037213Y020647D01*
X037615Y020647D01*
X037615Y020500D01*
X037360Y020245D01*
X037213Y020245D01*
X037213Y020647D01*
X037147Y020647D01*
X037147Y020245D01*
X037000Y020245D01*
X037147Y020282D02*
X037213Y020282D01*
X037213Y020380D02*
X037147Y020380D01*
X037147Y020479D02*
X037213Y020479D01*
X037213Y020577D02*
X037147Y020577D01*
X037147Y020676D02*
X036184Y020676D01*
X036184Y020774D02*
X036745Y020774D01*
X036757Y020873D02*
X036149Y020873D01*
X036108Y020971D02*
X036856Y020971D01*
X036954Y021070D02*
X036015Y021070D01*
X035856Y021168D02*
X038473Y021168D01*
X038380Y021267D02*
X035982Y021267D01*
X036080Y021365D02*
X038281Y021365D01*
X038183Y021464D02*
X036136Y021464D01*
X036176Y021562D02*
X038183Y021562D01*
X038183Y021661D02*
X036184Y021661D01*
X036184Y021759D02*
X038183Y021759D01*
X038183Y021858D02*
X036155Y021858D01*
X036115Y021956D02*
X038261Y021956D01*
X038360Y022055D02*
X036030Y022055D01*
X035892Y022153D02*
X038458Y022153D01*
X038395Y022252D02*
X035967Y022252D01*
X036065Y022350D02*
X038296Y022350D01*
X038198Y022449D02*
X036129Y022449D01*
X036170Y022547D02*
X038183Y022547D01*
X038183Y022646D02*
X036184Y022646D01*
X036184Y022744D02*
X038183Y022744D01*
X038183Y022843D02*
X036162Y022843D01*
X036121Y022941D02*
X038246Y022941D01*
X038345Y023040D02*
X036045Y023040D01*
X035928Y023138D02*
X038443Y023138D01*
X038410Y023237D02*
X035942Y023237D01*
X036050Y023335D02*
X036910Y023335D01*
X037000Y023245D02*
X036745Y023500D01*
X036745Y023860D01*
X037000Y024115D01*
X037360Y024115D01*
X037615Y023860D01*
X037615Y023500D01*
X037360Y023245D01*
X037000Y023245D01*
X036811Y023434D02*
X036123Y023434D01*
X036164Y023532D02*
X036745Y023532D01*
X036745Y023631D02*
X036184Y023631D01*
X036184Y023729D02*
X036745Y023729D01*
X036745Y023828D02*
X036168Y023828D01*
X036127Y023926D02*
X036811Y023926D01*
X036909Y024025D02*
X036060Y024025D01*
X035961Y024123D02*
X038428Y024123D01*
X038425Y024222D02*
X035906Y024222D01*
X036035Y024320D02*
X038326Y024320D01*
X038228Y024419D02*
X036117Y024419D01*
X036158Y024517D02*
X038183Y024517D01*
X038183Y024616D02*
X036184Y024616D01*
X036184Y024714D02*
X038183Y024714D01*
X038183Y024813D02*
X036174Y024813D01*
X036133Y024911D02*
X038216Y024911D01*
X038315Y025010D02*
X036075Y025010D01*
X035976Y025108D02*
X038413Y025108D01*
X038440Y025207D02*
X035870Y025207D01*
X036020Y025305D02*
X038341Y025305D01*
X038243Y025404D02*
X036111Y025404D01*
X036152Y025502D02*
X038183Y025502D01*
X038183Y025601D02*
X036184Y025601D01*
X036184Y025699D02*
X038183Y025699D01*
X038183Y025798D02*
X036180Y025798D01*
X036140Y025896D02*
X038201Y025896D01*
X038300Y025995D02*
X036090Y025995D01*
X035991Y026093D02*
X038398Y026093D01*
X038473Y026192D02*
X035833Y026192D01*
X036005Y026290D02*
X038374Y026290D01*
X038276Y026389D02*
X036104Y026389D01*
X036145Y026487D02*
X038181Y026487D01*
X038181Y026586D02*
X036184Y026586D01*
X036184Y026684D02*
X038181Y026684D01*
X038181Y026783D02*
X036184Y026783D01*
X036146Y026881D02*
X038181Y026881D01*
X038264Y026980D02*
X036105Y026980D01*
X036006Y027078D02*
X038362Y027078D01*
X038461Y027177D02*
X035835Y027177D01*
X035990Y027275D02*
X038389Y027275D01*
X038291Y027374D02*
X036089Y027374D01*
X036139Y027472D02*
X038192Y027472D01*
X038181Y027571D02*
X036180Y027571D01*
X036184Y027669D02*
X038181Y027669D01*
X038181Y027768D02*
X036184Y027768D01*
X036152Y027866D02*
X038181Y027866D01*
X038249Y027965D02*
X036111Y027965D01*
X036021Y028063D02*
X038347Y028063D01*
X038446Y028162D02*
X035871Y028162D01*
X035975Y028260D02*
X038404Y028260D01*
X038306Y028359D02*
X036074Y028359D01*
X036133Y028457D02*
X038207Y028457D01*
X038181Y028556D02*
X036174Y028556D01*
X036184Y028654D02*
X038181Y028654D01*
X038181Y028753D02*
X036184Y028753D01*
X036158Y028851D02*
X038181Y028851D01*
X038234Y028950D02*
X036117Y028950D01*
X036036Y029048D02*
X038332Y029048D01*
X038431Y029147D02*
X035907Y029147D01*
X035960Y029245D02*
X038419Y029245D01*
X038321Y029344D02*
X036059Y029344D01*
X036127Y029442D02*
X038222Y029442D01*
X038181Y029541D02*
X036168Y029541D01*
X036184Y029639D02*
X038181Y029639D01*
X038181Y029738D02*
X036184Y029738D01*
X036164Y029836D02*
X036909Y029836D01*
X037000Y029745D02*
X036745Y030000D01*
X036745Y030147D01*
X037147Y030147D01*
X037147Y030213D01*
X037147Y030615D01*
X037000Y030615D01*
X036745Y030360D01*
X036745Y030213D01*
X037147Y030213D01*
X037213Y030213D01*
X037213Y030615D01*
X037360Y030615D01*
X037615Y030360D01*
X037615Y030213D01*
X037213Y030213D01*
X037213Y030147D01*
X037615Y030147D01*
X037615Y030000D01*
X037360Y029745D01*
X037213Y029745D01*
X037213Y030147D01*
X037147Y030147D01*
X037147Y029745D01*
X037000Y029745D01*
X037147Y029836D02*
X037213Y029836D01*
X037213Y029935D02*
X037147Y029935D01*
X037147Y030033D02*
X037213Y030033D01*
X037213Y030132D02*
X037147Y030132D01*
X037147Y030230D02*
X037213Y030230D01*
X037213Y030329D02*
X037147Y030329D01*
X037147Y030427D02*
X037213Y030427D01*
X037213Y030526D02*
X037147Y030526D01*
X036910Y030526D02*
X036161Y030526D01*
X036184Y030624D02*
X038181Y030624D01*
X038181Y030526D02*
X037450Y030526D01*
X037548Y030427D02*
X038237Y030427D01*
X038336Y030329D02*
X037615Y030329D01*
X037615Y030230D02*
X038434Y030230D01*
X038416Y030132D02*
X037615Y030132D01*
X037615Y030033D02*
X038317Y030033D01*
X038219Y029935D02*
X037550Y029935D01*
X037451Y029836D02*
X038181Y029836D01*
X038181Y030723D02*
X036184Y030723D01*
X036171Y030821D02*
X038181Y030821D01*
X038204Y030920D02*
X036130Y030920D01*
X036066Y031018D02*
X038302Y031018D01*
X038401Y031117D02*
X035968Y031117D01*
X035890Y031215D02*
X038449Y031215D01*
X038351Y031314D02*
X036029Y031314D01*
X036114Y031412D02*
X038252Y031412D01*
X038181Y031511D02*
X036155Y031511D01*
X036184Y031609D02*
X038181Y031609D01*
X038181Y031708D02*
X036184Y031708D01*
X036177Y031806D02*
X038181Y031806D01*
X038189Y031905D02*
X036136Y031905D01*
X036081Y032003D02*
X038287Y032003D01*
X038386Y032102D02*
X035983Y032102D01*
X036132Y032200D02*
X038464Y032200D01*
X038366Y032299D02*
X036184Y032299D01*
X036184Y032397D02*
X038267Y032397D01*
X038181Y032496D02*
X036184Y032496D01*
X036184Y032594D02*
X038181Y032594D01*
X038181Y032693D02*
X036184Y032693D01*
X036184Y032791D02*
X036954Y032791D01*
X037000Y032745D02*
X036745Y033000D01*
X036745Y033360D01*
X037000Y033615D01*
X037360Y033615D01*
X037615Y033360D01*
X037615Y033000D01*
X037360Y032745D01*
X037000Y032745D01*
X036855Y032890D02*
X036184Y032890D01*
X036184Y032988D02*
X036757Y032988D01*
X036745Y033087D02*
X036184Y033087D01*
X036116Y033185D02*
X036745Y033185D01*
X036745Y033284D02*
X022404Y033284D01*
X022445Y033382D02*
X036767Y033382D01*
X036865Y033481D02*
X022480Y033481D01*
X022480Y033579D02*
X036964Y033579D01*
X037396Y033579D02*
X038181Y033579D01*
X038184Y033481D02*
X037495Y033481D01*
X037593Y033382D02*
X038282Y033382D01*
X038381Y033284D02*
X037615Y033284D01*
X037615Y033185D02*
X038469Y033185D01*
X038371Y033087D02*
X037615Y033087D01*
X037603Y032988D02*
X038272Y032988D01*
X038181Y032890D02*
X037505Y032890D01*
X037406Y032791D02*
X038181Y032791D01*
X038181Y033678D02*
X022478Y033678D01*
X022437Y033776D02*
X038181Y033776D01*
X038181Y033875D02*
X022391Y033875D01*
X022292Y033973D02*
X038257Y033973D01*
X035180Y036239D02*
X053225Y036239D01*
X053225Y036337D02*
X035180Y036337D01*
X035180Y036436D02*
X053252Y036436D01*
X053293Y036534D02*
X035180Y036534D01*
X035180Y036633D02*
X053334Y036633D01*
X053381Y036731D02*
X035180Y036731D01*
X035180Y036830D02*
X053479Y036830D01*
X053578Y036928D02*
X035180Y036928D01*
X035180Y037027D02*
X053728Y037027D01*
X053966Y037125D02*
X035180Y037125D01*
X035180Y037224D02*
X055922Y037224D01*
X055922Y037322D02*
X035180Y037322D01*
X035180Y037421D02*
X055922Y037421D01*
X055922Y037519D02*
X035180Y037519D01*
X035180Y037618D02*
X055922Y037618D01*
X055922Y037716D02*
X035180Y037716D01*
X035180Y037815D02*
X055922Y037815D01*
X055922Y037913D02*
X035180Y037913D01*
X025180Y037125D02*
X022894Y037125D01*
X022870Y037135D02*
X022490Y037135D01*
X022139Y036990D01*
X021870Y036721D01*
X021725Y036370D01*
X021725Y035990D01*
X021870Y035639D01*
X022139Y035370D01*
X022490Y035225D01*
X022870Y035225D01*
X023221Y035370D01*
X023490Y035639D01*
X023635Y035990D01*
X023635Y036370D01*
X023490Y036721D01*
X023221Y036990D01*
X022870Y037135D01*
X023132Y037027D02*
X025180Y037027D01*
X025180Y036928D02*
X023282Y036928D01*
X023381Y036830D02*
X025180Y036830D01*
X025180Y036731D02*
X023479Y036731D01*
X023526Y036633D02*
X025180Y036633D01*
X025180Y036534D02*
X023567Y036534D01*
X023608Y036436D02*
X025180Y036436D01*
X025180Y036337D02*
X023635Y036337D01*
X023635Y036239D02*
X025180Y036239D01*
X025180Y036140D02*
X023635Y036140D01*
X023635Y036042D02*
X025180Y036042D01*
X025180Y035943D02*
X023616Y035943D01*
X023575Y035845D02*
X025180Y035845D01*
X025180Y035746D02*
X023534Y035746D01*
X023493Y035648D02*
X025180Y035648D01*
X025180Y035549D02*
X023400Y035549D01*
X023301Y035451D02*
X025180Y035451D01*
X025180Y035352D02*
X023177Y035352D01*
X022939Y035254D02*
X025180Y035254D01*
X022421Y035254D02*
X002939Y035254D01*
X003177Y035352D02*
X022183Y035352D01*
X022059Y035451D02*
X003301Y035451D01*
X003400Y035549D02*
X021960Y035549D01*
X021867Y035648D02*
X003493Y035648D01*
X003534Y035746D02*
X021826Y035746D01*
X021785Y035845D02*
X003575Y035845D01*
X003616Y035943D02*
X021744Y035943D01*
X021725Y036042D02*
X003635Y036042D01*
X003635Y036140D02*
X021725Y036140D01*
X021725Y036239D02*
X003635Y036239D01*
X003635Y036337D02*
X021725Y036337D01*
X021752Y036436D02*
X003608Y036436D01*
X003567Y036534D02*
X021793Y036534D01*
X021834Y036633D02*
X003526Y036633D01*
X003479Y036731D02*
X021881Y036731D01*
X021979Y036830D02*
X003381Y036830D01*
X003282Y036928D02*
X022078Y036928D01*
X022228Y037027D02*
X003132Y037027D01*
X002894Y037125D02*
X022466Y037125D01*
X021628Y033973D02*
X019732Y033973D01*
X019831Y033875D02*
X021529Y033875D01*
X021483Y033776D02*
X019877Y033776D01*
X019918Y033678D02*
X021442Y033678D01*
X021440Y033579D02*
X019920Y033579D01*
X019920Y033481D02*
X021440Y033481D01*
X021475Y033382D02*
X019885Y033382D01*
X019844Y033284D02*
X021516Y033284D01*
X021610Y033185D02*
X019750Y033185D01*
X019592Y033087D02*
X021768Y033087D01*
X024373Y031117D02*
X000930Y031117D01*
X000930Y031018D02*
X024274Y031018D01*
X024208Y030920D02*
X000930Y030920D01*
X000930Y030821D02*
X009029Y030821D01*
X009051Y030830D02*
X008812Y030731D01*
X008629Y030548D01*
X008530Y030309D01*
X008530Y030051D01*
X008629Y029812D01*
X008812Y029629D01*
X009051Y029530D01*
X009309Y029530D01*
X009548Y029629D01*
X009731Y029812D01*
X009830Y030051D01*
X009830Y030309D01*
X009731Y030548D01*
X009548Y030731D01*
X009309Y030830D01*
X009051Y030830D01*
X008803Y030723D02*
X000930Y030723D01*
X000930Y030624D02*
X008705Y030624D01*
X008620Y030526D02*
X000930Y030526D01*
X000930Y030427D02*
X008579Y030427D01*
X008538Y030329D02*
X000930Y030329D01*
X000930Y030230D02*
X008530Y030230D01*
X008530Y030132D02*
X000930Y030132D01*
X000930Y030033D02*
X008537Y030033D01*
X008578Y029935D02*
X000930Y029935D01*
X000930Y029836D02*
X008619Y029836D01*
X008703Y029738D02*
X000930Y029738D01*
X000930Y029639D02*
X005018Y029639D01*
X004993Y029631D02*
X004925Y029596D01*
X004863Y029551D01*
X004809Y029497D01*
X004764Y029435D01*
X004729Y029367D01*
X004705Y029294D01*
X004695Y029230D01*
X005130Y029230D01*
X005130Y029665D01*
X005066Y029655D01*
X004993Y029631D01*
X005130Y029639D02*
X005230Y029639D01*
X005230Y029665D02*
X005294Y029655D01*
X005367Y029631D01*
X005435Y029596D01*
X005497Y029551D01*
X005551Y029497D01*
X005596Y029435D01*
X005631Y029367D01*
X005655Y029294D01*
X005665Y029230D01*
X005230Y029230D01*
X005230Y029130D01*
X005665Y029130D01*
X005655Y029066D01*
X005631Y028993D01*
X005596Y028925D01*
X005551Y028863D01*
X005497Y028809D01*
X005435Y028764D01*
X005367Y028729D01*
X005294Y028705D01*
X005230Y028695D01*
X005230Y029130D01*
X005130Y029130D01*
X005130Y028695D01*
X005066Y028705D01*
X004993Y028729D01*
X004925Y028764D01*
X004863Y028809D01*
X004809Y028863D01*
X004764Y028925D01*
X004729Y028993D01*
X004705Y029066D01*
X004695Y029130D01*
X005130Y029130D01*
X005130Y029230D01*
X005230Y029230D01*
X005230Y029665D01*
X005342Y029639D02*
X008017Y029639D01*
X008083Y029667D02*
X007904Y029592D01*
X007768Y029456D01*
X007693Y029277D01*
X007693Y029083D01*
X007768Y028904D01*
X007904Y028768D01*
X008083Y028693D01*
X008277Y028693D01*
X008456Y028768D01*
X008592Y028904D01*
X008667Y029083D01*
X008667Y029277D01*
X008592Y029456D01*
X008456Y029592D01*
X008277Y029667D01*
X008083Y029667D01*
X008343Y029639D02*
X008802Y029639D01*
X009025Y029541D02*
X008507Y029541D01*
X008598Y029442D02*
X010777Y029442D01*
X010710Y029375D02*
X010710Y028985D01*
X010985Y028710D01*
X011375Y028710D01*
X011650Y028985D01*
X011650Y029375D01*
X011375Y029650D01*
X010985Y029650D01*
X010710Y029375D01*
X010710Y029344D02*
X008639Y029344D01*
X008667Y029245D02*
X010710Y029245D01*
X010710Y029147D02*
X008667Y029147D01*
X008652Y029048D02*
X010710Y029048D01*
X010746Y028950D02*
X008611Y028950D01*
X008539Y028851D02*
X010844Y028851D01*
X010943Y028753D02*
X008419Y028753D01*
X007941Y028753D02*
X005413Y028753D01*
X005539Y028851D02*
X007821Y028851D01*
X007749Y028950D02*
X005609Y028950D01*
X005649Y029048D02*
X007708Y029048D01*
X007693Y029147D02*
X005230Y029147D01*
X005230Y029245D02*
X005130Y029245D01*
X005130Y029147D02*
X000930Y029147D01*
X000930Y029245D02*
X004698Y029245D01*
X004722Y029344D02*
X000930Y029344D01*
X000930Y029442D02*
X004769Y029442D01*
X004853Y029541D02*
X000930Y029541D01*
X000930Y029048D02*
X004711Y029048D01*
X004751Y028950D02*
X000930Y028950D01*
X000930Y028851D02*
X004821Y028851D01*
X004947Y028753D02*
X000930Y028753D01*
X000930Y028654D02*
X024152Y028654D01*
X024152Y028753D02*
X020417Y028753D01*
X020375Y028710D02*
X020650Y028985D01*
X020650Y029375D01*
X020375Y029650D01*
X019985Y029650D01*
X019710Y029375D01*
X019710Y028985D01*
X019985Y028710D01*
X020375Y028710D01*
X020516Y028851D02*
X024180Y028851D01*
X024221Y028950D02*
X020614Y028950D01*
X020650Y029048D02*
X024304Y029048D01*
X024438Y029147D02*
X020650Y029147D01*
X020650Y029245D02*
X024373Y029245D01*
X024274Y029344D02*
X020650Y029344D01*
X020583Y029442D02*
X024208Y029442D01*
X024167Y029541D02*
X020484Y029541D01*
X020386Y029639D02*
X024152Y029639D01*
X024152Y029738D02*
X009657Y029738D01*
X009741Y029836D02*
X024174Y029836D01*
X024215Y029935D02*
X009782Y029935D01*
X009823Y030033D02*
X024289Y030033D01*
X024402Y030132D02*
X009830Y030132D01*
X009830Y030230D02*
X024401Y030230D01*
X024289Y030329D02*
X009822Y030329D01*
X009781Y030427D02*
X024214Y030427D01*
X024174Y030526D02*
X009740Y030526D01*
X009655Y030624D02*
X024152Y030624D01*
X024152Y030723D02*
X009557Y030723D01*
X009331Y030821D02*
X024168Y030821D01*
X024161Y028556D02*
X000930Y028556D01*
X000930Y028457D02*
X005956Y028457D01*
X005983Y028469D02*
X005818Y028400D01*
X005691Y028273D01*
X005623Y028108D01*
X005623Y027929D01*
X005691Y027764D01*
X005818Y027637D01*
X005983Y027569D01*
X006762Y027569D01*
X006928Y027637D01*
X007054Y027764D01*
X007123Y027929D01*
X007123Y028108D01*
X007054Y028273D01*
X006928Y028400D01*
X006762Y028469D01*
X005983Y028469D01*
X005777Y028359D02*
X000930Y028359D01*
X000930Y028260D02*
X005686Y028260D01*
X005645Y028162D02*
X000930Y028162D01*
X000930Y028063D02*
X005623Y028063D01*
X005623Y027965D02*
X000930Y027965D01*
X000930Y027866D02*
X005649Y027866D01*
X005690Y027768D02*
X000930Y027768D01*
X000930Y027669D02*
X005786Y027669D01*
X005979Y027571D02*
X004832Y027571D01*
X004809Y027580D02*
X004551Y027580D01*
X004312Y027481D01*
X004129Y027298D01*
X004030Y027059D01*
X004030Y026801D01*
X004129Y026562D01*
X004312Y026379D01*
X004551Y026280D01*
X004809Y026280D01*
X005048Y026379D01*
X005231Y026562D01*
X005330Y026801D01*
X005330Y027059D01*
X005231Y027298D01*
X005048Y027481D01*
X004809Y027580D01*
X005057Y027472D02*
X007172Y027472D01*
X007158Y027439D02*
X007158Y027260D01*
X007227Y027094D01*
X007353Y026968D01*
X007519Y026899D01*
X008298Y026899D01*
X008463Y026968D01*
X008590Y027094D01*
X008658Y027260D01*
X008658Y027439D01*
X008590Y027604D01*
X008463Y027731D01*
X008298Y027799D01*
X007519Y027799D01*
X007353Y027731D01*
X007227Y027604D01*
X007158Y027439D01*
X007158Y027374D02*
X005156Y027374D01*
X005241Y027275D02*
X007158Y027275D01*
X007193Y027177D02*
X005281Y027177D01*
X005322Y027078D02*
X005863Y027078D01*
X005837Y027065D02*
X005780Y027023D01*
X005730Y026973D01*
X005688Y026916D01*
X005656Y026853D01*
X005634Y026785D01*
X005624Y026720D01*
X006333Y026720D01*
X006333Y027130D01*
X006037Y027130D01*
X005968Y027119D01*
X005900Y027097D01*
X005837Y027065D01*
X005736Y026980D02*
X005330Y026980D01*
X005330Y026881D02*
X005670Y026881D01*
X005634Y026783D02*
X005322Y026783D01*
X005282Y026684D02*
X006333Y026684D01*
X006333Y026720D02*
X006333Y026640D01*
X006413Y026640D01*
X006413Y026720D01*
X007122Y026720D01*
X007112Y026785D01*
X007090Y026853D01*
X007058Y026916D01*
X007016Y026973D01*
X006966Y027023D01*
X006909Y027065D01*
X006846Y027097D01*
X006778Y027119D01*
X006708Y027130D01*
X006413Y027130D01*
X006413Y026720D01*
X006333Y026720D01*
X006333Y026783D02*
X006413Y026783D01*
X006413Y026881D02*
X006333Y026881D01*
X006333Y026980D02*
X006413Y026980D01*
X006413Y027078D02*
X006333Y027078D01*
X006413Y026684D02*
X017012Y026684D01*
X017075Y026710D02*
X016880Y026629D01*
X016731Y026480D01*
X016650Y026285D01*
X016650Y026075D01*
X016731Y025880D01*
X016880Y025731D01*
X017075Y025650D01*
X017285Y025650D01*
X017480Y025731D01*
X017629Y025880D01*
X017710Y026075D01*
X017710Y026285D01*
X017629Y026480D01*
X017480Y026629D01*
X017285Y026710D01*
X017075Y026710D01*
X016836Y026586D02*
X007114Y026586D01*
X007112Y026575D02*
X007090Y026507D01*
X007058Y026444D01*
X007016Y026387D01*
X006966Y026337D01*
X006909Y026295D01*
X006846Y026263D01*
X006778Y026241D01*
X006708Y026230D01*
X006413Y026230D01*
X006413Y026640D01*
X007122Y026640D01*
X007112Y026575D01*
X007080Y026487D02*
X016738Y026487D01*
X016693Y026389D02*
X008467Y026389D01*
X008463Y026392D02*
X008298Y026461D01*
X007519Y026461D01*
X007353Y026392D01*
X007227Y026266D01*
X007158Y026100D01*
X007158Y025921D01*
X007227Y025756D01*
X007353Y025629D01*
X007519Y025561D01*
X008298Y025561D01*
X008463Y025629D01*
X008590Y025756D01*
X008658Y025921D01*
X008658Y026100D01*
X008590Y026266D01*
X008463Y026392D01*
X008565Y026290D02*
X016652Y026290D01*
X016650Y026192D02*
X012806Y026192D01*
X012789Y026199D02*
X012571Y026199D01*
X012368Y026115D01*
X012214Y025960D01*
X012130Y025758D01*
X012130Y025539D01*
X012214Y025337D01*
X012368Y025182D01*
X012571Y025099D01*
X012789Y025099D01*
X012992Y025182D01*
X013146Y025337D01*
X013230Y025539D01*
X013230Y025758D01*
X013146Y025960D01*
X012992Y026115D01*
X012789Y026199D01*
X012554Y026192D02*
X008621Y026192D01*
X008658Y026093D02*
X012347Y026093D01*
X012248Y025995D02*
X008658Y025995D01*
X008648Y025896D02*
X012187Y025896D01*
X012146Y025798D02*
X008607Y025798D01*
X008533Y025699D02*
X012130Y025699D01*
X012130Y025601D02*
X008394Y025601D01*
X007423Y025601D02*
X007041Y025601D01*
X007058Y025577D02*
X007016Y025635D01*
X006966Y025685D01*
X006909Y025726D01*
X006846Y025758D01*
X006778Y025780D01*
X006708Y025791D01*
X006413Y025791D01*
X006413Y025381D01*
X007122Y025381D01*
X007112Y025447D01*
X007090Y025514D01*
X007058Y025577D01*
X007094Y025502D02*
X012145Y025502D01*
X012186Y025404D02*
X007119Y025404D01*
X007122Y025301D02*
X006413Y025301D01*
X006413Y024891D01*
X006708Y024891D01*
X006778Y024902D01*
X006846Y024924D01*
X006909Y024957D01*
X006966Y024998D01*
X007016Y025048D01*
X007058Y025106D01*
X007090Y025169D01*
X007112Y025236D01*
X007122Y025301D01*
X007102Y025207D02*
X012344Y025207D01*
X012246Y025305D02*
X006413Y025305D01*
X006413Y025301D02*
X006413Y025381D01*
X006333Y025381D01*
X006333Y025301D01*
X006413Y025301D01*
X006333Y025301D02*
X006333Y024891D01*
X006037Y024891D01*
X005968Y024902D01*
X005900Y024924D01*
X005837Y024957D01*
X005780Y024998D01*
X005730Y025048D01*
X005688Y025106D01*
X005656Y025169D01*
X005634Y025236D01*
X005624Y025301D01*
X006333Y025301D01*
X006333Y025305D02*
X000930Y025305D01*
X000930Y025207D02*
X005644Y025207D01*
X005687Y025108D02*
X000930Y025108D01*
X000930Y025010D02*
X005768Y025010D01*
X005941Y024911D02*
X000930Y024911D01*
X000930Y024813D02*
X018194Y024813D01*
X018175Y024767D02*
X018175Y024593D01*
X018241Y024434D01*
X018364Y024311D01*
X018523Y024245D01*
X019267Y024245D01*
X019426Y024311D01*
X019549Y024434D01*
X019615Y024593D01*
X019615Y024767D01*
X019549Y024926D01*
X019426Y025049D01*
X019267Y025115D01*
X018523Y025115D01*
X018364Y025049D01*
X018241Y024926D01*
X018175Y024767D01*
X018175Y024714D02*
X000930Y024714D01*
X000930Y024616D02*
X018175Y024616D01*
X018207Y024517D02*
X000930Y024517D01*
X000930Y024419D02*
X018256Y024419D01*
X018355Y024320D02*
X000930Y024320D01*
X000930Y024222D02*
X012209Y024222D01*
X012218Y024230D02*
X012130Y024142D01*
X012130Y023218D01*
X012218Y023130D01*
X013142Y023130D01*
X013230Y023218D01*
X013230Y024142D01*
X013142Y024230D01*
X012218Y024230D01*
X012130Y024123D02*
X000930Y024123D01*
X000930Y024025D02*
X012130Y024025D01*
X012130Y023926D02*
X000930Y023926D01*
X000930Y023828D02*
X012130Y023828D01*
X012130Y023729D02*
X000930Y023729D01*
X000930Y023631D02*
X012130Y023631D01*
X012130Y023532D02*
X000930Y023532D01*
X000930Y023434D02*
X012130Y023434D01*
X012130Y023335D02*
X000930Y023335D01*
X000930Y023237D02*
X012130Y023237D01*
X012210Y023138D02*
X000930Y023138D01*
X000930Y023040D02*
X024296Y023040D01*
X024217Y022941D02*
X000930Y022941D01*
X000930Y022843D02*
X024176Y022843D01*
X024152Y022744D02*
X000930Y022744D01*
X000930Y022646D02*
X016919Y022646D01*
X016880Y022629D02*
X016731Y022480D01*
X016650Y022285D01*
X016650Y022075D01*
X016731Y021880D01*
X016880Y021731D01*
X017075Y021650D01*
X017285Y021650D01*
X017480Y021731D01*
X017629Y021880D01*
X017710Y022075D01*
X017710Y022285D01*
X017629Y022480D01*
X017480Y022629D01*
X017285Y022710D01*
X017075Y022710D01*
X016880Y022629D01*
X016798Y022547D02*
X015928Y022547D01*
X015860Y022615D02*
X016115Y022360D01*
X016115Y022000D01*
X015860Y021745D01*
X015500Y021745D01*
X015245Y022000D01*
X015245Y022360D01*
X015500Y022615D01*
X015860Y022615D01*
X016027Y022449D02*
X016718Y022449D01*
X016677Y022350D02*
X016115Y022350D01*
X016115Y022252D02*
X016650Y022252D01*
X016650Y022153D02*
X016115Y022153D01*
X016115Y022055D02*
X016658Y022055D01*
X016699Y021956D02*
X016071Y021956D01*
X015973Y021858D02*
X016753Y021858D01*
X016851Y021759D02*
X015874Y021759D01*
X015486Y021759D02*
X007190Y021759D01*
X007288Y021661D02*
X017049Y021661D01*
X017311Y021661D02*
X024152Y021661D01*
X024152Y021759D02*
X017509Y021759D01*
X017607Y021858D02*
X024183Y021858D01*
X024223Y021956D02*
X017661Y021956D01*
X017702Y022055D02*
X024311Y022055D01*
X024454Y022153D02*
X017710Y022153D01*
X017710Y022252D02*
X024366Y022252D01*
X024268Y022350D02*
X017683Y022350D01*
X017642Y022449D02*
X024206Y022449D01*
X024165Y022547D02*
X017562Y022547D01*
X017441Y022646D02*
X024152Y022646D01*
X024418Y023138D02*
X013150Y023138D01*
X013230Y023237D02*
X024386Y023237D01*
X024283Y023335D02*
X022450Y023335D01*
X022360Y023245D02*
X022615Y023500D01*
X022615Y023860D01*
X022360Y024115D01*
X022000Y024115D01*
X021745Y023860D01*
X021745Y023500D01*
X022000Y023245D01*
X022360Y023245D01*
X022549Y023434D02*
X024212Y023434D01*
X024171Y023532D02*
X022615Y023532D01*
X022615Y023631D02*
X024152Y023631D01*
X024152Y023729D02*
X022615Y023729D01*
X022615Y023828D02*
X024170Y023828D01*
X024211Y023926D02*
X022549Y023926D01*
X022451Y024025D02*
X024281Y024025D01*
X024381Y024123D02*
X013230Y024123D01*
X013230Y024025D02*
X021909Y024025D01*
X021811Y023926D02*
X013230Y023926D01*
X013230Y023828D02*
X021745Y023828D01*
X021745Y023729D02*
X013230Y023729D01*
X013230Y023631D02*
X021745Y023631D01*
X021745Y023532D02*
X013230Y023532D01*
X013230Y023434D02*
X021811Y023434D01*
X021910Y023335D02*
X013230Y023335D01*
X013151Y024222D02*
X024422Y024222D01*
X024298Y024320D02*
X023005Y024320D01*
X022996Y024311D02*
X023119Y024434D01*
X023185Y024593D01*
X023185Y024767D01*
X023119Y024926D01*
X022996Y025049D01*
X022837Y025115D01*
X022093Y025115D01*
X021934Y025049D01*
X021811Y024926D01*
X021745Y024767D01*
X021745Y024593D01*
X021811Y024434D01*
X021934Y024311D01*
X022093Y024245D01*
X022837Y024245D01*
X022996Y024311D01*
X023104Y024419D02*
X024218Y024419D01*
X024177Y024517D02*
X023153Y024517D01*
X023185Y024616D02*
X024152Y024616D01*
X024152Y024714D02*
X023185Y024714D01*
X023166Y024813D02*
X024164Y024813D01*
X024205Y024911D02*
X023125Y024911D01*
X023036Y025010D02*
X024266Y025010D01*
X024364Y025108D02*
X022853Y025108D01*
X022852Y025256D02*
X022917Y025277D01*
X022978Y025308D01*
X023033Y025348D01*
X023082Y025397D01*
X023122Y025452D01*
X023153Y025513D01*
X023174Y025578D01*
X023185Y025646D01*
X023185Y025647D01*
X022213Y025647D01*
X022213Y025713D01*
X022147Y025713D01*
X022147Y026115D01*
X022146Y026115D01*
X022078Y026104D01*
X022013Y026083D01*
X021952Y026052D01*
X021897Y026012D01*
X021848Y025963D01*
X021808Y025908D01*
X021777Y025847D01*
X021756Y025782D01*
X021745Y025714D01*
X021745Y025713D01*
X022147Y025713D01*
X022147Y025647D01*
X022213Y025647D01*
X022213Y025245D01*
X022784Y025245D01*
X022852Y025256D01*
X022972Y025305D02*
X024313Y025305D01*
X024224Y025404D02*
X023087Y025404D01*
X023148Y025502D02*
X024183Y025502D01*
X024152Y025601D02*
X023178Y025601D01*
X023185Y025713D02*
X022213Y025713D01*
X022213Y026115D01*
X022784Y026115D01*
X022852Y026104D01*
X022917Y026083D01*
X022978Y026052D01*
X023033Y026012D01*
X023082Y025963D01*
X023122Y025908D01*
X023153Y025847D01*
X023174Y025782D01*
X023185Y025714D01*
X023185Y025713D01*
X023169Y025798D02*
X024158Y025798D01*
X024152Y025699D02*
X022213Y025699D01*
X022147Y025699D02*
X019615Y025699D01*
X019615Y025767D02*
X019549Y025926D01*
X019426Y026049D01*
X019267Y026115D01*
X018523Y026115D01*
X018364Y026049D01*
X018241Y025926D01*
X018175Y025767D01*
X018175Y025593D01*
X018241Y025434D01*
X018364Y025311D01*
X018523Y025245D01*
X019267Y025245D01*
X019426Y025311D01*
X019549Y025434D01*
X019615Y025593D01*
X019615Y025767D01*
X019602Y025798D02*
X021761Y025798D01*
X021802Y025896D02*
X019561Y025896D01*
X019481Y025995D02*
X021879Y025995D01*
X022044Y026093D02*
X019319Y026093D01*
X019267Y026245D02*
X019426Y026311D01*
X019549Y026434D01*
X019615Y026593D01*
X019615Y026767D01*
X019549Y026926D01*
X019426Y027049D01*
X019267Y027115D01*
X018523Y027115D01*
X018364Y027049D01*
X018241Y026926D01*
X018175Y026767D01*
X018175Y026593D01*
X018241Y026434D01*
X018364Y026311D01*
X018523Y026245D01*
X019267Y026245D01*
X019375Y026290D02*
X021985Y026290D01*
X021934Y026311D02*
X022093Y026245D01*
X022837Y026245D01*
X022996Y026311D01*
X023119Y026434D01*
X023185Y026593D01*
X023185Y026767D01*
X023119Y026926D01*
X022996Y027049D01*
X022837Y027115D01*
X022093Y027115D01*
X021934Y027049D01*
X021811Y026926D01*
X021745Y026767D01*
X021745Y026593D01*
X021811Y026434D01*
X021934Y026311D01*
X021856Y026389D02*
X019504Y026389D01*
X019571Y026487D02*
X021789Y026487D01*
X021748Y026586D02*
X019612Y026586D01*
X019615Y026684D02*
X021745Y026684D01*
X021752Y026783D02*
X019608Y026783D01*
X019568Y026881D02*
X021792Y026881D01*
X021864Y026980D02*
X019496Y026980D01*
X019356Y027078D02*
X022004Y027078D01*
X022926Y027078D02*
X024334Y027078D01*
X024236Y026980D02*
X023066Y026980D01*
X023138Y026881D02*
X024192Y026881D01*
X024152Y026783D02*
X023178Y026783D01*
X023185Y026684D02*
X024152Y026684D01*
X024152Y026586D02*
X023182Y026586D01*
X023141Y026487D02*
X024190Y026487D01*
X024230Y026389D02*
X023074Y026389D01*
X022945Y026290D02*
X024328Y026290D01*
X024494Y026192D02*
X017710Y026192D01*
X017708Y026290D02*
X018415Y026290D01*
X018286Y026389D02*
X017667Y026389D01*
X017622Y026487D02*
X018219Y026487D01*
X018178Y026586D02*
X017524Y026586D01*
X017348Y026684D02*
X018175Y026684D01*
X018182Y026783D02*
X015898Y026783D01*
X015860Y026745D02*
X016115Y027000D01*
X016115Y027360D01*
X015860Y027615D01*
X015500Y027615D01*
X015245Y027360D01*
X015245Y027000D01*
X015500Y026745D01*
X015860Y026745D01*
X015996Y026881D02*
X018222Y026881D01*
X018294Y026980D02*
X016095Y026980D01*
X016115Y027078D02*
X018434Y027078D01*
X018471Y026093D02*
X017710Y026093D01*
X017677Y025995D02*
X018309Y025995D01*
X018229Y025896D02*
X017636Y025896D01*
X017547Y025798D02*
X018188Y025798D01*
X018175Y025699D02*
X017404Y025699D01*
X016956Y025699D02*
X013230Y025699D01*
X013230Y025601D02*
X018175Y025601D01*
X018213Y025502D02*
X013215Y025502D01*
X013174Y025404D02*
X018271Y025404D01*
X018378Y025305D02*
X013114Y025305D01*
X013016Y025207D02*
X024458Y025207D01*
X024199Y025896D02*
X023128Y025896D01*
X023051Y025995D02*
X024251Y025995D01*
X024349Y026093D02*
X022886Y026093D01*
X022213Y026093D02*
X022147Y026093D01*
X022147Y025995D02*
X022213Y025995D01*
X022213Y025896D02*
X022147Y025896D01*
X022147Y025798D02*
X022213Y025798D01*
X022147Y025647D02*
X021745Y025647D01*
X021745Y025646D01*
X021756Y025578D01*
X021777Y025513D01*
X021808Y025452D01*
X021848Y025397D01*
X021897Y025348D01*
X021952Y025308D01*
X022013Y025277D01*
X022078Y025256D01*
X022146Y025245D01*
X022147Y025245D01*
X022147Y025647D01*
X022147Y025601D02*
X022213Y025601D01*
X022213Y025502D02*
X022147Y025502D01*
X022147Y025404D02*
X022213Y025404D01*
X022213Y025305D02*
X022147Y025305D01*
X021958Y025305D02*
X019412Y025305D01*
X019519Y025404D02*
X021843Y025404D01*
X021782Y025502D02*
X019577Y025502D01*
X019615Y025601D02*
X021752Y025601D01*
X022077Y025108D02*
X019283Y025108D01*
X019466Y025010D02*
X021894Y025010D01*
X021805Y024911D02*
X019555Y024911D01*
X019596Y024813D02*
X021764Y024813D01*
X021745Y024714D02*
X019615Y024714D01*
X019615Y024616D02*
X021745Y024616D01*
X021777Y024517D02*
X019583Y024517D01*
X019534Y024419D02*
X021826Y024419D01*
X021925Y024320D02*
X019435Y024320D01*
X018507Y025108D02*
X012812Y025108D01*
X012548Y025108D02*
X007059Y025108D01*
X006977Y025010D02*
X018324Y025010D01*
X018235Y024911D02*
X006805Y024911D01*
X006413Y024911D02*
X006333Y024911D01*
X006333Y025010D02*
X006413Y025010D01*
X006413Y025108D02*
X006333Y025108D01*
X006333Y025207D02*
X006413Y025207D01*
X006333Y025381D02*
X005624Y025381D01*
X005634Y025447D01*
X005656Y025514D01*
X005688Y025577D01*
X005730Y025635D01*
X005780Y025685D01*
X005837Y025726D01*
X005900Y025758D01*
X005968Y025780D01*
X006037Y025791D01*
X006333Y025791D01*
X006333Y025381D01*
X006333Y025404D02*
X006413Y025404D01*
X006413Y025502D02*
X006333Y025502D01*
X006333Y025601D02*
X006413Y025601D01*
X006413Y025699D02*
X006333Y025699D01*
X006333Y026230D02*
X006037Y026230D01*
X005968Y026241D01*
X005900Y026263D01*
X005837Y026295D01*
X005780Y026337D01*
X005730Y026387D01*
X005688Y026444D01*
X005656Y026507D01*
X005634Y026575D01*
X005624Y026640D01*
X006333Y026640D01*
X006333Y026230D01*
X006333Y026290D02*
X006413Y026290D01*
X006413Y026389D02*
X006333Y026389D01*
X006333Y026487D02*
X006413Y026487D01*
X006413Y026586D02*
X006333Y026586D01*
X005847Y026290D02*
X004834Y026290D01*
X005058Y026389D02*
X005728Y026389D01*
X005666Y026487D02*
X005156Y026487D01*
X005241Y026586D02*
X005632Y026586D01*
X005800Y025699D02*
X000930Y025699D01*
X000930Y025601D02*
X005705Y025601D01*
X005652Y025502D02*
X000930Y025502D01*
X000930Y025404D02*
X005627Y025404D01*
X004526Y026290D02*
X002959Y026290D01*
X002949Y026280D02*
X003330Y026661D01*
X003330Y026880D01*
X002730Y026880D01*
X002730Y026980D01*
X003330Y026980D01*
X003330Y027199D01*
X002949Y027580D01*
X002730Y027580D01*
X002730Y026980D01*
X002630Y026980D01*
X002630Y027580D01*
X002411Y027580D01*
X002030Y027199D01*
X002030Y026980D01*
X002630Y026980D01*
X002630Y026880D01*
X002730Y026880D01*
X002730Y026280D01*
X002949Y026280D01*
X003058Y026389D02*
X004302Y026389D01*
X004204Y026487D02*
X003156Y026487D01*
X003255Y026586D02*
X004119Y026586D01*
X004078Y026684D02*
X003330Y026684D01*
X003330Y026783D02*
X004038Y026783D01*
X004030Y026881D02*
X002730Y026881D01*
X002730Y026783D02*
X002630Y026783D01*
X002630Y026880D02*
X002630Y026280D01*
X002411Y026280D01*
X002030Y026661D01*
X002030Y026880D01*
X002630Y026880D01*
X002630Y026881D02*
X000930Y026881D01*
X000930Y026783D02*
X002030Y026783D01*
X002030Y026684D02*
X000930Y026684D01*
X000930Y026586D02*
X002105Y026586D01*
X002204Y026487D02*
X000930Y026487D01*
X000930Y026389D02*
X002302Y026389D01*
X002401Y026290D02*
X000930Y026290D01*
X000930Y026192D02*
X007196Y026192D01*
X007158Y026093D02*
X000930Y026093D01*
X000930Y025995D02*
X007158Y025995D01*
X007169Y025896D02*
X000930Y025896D01*
X000930Y025798D02*
X007210Y025798D01*
X007284Y025699D02*
X006946Y025699D01*
X006899Y026290D02*
X007251Y026290D01*
X007350Y026389D02*
X007017Y026389D01*
X007112Y026783D02*
X015462Y026783D01*
X015364Y026881D02*
X007076Y026881D01*
X007010Y026980D02*
X007342Y026980D01*
X007243Y027078D02*
X006883Y027078D01*
X006767Y027571D02*
X007213Y027571D01*
X007292Y027669D02*
X006960Y027669D01*
X007056Y027768D02*
X007442Y027768D01*
X007097Y027866D02*
X024186Y027866D01*
X024152Y027768D02*
X008374Y027768D01*
X008525Y027669D02*
X024152Y027669D01*
X024155Y027571D02*
X015905Y027571D01*
X016003Y027472D02*
X024196Y027472D01*
X024244Y027374D02*
X016102Y027374D01*
X016115Y027275D02*
X024343Y027275D01*
X024511Y027177D02*
X016115Y027177D01*
X015455Y027571D02*
X008604Y027571D01*
X008645Y027472D02*
X015357Y027472D01*
X015258Y027374D02*
X008658Y027374D01*
X008658Y027275D02*
X015245Y027275D01*
X015245Y027177D02*
X008624Y027177D01*
X008574Y027078D02*
X015245Y027078D01*
X015265Y026980D02*
X008475Y026980D01*
X007123Y027965D02*
X024227Y027965D01*
X024319Y028063D02*
X007123Y028063D01*
X007101Y028162D02*
X024474Y028162D01*
X024358Y028260D02*
X007060Y028260D01*
X006969Y028359D02*
X024259Y028359D01*
X024202Y028457D02*
X006790Y028457D01*
X007693Y029245D02*
X005662Y029245D01*
X005638Y029344D02*
X007721Y029344D01*
X007762Y029442D02*
X005591Y029442D01*
X005507Y029541D02*
X007853Y029541D01*
X009335Y029541D02*
X010876Y029541D01*
X010974Y029639D02*
X009558Y029639D01*
X011386Y029639D02*
X019974Y029639D01*
X019876Y029541D02*
X011484Y029541D01*
X011583Y029442D02*
X019777Y029442D01*
X019710Y029344D02*
X011650Y029344D01*
X011650Y029245D02*
X019710Y029245D01*
X019710Y029147D02*
X011650Y029147D01*
X011650Y029048D02*
X019710Y029048D01*
X019746Y028950D02*
X011614Y028950D01*
X011516Y028851D02*
X019844Y028851D01*
X019943Y028753D02*
X011417Y028753D01*
X013013Y026093D02*
X016650Y026093D01*
X016683Y025995D02*
X013112Y025995D01*
X013173Y025896D02*
X016724Y025896D01*
X016813Y025798D02*
X013214Y025798D01*
X015432Y022547D02*
X000930Y022547D01*
X000930Y022449D02*
X015333Y022449D01*
X015245Y022350D02*
X000930Y022350D01*
X000930Y022252D02*
X015245Y022252D01*
X015245Y022153D02*
X000930Y022153D01*
X000930Y022055D02*
X015245Y022055D01*
X015289Y021956D02*
X000930Y021956D01*
X000930Y021858D02*
X003304Y021858D01*
X003244Y021833D02*
X003027Y021616D01*
X002910Y021333D01*
X002910Y021027D01*
X003027Y020744D01*
X003244Y020527D01*
X003527Y020410D01*
X003833Y020410D01*
X004116Y020527D01*
X004333Y020744D01*
X004450Y021027D01*
X004450Y021333D01*
X004333Y021616D01*
X004116Y021833D01*
X003833Y021950D01*
X003527Y021950D01*
X003244Y021833D01*
X003170Y021759D02*
X000930Y021759D01*
X000930Y021661D02*
X003072Y021661D01*
X003005Y021562D02*
X000930Y021562D01*
X000930Y021464D02*
X002964Y021464D01*
X002923Y021365D02*
X000930Y021365D01*
X000930Y021267D02*
X002910Y021267D01*
X002910Y021168D02*
X000930Y021168D01*
X000930Y021070D02*
X002910Y021070D01*
X002933Y020971D02*
X000930Y020971D01*
X000930Y020873D02*
X002974Y020873D01*
X003015Y020774D02*
X000930Y020774D01*
X000930Y020676D02*
X003096Y020676D01*
X003194Y020577D02*
X000930Y020577D01*
X000930Y020479D02*
X003361Y020479D01*
X003999Y020479D02*
X006293Y020479D01*
X006361Y020410D02*
X006630Y020410D01*
X006630Y021130D01*
X006730Y021130D01*
X006730Y021230D01*
X007450Y021230D01*
X007450Y021499D01*
X006999Y021950D01*
X006730Y021950D01*
X006730Y021230D01*
X006630Y021230D01*
X006630Y021950D01*
X006361Y021950D01*
X005910Y021499D01*
X005910Y021230D01*
X006630Y021230D01*
X006630Y021130D01*
X005910Y021130D01*
X005910Y020861D01*
X006361Y020410D01*
X006194Y020577D02*
X004166Y020577D01*
X004264Y020676D02*
X006096Y020676D01*
X005997Y020774D02*
X004345Y020774D01*
X004386Y020873D02*
X005910Y020873D01*
X005910Y020971D02*
X004427Y020971D01*
X004450Y021070D02*
X005910Y021070D01*
X005910Y021267D02*
X004450Y021267D01*
X004437Y021365D02*
X005910Y021365D01*
X005910Y021464D02*
X004396Y021464D01*
X004355Y021562D02*
X005973Y021562D01*
X006072Y021661D02*
X004288Y021661D01*
X004190Y021759D02*
X006170Y021759D01*
X006269Y021858D02*
X004056Y021858D01*
X004450Y021168D02*
X006630Y021168D01*
X006630Y021070D02*
X006730Y021070D01*
X006730Y021130D02*
X006730Y020410D01*
X006999Y020410D01*
X007450Y020861D01*
X007450Y021130D01*
X006730Y021130D01*
X006730Y021168D02*
X024490Y021168D01*
X024351Y021267D02*
X007450Y021267D01*
X007450Y021365D02*
X024253Y021365D01*
X024199Y021464D02*
X007450Y021464D01*
X007387Y021562D02*
X024159Y021562D01*
X024326Y021070D02*
X022406Y021070D01*
X022504Y020971D02*
X024230Y020971D01*
X024189Y020873D02*
X022603Y020873D01*
X022615Y020774D02*
X024152Y020774D01*
X024152Y020676D02*
X022615Y020676D01*
X022495Y020380D02*
X024238Y020380D01*
X024231Y020386D02*
X024152Y020577D01*
X024336Y020282D02*
X022397Y020282D01*
X021963Y020282D02*
X020650Y020282D01*
X020650Y020375D02*
X020375Y020650D01*
X019985Y020650D01*
X019710Y020375D01*
X019710Y019985D01*
X019985Y019710D01*
X020375Y019710D01*
X020650Y019985D01*
X020650Y020375D01*
X020645Y020380D02*
X021865Y020380D01*
X021766Y020479D02*
X020546Y020479D01*
X020448Y020577D02*
X021745Y020577D01*
X021745Y020676D02*
X007264Y020676D01*
X007166Y020577D02*
X010912Y020577D01*
X010985Y020650D02*
X010710Y020375D01*
X010710Y019985D01*
X010985Y019710D01*
X011375Y019710D01*
X011650Y019985D01*
X011650Y020375D01*
X011375Y020650D01*
X010985Y020650D01*
X010814Y020479D02*
X007067Y020479D01*
X006730Y020479D02*
X006630Y020479D01*
X006630Y020577D02*
X006730Y020577D01*
X006730Y020676D02*
X006630Y020676D01*
X006630Y020774D02*
X006730Y020774D01*
X006730Y020873D02*
X006630Y020873D01*
X006630Y020971D02*
X006730Y020971D01*
X006730Y021267D02*
X006630Y021267D01*
X006630Y021365D02*
X006730Y021365D01*
X006730Y021464D02*
X006630Y021464D01*
X006630Y021562D02*
X006730Y021562D01*
X006730Y021661D02*
X006630Y021661D01*
X006630Y021759D02*
X006730Y021759D01*
X006730Y021858D02*
X006630Y021858D01*
X007091Y021858D02*
X015387Y021858D01*
X011645Y020380D02*
X019715Y020380D01*
X019710Y020282D02*
X011650Y020282D01*
X011650Y020183D02*
X019710Y020183D01*
X019710Y020085D02*
X011650Y020085D01*
X011650Y019986D02*
X019710Y019986D01*
X019808Y019888D02*
X011552Y019888D01*
X011454Y019789D02*
X019906Y019789D01*
X020454Y019789D02*
X024154Y019789D01*
X024152Y019691D02*
X000930Y019691D01*
X000930Y019789D02*
X010906Y019789D01*
X010808Y019888D02*
X000930Y019888D01*
X000930Y019986D02*
X010710Y019986D01*
X010710Y020085D02*
X000930Y020085D01*
X000930Y020183D02*
X010710Y020183D01*
X010710Y020282D02*
X000930Y020282D01*
X000930Y020380D02*
X010715Y020380D01*
X011448Y020577D02*
X019912Y020577D01*
X019814Y020479D02*
X011546Y020479D01*
X015245Y018360D02*
X015245Y018000D01*
X015500Y017745D01*
X015860Y017745D01*
X016115Y018000D01*
X016115Y018360D01*
X015860Y018615D01*
X015500Y018615D01*
X015245Y018360D01*
X015245Y018312D02*
X000930Y018312D01*
X000930Y018410D02*
X015295Y018410D01*
X015393Y018509D02*
X000930Y018509D01*
X000930Y018607D02*
X015492Y018607D01*
X015868Y018607D02*
X024152Y018607D01*
X024152Y018706D02*
X000930Y018706D01*
X000930Y018804D02*
X024161Y018804D01*
X024201Y018903D02*
X000930Y018903D01*
X000930Y019001D02*
X024257Y019001D01*
X024356Y019100D02*
X000930Y019100D01*
X000930Y019198D02*
X024479Y019198D01*
X024321Y019297D02*
X000930Y019297D01*
X000930Y019395D02*
X024228Y019395D01*
X024187Y019494D02*
X000930Y019494D01*
X000930Y019592D02*
X024152Y019592D01*
X024195Y019888D02*
X020552Y019888D01*
X020650Y019986D02*
X024242Y019986D01*
X024341Y020085D02*
X020650Y020085D01*
X020650Y020183D02*
X024515Y020183D01*
X024830Y020183D02*
X035509Y020183D01*
X036095Y020380D02*
X036865Y020380D01*
X036766Y020479D02*
X036142Y020479D01*
X036183Y020577D02*
X036745Y020577D01*
X037147Y020774D02*
X037213Y020774D01*
X037213Y020676D02*
X038183Y020676D01*
X038183Y020774D02*
X037615Y020774D01*
X037603Y020873D02*
X038183Y020873D01*
X038276Y020971D02*
X037504Y020971D01*
X037406Y021070D02*
X038375Y021070D01*
X038183Y020577D02*
X037615Y020577D01*
X037594Y020479D02*
X038183Y020479D01*
X038266Y020380D02*
X037495Y020380D01*
X037397Y020282D02*
X038365Y020282D01*
X037213Y020873D02*
X037147Y020873D01*
X037147Y020971D02*
X037213Y020971D01*
X037213Y021070D02*
X037147Y021070D01*
X037450Y023335D02*
X038311Y023335D01*
X038213Y023434D02*
X037549Y023434D01*
X037615Y023532D02*
X038183Y023532D01*
X038183Y023631D02*
X037615Y023631D01*
X037615Y023729D02*
X038183Y023729D01*
X038183Y023828D02*
X037615Y023828D01*
X037549Y023926D02*
X038231Y023926D01*
X038330Y024025D02*
X037451Y024025D01*
X035495Y026192D02*
X024850Y026192D01*
X021954Y021070D02*
X007450Y021070D01*
X007450Y020971D02*
X021856Y020971D01*
X021757Y020873D02*
X007450Y020873D01*
X007363Y020774D02*
X021745Y020774D01*
X024181Y018509D02*
X015967Y018509D01*
X016065Y018410D02*
X024222Y018410D01*
X024306Y018312D02*
X016115Y018312D01*
X016115Y018213D02*
X024443Y018213D01*
X024371Y018115D02*
X016115Y018115D01*
X016115Y018016D02*
X024272Y018016D01*
X024208Y017918D02*
X016033Y017918D01*
X015934Y017819D02*
X024167Y017819D01*
X024152Y017721D02*
X000930Y017721D01*
X000930Y017819D02*
X015426Y017819D01*
X015327Y017918D02*
X000930Y017918D01*
X000930Y018016D02*
X015245Y018016D01*
X015245Y018115D02*
X000930Y018115D01*
X000930Y018213D02*
X015245Y018213D01*
X016731Y017480D02*
X016650Y017285D01*
X016650Y017075D01*
X016731Y016880D01*
X016880Y016731D01*
X017075Y016650D01*
X017285Y016650D01*
X017480Y016731D01*
X017629Y016880D01*
X017696Y017042D01*
X017741Y016934D01*
X017864Y016811D01*
X018023Y016745D01*
X018767Y016745D01*
X018926Y016811D01*
X019049Y016934D01*
X019115Y017093D01*
X019115Y017267D01*
X019049Y017426D01*
X018926Y017549D01*
X018767Y017615D01*
X018023Y017615D01*
X017864Y017549D01*
X017741Y017426D01*
X017696Y017318D01*
X017629Y017480D01*
X017480Y017629D01*
X017285Y017710D01*
X017075Y017710D01*
X016880Y017629D01*
X016731Y017480D01*
X016708Y017425D02*
X000930Y017425D01*
X000930Y017327D02*
X016667Y017327D01*
X016650Y017228D02*
X000930Y017228D01*
X000930Y017130D02*
X016650Y017130D01*
X016668Y017031D02*
X000930Y017031D01*
X000930Y016933D02*
X016709Y016933D01*
X016776Y016834D02*
X000930Y016834D01*
X000930Y016736D02*
X016875Y016736D01*
X017485Y016736D02*
X024152Y016736D01*
X024152Y016637D02*
X012938Y016637D01*
X012992Y016615D02*
X012789Y016699D01*
X012571Y016699D01*
X012368Y016615D01*
X012214Y016460D01*
X012130Y016258D01*
X012130Y016039D01*
X012214Y015837D01*
X012368Y015682D01*
X012571Y015599D01*
X012789Y015599D01*
X012992Y015682D01*
X013146Y015837D01*
X013230Y016039D01*
X013230Y016258D01*
X013146Y016460D01*
X012992Y016615D01*
X013068Y016539D02*
X017853Y016539D01*
X017864Y016549D02*
X017741Y016426D01*
X017675Y016267D01*
X017675Y016093D01*
X017741Y015934D01*
X017864Y015811D01*
X018023Y015745D01*
X018767Y015745D01*
X018926Y015811D01*
X019049Y015934D01*
X019115Y016093D01*
X019115Y016267D01*
X019049Y016426D01*
X018926Y016549D01*
X018767Y016615D01*
X018023Y016615D01*
X017864Y016549D01*
X017755Y016440D02*
X013155Y016440D01*
X013195Y016342D02*
X017706Y016342D01*
X017675Y016243D02*
X013230Y016243D01*
X013230Y016145D02*
X017675Y016145D01*
X017695Y016046D02*
X013230Y016046D01*
X013192Y015948D02*
X017735Y015948D01*
X017826Y015849D02*
X013151Y015849D01*
X013060Y015751D02*
X018010Y015751D01*
X018023Y015615D02*
X017864Y015549D01*
X017741Y015426D01*
X017675Y015267D01*
X017675Y015093D01*
X017741Y014934D01*
X017864Y014811D01*
X018023Y014745D01*
X018767Y014745D01*
X018926Y014811D01*
X019049Y014934D01*
X019115Y015093D01*
X019115Y015267D01*
X019049Y015426D01*
X018926Y015549D01*
X018767Y015615D01*
X018023Y015615D01*
X017875Y015554D02*
X000930Y015554D01*
X000930Y015652D02*
X007696Y015652D01*
X007718Y015630D02*
X007630Y015718D01*
X007630Y016642D01*
X007718Y016730D01*
X008642Y016730D01*
X008730Y016642D01*
X008730Y015718D01*
X008642Y015630D01*
X007718Y015630D01*
X007630Y015751D02*
X005866Y015751D01*
X005860Y015745D02*
X006115Y016000D01*
X006115Y016360D01*
X005860Y016615D01*
X005500Y016615D01*
X005245Y016360D01*
X005245Y016000D01*
X005500Y015745D01*
X005860Y015745D01*
X005964Y015849D02*
X007630Y015849D01*
X007630Y015948D02*
X006063Y015948D01*
X006115Y016046D02*
X007630Y016046D01*
X007630Y016145D02*
X006115Y016145D01*
X006115Y016243D02*
X007630Y016243D01*
X007630Y016342D02*
X006115Y016342D01*
X006035Y016440D02*
X007630Y016440D01*
X007630Y016539D02*
X005937Y016539D01*
X005423Y016539D02*
X002937Y016539D01*
X002926Y016549D02*
X002767Y016615D01*
X002593Y016615D01*
X002434Y016549D01*
X002311Y016426D01*
X002245Y016267D01*
X002245Y016093D01*
X002311Y015934D01*
X002434Y015811D01*
X002593Y015745D01*
X002767Y015745D01*
X002926Y015811D01*
X003049Y015934D01*
X003115Y016093D01*
X003115Y016267D01*
X003049Y016426D01*
X002926Y016549D01*
X003035Y016440D02*
X005325Y016440D01*
X005245Y016342D02*
X003084Y016342D01*
X003115Y016243D02*
X005245Y016243D01*
X005245Y016145D02*
X003115Y016145D01*
X003095Y016046D02*
X005245Y016046D01*
X005297Y015948D02*
X003055Y015948D01*
X002964Y015849D02*
X005396Y015849D01*
X005494Y015751D02*
X002780Y015751D01*
X002580Y015751D02*
X000930Y015751D01*
X000930Y015849D02*
X002396Y015849D01*
X002305Y015948D02*
X000930Y015948D01*
X000930Y016046D02*
X002265Y016046D01*
X002245Y016145D02*
X000930Y016145D01*
X000930Y016243D02*
X002245Y016243D01*
X002276Y016342D02*
X000930Y016342D01*
X000930Y016440D02*
X002325Y016440D01*
X002423Y016539D02*
X000930Y016539D01*
X000930Y016637D02*
X007630Y016637D01*
X008730Y016637D02*
X012422Y016637D01*
X012292Y016539D02*
X008730Y016539D01*
X008730Y016440D02*
X012205Y016440D01*
X012165Y016342D02*
X008730Y016342D01*
X008730Y016243D02*
X012130Y016243D01*
X012130Y016145D02*
X008730Y016145D01*
X008730Y016046D02*
X012130Y016046D01*
X012168Y015948D02*
X008730Y015948D01*
X008730Y015849D02*
X012209Y015849D01*
X012300Y015751D02*
X008730Y015751D01*
X008664Y015652D02*
X012441Y015652D01*
X012919Y015652D02*
X033980Y015652D01*
X033980Y015554D02*
X022485Y015554D01*
X022496Y015549D02*
X022337Y015615D01*
X021593Y015615D01*
X021434Y015549D01*
X021311Y015426D01*
X021245Y015267D01*
X021245Y015093D01*
X021311Y014934D01*
X021434Y014811D01*
X021593Y014745D01*
X022337Y014745D01*
X022496Y014811D01*
X022619Y014934D01*
X022685Y015093D01*
X022685Y015267D01*
X022619Y015426D01*
X022496Y015549D01*
X022590Y015455D02*
X033980Y015455D01*
X033980Y015357D02*
X022648Y015357D01*
X022685Y015258D02*
X033980Y015258D01*
X033980Y015160D02*
X022685Y015160D01*
X022672Y015061D02*
X033980Y015061D01*
X033980Y014963D02*
X022631Y014963D01*
X022549Y014864D02*
X033980Y014864D01*
X033980Y014766D02*
X022386Y014766D01*
X022756Y014372D02*
X013230Y014372D01*
X013230Y014470D02*
X022855Y014470D01*
X022953Y014569D02*
X013230Y014569D01*
X013230Y014642D02*
X013142Y014730D01*
X012218Y014730D01*
X012130Y014642D01*
X012130Y013718D01*
X012218Y013630D01*
X013142Y013630D01*
X013230Y013718D01*
X013230Y014642D01*
X013205Y014667D02*
X033980Y014667D01*
X033980Y014569D02*
X023407Y014569D01*
X023360Y014615D02*
X023000Y014615D01*
X022745Y014360D01*
X022745Y014000D01*
X023000Y013745D01*
X023360Y013745D01*
X023615Y014000D01*
X023615Y014360D01*
X023360Y014615D01*
X023505Y014470D02*
X033940Y014470D01*
X033968Y014498D02*
X033862Y014392D01*
X033805Y014255D01*
X033805Y014105D01*
X033862Y013968D01*
X033968Y013862D01*
X034105Y013805D01*
X034255Y013805D01*
X034392Y013862D01*
X034498Y013968D01*
X034555Y014105D01*
X034555Y014255D01*
X034498Y014392D01*
X034392Y014498D01*
X034380Y014503D01*
X034380Y016857D01*
X034392Y016862D01*
X034498Y016968D01*
X034555Y017105D01*
X034555Y017255D01*
X034498Y017392D01*
X034392Y017498D01*
X034255Y017555D01*
X034105Y017555D01*
X033968Y017498D01*
X033862Y017392D01*
X033805Y017255D01*
X033805Y017105D01*
X033862Y016968D01*
X033968Y016862D01*
X033980Y016857D01*
X033980Y014503D01*
X033968Y014498D01*
X033853Y014372D02*
X023604Y014372D01*
X023615Y014273D02*
X033813Y014273D01*
X033805Y014175D02*
X023615Y014175D01*
X023615Y014076D02*
X033817Y014076D01*
X033858Y013978D02*
X023593Y013978D01*
X023494Y013879D02*
X033951Y013879D01*
X034180Y014180D02*
X034180Y017180D01*
X034525Y017327D02*
X035287Y017327D01*
X035213Y017425D02*
X034465Y017425D01*
X034331Y017524D02*
X035170Y017524D01*
X035415Y017228D02*
X034555Y017228D01*
X034555Y017130D02*
X035380Y017130D01*
X035276Y017031D02*
X034524Y017031D01*
X034463Y016933D02*
X035204Y016933D01*
X035163Y016834D02*
X034380Y016834D01*
X034380Y016736D02*
X035144Y016736D01*
X035144Y016637D02*
X034380Y016637D01*
X034380Y016539D02*
X035162Y016539D01*
X035203Y016440D02*
X034380Y016440D01*
X034380Y016342D02*
X035272Y016342D01*
X035371Y016243D02*
X034380Y016243D01*
X034380Y016145D02*
X055922Y016145D01*
X055922Y016243D02*
X044962Y016243D01*
X044683Y017671D02*
X050671Y017671D01*
X050680Y017680D01*
X050387Y017918D02*
X045143Y017918D01*
X045129Y018410D02*
X050920Y018410D01*
X054579Y018312D02*
X055922Y018312D01*
X055922Y018410D02*
X054761Y018410D01*
X054859Y018509D02*
X055922Y018509D01*
X055922Y018607D02*
X054958Y018607D01*
X055017Y018706D02*
X055922Y018706D01*
X055922Y018804D02*
X055058Y018804D01*
X055099Y018903D02*
X055922Y018903D01*
X055922Y019001D02*
X055135Y019001D01*
X055135Y019100D02*
X055922Y019100D01*
X055922Y019198D02*
X055135Y019198D01*
X055135Y019297D02*
X055922Y019297D01*
X055922Y019395D02*
X055125Y019395D01*
X055084Y019494D02*
X055922Y019494D01*
X055922Y019592D02*
X055043Y019592D01*
X055002Y019691D02*
X055922Y019691D01*
X055922Y019789D02*
X054922Y019789D01*
X054823Y019888D02*
X055922Y019888D01*
X055922Y019986D02*
X054725Y019986D01*
X055922Y016046D02*
X034380Y016046D01*
X034380Y015948D02*
X055922Y015948D01*
X055922Y015849D02*
X034380Y015849D01*
X034380Y015751D02*
X055922Y015751D01*
X055922Y015652D02*
X034380Y015652D01*
X034380Y015554D02*
X055922Y015554D01*
X055922Y015455D02*
X034380Y015455D01*
X034380Y015357D02*
X055922Y015357D01*
X055922Y015258D02*
X034380Y015258D01*
X034380Y015160D02*
X055922Y015160D01*
X055922Y015061D02*
X034380Y015061D01*
X034380Y014963D02*
X055922Y014963D01*
X055922Y014864D02*
X034380Y014864D01*
X034380Y014766D02*
X055922Y014766D01*
X055922Y014667D02*
X034380Y014667D01*
X034380Y014569D02*
X055922Y014569D01*
X055922Y014470D02*
X034420Y014470D01*
X034507Y014372D02*
X055922Y014372D01*
X055922Y014273D02*
X034547Y014273D01*
X034555Y014175D02*
X055922Y014175D01*
X055922Y014076D02*
X038899Y014076D01*
X038860Y014115D02*
X038500Y014115D01*
X038245Y013860D01*
X038245Y013500D01*
X038500Y013245D01*
X038860Y013245D01*
X039115Y013500D01*
X039115Y013860D01*
X038860Y014115D01*
X038998Y013978D02*
X055922Y013978D01*
X055922Y013879D02*
X039096Y013879D01*
X039115Y013781D02*
X055922Y013781D01*
X055922Y013682D02*
X039115Y013682D01*
X039115Y013584D02*
X040871Y013584D01*
X040963Y013676D02*
X040671Y013384D01*
X040671Y012969D01*
X040963Y012676D01*
X040671Y012384D01*
X040671Y011969D01*
X040963Y011676D01*
X040671Y011384D01*
X040671Y010969D01*
X040963Y010676D01*
X040671Y010384D01*
X040671Y009969D01*
X040963Y009676D01*
X040671Y009384D01*
X040671Y008969D01*
X040963Y008676D01*
X040671Y008384D01*
X040671Y007969D01*
X037734Y007969D01*
X037765Y008000D02*
X037510Y007745D01*
X037150Y007745D01*
X036917Y007978D01*
X036899Y007934D01*
X036776Y007811D01*
X036617Y007745D01*
X036443Y007745D01*
X036284Y007811D01*
X036161Y007934D01*
X036095Y008093D01*
X036095Y008267D01*
X036161Y008426D01*
X036284Y008549D01*
X036443Y008615D01*
X036617Y008615D01*
X036776Y008549D01*
X036899Y008426D01*
X036917Y008382D01*
X037150Y008615D01*
X037510Y008615D01*
X037765Y008360D01*
X037765Y008000D01*
X037765Y008068D02*
X040671Y008068D01*
X040671Y008166D02*
X037765Y008166D01*
X037765Y008265D02*
X040671Y008265D01*
X040671Y008363D02*
X037762Y008363D01*
X037664Y008462D02*
X040749Y008462D01*
X040847Y008560D02*
X037565Y008560D01*
X037095Y008560D02*
X036749Y008560D01*
X036864Y008462D02*
X036996Y008462D01*
X036926Y007969D02*
X036913Y007969D01*
X036836Y007871D02*
X037024Y007871D01*
X037123Y007772D02*
X036682Y007772D01*
X036378Y007772D02*
X035387Y007772D01*
X035360Y007745D02*
X035615Y008000D01*
X035615Y008360D01*
X035360Y008615D01*
X035000Y008615D01*
X034745Y008360D01*
X034745Y008000D01*
X035000Y007745D01*
X035360Y007745D01*
X035486Y007871D02*
X036224Y007871D01*
X036147Y007969D02*
X035584Y007969D01*
X035615Y008068D02*
X036106Y008068D01*
X036095Y008166D02*
X035615Y008166D01*
X035615Y008265D02*
X036095Y008265D01*
X036135Y008363D02*
X035612Y008363D01*
X035514Y008462D02*
X036196Y008462D01*
X036311Y008560D02*
X035415Y008560D01*
X035360Y008995D02*
X035000Y008995D01*
X034745Y009250D01*
X034745Y009610D01*
X035000Y009865D01*
X035360Y009865D01*
X035615Y009610D01*
X035615Y009250D01*
X035360Y008995D01*
X035418Y009053D02*
X040671Y009053D01*
X040671Y009151D02*
X035516Y009151D01*
X035615Y009250D02*
X040671Y009250D01*
X040671Y009348D02*
X035615Y009348D01*
X035615Y009447D02*
X040734Y009447D01*
X040832Y009545D02*
X035615Y009545D01*
X035582Y009644D02*
X040931Y009644D01*
X040963Y009676D02*
X041378Y009676D01*
X041671Y009384D01*
X041671Y008969D01*
X041378Y008676D01*
X040963Y008676D01*
X041378Y008676D01*
X041671Y008384D01*
X041671Y007969D01*
X041378Y007676D01*
X040963Y007676D01*
X040671Y007384D01*
X040671Y006969D01*
X040963Y006676D01*
X040671Y006384D01*
X040671Y005969D01*
X040963Y005676D01*
X040671Y005384D01*
X040671Y004969D01*
X040963Y004676D01*
X040671Y004384D01*
X040671Y003969D01*
X040963Y003676D01*
X041378Y003676D01*
X041671Y003969D01*
X041671Y004384D01*
X041378Y004676D01*
X040963Y004676D01*
X041378Y004676D01*
X041671Y004969D01*
X041671Y005384D01*
X041378Y005676D01*
X040963Y005676D01*
X041378Y005676D01*
X041671Y005969D01*
X041671Y006384D01*
X041378Y006676D01*
X040963Y006676D01*
X041378Y006676D01*
X041671Y006969D01*
X041671Y007384D01*
X041378Y007676D01*
X040963Y007676D01*
X040671Y007969D01*
X040769Y007871D02*
X037636Y007871D01*
X037537Y007772D02*
X040868Y007772D01*
X040961Y007674D02*
X028423Y007674D01*
X028422Y007676D02*
X028176Y007922D01*
X027854Y008055D01*
X027506Y008055D01*
X027184Y007922D01*
X026938Y007676D01*
X026805Y007354D01*
X026805Y007006D01*
X026938Y006684D01*
X027184Y006438D01*
X027506Y006305D01*
X027854Y006305D01*
X028176Y006438D01*
X028422Y006684D01*
X028555Y007006D01*
X028555Y007354D01*
X028422Y007676D01*
X028463Y007575D02*
X040862Y007575D01*
X040764Y007477D02*
X028504Y007477D01*
X028545Y007378D02*
X040671Y007378D01*
X040671Y007280D02*
X035446Y007280D01*
X035360Y007365D02*
X035000Y007365D01*
X034745Y007110D01*
X034745Y006750D01*
X035000Y006495D01*
X035360Y006495D01*
X035615Y006750D01*
X035615Y007110D01*
X035360Y007365D01*
X035544Y007181D02*
X040671Y007181D01*
X040671Y007083D02*
X035615Y007083D01*
X035615Y006984D02*
X040671Y006984D01*
X040754Y006886D02*
X035615Y006886D01*
X035615Y006787D02*
X035922Y006787D01*
X036000Y006865D02*
X035745Y006610D01*
X035745Y006463D01*
X036147Y006463D01*
X036147Y006865D01*
X036000Y006865D01*
X036147Y006787D02*
X036213Y006787D01*
X036213Y006865D02*
X036360Y006865D01*
X036615Y006610D01*
X036615Y006463D01*
X036213Y006463D01*
X036213Y006397D01*
X036615Y006397D01*
X036615Y006250D01*
X036360Y005995D01*
X036213Y005995D01*
X036213Y006397D01*
X036147Y006397D01*
X036147Y005995D01*
X036000Y005995D01*
X035745Y006250D01*
X035745Y006397D01*
X036147Y006397D01*
X036147Y006463D01*
X036213Y006463D01*
X036213Y006865D01*
X036213Y006689D02*
X036147Y006689D01*
X036147Y006590D02*
X036213Y006590D01*
X036213Y006492D02*
X036147Y006492D01*
X036147Y006393D02*
X036213Y006393D01*
X036213Y006295D02*
X036147Y006295D01*
X036147Y006196D02*
X036213Y006196D01*
X036213Y006098D02*
X036147Y006098D01*
X036147Y005999D02*
X036213Y005999D01*
X036364Y005999D02*
X038996Y005999D01*
X039000Y005995D02*
X039360Y005995D01*
X039615Y006250D01*
X039615Y006610D01*
X039360Y006865D01*
X039000Y006865D01*
X038745Y006610D01*
X038745Y006250D01*
X039000Y005995D01*
X038897Y006098D02*
X036463Y006098D01*
X036561Y006196D02*
X038799Y006196D01*
X038745Y006295D02*
X036615Y006295D01*
X036615Y006393D02*
X038745Y006393D01*
X038745Y006492D02*
X036615Y006492D01*
X036615Y006590D02*
X038745Y006590D01*
X038823Y006689D02*
X036537Y006689D01*
X036438Y006787D02*
X038922Y006787D01*
X039438Y006787D02*
X040853Y006787D01*
X040951Y006689D02*
X039537Y006689D01*
X039615Y006590D02*
X040877Y006590D01*
X040779Y006492D02*
X039615Y006492D01*
X039615Y006393D02*
X040680Y006393D01*
X040671Y006295D02*
X039615Y006295D01*
X039561Y006196D02*
X040671Y006196D01*
X040671Y006098D02*
X039463Y006098D01*
X039364Y005999D02*
X040671Y005999D01*
X040739Y005901D02*
X035575Y005901D01*
X035615Y005860D02*
X035360Y006115D01*
X035000Y006115D01*
X034745Y005860D01*
X034745Y005500D01*
X035000Y005245D01*
X035360Y005245D01*
X035615Y005500D01*
X035615Y005860D01*
X035615Y005802D02*
X040838Y005802D01*
X040936Y005704D02*
X035615Y005704D01*
X035615Y005605D02*
X040892Y005605D01*
X040794Y005507D02*
X035615Y005507D01*
X035523Y005408D02*
X040695Y005408D01*
X040671Y005310D02*
X035425Y005310D01*
X034935Y005310D02*
X032425Y005310D01*
X032360Y005245D02*
X032615Y005500D01*
X032615Y005860D01*
X032360Y006115D01*
X032000Y006115D01*
X031745Y005860D01*
X031745Y005500D01*
X032000Y005245D01*
X032360Y005245D01*
X032523Y005408D02*
X034837Y005408D01*
X034745Y005507D02*
X032615Y005507D01*
X032615Y005605D02*
X034745Y005605D01*
X034745Y005704D02*
X032615Y005704D01*
X032615Y005802D02*
X034745Y005802D01*
X034785Y005901D02*
X032575Y005901D01*
X032476Y005999D02*
X034884Y005999D01*
X034982Y006098D02*
X032378Y006098D01*
X031982Y006098D02*
X000930Y006098D01*
X000930Y006196D02*
X012963Y006196D01*
X012880Y006231D02*
X013075Y006150D01*
X013285Y006150D01*
X013480Y006231D01*
X013629Y006380D01*
X013710Y006575D01*
X013710Y006785D01*
X013629Y006980D01*
X013480Y007129D01*
X013358Y007180D01*
X013480Y007231D01*
X013629Y007380D01*
X013710Y007575D01*
X016897Y007575D01*
X016937Y007674D02*
X013710Y007674D01*
X013710Y007772D02*
X017035Y007772D01*
X016938Y007676D02*
X016805Y007354D01*
X016805Y007006D01*
X016938Y006684D01*
X017184Y006438D01*
X017506Y006305D01*
X017854Y006305D01*
X018176Y006438D01*
X018422Y006684D01*
X018555Y007006D01*
X018555Y007354D01*
X018422Y007676D01*
X018176Y007922D01*
X017854Y008055D01*
X017506Y008055D01*
X017184Y007922D01*
X016938Y007676D01*
X016856Y007477D02*
X013669Y007477D01*
X013710Y007575D02*
X013710Y007785D01*
X013629Y007980D01*
X013480Y008129D01*
X013285Y008210D01*
X013075Y008210D01*
X012880Y008129D01*
X012731Y007980D01*
X012650Y007785D01*
X012650Y007575D01*
X003426Y007575D01*
X003490Y007639D02*
X003635Y007990D01*
X003635Y008370D01*
X003490Y008721D01*
X003221Y008990D01*
X002870Y009135D01*
X002490Y009135D01*
X002139Y008990D01*
X001870Y008721D01*
X001725Y008370D01*
X001725Y007990D01*
X001870Y007639D01*
X002139Y007370D01*
X002490Y007225D01*
X002870Y007225D01*
X003221Y007370D01*
X003490Y007639D01*
X003504Y007674D02*
X012650Y007674D01*
X012650Y007772D02*
X003545Y007772D01*
X003585Y007871D02*
X012685Y007871D01*
X012726Y007969D02*
X003626Y007969D01*
X003635Y008068D02*
X012818Y008068D01*
X012968Y008166D02*
X003635Y008166D01*
X003635Y008265D02*
X031745Y008265D01*
X031745Y008360D02*
X031745Y008000D01*
X032000Y007745D01*
X032360Y007745D01*
X032615Y008000D01*
X032615Y008360D01*
X032360Y008615D01*
X032000Y008615D01*
X031745Y008360D01*
X031748Y008363D02*
X003635Y008363D01*
X003597Y008462D02*
X031846Y008462D01*
X031945Y008560D02*
X003556Y008560D01*
X003515Y008659D02*
X040946Y008659D01*
X040883Y008757D02*
X009872Y008757D01*
X009860Y008745D02*
X010115Y009000D01*
X010115Y009147D01*
X009713Y009147D01*
X009713Y009213D01*
X009647Y009213D01*
X009647Y009615D01*
X009500Y009615D01*
X009245Y009360D01*
X009245Y009213D01*
X009647Y009213D01*
X009647Y009147D01*
X009245Y009147D01*
X009245Y009000D01*
X009500Y008745D01*
X009647Y008745D01*
X009647Y009147D01*
X009713Y009147D01*
X009713Y008745D01*
X009860Y008745D01*
X009713Y008757D02*
X009647Y008757D01*
X009647Y008856D02*
X009713Y008856D01*
X009713Y008954D02*
X009647Y008954D01*
X009647Y009053D02*
X009713Y009053D01*
X009713Y009151D02*
X031844Y009151D01*
X031942Y009053D02*
X010115Y009053D01*
X010069Y008954D02*
X040686Y008954D01*
X040784Y008856D02*
X009971Y008856D01*
X010115Y009213D02*
X010115Y009360D01*
X009860Y009615D01*
X009713Y009615D01*
X009713Y009213D01*
X010115Y009213D01*
X010115Y009250D02*
X031745Y009250D01*
X032000Y008995D01*
X032360Y008995D01*
X032615Y009250D01*
X032615Y009610D01*
X032360Y009865D01*
X032000Y009865D01*
X031745Y009610D01*
X031745Y009250D01*
X031745Y009348D02*
X010115Y009348D01*
X010029Y009447D02*
X031745Y009447D01*
X031745Y009545D02*
X009930Y009545D01*
X009860Y009745D02*
X009500Y009745D01*
X009245Y010000D01*
X009245Y010360D01*
X009500Y010615D01*
X009860Y010615D01*
X010115Y010360D01*
X010115Y010000D01*
X009860Y009745D01*
X009956Y009841D02*
X031975Y009841D01*
X031877Y009742D02*
X007161Y009742D01*
X007231Y009812D02*
X007330Y010051D01*
X007330Y010309D01*
X007231Y010548D01*
X007048Y010731D01*
X006809Y010830D01*
X006551Y010830D01*
X006312Y010731D01*
X006129Y010548D01*
X006030Y010309D01*
X006030Y010051D01*
X006129Y009812D01*
X006312Y009629D01*
X006551Y009530D01*
X006809Y009530D01*
X007048Y009629D01*
X007231Y009812D01*
X007243Y009841D02*
X009404Y009841D01*
X009306Y009939D02*
X007284Y009939D01*
X007325Y010038D02*
X009245Y010038D01*
X009245Y010136D02*
X007330Y010136D01*
X007330Y010235D02*
X009245Y010235D01*
X009245Y010333D02*
X007320Y010333D01*
X007279Y010432D02*
X009316Y010432D01*
X009415Y010530D02*
X007239Y010530D01*
X007151Y010629D02*
X033866Y010629D01*
X033768Y010727D02*
X022875Y010727D01*
X022870Y010725D02*
X023221Y010870D01*
X023490Y011139D01*
X023635Y011490D01*
X023635Y011870D01*
X023490Y012221D01*
X023221Y012490D01*
X022870Y012635D01*
X022490Y012635D01*
X022139Y012490D01*
X021870Y012221D01*
X021725Y011870D01*
X021725Y011490D01*
X021870Y011139D01*
X022139Y010870D01*
X022490Y010725D01*
X022870Y010725D01*
X023113Y010826D02*
X033745Y010826D01*
X033745Y010897D02*
X033745Y010750D01*
X034000Y010495D01*
X034147Y010495D01*
X034147Y010897D01*
X034213Y010897D01*
X034213Y010963D01*
X034615Y010963D01*
X034615Y011110D01*
X034360Y011365D01*
X034213Y011365D01*
X034213Y010963D01*
X034147Y010963D01*
X034147Y011365D01*
X034000Y011365D01*
X033745Y011110D01*
X033745Y010963D01*
X034147Y010963D01*
X034147Y010897D01*
X033745Y010897D01*
X033745Y011023D02*
X023373Y011023D01*
X023472Y011121D02*
X033756Y011121D01*
X033854Y011220D02*
X023523Y011220D01*
X023564Y011318D02*
X033953Y011318D01*
X034147Y011318D02*
X034213Y011318D01*
X034213Y011220D02*
X034147Y011220D01*
X034147Y011121D02*
X034213Y011121D01*
X034213Y011023D02*
X034147Y011023D01*
X034147Y010924D02*
X023275Y010924D01*
X023605Y011417D02*
X040704Y011417D01*
X040671Y011318D02*
X035407Y011318D01*
X035360Y011365D02*
X035000Y011365D01*
X034745Y011110D01*
X034745Y010750D01*
X035000Y010495D01*
X035360Y010495D01*
X035615Y010750D01*
X035615Y011110D01*
X035360Y011365D01*
X035506Y011220D02*
X040671Y011220D01*
X040671Y011121D02*
X035604Y011121D01*
X035615Y011023D02*
X040671Y011023D01*
X040716Y010924D02*
X035615Y010924D01*
X035615Y010826D02*
X040814Y010826D01*
X040913Y010727D02*
X035592Y010727D01*
X035494Y010629D02*
X040916Y010629D01*
X040963Y010676D02*
X041378Y010676D01*
X041671Y010384D01*
X041671Y009969D01*
X041378Y009676D01*
X040963Y009676D01*
X040898Y009742D02*
X035483Y009742D01*
X035385Y009841D02*
X040799Y009841D01*
X040701Y009939D02*
X010054Y009939D01*
X010115Y010038D02*
X040671Y010038D01*
X040671Y010136D02*
X010115Y010136D01*
X010115Y010235D02*
X040671Y010235D01*
X040671Y010333D02*
X010115Y010333D01*
X010044Y010432D02*
X040719Y010432D01*
X040817Y010530D02*
X035395Y010530D01*
X034965Y010530D02*
X034395Y010530D01*
X034360Y010495D02*
X034615Y010750D01*
X034615Y010897D01*
X034213Y010897D01*
X034213Y010495D01*
X034360Y010495D01*
X034213Y010530D02*
X034147Y010530D01*
X034147Y010629D02*
X034213Y010629D01*
X034213Y010727D02*
X034147Y010727D01*
X034147Y010826D02*
X034213Y010826D01*
X034213Y010924D02*
X034745Y010924D01*
X034745Y010826D02*
X034615Y010826D01*
X034592Y010727D02*
X034768Y010727D01*
X034866Y010629D02*
X034494Y010629D01*
X034615Y011023D02*
X034745Y011023D01*
X034756Y011121D02*
X034604Y011121D01*
X034506Y011220D02*
X034854Y011220D01*
X034953Y011318D02*
X034407Y011318D01*
X033965Y010530D02*
X009945Y010530D01*
X009713Y009545D02*
X009647Y009545D01*
X009647Y009447D02*
X009713Y009447D01*
X009713Y009348D02*
X009647Y009348D01*
X009647Y009250D02*
X009713Y009250D01*
X009647Y009151D02*
X000930Y009151D01*
X000930Y009053D02*
X002291Y009053D01*
X002103Y008954D02*
X000930Y008954D01*
X000930Y008856D02*
X002005Y008856D01*
X001906Y008757D02*
X000930Y008757D01*
X000930Y008659D02*
X001845Y008659D01*
X001804Y008560D02*
X000930Y008560D01*
X000930Y008462D02*
X001763Y008462D01*
X001725Y008363D02*
X000930Y008363D01*
X000930Y008265D02*
X001725Y008265D01*
X001725Y008166D02*
X000930Y008166D01*
X000930Y008068D02*
X001725Y008068D01*
X001734Y007969D02*
X000930Y007969D01*
X000930Y007871D02*
X001775Y007871D01*
X001815Y007772D02*
X000930Y007772D01*
X000930Y007674D02*
X001856Y007674D01*
X001934Y007575D02*
X000930Y007575D01*
X000930Y007477D02*
X002033Y007477D01*
X002131Y007378D02*
X000930Y007378D01*
X000930Y007280D02*
X002358Y007280D01*
X003002Y007280D02*
X012831Y007280D01*
X012880Y007231D02*
X013002Y007180D01*
X012880Y007129D01*
X012731Y006980D01*
X012650Y006785D01*
X012650Y006575D01*
X012731Y006380D01*
X012880Y006231D01*
X012816Y006295D02*
X000930Y006295D01*
X000930Y006393D02*
X012725Y006393D01*
X012684Y006492D02*
X000930Y006492D01*
X000930Y006590D02*
X012650Y006590D01*
X012650Y006689D02*
X000930Y006689D01*
X000930Y006787D02*
X012651Y006787D01*
X012691Y006886D02*
X000930Y006886D01*
X000930Y006984D02*
X012734Y006984D01*
X012833Y007083D02*
X000930Y007083D01*
X000930Y007181D02*
X013000Y007181D01*
X012880Y007231D02*
X012731Y007380D01*
X012650Y007575D01*
X012691Y007477D02*
X003327Y007477D01*
X003229Y007378D02*
X012732Y007378D01*
X013360Y007181D02*
X016805Y007181D01*
X016805Y007083D02*
X013527Y007083D01*
X013626Y006984D02*
X016814Y006984D01*
X016855Y006886D02*
X013669Y006886D01*
X013709Y006787D02*
X016896Y006787D01*
X016936Y006689D02*
X013710Y006689D01*
X013710Y006590D02*
X017033Y006590D01*
X017131Y006492D02*
X013676Y006492D01*
X013635Y006393D02*
X017293Y006393D01*
X018067Y006393D02*
X027293Y006393D01*
X027131Y006492D02*
X018229Y006492D01*
X018327Y006590D02*
X027033Y006590D01*
X026936Y006689D02*
X018424Y006689D01*
X018464Y006787D02*
X026896Y006787D01*
X026855Y006886D02*
X018505Y006886D01*
X018546Y006984D02*
X026814Y006984D01*
X026805Y007083D02*
X018555Y007083D01*
X018555Y007181D02*
X026805Y007181D01*
X026805Y007280D02*
X018555Y007280D01*
X018545Y007378D02*
X026815Y007378D01*
X026856Y007477D02*
X018504Y007477D01*
X018463Y007575D02*
X026897Y007575D01*
X026937Y007674D02*
X018423Y007674D01*
X018325Y007772D02*
X027035Y007772D01*
X027133Y007871D02*
X018227Y007871D01*
X018062Y007969D02*
X027298Y007969D01*
X028062Y007969D02*
X031776Y007969D01*
X031745Y008068D02*
X013542Y008068D01*
X013634Y007969D02*
X017298Y007969D01*
X017133Y007871D02*
X013675Y007871D01*
X013392Y008166D02*
X031745Y008166D01*
X031874Y007871D02*
X028227Y007871D01*
X028325Y007772D02*
X031973Y007772D01*
X032387Y007772D02*
X034973Y007772D01*
X034874Y007871D02*
X032486Y007871D01*
X032584Y007969D02*
X034776Y007969D01*
X034745Y008068D02*
X032615Y008068D01*
X032615Y008166D02*
X034745Y008166D01*
X034745Y008265D02*
X032615Y008265D01*
X032612Y008363D02*
X034748Y008363D01*
X034846Y008462D02*
X032514Y008462D01*
X032415Y008560D02*
X034945Y008560D01*
X034942Y009053D02*
X032418Y009053D01*
X032516Y009151D02*
X034844Y009151D01*
X034745Y009250D02*
X032615Y009250D01*
X032615Y009348D02*
X034745Y009348D01*
X034745Y009447D02*
X032615Y009447D01*
X032615Y009545D02*
X034745Y009545D01*
X034778Y009644D02*
X032582Y009644D01*
X032483Y009742D02*
X034877Y009742D01*
X034975Y009841D02*
X032385Y009841D01*
X031778Y009644D02*
X007063Y009644D01*
X006846Y009545D02*
X009430Y009545D01*
X009331Y009447D02*
X000930Y009447D01*
X000930Y009545D02*
X004396Y009545D01*
X004411Y009530D02*
X004630Y009530D01*
X004630Y010130D01*
X004730Y010130D01*
X004730Y010230D01*
X005330Y010230D01*
X005330Y010449D01*
X004949Y010830D01*
X004730Y010830D01*
X004730Y010230D01*
X004630Y010230D01*
X004630Y010830D01*
X004411Y010830D01*
X004030Y010449D01*
X004030Y010230D01*
X004630Y010230D01*
X004630Y010130D01*
X004030Y010130D01*
X004030Y009911D01*
X004411Y009530D01*
X004297Y009644D02*
X000930Y009644D01*
X000930Y009742D02*
X004199Y009742D01*
X004100Y009841D02*
X000930Y009841D01*
X000930Y009939D02*
X004030Y009939D01*
X004030Y010038D02*
X000930Y010038D01*
X000930Y010136D02*
X004630Y010136D01*
X004630Y010038D02*
X004730Y010038D01*
X004730Y010130D02*
X004730Y009530D01*
X004949Y009530D01*
X005330Y009911D01*
X005330Y010130D01*
X004730Y010130D01*
X004730Y010136D02*
X006030Y010136D01*
X006030Y010235D02*
X005330Y010235D01*
X005330Y010333D02*
X006040Y010333D01*
X006081Y010432D02*
X005330Y010432D01*
X005249Y010530D02*
X006121Y010530D01*
X006209Y010629D02*
X005151Y010629D01*
X005052Y010727D02*
X006308Y010727D01*
X006540Y010826D02*
X004954Y010826D01*
X004730Y010826D02*
X004630Y010826D01*
X004630Y010727D02*
X004730Y010727D01*
X004730Y010629D02*
X004630Y010629D01*
X004630Y010530D02*
X004730Y010530D01*
X004730Y010432D02*
X004630Y010432D01*
X004630Y010333D02*
X004730Y010333D01*
X004730Y010235D02*
X004630Y010235D01*
X004630Y009939D02*
X004730Y009939D01*
X004730Y009841D02*
X004630Y009841D01*
X004630Y009742D02*
X004730Y009742D01*
X004730Y009644D02*
X004630Y009644D01*
X004630Y009545D02*
X004730Y009545D01*
X004964Y009545D02*
X006514Y009545D01*
X006297Y009644D02*
X005063Y009644D01*
X005161Y009742D02*
X006199Y009742D01*
X006117Y009841D02*
X005260Y009841D01*
X005330Y009939D02*
X006076Y009939D01*
X006035Y010038D02*
X005330Y010038D01*
X004406Y010826D02*
X000930Y010826D01*
X000930Y010924D02*
X022085Y010924D01*
X021987Y011023D02*
X000930Y011023D01*
X000930Y011121D02*
X021888Y011121D01*
X021837Y011220D02*
X013453Y011220D01*
X013480Y011231D02*
X013629Y011380D01*
X013710Y011575D01*
X013710Y011785D01*
X013629Y011980D01*
X013480Y012129D01*
X013285Y012210D01*
X013075Y012210D01*
X012880Y012129D01*
X012731Y011980D01*
X012650Y011785D01*
X012650Y011575D01*
X012731Y011380D01*
X012880Y011231D01*
X013075Y011150D01*
X013285Y011150D01*
X013480Y011231D01*
X013568Y011318D02*
X021796Y011318D01*
X021755Y011417D02*
X013645Y011417D01*
X013685Y011515D02*
X021725Y011515D01*
X021725Y011614D02*
X013710Y011614D01*
X013710Y011712D02*
X021725Y011712D01*
X021725Y011811D02*
X013700Y011811D01*
X013659Y011909D02*
X021741Y011909D01*
X021782Y012008D02*
X013602Y012008D01*
X013504Y012106D02*
X021823Y012106D01*
X021864Y012205D02*
X013299Y012205D01*
X013061Y012205D02*
X000930Y012205D01*
X000930Y012303D02*
X021952Y012303D01*
X022051Y012402D02*
X000930Y012402D01*
X000930Y012500D02*
X022164Y012500D01*
X022402Y012599D02*
X000930Y012599D01*
X000930Y012697D02*
X016961Y012697D01*
X016880Y012731D02*
X017075Y012650D01*
X017285Y012650D01*
X017480Y012731D01*
X017629Y012880D01*
X017710Y013075D01*
X017710Y013285D01*
X017629Y013480D01*
X017480Y013629D01*
X017285Y013710D01*
X017075Y013710D01*
X016880Y013629D01*
X016731Y013480D01*
X016650Y013285D01*
X016650Y013075D01*
X016731Y012880D01*
X016880Y012731D01*
X016815Y012796D02*
X015911Y012796D01*
X015860Y012745D02*
X016115Y013000D01*
X016115Y013360D01*
X015860Y013615D01*
X015500Y013615D01*
X015245Y013360D01*
X015245Y013000D01*
X015500Y012745D01*
X015860Y012745D01*
X016009Y012894D02*
X016725Y012894D01*
X016684Y012993D02*
X016108Y012993D01*
X016115Y013091D02*
X016650Y013091D01*
X016650Y013190D02*
X016115Y013190D01*
X016115Y013288D02*
X016651Y013288D01*
X016692Y013387D02*
X016089Y013387D01*
X015990Y013485D02*
X016735Y013485D01*
X016834Y013584D02*
X015892Y013584D01*
X015468Y013584D02*
X000930Y013584D01*
X000930Y013682D02*
X008021Y013682D01*
X008071Y013661D02*
X008289Y013661D01*
X008492Y013745D01*
X008646Y013900D01*
X008730Y014102D01*
X008730Y014321D01*
X008646Y014523D01*
X008492Y014678D01*
X008289Y014761D01*
X008071Y014761D01*
X007868Y014678D01*
X007714Y014523D01*
X007630Y014321D01*
X007630Y014102D01*
X007714Y013900D01*
X007868Y013745D01*
X008071Y013661D01*
X007833Y013781D02*
X005896Y013781D01*
X005860Y013745D02*
X006115Y014000D01*
X006115Y014360D01*
X005860Y014615D01*
X005500Y014615D01*
X005245Y014360D01*
X005245Y014000D01*
X005500Y013745D01*
X005860Y013745D01*
X005994Y013879D02*
X007735Y013879D01*
X007682Y013978D02*
X006093Y013978D01*
X006115Y014076D02*
X007641Y014076D01*
X007630Y014175D02*
X006115Y014175D01*
X006115Y014273D02*
X007630Y014273D01*
X007651Y014372D02*
X006104Y014372D01*
X006005Y014470D02*
X007692Y014470D01*
X007759Y014569D02*
X005907Y014569D01*
X005453Y014569D02*
X002907Y014569D01*
X002860Y014615D02*
X002713Y014615D01*
X002713Y014213D01*
X002647Y014213D01*
X002647Y014615D01*
X002500Y014615D01*
X002245Y014360D01*
X002245Y014213D01*
X002647Y014213D01*
X002647Y014147D01*
X002245Y014147D01*
X002245Y014000D01*
X002500Y013745D01*
X002647Y013745D01*
X002647Y014147D01*
X002713Y014147D01*
X002713Y014213D01*
X003115Y014213D01*
X003115Y014360D01*
X002860Y014615D01*
X002713Y014569D02*
X002647Y014569D01*
X002647Y014470D02*
X002713Y014470D01*
X002713Y014372D02*
X002647Y014372D01*
X002647Y014273D02*
X002713Y014273D01*
X002713Y014175D02*
X005245Y014175D01*
X005245Y014273D02*
X003115Y014273D01*
X003104Y014372D02*
X005256Y014372D01*
X005355Y014470D02*
X003005Y014470D01*
X003115Y014147D02*
X002713Y014147D01*
X002713Y013745D01*
X002860Y013745D01*
X003115Y014000D01*
X003115Y014147D01*
X003115Y014076D02*
X005245Y014076D01*
X005267Y013978D02*
X003093Y013978D01*
X002994Y013879D02*
X005366Y013879D01*
X005464Y013781D02*
X002896Y013781D01*
X002713Y013781D02*
X002647Y013781D01*
X002647Y013879D02*
X002713Y013879D01*
X002713Y013978D02*
X002647Y013978D01*
X002647Y014076D02*
X002713Y014076D01*
X002647Y014175D02*
X000930Y014175D01*
X000930Y014273D02*
X002245Y014273D01*
X002256Y014372D02*
X000930Y014372D01*
X000930Y014470D02*
X002355Y014470D01*
X002453Y014569D02*
X000930Y014569D01*
X000930Y014667D02*
X007858Y014667D01*
X008502Y014667D02*
X012155Y014667D01*
X012130Y014569D02*
X008601Y014569D01*
X008668Y014470D02*
X012130Y014470D01*
X012130Y014372D02*
X008709Y014372D01*
X008730Y014273D02*
X012130Y014273D01*
X012130Y014175D02*
X008730Y014175D01*
X008719Y014076D02*
X012130Y014076D01*
X012130Y013978D02*
X008678Y013978D01*
X008625Y013879D02*
X012130Y013879D01*
X012130Y013781D02*
X008527Y013781D01*
X008339Y013682D02*
X012166Y013682D01*
X013194Y013682D02*
X017007Y013682D01*
X017353Y013682D02*
X036745Y013682D01*
X036745Y013584D02*
X017526Y013584D01*
X017624Y013485D02*
X036760Y013485D01*
X036745Y013500D02*
X037000Y013245D01*
X037360Y013245D01*
X037615Y013500D01*
X037615Y013860D01*
X037360Y014115D01*
X037000Y014115D01*
X036745Y013860D01*
X036745Y013500D01*
X036858Y013387D02*
X017668Y013387D01*
X017709Y013288D02*
X036957Y013288D01*
X037403Y013288D02*
X038457Y013288D01*
X038358Y013387D02*
X037502Y013387D01*
X037600Y013485D02*
X038260Y013485D01*
X038245Y013584D02*
X037615Y013584D01*
X037615Y013682D02*
X038245Y013682D01*
X038245Y013781D02*
X037615Y013781D01*
X037596Y013879D02*
X038264Y013879D01*
X038362Y013978D02*
X037498Y013978D01*
X037399Y014076D02*
X038461Y014076D01*
X039100Y013485D02*
X040772Y013485D01*
X040674Y013387D02*
X039002Y013387D01*
X038903Y013288D02*
X040671Y013288D01*
X040671Y013190D02*
X017710Y013190D01*
X017710Y013091D02*
X038476Y013091D01*
X038500Y013115D02*
X038245Y012860D01*
X038245Y012713D01*
X038647Y012713D01*
X038647Y013115D01*
X038500Y013115D01*
X038647Y013091D02*
X038713Y013091D01*
X038713Y013115D02*
X038713Y012713D01*
X038647Y012713D01*
X038647Y012647D01*
X038245Y012647D01*
X038245Y012500D01*
X023196Y012500D01*
X023309Y012402D02*
X038343Y012402D01*
X038245Y012500D02*
X038500Y012245D01*
X038647Y012245D01*
X038647Y012647D01*
X038713Y012647D01*
X038713Y012713D01*
X039115Y012713D01*
X039115Y012860D01*
X038860Y013115D01*
X038713Y013115D01*
X038713Y012993D02*
X038647Y012993D01*
X038647Y012894D02*
X038713Y012894D01*
X038713Y012796D02*
X038647Y012796D01*
X038647Y012697D02*
X017399Y012697D01*
X017545Y012796D02*
X038245Y012796D01*
X038279Y012894D02*
X017635Y012894D01*
X017676Y012993D02*
X038377Y012993D01*
X038245Y012599D02*
X022958Y012599D01*
X023408Y012303D02*
X038442Y012303D01*
X038647Y012303D02*
X038713Y012303D01*
X038713Y012245D02*
X038860Y012245D01*
X039115Y012500D01*
X040787Y012500D01*
X040689Y012402D02*
X039017Y012402D01*
X039115Y012500D02*
X039115Y012647D01*
X038713Y012647D01*
X038713Y012245D01*
X038713Y012402D02*
X038647Y012402D01*
X038647Y012500D02*
X038713Y012500D01*
X038713Y012599D02*
X038647Y012599D01*
X038713Y012697D02*
X040943Y012697D01*
X040963Y012676D02*
X041378Y012676D01*
X041671Y012384D01*
X041671Y011969D01*
X041378Y011676D01*
X040963Y011676D01*
X041378Y011676D01*
X041671Y011384D01*
X041671Y010969D01*
X041378Y010676D01*
X040963Y010676D01*
X041426Y010629D02*
X051920Y010629D01*
X051968Y010676D02*
X051675Y010383D01*
X051675Y009969D01*
X051968Y009676D01*
X051675Y009383D01*
X051675Y008969D01*
X051968Y008676D01*
X051675Y008383D01*
X051675Y007969D01*
X041670Y007969D01*
X041671Y008068D02*
X051675Y008068D01*
X051675Y008166D02*
X041671Y008166D01*
X041671Y008265D02*
X051675Y008265D01*
X051675Y008363D02*
X041671Y008363D01*
X041593Y008462D02*
X051753Y008462D01*
X051852Y008560D02*
X041494Y008560D01*
X041396Y008659D02*
X051950Y008659D01*
X051968Y008676D02*
X052382Y008676D01*
X052675Y008383D01*
X052675Y007969D01*
X055922Y007969D01*
X055922Y007871D02*
X052576Y007871D01*
X052675Y007969D02*
X052382Y007676D01*
X051968Y007676D01*
X051675Y007383D01*
X051675Y006969D01*
X051968Y006676D01*
X051675Y006383D01*
X051675Y005969D01*
X051968Y005676D01*
X051675Y005383D01*
X051675Y004969D01*
X051968Y004676D01*
X051675Y004383D01*
X051675Y003969D01*
X051968Y003676D01*
X052382Y003676D01*
X052675Y003969D01*
X052675Y004383D01*
X052382Y004676D01*
X051968Y004676D01*
X052382Y004676D01*
X052675Y004969D01*
X052675Y005383D01*
X052382Y005676D01*
X051968Y005676D01*
X052382Y005676D01*
X052675Y005969D01*
X052675Y006383D01*
X052382Y006676D01*
X051968Y006676D01*
X052382Y006676D01*
X052675Y006969D01*
X052675Y007383D01*
X052382Y007676D01*
X051968Y007676D01*
X051675Y007969D01*
X051773Y007871D02*
X041572Y007871D01*
X041473Y007772D02*
X051872Y007772D01*
X051965Y007674D02*
X041381Y007674D01*
X041479Y007575D02*
X051867Y007575D01*
X051768Y007477D02*
X041578Y007477D01*
X041671Y007378D02*
X051675Y007378D01*
X051675Y007280D02*
X041671Y007280D01*
X041671Y007181D02*
X051675Y007181D01*
X051675Y007083D02*
X041671Y007083D01*
X041671Y006984D02*
X051675Y006984D01*
X051758Y006886D02*
X041587Y006886D01*
X041488Y006787D02*
X051857Y006787D01*
X051955Y006689D02*
X041390Y006689D01*
X041464Y006590D02*
X051882Y006590D01*
X051783Y006492D02*
X041563Y006492D01*
X041661Y006393D02*
X051685Y006393D01*
X051675Y006295D02*
X041671Y006295D01*
X041671Y006196D02*
X051675Y006196D01*
X051675Y006098D02*
X041671Y006098D01*
X041671Y005999D02*
X051675Y005999D01*
X051743Y005901D02*
X041602Y005901D01*
X041503Y005802D02*
X051842Y005802D01*
X051940Y005704D02*
X041405Y005704D01*
X041449Y005605D02*
X051897Y005605D01*
X051798Y005507D02*
X041548Y005507D01*
X041646Y005408D02*
X051700Y005408D01*
X051675Y005310D02*
X041671Y005310D01*
X041671Y005211D02*
X051675Y005211D01*
X051675Y005113D02*
X041671Y005113D01*
X041671Y005014D02*
X051675Y005014D01*
X051728Y004916D02*
X041617Y004916D01*
X041518Y004817D02*
X051827Y004817D01*
X051925Y004719D02*
X041420Y004719D01*
X041434Y004620D02*
X051912Y004620D01*
X051813Y004522D02*
X041533Y004522D01*
X041631Y004423D02*
X051715Y004423D01*
X051675Y004325D02*
X041671Y004325D01*
X041671Y004226D02*
X051675Y004226D01*
X051675Y004128D02*
X041671Y004128D01*
X041671Y004029D02*
X051675Y004029D01*
X051713Y003931D02*
X041632Y003931D01*
X041533Y003832D02*
X051812Y003832D01*
X051910Y003734D02*
X041435Y003734D01*
X040906Y003734D02*
X024650Y003734D01*
X024650Y003832D02*
X031913Y003832D01*
X032000Y003745D02*
X032360Y003745D01*
X032615Y004000D01*
X032615Y004360D01*
X032360Y004615D01*
X032000Y004615D01*
X031745Y004360D01*
X031745Y004000D01*
X032000Y003745D01*
X031814Y003931D02*
X024614Y003931D01*
X024578Y004016D02*
X024446Y004148D01*
X024273Y004220D01*
X024087Y004220D01*
X023914Y004148D01*
X023782Y004016D01*
X023710Y003843D01*
X023710Y003017D01*
X023782Y002844D01*
X023914Y002712D01*
X024087Y002640D01*
X024273Y002640D01*
X024446Y002712D01*
X024578Y002844D01*
X024650Y003017D01*
X024650Y003843D01*
X024578Y004016D01*
X024566Y004029D02*
X031745Y004029D01*
X031745Y004128D02*
X024467Y004128D01*
X024650Y003635D02*
X055922Y003635D01*
X055922Y003537D02*
X054608Y003537D01*
X054721Y003490D02*
X054370Y003635D01*
X053990Y003635D01*
X053639Y003490D01*
X053370Y003221D01*
X053225Y002870D01*
X053225Y002490D01*
X053370Y002139D01*
X053639Y001870D01*
X053990Y001725D01*
X054370Y001725D01*
X054721Y001870D01*
X054990Y002139D01*
X055135Y002490D01*
X055135Y002870D01*
X054990Y003221D01*
X054721Y003490D01*
X054773Y003438D02*
X055922Y003438D01*
X055922Y003340D02*
X054871Y003340D01*
X054970Y003241D02*
X055922Y003241D01*
X055922Y003143D02*
X055022Y003143D01*
X055063Y003044D02*
X055922Y003044D01*
X055922Y002946D02*
X055104Y002946D01*
X055135Y002847D02*
X055922Y002847D01*
X055922Y002749D02*
X055135Y002749D01*
X055135Y002650D02*
X055922Y002650D01*
X055922Y002552D02*
X055135Y002552D01*
X055120Y002453D02*
X055922Y002453D01*
X055922Y002355D02*
X055079Y002355D01*
X055038Y002256D02*
X055922Y002256D01*
X055922Y002158D02*
X054997Y002158D01*
X054910Y002059D02*
X055922Y002059D01*
X055922Y001961D02*
X054811Y001961D01*
X054701Y001862D02*
X055922Y001862D01*
X055922Y001764D02*
X054463Y001764D01*
X053897Y001764D02*
X000930Y001764D01*
X000930Y001862D02*
X053659Y001862D01*
X053549Y001961D02*
X000930Y001961D01*
X000930Y002059D02*
X032039Y002059D01*
X032034Y002061D02*
X032193Y001995D01*
X032367Y001995D01*
X032526Y002061D01*
X032649Y002184D01*
X032667Y002228D01*
X032900Y001995D01*
X033260Y001995D01*
X033515Y002250D01*
X033515Y002610D01*
X033260Y002865D01*
X032900Y002865D01*
X032667Y002632D01*
X032649Y002676D01*
X032526Y002799D01*
X032367Y002865D01*
X032193Y002865D01*
X032034Y002799D01*
X031911Y002676D01*
X031845Y002517D01*
X031845Y002343D01*
X031911Y002184D01*
X032034Y002061D01*
X031937Y002158D02*
X013269Y002158D01*
X013304Y002163D02*
X013383Y002189D01*
X013458Y002227D01*
X013525Y002276D01*
X013584Y002335D01*
X013633Y002402D01*
X013671Y002477D01*
X013697Y002556D01*
X013709Y002630D01*
X013230Y002630D01*
X013230Y002730D01*
X013130Y002730D01*
X013130Y003209D01*
X013056Y003197D01*
X012977Y003171D01*
X012902Y003133D01*
X012835Y003084D01*
X012776Y003025D01*
X012727Y002958D01*
X012689Y002883D01*
X012663Y002804D01*
X012651Y002730D01*
X013130Y002730D01*
X013130Y002630D01*
X012651Y002630D01*
X012663Y002556D01*
X012689Y002477D01*
X012727Y002402D01*
X012776Y002335D01*
X012835Y002276D01*
X012902Y002227D01*
X012977Y002189D01*
X013056Y002163D01*
X013130Y002151D01*
X013130Y002630D01*
X013230Y002630D01*
X013230Y002151D01*
X013304Y002163D01*
X013230Y002158D02*
X013130Y002158D01*
X013091Y002158D02*
X000930Y002158D01*
X000930Y002256D02*
X002871Y002256D01*
X002892Y002241D02*
X002969Y002202D01*
X003051Y002175D01*
X003130Y002163D01*
X003130Y002661D01*
X003230Y002661D01*
X003230Y002163D01*
X003309Y002175D01*
X003391Y002202D01*
X003468Y002241D01*
X003538Y002292D01*
X003600Y002353D01*
X003650Y002423D01*
X003690Y002500D01*
X003716Y002583D01*
X003729Y002661D01*
X003230Y002661D01*
X003230Y002761D01*
X003729Y002761D01*
X003716Y002840D01*
X003690Y002923D01*
X003650Y003000D01*
X003600Y003070D01*
X003538Y003131D01*
X003468Y003182D01*
X003391Y003221D01*
X003309Y003248D01*
X003230Y003260D01*
X003230Y002762D01*
X003130Y002762D01*
X003130Y003260D01*
X003051Y003248D01*
X002969Y003221D01*
X002892Y003182D01*
X002822Y003131D01*
X002760Y003070D01*
X002710Y003000D01*
X002670Y002923D01*
X002644Y002840D01*
X002631Y002761D01*
X003130Y002761D01*
X003130Y002661D01*
X002631Y002661D01*
X002644Y002583D01*
X002670Y002500D01*
X002710Y002423D01*
X002760Y002353D01*
X002822Y002292D01*
X002892Y002241D01*
X002760Y002355D02*
X000930Y002355D01*
X000930Y002453D02*
X002694Y002453D01*
X002654Y002552D02*
X000930Y002552D01*
X000930Y002650D02*
X002633Y002650D01*
X002646Y002847D02*
X000930Y002847D01*
X000930Y002749D02*
X003130Y002749D01*
X003130Y002847D02*
X003230Y002847D01*
X003230Y002749D02*
X012654Y002749D01*
X012677Y002847D02*
X003714Y002847D01*
X003678Y002946D02*
X012720Y002946D01*
X012794Y003044D02*
X003618Y003044D01*
X003522Y003143D02*
X012920Y003143D01*
X013130Y003143D02*
X013230Y003143D01*
X013230Y003209D02*
X013230Y002730D01*
X013709Y002730D01*
X013697Y002804D01*
X013671Y002883D01*
X013633Y002958D01*
X013584Y003025D01*
X013525Y003084D01*
X013458Y003133D01*
X013383Y003171D01*
X013304Y003197D01*
X013230Y003209D01*
X013230Y003044D02*
X013130Y003044D01*
X013130Y002946D02*
X013230Y002946D01*
X013230Y002847D02*
X013130Y002847D01*
X013130Y002749D02*
X013230Y002749D01*
X013230Y002650D02*
X021062Y002650D01*
X021087Y002640D02*
X021273Y002640D01*
X021446Y002712D01*
X021578Y002844D01*
X021650Y003017D01*
X021650Y003843D01*
X021578Y004016D01*
X021446Y004148D01*
X021273Y004220D01*
X021087Y004220D01*
X020914Y004148D01*
X020782Y004016D01*
X020710Y003843D01*
X020710Y003017D01*
X020782Y002844D01*
X020914Y002712D01*
X021087Y002640D01*
X021298Y002650D02*
X022580Y002650D01*
X022570Y002652D02*
X022630Y002642D01*
X022630Y003380D01*
X022730Y003380D01*
X022730Y003480D01*
X023150Y003480D01*
X023150Y003787D01*
X023138Y003860D01*
X023116Y003930D01*
X023082Y003996D01*
X023038Y004056D01*
X022986Y004108D01*
X022926Y004152D01*
X022860Y004186D01*
X022790Y004208D01*
X022730Y004218D01*
X022730Y003480D01*
X022630Y003480D01*
X022630Y004218D01*
X022570Y004208D01*
X022500Y004186D01*
X022434Y004152D01*
X022374Y004108D01*
X022322Y004056D01*
X022278Y003996D01*
X022244Y003930D01*
X022222Y003860D01*
X022210Y003787D01*
X022210Y003480D01*
X022630Y003480D01*
X022630Y003380D01*
X022210Y003380D01*
X022210Y003073D01*
X022222Y003000D01*
X022244Y002930D01*
X022278Y002864D01*
X022322Y002804D01*
X022374Y002752D01*
X022434Y002708D01*
X022500Y002674D01*
X022570Y002652D01*
X022630Y002650D02*
X022730Y002650D01*
X022730Y002642D02*
X022790Y002652D01*
X022860Y002674D01*
X022926Y002708D01*
X022986Y002752D01*
X023038Y002804D01*
X023082Y002864D01*
X023116Y002930D01*
X023138Y003000D01*
X023150Y003073D01*
X023150Y003380D01*
X022730Y003380D01*
X022730Y002642D01*
X022780Y002650D02*
X024062Y002650D01*
X023877Y002749D02*
X022982Y002749D01*
X023070Y002847D02*
X023780Y002847D01*
X023739Y002946D02*
X023121Y002946D01*
X023145Y003044D02*
X023710Y003044D01*
X023710Y003143D02*
X023150Y003143D01*
X023150Y003241D02*
X023710Y003241D01*
X023710Y003340D02*
X023150Y003340D01*
X023150Y003537D02*
X023710Y003537D01*
X023710Y003635D02*
X023150Y003635D01*
X023150Y003734D02*
X023710Y003734D01*
X023710Y003832D02*
X023143Y003832D01*
X023116Y003931D02*
X023746Y003931D01*
X023794Y004029D02*
X023058Y004029D01*
X022960Y004128D02*
X023893Y004128D01*
X023711Y004226D02*
X031745Y004226D01*
X031745Y004325D02*
X023809Y004325D01*
X023828Y004344D02*
X023900Y004517D01*
X023900Y005343D01*
X023828Y005516D01*
X023696Y005648D01*
X023523Y005720D01*
X023337Y005720D01*
X023164Y005648D01*
X023032Y005516D01*
X022960Y005343D01*
X022960Y004517D01*
X023032Y004344D01*
X023164Y004212D01*
X023337Y004140D01*
X023523Y004140D01*
X023696Y004212D01*
X023828Y004344D01*
X023861Y004423D02*
X031808Y004423D01*
X031906Y004522D02*
X023900Y004522D01*
X023900Y004620D02*
X040907Y004620D01*
X040921Y004719D02*
X023900Y004719D01*
X023900Y004817D02*
X040823Y004817D01*
X040724Y004916D02*
X023900Y004916D01*
X023900Y005014D02*
X040671Y005014D01*
X040671Y005113D02*
X023900Y005113D01*
X023900Y005211D02*
X040671Y005211D01*
X040808Y004522D02*
X037604Y004522D01*
X037510Y004615D02*
X037765Y004360D01*
X037765Y004213D01*
X037363Y004213D01*
X037363Y004147D01*
X037765Y004147D01*
X037765Y004000D01*
X037510Y003745D01*
X037363Y003745D01*
X037363Y004147D01*
X037297Y004147D01*
X037297Y003745D01*
X037150Y003745D01*
X036917Y003978D01*
X036899Y003934D01*
X036776Y003811D01*
X036617Y003745D01*
X036443Y003745D01*
X036284Y003811D01*
X036161Y003934D01*
X036095Y004093D01*
X036095Y004267D01*
X036161Y004426D01*
X036284Y004549D01*
X036443Y004615D01*
X036617Y004615D01*
X036776Y004549D01*
X036899Y004426D01*
X036917Y004382D01*
X037150Y004615D01*
X037297Y004615D01*
X037297Y004213D01*
X037363Y004213D01*
X037363Y004615D01*
X037510Y004615D01*
X037363Y004522D02*
X037297Y004522D01*
X037297Y004423D02*
X037363Y004423D01*
X037363Y004325D02*
X037297Y004325D01*
X037297Y004226D02*
X037363Y004226D01*
X037363Y004128D02*
X037297Y004128D01*
X037297Y004029D02*
X037363Y004029D01*
X037363Y003931D02*
X037297Y003931D01*
X037297Y003832D02*
X037363Y003832D01*
X037597Y003832D02*
X040808Y003832D01*
X040709Y003931D02*
X037696Y003931D01*
X037765Y004029D02*
X040671Y004029D01*
X040671Y004128D02*
X037765Y004128D01*
X037765Y004226D02*
X040671Y004226D01*
X040671Y004325D02*
X037765Y004325D01*
X037702Y004423D02*
X040710Y004423D01*
X037056Y004522D02*
X036804Y004522D01*
X036900Y004423D02*
X036958Y004423D01*
X036964Y003931D02*
X036896Y003931D01*
X036797Y003832D02*
X037063Y003832D01*
X036263Y003832D02*
X035447Y003832D01*
X035360Y003745D02*
X035615Y004000D01*
X035615Y004360D01*
X035360Y004615D01*
X035000Y004615D01*
X034745Y004360D01*
X034745Y004000D01*
X035000Y003745D01*
X035360Y003745D01*
X035546Y003931D02*
X036164Y003931D01*
X036122Y004029D02*
X035615Y004029D01*
X035615Y004128D02*
X036095Y004128D01*
X036095Y004226D02*
X035615Y004226D01*
X035615Y004325D02*
X036119Y004325D01*
X036160Y004423D02*
X035552Y004423D01*
X035454Y004522D02*
X036256Y004522D01*
X034906Y004522D02*
X032454Y004522D01*
X032552Y004423D02*
X034808Y004423D01*
X034745Y004325D02*
X032615Y004325D01*
X032615Y004226D02*
X034745Y004226D01*
X034745Y004128D02*
X032615Y004128D01*
X032615Y004029D02*
X034745Y004029D01*
X034814Y003931D02*
X032546Y003931D01*
X032447Y003832D02*
X034913Y003832D01*
X033475Y002650D02*
X053225Y002650D01*
X053225Y002552D02*
X033515Y002552D01*
X033515Y002453D02*
X053240Y002453D01*
X053281Y002355D02*
X033515Y002355D01*
X033515Y002256D02*
X053322Y002256D01*
X053363Y002158D02*
X033423Y002158D01*
X033324Y002059D02*
X053450Y002059D01*
X053225Y002749D02*
X033377Y002749D01*
X033278Y002847D02*
X053225Y002847D01*
X053256Y002946D02*
X024621Y002946D01*
X024650Y003044D02*
X053297Y003044D01*
X053338Y003143D02*
X024650Y003143D01*
X024650Y003241D02*
X053390Y003241D01*
X053489Y003340D02*
X024650Y003340D01*
X024650Y003438D02*
X053587Y003438D01*
X053752Y003537D02*
X024650Y003537D01*
X024580Y002847D02*
X032150Y002847D01*
X031983Y002749D02*
X024483Y002749D01*
X024298Y002650D02*
X031900Y002650D01*
X031859Y002552D02*
X013696Y002552D01*
X013659Y002453D02*
X031845Y002453D01*
X031845Y002355D02*
X013599Y002355D01*
X013498Y002256D02*
X031881Y002256D01*
X032521Y002059D02*
X032836Y002059D01*
X032737Y002158D02*
X032623Y002158D01*
X032660Y002650D02*
X032685Y002650D01*
X032783Y002749D02*
X032577Y002749D01*
X032410Y002847D02*
X032882Y002847D01*
X031935Y005310D02*
X023900Y005310D01*
X023873Y005408D02*
X031837Y005408D01*
X031745Y005507D02*
X023832Y005507D01*
X023740Y005605D02*
X031745Y005605D01*
X031745Y005704D02*
X023563Y005704D01*
X023297Y005704D02*
X022063Y005704D01*
X022023Y005720D02*
X021837Y005720D01*
X021664Y005648D01*
X021532Y005516D01*
X021460Y005343D01*
X021460Y004517D01*
X021532Y004344D01*
X021664Y004212D01*
X021837Y004140D01*
X022023Y004140D01*
X022196Y004212D01*
X022328Y004344D01*
X022400Y004517D01*
X022400Y005343D01*
X022328Y005516D01*
X022196Y005648D01*
X022023Y005720D01*
X021797Y005704D02*
X000930Y005704D01*
X000930Y005802D02*
X031745Y005802D01*
X031785Y005901D02*
X000930Y005901D01*
X000930Y005999D02*
X031884Y005999D01*
X032000Y006495D02*
X032147Y006495D01*
X032147Y006897D01*
X032213Y006897D01*
X032213Y006963D01*
X032615Y006963D01*
X032615Y007110D01*
X032360Y007365D01*
X032213Y007365D01*
X032213Y006963D01*
X032147Y006963D01*
X032147Y007365D01*
X032000Y007365D01*
X031745Y007110D01*
X031745Y006963D01*
X032147Y006963D01*
X032147Y006897D01*
X031745Y006897D01*
X031745Y006750D01*
X032000Y006495D01*
X031905Y006590D02*
X028327Y006590D01*
X028424Y006689D02*
X031806Y006689D01*
X031745Y006787D02*
X028464Y006787D01*
X028505Y006886D02*
X031745Y006886D01*
X031745Y006984D02*
X028546Y006984D01*
X028555Y007083D02*
X031745Y007083D01*
X031816Y007181D02*
X028555Y007181D01*
X028555Y007280D02*
X031914Y007280D01*
X032147Y007280D02*
X032213Y007280D01*
X032213Y007181D02*
X032147Y007181D01*
X032147Y007083D02*
X032213Y007083D01*
X032213Y006984D02*
X032147Y006984D01*
X032147Y006886D02*
X032213Y006886D01*
X032213Y006897D02*
X032213Y006495D01*
X032360Y006495D01*
X032615Y006750D01*
X032615Y006897D01*
X032213Y006897D01*
X032213Y006787D02*
X032147Y006787D01*
X032147Y006689D02*
X032213Y006689D01*
X032213Y006590D02*
X032147Y006590D01*
X032455Y006590D02*
X034905Y006590D01*
X034806Y006689D02*
X032554Y006689D01*
X032615Y006787D02*
X034745Y006787D01*
X034745Y006886D02*
X032615Y006886D01*
X032615Y006984D02*
X034745Y006984D01*
X034745Y007083D02*
X032615Y007083D01*
X032544Y007181D02*
X034816Y007181D01*
X034914Y007280D02*
X032446Y007280D01*
X035455Y006590D02*
X035745Y006590D01*
X035745Y006492D02*
X028229Y006492D01*
X028067Y006393D02*
X035745Y006393D01*
X035745Y006295D02*
X013544Y006295D01*
X013397Y006196D02*
X035799Y006196D01*
X035897Y006098D02*
X035378Y006098D01*
X035476Y005999D02*
X035996Y005999D01*
X035823Y006689D02*
X035554Y006689D01*
X041458Y008757D02*
X051887Y008757D01*
X051968Y008676D02*
X052382Y008676D01*
X052675Y008969D01*
X052675Y009383D01*
X052382Y009676D01*
X051968Y009676D01*
X052382Y009676D01*
X052675Y009969D01*
X052675Y010383D01*
X052382Y010676D01*
X051968Y010676D01*
X052382Y010676D01*
X052675Y010969D01*
X052675Y011383D01*
X052382Y011676D01*
X051968Y011676D01*
X051675Y011383D01*
X051675Y010969D01*
X051968Y010676D01*
X051917Y010727D02*
X041428Y010727D01*
X041527Y010826D02*
X051818Y010826D01*
X051720Y010924D02*
X041625Y010924D01*
X041671Y011023D02*
X051675Y011023D01*
X051675Y011121D02*
X041671Y011121D01*
X041671Y011220D02*
X051675Y011220D01*
X051675Y011318D02*
X041671Y011318D01*
X041638Y011417D02*
X051708Y011417D01*
X051807Y011515D02*
X041539Y011515D01*
X041441Y011614D02*
X051905Y011614D01*
X051968Y011676D02*
X051675Y011969D01*
X051675Y012383D01*
X051968Y012676D01*
X052382Y012676D01*
X052675Y012383D01*
X052675Y011969D01*
X052382Y011676D01*
X051968Y011676D01*
X051932Y011712D02*
X041413Y011712D01*
X041512Y011811D02*
X051833Y011811D01*
X051735Y011909D02*
X041610Y011909D01*
X041671Y012008D02*
X051675Y012008D01*
X051675Y012106D02*
X041671Y012106D01*
X041671Y012205D02*
X051675Y012205D01*
X051675Y012303D02*
X041671Y012303D01*
X041653Y012402D02*
X051693Y012402D01*
X051792Y012500D02*
X041554Y012500D01*
X041456Y012599D02*
X051890Y012599D01*
X051968Y012676D02*
X052125Y012676D01*
X052125Y013126D01*
X052225Y013126D01*
X052225Y013226D01*
X052675Y013226D01*
X052675Y013383D01*
X052382Y013676D01*
X052225Y013676D01*
X052225Y013226D01*
X052125Y013226D01*
X052125Y013676D01*
X051968Y013676D01*
X051675Y013383D01*
X051675Y013226D01*
X052125Y013226D01*
X052125Y013126D01*
X051675Y013126D01*
X051675Y012969D01*
X051968Y012676D01*
X051947Y012697D02*
X041398Y012697D01*
X041378Y012676D02*
X041671Y012969D01*
X041671Y013384D01*
X041378Y013676D01*
X040963Y013676D01*
X041471Y013584D02*
X051875Y013584D01*
X051777Y013485D02*
X041569Y013485D01*
X041668Y013387D02*
X051678Y013387D01*
X051675Y013288D02*
X041671Y013288D01*
X041671Y013190D02*
X052125Y013190D01*
X052125Y013288D02*
X052225Y013288D01*
X052225Y013190D02*
X055922Y013190D01*
X055922Y013288D02*
X052675Y013288D01*
X052672Y013387D02*
X055922Y013387D01*
X055922Y013485D02*
X052573Y013485D01*
X052475Y013584D02*
X055922Y013584D01*
X055922Y013091D02*
X052675Y013091D01*
X052675Y013126D02*
X052225Y013126D01*
X052225Y012676D01*
X052382Y012676D01*
X052675Y012969D01*
X052675Y013126D01*
X052675Y012993D02*
X055922Y012993D01*
X055922Y012894D02*
X052600Y012894D01*
X052501Y012796D02*
X055922Y012796D01*
X055922Y012697D02*
X052403Y012697D01*
X052460Y012599D02*
X055922Y012599D01*
X055922Y012500D02*
X052558Y012500D01*
X052657Y012402D02*
X055922Y012402D01*
X055922Y012303D02*
X052675Y012303D01*
X052675Y012205D02*
X055922Y012205D01*
X055922Y012106D02*
X052675Y012106D01*
X052675Y012008D02*
X055922Y012008D01*
X055922Y011909D02*
X052615Y011909D01*
X052516Y011811D02*
X055922Y011811D01*
X055922Y011712D02*
X052418Y011712D01*
X052445Y011614D02*
X055922Y011614D01*
X055922Y011515D02*
X052543Y011515D01*
X052642Y011417D02*
X055922Y011417D01*
X055922Y011318D02*
X052675Y011318D01*
X052675Y011220D02*
X055922Y011220D01*
X055922Y011121D02*
X052675Y011121D01*
X052675Y011023D02*
X055922Y011023D01*
X055922Y010924D02*
X052630Y010924D01*
X052531Y010826D02*
X055922Y010826D01*
X055922Y010727D02*
X052433Y010727D01*
X052430Y010629D02*
X055922Y010629D01*
X055922Y010530D02*
X052528Y010530D01*
X052627Y010432D02*
X055922Y010432D01*
X055922Y010333D02*
X052675Y010333D01*
X052675Y010235D02*
X055922Y010235D01*
X055922Y010136D02*
X052675Y010136D01*
X052675Y010038D02*
X055922Y010038D01*
X055922Y009939D02*
X052645Y009939D01*
X052546Y009841D02*
X055922Y009841D01*
X055922Y009742D02*
X052448Y009742D01*
X052415Y009644D02*
X055922Y009644D01*
X055922Y009545D02*
X052513Y009545D01*
X052612Y009447D02*
X055922Y009447D01*
X055922Y009348D02*
X052675Y009348D01*
X052675Y009250D02*
X055922Y009250D01*
X055922Y009151D02*
X052675Y009151D01*
X052675Y009053D02*
X055922Y009053D01*
X055922Y008954D02*
X052660Y008954D01*
X052561Y008856D02*
X055922Y008856D01*
X055922Y008757D02*
X052463Y008757D01*
X052400Y008659D02*
X055922Y008659D01*
X055922Y008560D02*
X052498Y008560D01*
X052597Y008462D02*
X055922Y008462D01*
X055922Y008363D02*
X052675Y008363D01*
X052675Y008265D02*
X055922Y008265D01*
X055922Y008166D02*
X052675Y008166D01*
X052675Y008068D02*
X055922Y008068D01*
X055922Y007772D02*
X052478Y007772D01*
X052385Y007674D02*
X055922Y007674D01*
X055922Y007575D02*
X052483Y007575D01*
X052582Y007477D02*
X055922Y007477D01*
X055922Y007378D02*
X052675Y007378D01*
X052675Y007280D02*
X055922Y007280D01*
X055922Y007181D02*
X052675Y007181D01*
X052675Y007083D02*
X055922Y007083D01*
X055922Y006984D02*
X052675Y006984D01*
X052591Y006886D02*
X055922Y006886D01*
X055922Y006787D02*
X052493Y006787D01*
X052394Y006689D02*
X055922Y006689D01*
X055922Y006590D02*
X052468Y006590D01*
X052567Y006492D02*
X055922Y006492D01*
X055922Y006393D02*
X052665Y006393D01*
X052675Y006295D02*
X055922Y006295D01*
X055922Y006196D02*
X052675Y006196D01*
X052675Y006098D02*
X055922Y006098D01*
X055922Y005999D02*
X052675Y005999D01*
X052606Y005901D02*
X055922Y005901D01*
X055922Y005802D02*
X052508Y005802D01*
X052409Y005704D02*
X055922Y005704D01*
X055922Y005605D02*
X052453Y005605D01*
X052552Y005507D02*
X055922Y005507D01*
X055922Y005408D02*
X052650Y005408D01*
X052675Y005310D02*
X055922Y005310D01*
X055922Y005211D02*
X052675Y005211D01*
X052675Y005113D02*
X055922Y005113D01*
X055922Y005014D02*
X052675Y005014D01*
X052621Y004916D02*
X055922Y004916D01*
X055922Y004817D02*
X052523Y004817D01*
X052424Y004719D02*
X055922Y004719D01*
X055922Y004620D02*
X052438Y004620D01*
X052537Y004522D02*
X055922Y004522D01*
X055922Y004423D02*
X052635Y004423D01*
X052675Y004325D02*
X055922Y004325D01*
X055922Y004226D02*
X052675Y004226D01*
X052675Y004128D02*
X055922Y004128D01*
X055922Y004029D02*
X052675Y004029D01*
X052636Y003931D02*
X055922Y003931D01*
X055922Y003832D02*
X052538Y003832D01*
X052439Y003734D02*
X055922Y003734D01*
X055922Y001665D02*
X000930Y001665D01*
X000930Y001567D02*
X055922Y001567D01*
X055922Y001468D02*
X000930Y001468D01*
X000930Y001370D02*
X055922Y001370D01*
X055922Y001271D02*
X000930Y001271D01*
X000930Y001173D02*
X055922Y001173D01*
X055922Y001074D02*
X000930Y001074D01*
X000930Y000976D02*
X055922Y000976D01*
X051788Y008856D02*
X041557Y008856D01*
X041655Y008954D02*
X051690Y008954D01*
X051675Y009053D02*
X041671Y009053D01*
X041671Y009151D02*
X051675Y009151D01*
X051675Y009250D02*
X041671Y009250D01*
X041671Y009348D02*
X051675Y009348D01*
X051738Y009447D02*
X041608Y009447D01*
X041509Y009545D02*
X051837Y009545D01*
X051935Y009644D02*
X041411Y009644D01*
X041443Y009742D02*
X051902Y009742D01*
X051803Y009841D02*
X041542Y009841D01*
X041640Y009939D02*
X051705Y009939D01*
X051675Y010038D02*
X041671Y010038D01*
X041671Y010136D02*
X051675Y010136D01*
X051675Y010235D02*
X041671Y010235D01*
X041671Y010333D02*
X051675Y010333D01*
X051723Y010432D02*
X041623Y010432D01*
X041524Y010530D02*
X051822Y010530D01*
X052125Y012697D02*
X052225Y012697D01*
X052225Y012796D02*
X052125Y012796D01*
X052125Y012894D02*
X052225Y012894D01*
X052225Y012993D02*
X052125Y012993D01*
X052125Y013091D02*
X052225Y013091D01*
X052225Y013387D02*
X052125Y013387D01*
X052125Y013485D02*
X052225Y013485D01*
X052225Y013584D02*
X052125Y013584D01*
X051675Y013091D02*
X041671Y013091D01*
X041671Y012993D02*
X051675Y012993D01*
X051750Y012894D02*
X041595Y012894D01*
X041497Y012796D02*
X051848Y012796D01*
X041378Y012676D02*
X040963Y012676D01*
X040886Y012599D02*
X039115Y012599D01*
X039115Y012796D02*
X040844Y012796D01*
X040746Y012894D02*
X039081Y012894D01*
X038983Y012993D02*
X040671Y012993D01*
X040671Y013091D02*
X038884Y013091D01*
X038918Y012303D02*
X040671Y012303D01*
X040671Y012205D02*
X023496Y012205D01*
X023537Y012106D02*
X040671Y012106D01*
X040671Y012008D02*
X023578Y012008D01*
X023619Y011909D02*
X040731Y011909D01*
X040829Y011811D02*
X023635Y011811D01*
X023635Y011712D02*
X040928Y011712D01*
X040901Y011614D02*
X023635Y011614D01*
X023635Y011515D02*
X040802Y011515D01*
X036961Y014076D02*
X034543Y014076D01*
X034502Y013978D02*
X036862Y013978D01*
X036764Y013879D02*
X034409Y013879D01*
X036745Y013781D02*
X023396Y013781D01*
X022964Y013781D02*
X013230Y013781D01*
X013230Y013879D02*
X022866Y013879D01*
X022767Y013978D02*
X013230Y013978D01*
X013230Y014076D02*
X022745Y014076D01*
X022745Y014175D02*
X013230Y014175D01*
X013230Y014273D02*
X022745Y014273D01*
X021544Y014766D02*
X018816Y014766D01*
X018979Y014864D02*
X021381Y014864D01*
X021299Y014963D02*
X019061Y014963D01*
X019102Y015061D02*
X021258Y015061D01*
X021245Y015160D02*
X019115Y015160D01*
X019115Y015258D02*
X021245Y015258D01*
X021282Y015357D02*
X019078Y015357D01*
X019020Y015455D02*
X021340Y015455D01*
X021445Y015554D02*
X018915Y015554D01*
X018780Y015751D02*
X021611Y015751D01*
X021578Y015756D02*
X021646Y015745D01*
X021647Y015745D01*
X021647Y016147D01*
X021713Y016147D01*
X021713Y016213D01*
X021647Y016213D01*
X021647Y016615D01*
X021646Y016615D01*
X021578Y016604D01*
X021513Y016583D01*
X021452Y016552D01*
X021397Y016512D01*
X021348Y016463D01*
X021308Y016408D01*
X021277Y016347D01*
X021256Y016282D01*
X021245Y016214D01*
X021245Y016213D01*
X021647Y016213D01*
X021647Y016147D01*
X021245Y016147D01*
X021245Y016146D01*
X021256Y016078D01*
X021277Y016013D01*
X021308Y015952D01*
X021348Y015897D01*
X021397Y015848D01*
X021452Y015808D01*
X021513Y015777D01*
X021578Y015756D01*
X021647Y015751D02*
X021713Y015751D01*
X021713Y015745D02*
X022284Y015745D01*
X022352Y015756D01*
X022417Y015777D01*
X022478Y015808D01*
X022533Y015848D01*
X022582Y015897D01*
X022622Y015952D01*
X022653Y016013D01*
X022674Y016078D01*
X022685Y016146D01*
X022685Y016147D01*
X021713Y016147D01*
X021713Y015745D01*
X021713Y015849D02*
X021647Y015849D01*
X021647Y015948D02*
X021713Y015948D01*
X021713Y016046D02*
X021647Y016046D01*
X021647Y016145D02*
X021713Y016145D01*
X021713Y016213D02*
X022685Y016213D01*
X022685Y016214D01*
X022674Y016282D01*
X022653Y016347D01*
X022622Y016408D01*
X022582Y016463D01*
X022533Y016512D01*
X022478Y016552D01*
X022417Y016583D01*
X022352Y016604D01*
X022284Y016615D01*
X021713Y016615D01*
X021713Y016213D01*
X021713Y016243D02*
X021647Y016243D01*
X021647Y016342D02*
X021713Y016342D01*
X021713Y016440D02*
X021647Y016440D01*
X021647Y016539D02*
X021713Y016539D01*
X021593Y016745D02*
X022337Y016745D01*
X022496Y016811D01*
X022619Y016934D01*
X022685Y017093D01*
X022685Y017267D01*
X022619Y017426D01*
X022496Y017549D01*
X022337Y017615D01*
X021593Y017615D01*
X021434Y017549D01*
X021311Y017426D01*
X021245Y017267D01*
X021245Y017093D01*
X021311Y016934D01*
X021434Y016811D01*
X021593Y016745D01*
X021411Y016834D02*
X018949Y016834D01*
X019048Y016933D02*
X021312Y016933D01*
X021271Y017031D02*
X019089Y017031D01*
X019115Y017130D02*
X021245Y017130D01*
X021245Y017228D02*
X019115Y017228D01*
X019090Y017327D02*
X021270Y017327D01*
X021311Y017425D02*
X019049Y017425D01*
X018952Y017524D02*
X021408Y017524D01*
X022522Y017524D02*
X022908Y017524D01*
X023000Y017615D02*
X022745Y017360D01*
X022745Y017000D01*
X023000Y016745D01*
X023360Y016745D01*
X023615Y017000D01*
X023615Y017360D01*
X023360Y017615D01*
X023000Y017615D01*
X022810Y017425D02*
X022619Y017425D01*
X022660Y017327D02*
X022745Y017327D01*
X022745Y017228D02*
X022685Y017228D01*
X022685Y017130D02*
X022745Y017130D01*
X022745Y017031D02*
X022659Y017031D01*
X022618Y016933D02*
X022812Y016933D01*
X022911Y016834D02*
X022519Y016834D01*
X022497Y016539D02*
X024168Y016539D01*
X024209Y016440D02*
X022599Y016440D01*
X022655Y016342D02*
X024276Y016342D01*
X024375Y016243D02*
X022680Y016243D01*
X022685Y016145D02*
X033980Y016145D01*
X033980Y016243D02*
X024970Y016243D01*
X025069Y016342D02*
X033980Y016342D01*
X033980Y016440D02*
X025135Y016440D01*
X025176Y016539D02*
X033980Y016539D01*
X033980Y016637D02*
X025192Y016637D01*
X025192Y016736D02*
X033980Y016736D01*
X033980Y016834D02*
X025172Y016834D01*
X025131Y016933D02*
X033897Y016933D01*
X033836Y017031D02*
X025057Y017031D01*
X024948Y017130D02*
X033805Y017130D01*
X033805Y017228D02*
X024938Y017228D01*
X025054Y017327D02*
X033835Y017327D01*
X033895Y017425D02*
X025129Y017425D01*
X025170Y017524D02*
X034029Y017524D01*
X033980Y016046D02*
X022664Y016046D01*
X022619Y015948D02*
X033980Y015948D01*
X033980Y015849D02*
X022534Y015849D01*
X022319Y015751D02*
X033980Y015751D01*
X035958Y016243D02*
X038403Y016243D01*
X038305Y016342D02*
X037457Y016342D01*
X037360Y016245D02*
X037615Y016500D01*
X037615Y016860D01*
X037360Y017115D01*
X037000Y017115D01*
X036745Y016860D01*
X036745Y016500D01*
X037000Y016245D01*
X037360Y016245D01*
X037555Y016440D02*
X038206Y016440D01*
X038183Y016539D02*
X037615Y016539D01*
X037615Y016637D02*
X038183Y016637D01*
X038183Y016736D02*
X037615Y016736D01*
X037615Y016834D02*
X038183Y016834D01*
X038238Y016933D02*
X037543Y016933D01*
X037444Y017031D02*
X038336Y017031D01*
X038435Y017130D02*
X035949Y017130D01*
X035914Y017228D02*
X038418Y017228D01*
X038320Y017327D02*
X036042Y017327D01*
X036116Y017425D02*
X038221Y017425D01*
X038183Y017524D02*
X036159Y017524D01*
X036181Y017622D02*
X038183Y017622D01*
X036916Y017031D02*
X036053Y017031D01*
X036124Y016933D02*
X036817Y016933D01*
X036745Y016834D02*
X036165Y016834D01*
X036184Y016736D02*
X036745Y016736D01*
X036745Y016637D02*
X036184Y016637D01*
X036167Y016539D02*
X036745Y016539D01*
X036805Y016440D02*
X036126Y016440D01*
X036057Y016342D02*
X036903Y016342D01*
X024406Y017228D02*
X023615Y017228D01*
X023615Y017130D02*
X024397Y017130D01*
X024287Y017031D02*
X023615Y017031D01*
X023548Y016933D02*
X024214Y016933D01*
X024173Y016834D02*
X023449Y016834D01*
X023615Y017327D02*
X024291Y017327D01*
X024215Y017425D02*
X023550Y017425D01*
X023452Y017524D02*
X024175Y017524D01*
X024152Y017622D02*
X017487Y017622D01*
X017586Y017524D02*
X017838Y017524D01*
X017741Y017425D02*
X017652Y017425D01*
X017693Y017327D02*
X017700Y017327D01*
X017692Y017031D02*
X017701Y017031D01*
X017742Y016933D02*
X017651Y016933D01*
X017584Y016834D02*
X017841Y016834D01*
X018937Y016539D02*
X021433Y016539D01*
X021331Y016440D02*
X019035Y016440D01*
X019084Y016342D02*
X021275Y016342D01*
X021250Y016243D02*
X019115Y016243D01*
X019115Y016145D02*
X021245Y016145D01*
X021266Y016046D02*
X019095Y016046D01*
X019055Y015948D02*
X021311Y015948D01*
X021396Y015849D02*
X018964Y015849D01*
X017770Y015455D02*
X000930Y015455D01*
X000930Y015357D02*
X017712Y015357D01*
X017675Y015258D02*
X000930Y015258D01*
X000930Y015160D02*
X017675Y015160D01*
X017688Y015061D02*
X000930Y015061D01*
X000930Y014963D02*
X017729Y014963D01*
X017811Y014864D02*
X000930Y014864D01*
X000930Y014766D02*
X017974Y014766D01*
X015370Y013485D02*
X000930Y013485D01*
X000930Y013387D02*
X015271Y013387D01*
X015245Y013288D02*
X000930Y013288D01*
X000930Y013190D02*
X015245Y013190D01*
X015245Y013091D02*
X000930Y013091D01*
X000930Y012993D02*
X015252Y012993D01*
X015351Y012894D02*
X000930Y012894D01*
X000930Y012796D02*
X015449Y012796D01*
X012856Y012106D02*
X000930Y012106D01*
X000930Y012008D02*
X012758Y012008D01*
X012701Y011909D02*
X000930Y011909D01*
X000930Y011811D02*
X012660Y011811D01*
X012650Y011712D02*
X000930Y011712D01*
X000930Y011614D02*
X012650Y011614D01*
X012675Y011515D02*
X000930Y011515D01*
X000930Y011417D02*
X012715Y011417D01*
X012792Y011318D02*
X000930Y011318D01*
X000930Y011220D02*
X012907Y011220D01*
X009245Y009348D02*
X000930Y009348D01*
X000930Y009250D02*
X009245Y009250D01*
X009245Y009053D02*
X003069Y009053D01*
X003257Y008954D02*
X009291Y008954D01*
X009389Y008856D02*
X003355Y008856D01*
X003454Y008757D02*
X009488Y008757D01*
X007052Y010727D02*
X022485Y010727D01*
X022247Y010826D02*
X006820Y010826D01*
X004308Y010727D02*
X000930Y010727D01*
X000930Y010629D02*
X004209Y010629D01*
X004111Y010530D02*
X000930Y010530D01*
X000930Y010432D02*
X004030Y010432D01*
X004030Y010333D02*
X000930Y010333D01*
X000930Y010235D02*
X004030Y010235D01*
X002464Y013781D02*
X000930Y013781D01*
X000930Y013879D02*
X002366Y013879D01*
X002267Y013978D02*
X000930Y013978D01*
X000930Y014076D02*
X002245Y014076D01*
X000930Y017524D02*
X016774Y017524D01*
X016873Y017622D02*
X000930Y017622D01*
X002630Y026290D02*
X002730Y026290D01*
X002730Y026389D02*
X002630Y026389D01*
X002630Y026487D02*
X002730Y026487D01*
X002730Y026586D02*
X002630Y026586D01*
X002630Y026684D02*
X002730Y026684D01*
X002730Y026980D02*
X004030Y026980D01*
X004038Y027078D02*
X003330Y027078D01*
X003330Y027177D02*
X004079Y027177D01*
X004119Y027275D02*
X003254Y027275D01*
X003156Y027374D02*
X004204Y027374D01*
X004303Y027472D02*
X003057Y027472D01*
X002959Y027571D02*
X004528Y027571D01*
X005130Y028753D02*
X005230Y028753D01*
X005230Y028851D02*
X005130Y028851D01*
X005130Y028950D02*
X005230Y028950D01*
X005230Y029048D02*
X005130Y029048D01*
X005130Y029344D02*
X005230Y029344D01*
X005230Y029442D02*
X005130Y029442D01*
X005130Y029541D02*
X005230Y029541D01*
X005945Y031609D02*
X008832Y031609D01*
X008733Y031708D02*
X006028Y031708D01*
X006068Y031806D02*
X008635Y031806D01*
X008536Y031905D02*
X006079Y031905D01*
X006079Y032003D02*
X008530Y032003D01*
X008530Y032102D02*
X006079Y032102D01*
X009130Y032102D02*
X009230Y032102D01*
X009230Y032003D02*
X009130Y032003D01*
X009130Y031905D02*
X009230Y031905D01*
X009230Y031806D02*
X009130Y031806D01*
X009130Y031708D02*
X009230Y031708D01*
X009230Y031609D02*
X009130Y031609D01*
X009130Y032397D02*
X009230Y032397D01*
X009230Y032496D02*
X009130Y032496D01*
X009130Y032594D02*
X009230Y032594D01*
X009230Y032693D02*
X009130Y032693D01*
X009130Y032791D02*
X009230Y032791D01*
X002730Y027571D02*
X002630Y027571D01*
X002630Y027472D02*
X002730Y027472D01*
X002730Y027374D02*
X002630Y027374D01*
X002630Y027275D02*
X002730Y027275D01*
X002730Y027177D02*
X002630Y027177D01*
X002630Y027078D02*
X002730Y027078D01*
X002630Y026980D02*
X000930Y026980D01*
X000930Y027078D02*
X002030Y027078D01*
X002030Y027177D02*
X000930Y027177D01*
X000930Y027275D02*
X002106Y027275D01*
X002204Y027374D02*
X000930Y027374D01*
X000930Y027472D02*
X002303Y027472D01*
X002401Y027571D02*
X000930Y027571D01*
X013628Y007378D02*
X016815Y007378D01*
X016805Y007280D02*
X013529Y007280D01*
X010833Y005116D02*
X010616Y005333D01*
X010333Y005450D01*
X010027Y005450D01*
X009744Y005333D01*
X009527Y005116D01*
X009410Y004833D01*
X009410Y004527D01*
X009527Y004244D01*
X009744Y004027D01*
X010027Y003910D01*
X010333Y003910D01*
X010616Y004027D01*
X010833Y004244D01*
X010950Y004527D01*
X010950Y004833D01*
X010833Y005116D01*
X010834Y005113D02*
X021460Y005113D01*
X021460Y005211D02*
X010738Y005211D01*
X010639Y005310D02*
X021460Y005310D01*
X021487Y005408D02*
X010435Y005408D01*
X009925Y005408D02*
X007541Y005408D01*
X007499Y005450D02*
X006861Y005450D01*
X006410Y004999D01*
X006410Y004361D01*
X006861Y003910D01*
X007499Y003910D01*
X007950Y004361D01*
X007950Y004999D01*
X007499Y005450D01*
X007639Y005310D02*
X009721Y005310D01*
X009622Y005211D02*
X007738Y005211D01*
X007836Y005113D02*
X009526Y005113D01*
X009485Y005014D02*
X007935Y005014D01*
X007950Y004916D02*
X009444Y004916D01*
X009410Y004817D02*
X007950Y004817D01*
X007950Y004719D02*
X009410Y004719D01*
X009410Y004620D02*
X007950Y004620D01*
X007950Y004522D02*
X009412Y004522D01*
X009453Y004423D02*
X007950Y004423D01*
X007913Y004325D02*
X009494Y004325D01*
X009545Y004226D02*
X007815Y004226D01*
X007716Y004128D02*
X009644Y004128D01*
X009742Y004029D02*
X007618Y004029D01*
X007519Y003931D02*
X009977Y003931D01*
X010383Y003931D02*
X020746Y003931D01*
X020710Y003832D02*
X000930Y003832D01*
X000930Y003734D02*
X020710Y003734D01*
X020710Y003635D02*
X000930Y003635D01*
X000930Y003537D02*
X020710Y003537D01*
X020710Y003438D02*
X000930Y003438D01*
X000930Y003340D02*
X020710Y003340D01*
X020710Y003241D02*
X003330Y003241D01*
X003230Y003241D02*
X003130Y003241D01*
X003130Y003143D02*
X003230Y003143D01*
X003230Y003044D02*
X003130Y003044D01*
X003130Y002946D02*
X003230Y002946D01*
X003230Y002650D02*
X003130Y002650D01*
X003130Y002552D02*
X003230Y002552D01*
X003230Y002453D02*
X003130Y002453D01*
X003130Y002355D02*
X003230Y002355D01*
X003230Y002256D02*
X003130Y002256D01*
X003489Y002256D02*
X012862Y002256D01*
X012761Y002355D02*
X003600Y002355D01*
X003666Y002453D02*
X012701Y002453D01*
X012664Y002552D02*
X003706Y002552D01*
X003727Y002650D02*
X013130Y002650D01*
X013130Y002552D02*
X013230Y002552D01*
X013230Y002453D02*
X013130Y002453D01*
X013130Y002355D02*
X013230Y002355D01*
X013230Y002256D02*
X013130Y002256D01*
X013706Y002749D02*
X020877Y002749D01*
X020780Y002847D02*
X013683Y002847D01*
X013640Y002946D02*
X020739Y002946D01*
X020710Y003044D02*
X013566Y003044D01*
X013440Y003143D02*
X020710Y003143D01*
X021483Y002749D02*
X022378Y002749D01*
X022290Y002847D02*
X021580Y002847D01*
X021621Y002946D02*
X022239Y002946D01*
X022215Y003044D02*
X021650Y003044D01*
X021650Y003143D02*
X022210Y003143D01*
X022210Y003241D02*
X021650Y003241D01*
X021650Y003340D02*
X022210Y003340D01*
X022210Y003537D02*
X021650Y003537D01*
X021650Y003635D02*
X022210Y003635D01*
X022210Y003734D02*
X021650Y003734D01*
X021650Y003832D02*
X022217Y003832D01*
X022244Y003931D02*
X021614Y003931D01*
X021566Y004029D02*
X022302Y004029D01*
X022400Y004128D02*
X021467Y004128D01*
X021649Y004226D02*
X010815Y004226D01*
X010866Y004325D02*
X021551Y004325D01*
X021499Y004423D02*
X010907Y004423D01*
X010948Y004522D02*
X021460Y004522D01*
X021460Y004620D02*
X010950Y004620D01*
X010950Y004719D02*
X021460Y004719D01*
X021460Y004817D02*
X010950Y004817D01*
X010916Y004916D02*
X021460Y004916D01*
X021460Y005014D02*
X010875Y005014D01*
X010716Y004128D02*
X020893Y004128D01*
X020794Y004029D02*
X010618Y004029D01*
X006841Y003931D02*
X000930Y003931D01*
X000930Y004029D02*
X006742Y004029D01*
X006644Y004128D02*
X000930Y004128D01*
X000930Y004226D02*
X002630Y004226D01*
X002630Y004218D02*
X002718Y004130D01*
X003642Y004130D01*
X003730Y004218D01*
X003730Y005142D01*
X003642Y005230D01*
X002718Y005230D01*
X002630Y005142D01*
X002630Y004218D01*
X002630Y004325D02*
X000930Y004325D01*
X000930Y004423D02*
X002630Y004423D01*
X002630Y004522D02*
X000930Y004522D01*
X000930Y004620D02*
X002630Y004620D01*
X002630Y004719D02*
X000930Y004719D01*
X000930Y004817D02*
X002630Y004817D01*
X002630Y004916D02*
X000930Y004916D01*
X000930Y005014D02*
X002630Y005014D01*
X002630Y005113D02*
X000930Y005113D01*
X000930Y005211D02*
X002699Y005211D01*
X003661Y005211D02*
X006622Y005211D01*
X006524Y005113D02*
X003730Y005113D01*
X003730Y005014D02*
X006425Y005014D01*
X006410Y004916D02*
X003730Y004916D01*
X003730Y004817D02*
X006410Y004817D01*
X006410Y004719D02*
X003730Y004719D01*
X003730Y004620D02*
X006410Y004620D01*
X006410Y004522D02*
X003730Y004522D01*
X003730Y004423D02*
X006410Y004423D01*
X006447Y004325D02*
X003730Y004325D01*
X003730Y004226D02*
X006545Y004226D01*
X006721Y005310D02*
X000930Y005310D01*
X000930Y005408D02*
X006819Y005408D01*
X003030Y003241D02*
X000930Y003241D01*
X000930Y003143D02*
X002838Y003143D01*
X002742Y003044D02*
X000930Y003044D01*
X000930Y002946D02*
X002682Y002946D01*
X000930Y005507D02*
X021528Y005507D01*
X021620Y005605D02*
X000930Y005605D01*
X021650Y003438D02*
X022630Y003438D01*
X022630Y003340D02*
X022730Y003340D01*
X022730Y003438D02*
X023710Y003438D01*
X023149Y004226D02*
X022211Y004226D01*
X022309Y004325D02*
X023051Y004325D01*
X022999Y004423D02*
X022361Y004423D01*
X022400Y004522D02*
X022960Y004522D01*
X022960Y004620D02*
X022400Y004620D01*
X022400Y004719D02*
X022960Y004719D01*
X022960Y004817D02*
X022400Y004817D01*
X022400Y004916D02*
X022960Y004916D01*
X022960Y005014D02*
X022400Y005014D01*
X022400Y005113D02*
X022960Y005113D01*
X022960Y005211D02*
X022400Y005211D01*
X022400Y005310D02*
X022960Y005310D01*
X022987Y005408D02*
X022373Y005408D01*
X022332Y005507D02*
X023028Y005507D01*
X023120Y005605D02*
X022240Y005605D01*
X022630Y004128D02*
X022730Y004128D01*
X022730Y004029D02*
X022630Y004029D01*
X022630Y003931D02*
X022730Y003931D01*
X022730Y003832D02*
X022630Y003832D01*
X022630Y003734D02*
X022730Y003734D01*
X022730Y003635D02*
X022630Y003635D01*
X022630Y003537D02*
X022730Y003537D01*
X022730Y003241D02*
X022630Y003241D01*
X022630Y003143D02*
X022730Y003143D01*
X022730Y003044D02*
X022630Y003044D01*
X022630Y002946D02*
X022730Y002946D01*
X022730Y002847D02*
X022630Y002847D01*
X022630Y002749D02*
X022730Y002749D01*
X036124Y029935D02*
X036810Y029935D01*
X036745Y030033D02*
X036051Y030033D01*
X035944Y030132D02*
X036745Y030132D01*
X036745Y030230D02*
X035926Y030230D01*
X036044Y030329D02*
X036745Y030329D01*
X036812Y030427D02*
X036121Y030427D01*
X054439Y035254D02*
X055922Y035254D01*
X055922Y035352D02*
X054677Y035352D01*
X054801Y035451D02*
X055922Y035451D01*
X055922Y035549D02*
X054900Y035549D01*
X054993Y035648D02*
X055922Y035648D01*
X055922Y035746D02*
X055034Y035746D01*
X055075Y035845D02*
X055922Y035845D01*
X055922Y035943D02*
X055116Y035943D01*
X055135Y036042D02*
X055922Y036042D01*
X055922Y036140D02*
X055135Y036140D01*
X055135Y036239D02*
X055922Y036239D01*
X055922Y036337D02*
X055135Y036337D01*
X055108Y036436D02*
X055922Y036436D01*
X055922Y036534D02*
X055067Y036534D01*
X055026Y036633D02*
X055922Y036633D01*
X055922Y036731D02*
X054979Y036731D01*
X054881Y036830D02*
X055922Y036830D01*
X055922Y036928D02*
X054782Y036928D01*
X054632Y037027D02*
X055922Y037027D01*
X055922Y037125D02*
X054394Y037125D01*
D30*
X051180Y018680D03*
X050680Y017680D03*
X050180Y016680D03*
X034180Y017180D03*
X034180Y014180D03*
M02*
